<svg width="40" height="40" viewBox="0 0 40 40" fill="none" xmlns="http://www.w3.org/2000/svg">
<g id="fi:file-text">
<path id="Vector" d="M23.3337 3.33333H10.0003C9.11627 3.33333 8.26842 3.68452 7.6433 4.30964C7.01818 4.93477 6.66699 5.78261 6.66699 6.66667V33.3333C6.66699 34.2174 7.01818 35.0652 7.6433 35.6904C8.26842 36.3155 9.11627 36.6667 10.0003 36.6667H30.0003C30.8844 36.6667 31.7322 36.3155 32.3573 35.6904C32.9825 35.0652 33.3337 34.2174 33.3337 33.3333V13.3333L23.3337 3.33333Z" stroke="black" stroke-width="3" stroke-linecap="round" stroke-linejoin="round"/>
<path id="Vector_2" d="M26.6663 28.3333H13.333" stroke="black" stroke-width="3" stroke-linecap="round" stroke-linejoin="round"/>
<path id="Vector_3" d="M26.6663 21.6667H13.333" stroke="black" stroke-width="3" stroke-linecap="round" stroke-linejoin="round"/>
<path id="Vector_4" d="M16.6663 15H14.9997H13.333" stroke="black" stroke-width="3" stroke-linecap="round" stroke-linejoin="round"/>
<path id="Vector_5" d="M23.333 3.33333V13.3333H33.333" stroke="black" stroke-width="3" stroke-linecap="round" stroke-linejoin="round"/>
</g>
</svg>
