<svg width="101" height="100" viewBox="0 0 101 100" fill="none" xmlns="http://www.w3.org/2000/svg">
<circle cx="50.5" cy="50" r="50" fill="#F7F4F4"/>
<path d="M62.4787 43.0226L62.4186 43.16C63.7556 43.745 64.8506 44.7723 65.5196 46.0693C66.1887 47.3663 66.3911 48.854 66.0929 50.2826C65.7947 51.7112 65.014 52.9936 63.8819 53.9146C62.7498 54.8356 61.3353 55.339 59.8759 55.3403H59.7111C59.6052 54.7218 59.3352 54.1422 58.9282 53.6626C58.5169 53.1778 57.9821 52.8144 57.3814 52.6104V47.4723C57.3814 46.6423 57.2179 45.8203 56.9002 45.0534C56.5826 44.2865 56.117 43.5897 55.53 43.0028C54.9431 42.4158 54.2463 41.9502 53.4794 41.6326C52.7125 41.3149 51.8906 41.1514 51.0605 41.1514C50.2304 41.1514 49.4085 41.3149 48.6416 41.6326C47.8747 41.9502 47.1779 42.4158 46.5909 43.0028C46.004 43.5897 45.5384 44.2865 45.2207 45.0534C44.9031 45.8203 44.7396 46.6423 44.7396 47.4723V52.6104C44.1389 52.8144 43.6041 53.1778 43.1927 53.6626C42.7858 54.1422 42.5158 54.7218 42.4099 55.3403L41.5313 55.3403L41.5295 55.3403C40.2239 55.356 38.9539 54.915 37.9389 54.0937C36.9239 53.2723 36.2278 52.1222 35.9708 50.8421C35.7138 49.5619 35.9121 48.2322 36.5314 47.0828C37.1507 45.9333 38.1522 45.0364 39.3626 44.5469L39.3627 44.547L39.3665 44.5453C39.4884 44.492 39.5982 44.4146 39.6894 44.3179C39.7807 44.2212 39.8516 44.1071 39.8977 43.9824C39.9439 43.8577 39.9645 43.725 39.9582 43.5922C39.952 43.4598 39.9193 43.33 39.8619 43.2106C39.5866 42.6129 39.4481 41.9613 39.4564 41.3033L39.4564 41.3029C39.4641 40.5144 39.6804 39.742 40.0833 39.0641C40.4861 38.3862 41.0613 37.827 41.7502 37.4434C42.4391 37.0597 43.2173 36.8652 44.0058 36.8797C44.7942 36.8942 45.5647 37.117 46.2391 37.5257M62.4787 43.0226L62.4192 43.1603C62.2292 43.0781 62.0697 42.9385 61.9632 42.761C61.8578 42.5853 61.8095 42.3813 61.825 42.1771V42.0571V42.0563V42.0556V42.0548V42.0541V42.0533V42.0526V42.0519V42.0511V42.0504V42.0496V42.0489V42.0481V42.0474V42.0466V42.0459V42.0451V42.0444V42.0436V42.0429V42.0421V42.0413V42.0406V42.0398V42.0391V42.0383V42.0376V42.0368V42.036V42.0353V42.0345V42.0337V42.033V42.0322V42.0314V42.0307V42.0299V42.0291V42.0284V42.0276V42.0268V42.026V42.0253V42.0245V42.0237V42.0229V42.0222V42.0214V42.0206V42.0198V42.019V42.0183V42.0175V42.0167V42.0159V42.0151V42.0143V42.0135V42.0128V42.012V42.0112V42.0104V42.0096V42.0088V42.008V42.0072V42.0064V42.0056V42.0048V42.0041V42.0033V42.0025V42.0017V42.0009V42.0001V41.9993V41.9985V41.9977V41.9969V41.9961V41.9953V41.9945V41.9937V41.9929V41.992V41.9912V41.9904V41.9896V41.9888V41.988V41.9872V41.9864V41.9856V41.9848V41.984V41.9831V41.9823V41.9815V41.9807V41.9799V41.9791V41.9783V41.9774V41.9766V41.9758V41.975V41.9742V41.9734V41.9725V41.9717V41.9709V41.9701V41.9693V41.9684V41.9676V41.9668V41.966V41.9651V41.9643V41.9635V41.9627V41.9618V41.961V41.9602V41.9594V41.9585V41.9577V41.9569V41.956V41.9552V41.9544V41.9535V41.9527V41.9519V41.951V41.9502V41.9494V41.9485V41.9477V41.9469V41.946V41.9452V41.9444V41.9435V41.9427V41.9419V41.941V41.9402V41.9393V41.9385V41.9377V41.9368V41.936V41.9351V41.9343V41.9335V41.9326V41.9318V41.9309V41.9301V41.9292V41.9284V41.9276V41.9267V41.9259V41.925V41.9242V41.9233V41.9225V41.9216V41.9208V41.9199V41.9191V41.9183V41.9174V41.9166V41.9157V41.9149V41.914V41.9132V41.9123V41.9115V41.9106V41.9098V41.9089V41.9081V41.9072V41.9064V41.9055V41.9046V41.9038V41.9029V41.9021V41.9012V41.9004V41.8995V41.8987V41.8978V41.897V41.8961V41.8953V41.8944V41.8935V41.8927V41.8918V41.891V41.8901V41.8893V41.8884V41.8876V41.8867V41.8858V41.885V41.8841V41.8833V41.8824V41.8816V41.8807V41.8798V41.879V41.8781V41.8773V41.8764V41.8755V41.8747V41.8738V41.873V41.8721V41.8712V41.8704V41.8695V41.8687V41.8678V41.8669V41.8661V41.8652V41.8644V41.8635V41.8626V41.8618V41.8609V41.8601V41.8592V41.8583V41.8575V41.8566V41.8558V41.8549V41.854V41.8532V41.8523V41.8515V41.8506V41.8497V41.8489V41.848V41.8472V41.8463V41.8454V41.8446V41.8437V41.8429V41.842V41.8411V41.8403V41.8394V41.8385V41.8377V41.8368V41.836V41.8351V41.8342V41.8334V41.8325V41.8317V41.8308V41.8299V41.8291V41.8282V41.8274V41.8265V41.8256V41.8248V41.8239V41.8231V41.8222V41.8213V41.8205V41.8196V41.8188V41.8179V41.8171V41.8162V41.8153V41.8145V41.8136V41.8128V41.8119V41.811V41.8102V41.8093V41.8085V41.8076V41.8068V41.8059V41.805V41.8042V41.8033V41.8025V41.8016V41.8008V41.7999V41.7991V41.7982V41.7973V41.7965V41.7956V41.7948V41.7939V41.7931V41.7922V41.7914V41.7905V41.7897V41.7888V41.788V41.7871V41.7863V41.7854V41.7846V41.7837V41.7829V41.782V41.7812V41.7803V41.7795V41.7786V41.7778V41.7769V41.7761V41.7752V41.7744V41.7735V41.7727V41.7718V41.771V41.7701V41.7693V41.7684V41.7676V41.7668V41.7659V41.7651V41.7642V41.7634V41.7625V41.7617V41.7608V41.76V41.7592V41.7583V41.7575V41.7566V41.7558V41.755V41.7541V41.7533V41.7525V41.7516V41.7508V41.7499V41.7491V41.7483V41.7474V41.7466V41.7458V41.7449V41.7441V41.7433V41.7424V41.7416V41.7408V41.7399V41.7391V41.7383V41.7374V41.7366V41.7358V41.735V41.7341V41.7333V41.7325V41.7316V41.7308V41.73V41.7292V41.7283V41.7275V41.7267V41.7259V41.7251V41.7242V41.7234V41.7226V41.7218V41.721V41.7201V41.7193V41.7185V41.7177V41.7169V41.716V41.7152V41.7144V41.7136V41.7128V41.712V41.7112V41.7104V41.7095V41.7087V41.7079V41.7071V41.7063V41.7055V41.7047V41.7039V41.7031V41.7023V41.7015V41.7007V41.6999V41.699V41.6982V41.6974V41.6966V41.6958V41.695V41.6942V41.6934V41.6926V41.6919V41.6911V41.6903V41.6895V41.6887V41.6879V41.6871V41.6863V41.6855V41.6847V41.6839V41.6831V41.6823V41.6816V41.6808V41.68V41.6792V41.6784V41.6776V41.6768V41.6761V41.6753V41.6745V41.6737V41.6729V41.6722V41.6714V41.6706V41.6698V41.6691V41.6683V41.6675V41.6667V41.666V41.6652V41.6644V41.6636V41.6629V41.6621V41.6613V41.6606V41.6598V41.659V41.6583V41.6575V41.6568V41.656V41.6552V41.6545V41.6537V41.653V41.6522V41.6515V41.6507V41.6499V41.6492V41.6484V41.6477V41.6469V41.6462V41.6454V41.6447V41.6439V41.6432V41.6425V41.6417V41.641V41.6402V41.6395V41.6387V41.638V41.6379C61.8122 39.9766 61.271 38.3625 60.2799 37.0293C59.2886 35.6959 57.8987 34.7125 56.3114 34.2217C54.7241 33.7308 53.0217 33.7578 51.4508 34.2989C49.8803 34.8398 48.5226 35.8664 47.5742 37.23C47.4327 37.4414 47.2151 37.5902 46.9667 37.6454C46.7178 37.7007 46.4572 37.6578 46.2391 37.5257M62.4787 43.0226C62.3175 42.9529 62.1822 42.8344 62.0918 42.6838C62.0014 42.5332 61.9606 42.358 61.975 42.183L59.8761 55.4903C61.3699 55.489 62.8178 54.9737 63.9766 54.031C65.1353 53.0883 65.9345 51.7755 66.2397 50.3132C66.545 48.8509 66.3378 47.3281 65.6529 46.0005C64.9681 44.6729 63.8473 43.6214 62.4787 43.0226ZM46.2391 37.5257L46.3169 37.3974M46.2391 37.5257C46.2391 37.5257 46.2391 37.5257 46.2391 37.5257L46.3169 37.3974M46.3169 37.3974C46.5019 37.5095 46.723 37.5459 46.9341 37.499C47.1453 37.452 47.3302 37.3254 47.4503 37.1455C48.4169 35.7552 49.8009 34.7085 51.4019 34.1571C53.003 33.6056 54.7379 33.5781 56.3557 34.0784C57.9734 34.5786 59.39 35.5808 60.4003 36.9398C61.4105 38.2987 61.962 39.944 61.975 41.6373L46.3169 37.3974ZM41.5323 57.3194H42.3888V64.6417C42.3888 65.5722 42.7584 66.4645 43.4163 67.1224C44.0743 67.7804 44.9666 68.15 45.8971 68.15H56.2659C56.7266 68.15 57.1828 68.0593 57.6084 67.8829C58.0341 67.7066 58.4208 67.4482 58.7466 67.1224C59.0724 66.7967 59.3308 66.4099 59.5071 65.9843C59.6834 65.5586 59.7742 65.1024 59.7742 64.6417V57.3194H59.8761C61.7425 57.3197 63.5551 56.6934 65.0234 55.5411C66.4917 54.3887 67.5308 52.7769 67.9742 50.9639C68.4176 49.1508 68.2397 47.2414 67.469 45.5414C66.7108 43.8692 65.4222 42.4949 63.8041 41.6307C63.7991 39.6062 63.1675 37.6328 61.9959 35.9815C60.8232 34.3285 59.167 33.0796 57.2553 32.4065C55.3436 31.7334 53.2702 31.6693 51.3206 32.2229C49.4075 32.7662 47.7057 33.878 46.4402 35.4098C45.3386 34.9472 44.1294 34.7996 42.9476 34.9845C41.728 35.1753 40.5888 35.7122 39.6655 36.5315C38.7421 37.3507 38.0734 38.4179 37.7387 39.606C37.4151 40.7549 37.4171 41.9703 37.743 43.1168C36.2969 43.9219 35.153 45.1789 34.4876 46.6968C33.8059 48.2521 33.6662 49.9912 34.0908 51.6353C34.5154 53.2795 35.4798 54.7335 36.8293 55.7641C38.1786 56.7946 39.8347 57.3423 41.5323 57.3194ZM57.795 64.6417C57.795 65.0472 57.6339 65.4362 57.3471 65.723C57.0604 66.0097 56.6714 66.1708 56.2659 66.1708H45.8551C45.4496 66.1708 45.0606 66.0097 44.7738 65.723C44.4871 65.4362 44.326 65.0472 44.326 64.6417V55.9101C44.326 55.5045 44.4871 55.1156 44.7738 54.8288C45.0606 54.542 45.4495 54.3809 45.8551 54.3809H56.2659C56.4667 54.3809 56.6655 54.4205 56.8511 54.4973C57.0366 54.5742 57.2051 54.6868 57.3471 54.8288C57.4891 54.9708 57.6018 55.1394 57.6786 55.3249C57.7555 55.5104 57.795 55.7093 57.795 55.9101V64.6417ZM55.4022 52.4018H46.7187V47.4723C46.7187 46.3208 47.1762 45.2165 47.9904 44.4023C48.8046 43.588 49.909 43.1306 51.0605 43.1306C52.212 43.1306 53.3163 43.588 54.1306 44.4023C54.9448 45.2165 55.4022 46.3208 55.4022 47.4723V52.4018Z" fill="#65221A" stroke="#65221A" stroke-width="0.3"/>
<path d="M52.0499 59.2684V59.1184H51.8999H50.2207H50.0707V59.2684V62.5344V62.6844H50.2207H51.8999H52.0499V62.5344V59.2684Z" fill="#65221A" stroke="#65221A" stroke-width="0.3"/>
</svg>
