<svg width="101" height="100" viewBox="0 0 101 100" fill="none" xmlns="http://www.w3.org/2000/svg">
<circle cx="50.5" cy="50" r="50" fill="#F7F4F4"/>
<path d="M66.0987 31.85H36.3398C33.8598 31.85 31.85 33.8598 31.85 36.3398V56.7578C31.85 59.2378 33.8598 61.2476 36.3398 61.2476H50.6146V66.61H47.4994C47.0859 66.61 46.7294 66.9665 46.7294 67.38C46.7294 67.7935 47.0859 68.15 47.4994 68.15H55.2285C55.642 68.15 55.9984 67.7935 55.9984 67.38C55.9984 66.9665 55.642 66.61 55.2285 66.61H52.1133V61.2476H66.0987C68.5788 61.2476 70.5886 59.2378 70.5886 56.7578V36.3398C70.5886 33.8598 68.5788 31.85 66.0987 31.85ZM33.39 55.9878V37.1098H69.0486V55.9878H33.39ZM36.3398 33.39H66.0987C67.4505 33.39 68.6239 34.323 68.9671 35.5699H33.5075C33.8142 34.3249 34.9859 33.39 36.3398 33.39ZM66.0987 59.7076H36.3398C34.9881 59.7076 33.8147 58.7746 33.4715 57.5277H68.9311C68.6244 58.7726 67.4526 59.7076 66.0987 59.7076Z" fill="#65221A" stroke="#65221A" stroke-width="0.3"/>
<path d="M63.5884 46.1923L63.5882 46.1918C61.207 41.4712 56.485 38.5457 51.22 38.5457C45.9551 38.5457 41.2331 41.4712 38.8519 46.1918L38.8517 46.1923C38.7479 46.3999 38.7479 46.6562 38.8517 46.8638L38.8519 46.8643C41.2331 51.5849 45.9551 54.5104 51.22 54.5104C56.485 54.5104 61.207 51.5849 63.5882 46.8643L63.5884 46.8638C63.6922 46.6562 63.6922 46.3999 63.5884 46.1923ZM51.22 52.9705C46.6736 52.9705 42.5713 50.5094 40.3964 46.5484C42.5708 42.548 46.6727 40.127 51.22 40.127C55.7663 40.127 59.8686 42.5879 62.0435 46.5487C59.8686 50.5095 55.7663 52.9705 51.22 52.9705Z" fill="#65221A" stroke="#65221A" stroke-width="0.3"/>
<path d="M51.2193 43.2576C49.4006 43.2576 47.9281 44.73 47.9281 46.5488C47.9281 46.9623 48.2846 47.3188 48.6981 47.3188C49.1116 47.3188 49.4681 46.9623 49.4681 46.5488C49.4681 45.5984 50.2689 44.7975 51.2193 44.7975C51.6328 44.7975 51.9893 44.4411 51.9893 44.0276C51.9893 43.6141 51.6328 43.2576 51.2193 43.2576Z" fill="#65221A" stroke="#65221A" stroke-width="0.3"/>
<path d="M51.2194 40.6537C47.9954 40.6537 45.3656 43.2834 45.3656 46.5075C45.3656 49.7301 47.9939 52.4026 51.2194 52.4026C54.4435 52.4026 57.0732 49.7729 57.0732 46.5488C57.0732 43.3262 54.4449 40.6537 51.2194 40.6537ZM51.2194 50.8627C48.8233 50.8627 46.9056 48.9055 46.9056 46.5488C46.9056 44.1904 48.825 42.1937 51.2194 42.1937C53.6156 42.1937 55.5332 44.1509 55.5332 46.5075C55.5332 48.8659 53.6138 50.8627 51.2194 50.8627Z" fill="#65221A" stroke="#65221A" stroke-width="0.3"/>
</svg>
