<svg width="101" height="100" viewBox="0 0 101 100" fill="none" xmlns="http://www.w3.org/2000/svg">
<circle cx="50.5" cy="50" r="50" fill="#F7F4F4"/>
<path d="M66.4002 37.8125V37.8123C66.3993 37.027 66.0869 36.274 65.5315 35.7186C64.9762 35.1633 64.2232 34.8509 63.4378 34.85H63.4376L35.3125 34.85L35.3123 34.85C34.527 34.8509 33.774 35.1633 33.2186 35.7186C32.6633 36.274 32.3509 37.027 32.35 37.8123V37.8125L32.35 55.8126L32.35 55.8128C32.3509 56.5982 32.6633 57.3511 33.2186 57.9065C33.774 58.4618 34.527 58.7742 35.3123 58.7751H35.3125H52.9671C53.3192 59.9012 53.9154 60.9362 54.7138 61.8061C55.5374 62.7036 56.5546 63.4018 57.6882 63.8477C58.8218 64.2937 60.042 64.4757 61.2563 64.3799C62.4707 64.2842 63.6473 63.9133 64.697 63.2952C65.7467 62.6772 66.6419 61.8282 67.3148 60.8128C67.9876 59.7974 68.4205 58.6421 68.5805 57.4345C68.7405 56.2269 68.6234 54.9987 68.2383 53.8431C67.8595 52.7069 67.2314 51.6702 66.4002 50.8087V37.8125ZM33.775 39.0561L47.8769 47.3227L47.8769 47.3227C48.3314 47.5888 48.8485 47.729 49.3751 47.729C49.9017 47.729 50.4188 47.5888 50.8732 47.3227L50.8733 47.3227L64.9751 39.0561V49.635C63.7438 48.84 62.3165 48.3965 60.8478 48.3554C59.2844 48.3116 57.7422 48.7258 56.4111 49.5469C55.0799 50.3681 54.0178 51.5604 53.3553 52.9772C52.7173 54.3417 52.4768 55.8572 52.6595 57.3501H35.3127C34.905 57.3496 34.5142 57.1875 34.2259 56.8992C33.9377 56.611 33.7755 56.2202 33.775 55.8125C33.775 55.8125 33.775 55.8125 33.775 55.8124L33.775 39.0561ZM35.3127 36.275H63.4374C63.4375 36.275 63.4375 36.275 63.4375 36.275C63.7969 36.2755 64.1447 36.4016 64.4208 36.6316C64.6702 36.8393 64.847 37.1198 64.9271 37.4325L50.1527 46.0933C50.1527 46.0933 50.1526 46.0933 50.1526 46.0934C49.9168 46.2314 49.6484 46.3042 49.3751 46.3042C49.1018 46.3042 48.8334 46.2314 48.5975 46.0934C48.5975 46.0934 48.5975 46.0933 48.5975 46.0933L33.823 37.4325C33.9032 37.1198 34.0799 36.8393 34.3293 36.6316C34.6055 36.4016 34.9533 36.2755 35.3126 36.275C35.3127 36.275 35.3127 36.275 35.3127 36.275ZM60.625 62.9751C59.3197 62.9751 58.0437 62.588 56.9583 61.8628C55.873 61.1376 55.027 60.1068 54.5275 58.9008C54.028 57.6948 53.8973 56.3678 54.1519 55.0875C54.4066 53.8072 55.0352 52.6312 55.9582 51.7082C56.8812 50.7851 58.0572 50.1565 59.3375 49.9019C60.6178 49.6472 61.9449 49.7779 63.1509 50.2775C64.3568 50.777 65.3876 51.6229 66.1129 52.7083C66.838 53.7936 67.2251 55.0696 67.2252 56.3749C67.2232 58.1248 66.5272 59.8025 65.2898 61.0398C64.0525 62.2772 62.3748 62.9732 60.625 62.9751Z" fill="#65221A" stroke="#65221A" stroke-width="0.3"/>
<path d="M60.9587 55.6625H64.5626C64.7516 55.6625 64.9328 55.7376 65.0664 55.8712C65.2001 56.0048 65.2751 56.1861 65.2751 56.375C65.2751 56.564 65.2001 56.7452 65.0664 56.8788C64.9328 57.0125 64.7516 57.0875 64.5626 57.0875H60.6253H60.6251V56.9375C60.5426 56.9376 60.4611 56.9195 60.3864 56.8845C60.3117 56.8495 60.2457 56.7985 60.193 56.7351L60.9587 55.6625ZM60.9587 55.6625L58.3605 52.5446C58.3604 52.5444 58.3603 52.5443 58.3602 52.5442C58.3006 52.4719 58.2272 52.412 58.1444 52.3681C58.0614 52.3241 57.9706 52.2969 57.8771 52.2882C57.7836 52.2794 57.6893 52.2892 57.5996 52.317C57.5099 52.3448 57.4266 52.3901 57.3545 52.4502C57.2823 52.5103 57.2228 52.5841 57.1792 52.6673C57.1357 52.7505 57.109 52.8415 57.1008 52.935C57.0926 53.0286 57.1029 53.1228 57.1312 53.2123C57.1595 53.3017 57.2051 53.3847 57.2655 53.4564C57.2656 53.4565 57.2656 53.4566 57.2657 53.4567L60.0776 56.831L60.9587 55.6625Z" fill="#65221A" stroke="#65221A" stroke-width="0.3"/>
</svg>
