<svg width="70" height="71" viewBox="0 0 70 71" fill="none" xmlns="http://www.w3.org/2000/svg">
<circle cx="35" cy="35.3372" r="35" fill="white"/>
<mask id="path-2-outside-1_1449_443" maskUnits="userSpaceOnUse" x="19" y="19.3372" width="32" height="32" fill="black">
<rect fill="white" x="19" y="19.3372" width="32" height="32"/>
<path d="M50 35.3372C50 34.1767 49.1145 33.2174 47.9841 33.1033C47.6554 31.178 46.8907 29.3399 45.7603 27.7399C46.4781 26.8578 46.4278 25.553 45.606 24.7312C45.18 24.3052 44.6165 24.0738 44.0161 24.0738C43.4928 24.0738 42.9964 24.2516 42.5973 24.5769C40.9973 23.4466 39.1592 22.6852 37.2339 22.3531C37.1199 21.2227 36.1606 20.3372 35 20.3372C33.8394 20.3372 32.8801 21.2227 32.7661 22.3531C30.8408 22.6818 29.0027 23.4466 27.4027 24.5769C26.5206 23.8591 25.2158 23.9094 24.394 24.7312C23.5722 25.553 23.5219 26.8578 24.2397 27.7399C23.1093 29.3399 22.3479 31.178 22.0159 33.1033C20.8855 33.2174 20 34.1767 20 35.3372C20 36.4978 20.8855 37.4571 22.0159 37.5711C22.3446 39.4964 23.1093 41.3345 24.2397 42.9345C23.9144 43.3336 23.7366 43.8301 23.7366 44.3533C23.7366 44.9537 23.9714 45.5172 24.394 45.9432C24.8334 46.3826 25.407 46.6006 25.9839 46.6006C26.487 46.6006 26.9902 46.4329 27.4027 46.0975C29.0027 47.2279 30.8408 47.9893 32.7661 48.3213C32.8801 49.4517 33.8394 50.3372 35 50.3372C36.1606 50.3372 37.1199 49.4517 37.2339 48.3213C39.1592 47.9926 40.9973 47.2279 42.5973 46.0975C42.9964 46.4229 43.4928 46.6006 44.0161 46.6006C44.6165 46.6006 45.18 46.3658 45.606 45.9432C46.032 45.5172 46.2634 44.9537 46.2634 44.3533C46.2634 43.8301 46.0856 43.3336 45.7603 42.9345C46.8907 41.3345 47.6521 39.4964 47.9841 37.5711C49.1145 37.4571 50 36.4978 50 35.3372ZM49.1514 35.3372C49.1514 36.1087 48.5241 36.7326 47.756 36.7326C46.9846 36.7326 46.3607 36.1053 46.3607 35.3372C46.3607 34.5658 46.9879 33.9419 47.756 33.9419C48.5241 33.9419 49.1514 34.5658 49.1514 35.3372ZM44.0195 24.9224C44.3918 24.9224 44.744 25.0666 45.0056 25.3316C45.549 25.875 45.549 26.7639 45.0056 27.3073C44.7406 27.5722 44.3918 27.7165 44.0195 27.7165C43.6471 27.7165 43.2949 27.5722 43.0333 27.3073C42.7717 27.0423 42.6241 26.6934 42.6241 26.3211C42.6241 25.9488 42.7683 25.5966 43.0333 25.335C43.2949 25.0666 43.6438 24.9224 44.0195 24.9224ZM35 21.1858C35.7715 21.1858 36.3953 21.8131 36.3953 22.5812C36.3953 23.3526 35.7681 23.9765 35 23.9765C34.2285 23.9765 33.6047 23.3493 33.6047 22.5812C33.6047 21.8131 34.2285 21.1858 35 21.1858ZM24.9944 25.3316C25.2661 25.0599 25.625 24.9224 25.9805 24.9224C26.3394 24.9224 26.695 25.0599 26.9667 25.3316C27.5101 25.875 27.5101 26.7639 26.9667 27.3073C26.4233 27.8506 25.5344 27.8506 24.9911 27.3073C24.451 26.7639 24.451 25.875 24.9944 25.3316ZM20.8486 35.3372C20.8486 34.5658 21.4758 33.9419 22.244 33.9419C23.0154 33.9419 23.6393 34.5691 23.6393 35.3372C23.6393 36.1087 23.0121 36.7326 22.244 36.7326C21.4758 36.7326 20.8486 36.1087 20.8486 35.3372ZM24.9944 45.3428C24.7294 45.0778 24.5852 44.729 24.5852 44.3567C24.5852 43.9844 24.7294 43.6322 24.9944 43.3705C25.2661 43.0988 25.625 42.9613 25.9805 42.9613C26.3394 42.9613 26.695 43.0988 26.9667 43.3705C27.2317 43.6355 27.3759 43.9844 27.3759 44.3567C27.3759 44.729 27.2317 45.0812 26.9667 45.3428C26.4267 45.8862 25.5378 45.8862 24.9944 45.3428ZM35 49.4886C34.2285 49.4886 33.6047 48.8614 33.6047 48.0933C33.6047 47.3218 34.2319 46.6979 35 46.6979C35.7715 46.6979 36.3953 47.3251 36.3953 48.0933C36.3953 48.8614 35.7715 49.4886 35 49.4886ZM35 45.8426C33.977 45.8426 33.1116 46.5302 32.8432 47.4694C31.089 47.1574 29.4119 46.4631 27.9495 45.4401C28.1339 45.1114 28.2312 44.739 28.2312 44.3533C28.2312 43.7529 27.9964 43.1894 27.5738 42.7634C26.8493 42.0389 25.7525 41.9148 24.8971 42.3878C23.8741 40.922 23.1798 39.2482 22.8678 37.494C23.807 37.2256 24.4946 36.3603 24.4946 35.3372C24.4946 34.3142 23.807 33.4488 22.8678 33.1805C23.1798 31.4262 23.8741 29.7491 24.8971 28.2867C25.2359 28.4745 25.6082 28.5684 25.9839 28.5684C26.5608 28.5684 27.1344 28.3504 27.5738 27.911C28.2983 27.1865 28.4224 26.0897 27.9495 25.2344C29.4152 24.2113 31.089 23.517 32.8432 23.2051C33.1116 24.1442 33.977 24.8319 35 24.8319C36.023 24.8319 36.8884 24.1442 37.1568 23.2051C38.911 23.517 40.5881 24.2113 42.0505 25.2344C41.8661 25.5631 41.7688 25.9354 41.7688 26.3211C41.7688 26.9215 42.0036 27.485 42.4262 27.911C42.8522 28.337 43.4157 28.5684 44.0161 28.5684C44.4018 28.5684 44.7741 28.4712 45.1029 28.2867C46.1259 29.7525 46.8202 31.4262 47.1322 33.1805C46.193 33.4488 45.5054 34.3142 45.5054 35.3372C45.5054 36.3603 46.193 37.2256 47.1322 37.494C46.8202 39.2482 46.1259 40.9253 45.1029 42.3878C44.7741 42.2033 44.4018 42.106 44.0161 42.106C43.4157 42.106 42.8522 42.3408 42.4262 42.7634C42.0002 43.1894 41.7688 43.7529 41.7688 44.3533C41.7688 44.739 41.8661 45.1114 42.0505 45.4401C40.5847 46.4631 38.911 47.1574 37.1568 47.4694C36.8884 46.5336 36.023 45.8426 35 45.8426ZM45.0056 45.3428C44.7406 45.6078 44.3918 45.752 44.0195 45.752C43.6471 45.752 43.2949 45.6078 43.0333 45.3428C42.7683 45.0778 42.6241 44.729 42.6241 44.3567C42.6241 43.9844 42.7683 43.6322 43.0333 43.3705C43.2983 43.1056 43.6471 42.9613 44.0195 42.9613C44.3918 42.9613 44.744 43.1056 45.0056 43.3705C45.2706 43.6355 45.4148 43.9844 45.4148 44.3567C45.4148 44.729 45.2706 45.0778 45.0056 45.3428ZM42.6845 39.5266V31.1478C42.6845 30.9969 42.604 30.856 42.4732 30.7789L35.2113 26.5895C35.0805 26.5123 34.9161 26.5123 34.7853 26.5895L27.5302 30.7789C27.3994 30.856 27.3189 30.9935 27.3189 31.1478V39.53C27.3189 39.6809 27.3994 39.8218 27.5302 39.8989L34.7887 44.0883C34.8558 44.1252 34.9262 44.1454 35 44.1454C35.0738 44.1454 35.1476 44.1252 35.2113 44.0883L42.4698 39.8989C42.6006 39.8184 42.6845 39.6809 42.6845 39.5266ZM35 27.4481L41.4065 31.1478L39.7059 32.1306L33.2994 28.4309L35 27.4481ZM35 34.8475L28.5935 31.1478L30.6362 29.9671L37.0427 33.6668L35 34.8475ZM37.8913 33.1771L31.4848 29.4774L32.4474 28.9206L38.8573 32.6203L37.8913 33.1771ZM38.3173 33.9117L39.28 33.3549V34.8878L38.3173 35.5318V33.9117ZM28.1675 31.8824L34.574 35.5821V42.9814L28.1675 39.2818V31.8824ZM35.426 42.9814V35.5821L37.4687 34.4014V36.3301C37.4687 36.4877 37.5559 36.6319 37.6934 36.7057C37.7572 36.7393 37.8242 36.756 37.8947 36.756C37.9785 36.756 38.059 36.7326 38.1328 36.6856L39.9475 35.4714C40.0648 35.3909 40.1353 35.2601 40.1353 35.1192V32.8685L41.8359 31.8857V39.2851L35.426 42.9814Z"/>
</mask>
<path d="M50 35.3372C50 34.1767 49.1145 33.2174 47.9841 33.1033C47.6554 31.178 46.8907 29.3399 45.7603 27.7399C46.4781 26.8578 46.4278 25.553 45.606 24.7312C45.18 24.3052 44.6165 24.0738 44.0161 24.0738C43.4928 24.0738 42.9964 24.2516 42.5973 24.5769C40.9973 23.4466 39.1592 22.6852 37.2339 22.3531C37.1199 21.2227 36.1606 20.3372 35 20.3372C33.8394 20.3372 32.8801 21.2227 32.7661 22.3531C30.8408 22.6818 29.0027 23.4466 27.4027 24.5769C26.5206 23.8591 25.2158 23.9094 24.394 24.7312C23.5722 25.553 23.5219 26.8578 24.2397 27.7399C23.1093 29.3399 22.3479 31.178 22.0159 33.1033C20.8855 33.2174 20 34.1767 20 35.3372C20 36.4978 20.8855 37.4571 22.0159 37.5711C22.3446 39.4964 23.1093 41.3345 24.2397 42.9345C23.9144 43.3336 23.7366 43.8301 23.7366 44.3533C23.7366 44.9537 23.9714 45.5172 24.394 45.9432C24.8334 46.3826 25.407 46.6006 25.9839 46.6006C26.487 46.6006 26.9902 46.4329 27.4027 46.0975C29.0027 47.2279 30.8408 47.9893 32.7661 48.3213C32.8801 49.4517 33.8394 50.3372 35 50.3372C36.1606 50.3372 37.1199 49.4517 37.2339 48.3213C39.1592 47.9926 40.9973 47.2279 42.5973 46.0975C42.9964 46.4229 43.4928 46.6006 44.0161 46.6006C44.6165 46.6006 45.18 46.3658 45.606 45.9432C46.032 45.5172 46.2634 44.9537 46.2634 44.3533C46.2634 43.8301 46.0856 43.3336 45.7603 42.9345C46.8907 41.3345 47.6521 39.4964 47.9841 37.5711C49.1145 37.4571 50 36.4978 50 35.3372ZM49.1514 35.3372C49.1514 36.1087 48.5241 36.7326 47.756 36.7326C46.9846 36.7326 46.3607 36.1053 46.3607 35.3372C46.3607 34.5658 46.9879 33.9419 47.756 33.9419C48.5241 33.9419 49.1514 34.5658 49.1514 35.3372ZM44.0195 24.9224C44.3918 24.9224 44.744 25.0666 45.0056 25.3316C45.549 25.875 45.549 26.7639 45.0056 27.3073C44.7406 27.5722 44.3918 27.7165 44.0195 27.7165C43.6471 27.7165 43.2949 27.5722 43.0333 27.3073C42.7717 27.0423 42.6241 26.6934 42.6241 26.3211C42.6241 25.9488 42.7683 25.5966 43.0333 25.335C43.2949 25.0666 43.6438 24.9224 44.0195 24.9224ZM35 21.1858C35.7715 21.1858 36.3953 21.8131 36.3953 22.5812C36.3953 23.3526 35.7681 23.9765 35 23.9765C34.2285 23.9765 33.6047 23.3493 33.6047 22.5812C33.6047 21.8131 34.2285 21.1858 35 21.1858ZM24.9944 25.3316C25.2661 25.0599 25.625 24.9224 25.9805 24.9224C26.3394 24.9224 26.695 25.0599 26.9667 25.3316C27.5101 25.875 27.5101 26.7639 26.9667 27.3073C26.4233 27.8506 25.5344 27.8506 24.9911 27.3073C24.451 26.7639 24.451 25.875 24.9944 25.3316ZM20.8486 35.3372C20.8486 34.5658 21.4758 33.9419 22.244 33.9419C23.0154 33.9419 23.6393 34.5691 23.6393 35.3372C23.6393 36.1087 23.0121 36.7326 22.244 36.7326C21.4758 36.7326 20.8486 36.1087 20.8486 35.3372ZM24.9944 45.3428C24.7294 45.0778 24.5852 44.729 24.5852 44.3567C24.5852 43.9844 24.7294 43.6322 24.9944 43.3705C25.2661 43.0988 25.625 42.9613 25.9805 42.9613C26.3394 42.9613 26.695 43.0988 26.9667 43.3705C27.2317 43.6355 27.3759 43.9844 27.3759 44.3567C27.3759 44.729 27.2317 45.0812 26.9667 45.3428C26.4267 45.8862 25.5378 45.8862 24.9944 45.3428ZM35 49.4886C34.2285 49.4886 33.6047 48.8614 33.6047 48.0933C33.6047 47.3218 34.2319 46.6979 35 46.6979C35.7715 46.6979 36.3953 47.3251 36.3953 48.0933C36.3953 48.8614 35.7715 49.4886 35 49.4886ZM35 45.8426C33.977 45.8426 33.1116 46.5302 32.8432 47.4694C31.089 47.1574 29.4119 46.4631 27.9495 45.4401C28.1339 45.1114 28.2312 44.739 28.2312 44.3533C28.2312 43.7529 27.9964 43.1894 27.5738 42.7634C26.8493 42.0389 25.7525 41.9148 24.8971 42.3878C23.8741 40.922 23.1798 39.2482 22.8678 37.494C23.807 37.2256 24.4946 36.3603 24.4946 35.3372C24.4946 34.3142 23.807 33.4488 22.8678 33.1805C23.1798 31.4262 23.8741 29.7491 24.8971 28.2867C25.2359 28.4745 25.6082 28.5684 25.9839 28.5684C26.5608 28.5684 27.1344 28.3504 27.5738 27.911C28.2983 27.1865 28.4224 26.0897 27.9495 25.2344C29.4152 24.2113 31.089 23.517 32.8432 23.2051C33.1116 24.1442 33.977 24.8319 35 24.8319C36.023 24.8319 36.8884 24.1442 37.1568 23.2051C38.911 23.517 40.5881 24.2113 42.0505 25.2344C41.8661 25.5631 41.7688 25.9354 41.7688 26.3211C41.7688 26.9215 42.0036 27.485 42.4262 27.911C42.8522 28.337 43.4157 28.5684 44.0161 28.5684C44.4018 28.5684 44.7741 28.4712 45.1029 28.2867C46.1259 29.7525 46.8202 31.4262 47.1322 33.1805C46.193 33.4488 45.5054 34.3142 45.5054 35.3372C45.5054 36.3603 46.193 37.2256 47.1322 37.494C46.8202 39.2482 46.1259 40.9253 45.1029 42.3878C44.7741 42.2033 44.4018 42.106 44.0161 42.106C43.4157 42.106 42.8522 42.3408 42.4262 42.7634C42.0002 43.1894 41.7688 43.7529 41.7688 44.3533C41.7688 44.739 41.8661 45.1114 42.0505 45.4401C40.5847 46.4631 38.911 47.1574 37.1568 47.4694C36.8884 46.5336 36.023 45.8426 35 45.8426ZM45.0056 45.3428C44.7406 45.6078 44.3918 45.752 44.0195 45.752C43.6471 45.752 43.2949 45.6078 43.0333 45.3428C42.7683 45.0778 42.6241 44.729 42.6241 44.3567C42.6241 43.9844 42.7683 43.6322 43.0333 43.3705C43.2983 43.1056 43.6471 42.9613 44.0195 42.9613C44.3918 42.9613 44.744 43.1056 45.0056 43.3705C45.2706 43.6355 45.4148 43.9844 45.4148 44.3567C45.4148 44.729 45.2706 45.0778 45.0056 45.3428ZM42.6845 39.5266V31.1478C42.6845 30.9969 42.604 30.856 42.4732 30.7789L35.2113 26.5895C35.0805 26.5123 34.9161 26.5123 34.7853 26.5895L27.5302 30.7789C27.3994 30.856 27.3189 30.9935 27.3189 31.1478V39.53C27.3189 39.6809 27.3994 39.8218 27.5302 39.8989L34.7887 44.0883C34.8558 44.1252 34.9262 44.1454 35 44.1454C35.0738 44.1454 35.1476 44.1252 35.2113 44.0883L42.4698 39.8989C42.6006 39.8184 42.6845 39.6809 42.6845 39.5266ZM35 27.4481L41.4065 31.1478L39.7059 32.1306L33.2994 28.4309L35 27.4481ZM35 34.8475L28.5935 31.1478L30.6362 29.9671L37.0427 33.6668L35 34.8475ZM37.8913 33.1771L31.4848 29.4774L32.4474 28.9206L38.8573 32.6203L37.8913 33.1771ZM38.3173 33.9117L39.28 33.3549V34.8878L38.3173 35.5318V33.9117ZM28.1675 31.8824L34.574 35.5821V42.9814L28.1675 39.2818V31.8824ZM35.426 42.9814V35.5821L37.4687 34.4014V36.3301C37.4687 36.4877 37.5559 36.6319 37.6934 36.7057C37.7572 36.7393 37.8242 36.756 37.8947 36.756C37.9785 36.756 38.059 36.7326 38.1328 36.6856L39.9475 35.4714C40.0648 35.3909 40.1353 35.2601 40.1353 35.1192V32.8685L41.8359 31.8857V39.2851L35.426 42.9814Z" fill="#65221A"/>
<path d="M50 35.3372C50 34.1767 49.1145 33.2174 47.9841 33.1033C47.6554 31.178 46.8907 29.3399 45.7603 27.7399C46.4781 26.8578 46.4278 25.553 45.606 24.7312C45.18 24.3052 44.6165 24.0738 44.0161 24.0738C43.4928 24.0738 42.9964 24.2516 42.5973 24.5769C40.9973 23.4466 39.1592 22.6852 37.2339 22.3531C37.1199 21.2227 36.1606 20.3372 35 20.3372C33.8394 20.3372 32.8801 21.2227 32.7661 22.3531C30.8408 22.6818 29.0027 23.4466 27.4027 24.5769C26.5206 23.8591 25.2158 23.9094 24.394 24.7312C23.5722 25.553 23.5219 26.8578 24.2397 27.7399C23.1093 29.3399 22.3479 31.178 22.0159 33.1033C20.8855 33.2174 20 34.1767 20 35.3372C20 36.4978 20.8855 37.4571 22.0159 37.5711C22.3446 39.4964 23.1093 41.3345 24.2397 42.9345C23.9144 43.3336 23.7366 43.8301 23.7366 44.3533C23.7366 44.9537 23.9714 45.5172 24.394 45.9432C24.8334 46.3826 25.407 46.6006 25.9839 46.6006C26.487 46.6006 26.9902 46.4329 27.4027 46.0975C29.0027 47.2279 30.8408 47.9893 32.7661 48.3213C32.8801 49.4517 33.8394 50.3372 35 50.3372C36.1606 50.3372 37.1199 49.4517 37.2339 48.3213C39.1592 47.9926 40.9973 47.2279 42.5973 46.0975C42.9964 46.4229 43.4928 46.6006 44.0161 46.6006C44.6165 46.6006 45.18 46.3658 45.606 45.9432C46.032 45.5172 46.2634 44.9537 46.2634 44.3533C46.2634 43.8301 46.0856 43.3336 45.7603 42.9345C46.8907 41.3345 47.6521 39.4964 47.9841 37.5711C49.1145 37.4571 50 36.4978 50 35.3372ZM49.1514 35.3372C49.1514 36.1087 48.5241 36.7326 47.756 36.7326C46.9846 36.7326 46.3607 36.1053 46.3607 35.3372C46.3607 34.5658 46.9879 33.9419 47.756 33.9419C48.5241 33.9419 49.1514 34.5658 49.1514 35.3372ZM44.0195 24.9224C44.3918 24.9224 44.744 25.0666 45.0056 25.3316C45.549 25.875 45.549 26.7639 45.0056 27.3073C44.7406 27.5722 44.3918 27.7165 44.0195 27.7165C43.6471 27.7165 43.2949 27.5722 43.0333 27.3073C42.7717 27.0423 42.6241 26.6934 42.6241 26.3211C42.6241 25.9488 42.7683 25.5966 43.0333 25.335C43.2949 25.0666 43.6438 24.9224 44.0195 24.9224ZM35 21.1858C35.7715 21.1858 36.3953 21.8131 36.3953 22.5812C36.3953 23.3526 35.7681 23.9765 35 23.9765C34.2285 23.9765 33.6047 23.3493 33.6047 22.5812C33.6047 21.8131 34.2285 21.1858 35 21.1858ZM24.9944 25.3316C25.2661 25.0599 25.625 24.9224 25.9805 24.9224C26.3394 24.9224 26.695 25.0599 26.9667 25.3316C27.5101 25.875 27.5101 26.7639 26.9667 27.3073C26.4233 27.8506 25.5344 27.8506 24.9911 27.3073C24.451 26.7639 24.451 25.875 24.9944 25.3316ZM20.8486 35.3372C20.8486 34.5658 21.4758 33.9419 22.244 33.9419C23.0154 33.9419 23.6393 34.5691 23.6393 35.3372C23.6393 36.1087 23.0121 36.7326 22.244 36.7326C21.4758 36.7326 20.8486 36.1087 20.8486 35.3372ZM24.9944 45.3428C24.7294 45.0778 24.5852 44.729 24.5852 44.3567C24.5852 43.9844 24.7294 43.6322 24.9944 43.3705C25.2661 43.0988 25.625 42.9613 25.9805 42.9613C26.3394 42.9613 26.695 43.0988 26.9667 43.3705C27.2317 43.6355 27.3759 43.9844 27.3759 44.3567C27.3759 44.729 27.2317 45.0812 26.9667 45.3428C26.4267 45.8862 25.5378 45.8862 24.9944 45.3428ZM35 49.4886C34.2285 49.4886 33.6047 48.8614 33.6047 48.0933C33.6047 47.3218 34.2319 46.6979 35 46.6979C35.7715 46.6979 36.3953 47.3251 36.3953 48.0933C36.3953 48.8614 35.7715 49.4886 35 49.4886ZM35 45.8426C33.977 45.8426 33.1116 46.5302 32.8432 47.4694C31.089 47.1574 29.4119 46.4631 27.9495 45.4401C28.1339 45.1114 28.2312 44.739 28.2312 44.3533C28.2312 43.7529 27.9964 43.1894 27.5738 42.7634C26.8493 42.0389 25.7525 41.9148 24.8971 42.3878C23.8741 40.922 23.1798 39.2482 22.8678 37.494C23.807 37.2256 24.4946 36.3603 24.4946 35.3372C24.4946 34.3142 23.807 33.4488 22.8678 33.1805C23.1798 31.4262 23.8741 29.7491 24.8971 28.2867C25.2359 28.4745 25.6082 28.5684 25.9839 28.5684C26.5608 28.5684 27.1344 28.3504 27.5738 27.911C28.2983 27.1865 28.4224 26.0897 27.9495 25.2344C29.4152 24.2113 31.089 23.517 32.8432 23.2051C33.1116 24.1442 33.977 24.8319 35 24.8319C36.023 24.8319 36.8884 24.1442 37.1568 23.2051C38.911 23.517 40.5881 24.2113 42.0505 25.2344C41.8661 25.5631 41.7688 25.9354 41.7688 26.3211C41.7688 26.9215 42.0036 27.485 42.4262 27.911C42.8522 28.337 43.4157 28.5684 44.0161 28.5684C44.4018 28.5684 44.7741 28.4712 45.1029 28.2867C46.1259 29.7525 46.8202 31.4262 47.1322 33.1805C46.193 33.4488 45.5054 34.3142 45.5054 35.3372C45.5054 36.3603 46.193 37.2256 47.1322 37.494C46.8202 39.2482 46.1259 40.9253 45.1029 42.3878C44.7741 42.2033 44.4018 42.106 44.0161 42.106C43.4157 42.106 42.8522 42.3408 42.4262 42.7634C42.0002 43.1894 41.7688 43.7529 41.7688 44.3533C41.7688 44.739 41.8661 45.1114 42.0505 45.4401C40.5847 46.4631 38.911 47.1574 37.1568 47.4694C36.8884 46.5336 36.023 45.8426 35 45.8426ZM45.0056 45.3428C44.7406 45.6078 44.3918 45.752 44.0195 45.752C43.6471 45.752 43.2949 45.6078 43.0333 45.3428C42.7683 45.0778 42.6241 44.729 42.6241 44.3567C42.6241 43.9844 42.7683 43.6322 43.0333 43.3705C43.2983 43.1056 43.6471 42.9613 44.0195 42.9613C44.3918 42.9613 44.744 43.1056 45.0056 43.3705C45.2706 43.6355 45.4148 43.9844 45.4148 44.3567C45.4148 44.729 45.2706 45.0778 45.0056 45.3428ZM42.6845 39.5266V31.1478C42.6845 30.9969 42.604 30.856 42.4732 30.7789L35.2113 26.5895C35.0805 26.5123 34.9161 26.5123 34.7853 26.5895L27.5302 30.7789C27.3994 30.856 27.3189 30.9935 27.3189 31.1478V39.53C27.3189 39.6809 27.3994 39.8218 27.5302 39.8989L34.7887 44.0883C34.8558 44.1252 34.9262 44.1454 35 44.1454C35.0738 44.1454 35.1476 44.1252 35.2113 44.0883L42.4698 39.8989C42.6006 39.8184 42.6845 39.6809 42.6845 39.5266ZM35 27.4481L41.4065 31.1478L39.7059 32.1306L33.2994 28.4309L35 27.4481ZM35 34.8475L28.5935 31.1478L30.6362 29.9671L37.0427 33.6668L35 34.8475ZM37.8913 33.1771L31.4848 29.4774L32.4474 28.9206L38.8573 32.6203L37.8913 33.1771ZM38.3173 33.9117L39.28 33.3549V34.8878L38.3173 35.5318V33.9117ZM28.1675 31.8824L34.574 35.5821V42.9814L28.1675 39.2818V31.8824ZM35.426 42.9814V35.5821L37.4687 34.4014V36.3301C37.4687 36.4877 37.5559 36.6319 37.6934 36.7057C37.7572 36.7393 37.8242 36.756 37.8947 36.756C37.9785 36.756 38.059 36.7326 38.1328 36.6856L39.9475 35.4714C40.0648 35.3909 40.1353 35.2601 40.1353 35.1192V32.8685L41.8359 31.8857V39.2851L35.426 42.9814Z" stroke="#65221A" stroke-width="0.6" mask="url(#path-2-outside-1_1449_443)"/>
</svg>
