<svg width="70" height="71" viewBox="0 0 70 71" fill="none" xmlns="http://www.w3.org/2000/svg">
<circle cx="35" cy="35.3372" r="35" fill="#65221A"/>
<mask id="path-2-outside-1_1449_389" maskUnits="userSpaceOnUse" x="21" y="19.3372" width="29" height="32" fill="black">
<rect fill="white" x="21" y="19.3372" width="29" height="32"/>
<path d="M37.4881 36.2001H33.8717C33.3186 36.2001 32.7881 36.4198 32.397 36.8109C32.0059 37.202 31.7862 37.7325 31.7862 38.2856V48.2518C31.7862 48.8049 32.0059 49.3353 32.397 49.7264C32.7881 50.1175 33.3186 50.3372 33.8717 50.3372H37.4881C37.762 50.3372 38.0331 50.2833 38.2862 50.1785C38.5392 50.0737 38.7691 49.9201 38.9627 49.7264C39.1564 49.5328 39.31 49.3029 39.4148 49.0498C39.5196 48.7968 39.5735 48.5256 39.5735 48.2518V38.2856C39.5735 38.0117 39.5196 37.7405 39.4148 37.4875C39.31 37.2345 39.1564 37.0046 38.9627 36.8109C38.7691 36.6173 38.5392 36.4637 38.2862 36.3589C38.0331 36.254 37.762 36.2001 37.4881 36.2001ZM38.6695 48.2548C38.6695 48.5681 38.545 48.8686 38.3234 49.0901C38.1019 49.3117 37.8014 49.4361 37.4881 49.4361H33.8717C33.5584 49.4361 33.2579 49.3117 33.0363 49.0901C32.8148 48.8686 32.6903 48.5681 32.6903 48.2548V38.2856C32.6903 37.9722 32.8148 37.6718 33.0363 37.4502C33.2579 37.2287 33.5584 37.1042 33.8717 37.1042H37.4881C37.8014 37.1042 38.1019 37.2287 38.3234 37.4502C38.545 37.6718 38.6695 37.9722 38.6695 38.2856V48.2548ZM24.6107 41.1847C24.0581 41.1855 23.5284 41.4056 23.138 41.7966C22.7475 42.1876 22.5282 42.7176 22.5282 43.2702V48.2518C22.5282 48.8049 22.748 49.3353 23.1391 49.7264C23.5302 50.1175 24.0606 50.3372 24.6137 50.3372H28.2301C28.7827 50.3364 29.3124 50.1164 29.7028 49.7253C30.0932 49.3343 30.3125 48.8043 30.3125 48.2518V43.2702C30.3125 42.9963 30.2586 42.7251 30.1538 42.4721C30.049 42.2191 29.8954 41.9892 29.7017 41.7955C29.5081 41.6019 29.2782 41.4483 29.0252 41.3435C28.7721 41.2387 28.501 41.1847 28.2271 41.1847H24.6107ZM29.4084 43.2702V48.2518C29.4084 48.5651 29.284 48.8656 29.0624 49.0871C28.8409 49.3087 28.5404 49.4331 28.2271 49.4331H24.6107C24.2974 49.4331 23.9969 49.3087 23.7753 49.0871C23.5538 48.8656 23.4293 48.5651 23.4293 48.2518V43.2702C23.4293 42.9569 23.5538 42.6564 23.7753 42.4348C23.9969 42.2133 24.2974 42.0888 24.6107 42.0888H28.2271C28.5404 42.0888 28.8409 42.2133 29.0624 42.4348C29.284 42.6564 29.4084 42.9569 29.4084 43.2702ZM43.8047 48.0619H46.1433C46.2617 48.0595 46.3743 48.0109 46.4572 47.9263C46.54 47.8418 46.5864 47.7282 46.5864 47.6098V28.9613C46.5864 28.8414 46.5387 28.7264 46.454 28.6416C46.3692 28.5569 46.2542 28.5092 46.1343 28.5092H43.8047C43.6848 28.5092 43.5699 28.5569 43.4851 28.6416C43.4003 28.7264 43.3527 28.8414 43.3527 28.9613V47.6098C43.3527 47.7297 43.4003 47.8447 43.4851 47.9295C43.5699 48.0143 43.6848 48.0619 43.8047 48.0619ZM44.2568 29.4133H45.6823V47.1578H44.2568V29.4133ZM43.1628 50.3372H46.7792C47.3323 50.3372 47.8628 50.1175 48.2539 49.7264C48.645 49.3353 48.8647 48.8049 48.8647 48.2518V28.3163C48.8639 27.7638 48.6438 27.2341 48.2528 26.8437C47.8618 26.4532 47.3318 26.2339 46.7792 26.2339H43.1628C42.6108 26.2347 42.0816 26.4544 41.6912 26.8447C41.3008 27.2351 41.0812 27.7643 41.0804 28.3163V48.2518C41.0804 48.8043 41.2997 49.3343 41.6901 49.7253C42.0806 50.1164 42.6103 50.3364 43.1628 50.3372ZM41.9815 28.3163C41.9823 28.0041 42.1067 27.7048 42.3275 27.484C42.5483 27.2632 42.8475 27.1388 43.1598 27.138H46.7762C47.089 27.138 47.389 27.2621 47.6105 27.483C47.832 27.7038 47.9568 28.0036 47.9576 28.3163V48.2518C47.9576 48.5651 47.8331 48.8656 47.6116 49.0871C47.39 49.3087 47.0895 49.4331 46.7762 49.4331H43.1598C42.847 49.4323 42.5473 49.3075 42.3264 49.086C42.1055 48.8646 41.9815 48.5646 41.9815 48.2518V28.3163ZM24.2008 37.5683C24.4885 37.5696 24.7735 37.5139 25.0394 37.4042C25.3053 37.2945 25.5468 37.1331 25.7499 36.9294L28.6852 33.9941C29.8717 34.6079 31.2051 34.8811 32.5374 34.7835C33.8697 34.6858 35.149 34.221 36.2333 33.4407C37.3176 32.6603 38.1647 31.5949 38.6805 30.3626C39.1963 29.1303 39.3607 27.7792 39.1555 26.4591C38.9503 25.1391 38.3835 23.9016 37.518 22.884C36.6525 21.8664 35.5221 21.1084 34.2521 20.694C32.982 20.2796 31.6221 20.225 30.3229 20.5364C29.0238 20.8477 27.8363 21.5128 26.892 22.4578C25.8148 23.5485 25.1092 24.9514 24.876 26.4666C24.6428 27.9817 24.8937 29.5319 25.5931 30.8961L22.6428 33.8374C22.336 34.1434 22.127 34.5336 22.0423 34.9585C21.9575 35.3834 22.0008 35.824 22.1668 36.2242C22.3327 36.6245 22.6137 36.9665 22.9742 37.2068C23.3347 37.4472 23.7585 37.5751 24.1918 37.5743L24.2008 37.5683ZM23.2967 34.4703L26.4581 31.2939C26.5285 31.2236 26.5737 31.132 26.5868 31.0334C26.5999 30.9348 26.58 30.8346 26.5304 30.7484C25.8389 29.5423 25.561 28.1431 25.7389 26.7643C25.9168 25.3855 26.5409 24.1028 27.5159 23.1117C28.3513 22.2754 29.4042 21.6898 30.5553 21.4212C31.7065 21.1526 32.9099 21.2117 34.0291 21.592C35.1484 21.9722 36.1388 22.6583 36.8881 23.5725C37.6374 24.4868 38.1157 25.5926 38.2688 26.7647C38.4219 27.9368 38.2437 29.1284 37.7543 30.2044C37.2649 31.2805 36.4839 32.1979 35.4999 32.8528C34.5158 33.5078 33.368 33.874 32.1865 33.9101C31.0049 33.9461 29.8369 33.6506 28.8148 33.0568C28.7282 33.0065 28.6274 32.9862 28.5282 32.9993C28.4289 33.0124 28.3368 33.0581 28.2663 33.1292L25.1019 36.2905C24.8546 36.4873 24.5434 36.5862 24.2278 36.5683C23.9122 36.5505 23.6142 36.417 23.3907 36.1935C23.1672 35.97 23.0338 35.672 23.0159 35.3564C22.998 35.0408 23.0969 34.7297 23.2937 34.4823L23.2967 34.4703ZM28.6068 30.9654C29.2767 31.6347 30.1299 32.0905 31.0588 32.275C31.9876 32.4595 32.9503 32.3644 33.8251 32.0019C34.6999 31.6393 35.4476 31.0255 35.9736 30.2381C36.4997 29.4507 36.7804 28.525 36.7804 27.578C36.7804 26.631 36.4997 25.7053 35.9736 24.9179C35.4476 24.1305 34.6999 23.5167 33.8251 23.1541C32.9503 22.7916 31.9876 22.6966 31.0588 22.881C30.1299 23.0655 29.2767 23.5213 28.6068 24.1906C28.1603 24.6345 27.806 25.1623 27.5642 25.7437C27.3225 26.325 27.198 26.9484 27.198 27.578C27.198 28.2076 27.3225 28.831 27.5642 29.4123C27.806 29.9937 28.1603 30.5215 28.6068 30.9654ZM29.2457 24.8295C29.7893 24.2857 30.4821 23.9153 31.2362 23.7652C31.9904 23.6151 32.7721 23.692 33.4826 23.9862C34.193 24.2804 34.8003 24.7787 35.2275 25.418C35.6548 26.0573 35.8828 26.809 35.8828 27.578C35.8828 28.347 35.6548 29.0987 35.2275 29.738C34.8003 30.3774 34.193 30.8756 33.4826 31.1698C32.7721 31.464 31.9904 31.5409 31.2362 31.3908C30.4821 31.2407 29.7893 30.8703 29.2457 30.3265C28.882 29.9671 28.5932 29.5391 28.3961 29.0673C28.199 28.5955 28.0975 28.0893 28.0975 27.578C28.0975 27.0667 28.199 26.5605 28.3961 26.0887C28.5932 25.6169 28.882 25.1889 29.2457 24.8295Z"/>
</mask>
<path d="M37.4881 36.2001H33.8717C33.3186 36.2001 32.7881 36.4198 32.397 36.8109C32.0059 37.202 31.7862 37.7325 31.7862 38.2856V48.2518C31.7862 48.8049 32.0059 49.3353 32.397 49.7264C32.7881 50.1175 33.3186 50.3372 33.8717 50.3372H37.4881C37.762 50.3372 38.0331 50.2833 38.2862 50.1785C38.5392 50.0737 38.7691 49.9201 38.9627 49.7264C39.1564 49.5328 39.31 49.3029 39.4148 49.0498C39.5196 48.7968 39.5735 48.5256 39.5735 48.2518V38.2856C39.5735 38.0117 39.5196 37.7405 39.4148 37.4875C39.31 37.2345 39.1564 37.0046 38.9627 36.8109C38.7691 36.6173 38.5392 36.4637 38.2862 36.3589C38.0331 36.254 37.762 36.2001 37.4881 36.2001ZM38.6695 48.2548C38.6695 48.5681 38.545 48.8686 38.3234 49.0901C38.1019 49.3117 37.8014 49.4361 37.4881 49.4361H33.8717C33.5584 49.4361 33.2579 49.3117 33.0363 49.0901C32.8148 48.8686 32.6903 48.5681 32.6903 48.2548V38.2856C32.6903 37.9722 32.8148 37.6718 33.0363 37.4502C33.2579 37.2287 33.5584 37.1042 33.8717 37.1042H37.4881C37.8014 37.1042 38.1019 37.2287 38.3234 37.4502C38.545 37.6718 38.6695 37.9722 38.6695 38.2856V48.2548ZM24.6107 41.1847C24.0581 41.1855 23.5284 41.4056 23.138 41.7966C22.7475 42.1876 22.5282 42.7176 22.5282 43.2702V48.2518C22.5282 48.8049 22.748 49.3353 23.1391 49.7264C23.5302 50.1175 24.0606 50.3372 24.6137 50.3372H28.2301C28.7827 50.3364 29.3124 50.1164 29.7028 49.7253C30.0932 49.3343 30.3125 48.8043 30.3125 48.2518V43.2702C30.3125 42.9963 30.2586 42.7251 30.1538 42.4721C30.049 42.2191 29.8954 41.9892 29.7017 41.7955C29.5081 41.6019 29.2782 41.4483 29.0252 41.3435C28.7721 41.2387 28.501 41.1847 28.2271 41.1847H24.6107ZM29.4084 43.2702V48.2518C29.4084 48.5651 29.284 48.8656 29.0624 49.0871C28.8409 49.3087 28.5404 49.4331 28.2271 49.4331H24.6107C24.2974 49.4331 23.9969 49.3087 23.7753 49.0871C23.5538 48.8656 23.4293 48.5651 23.4293 48.2518V43.2702C23.4293 42.9569 23.5538 42.6564 23.7753 42.4348C23.9969 42.2133 24.2974 42.0888 24.6107 42.0888H28.2271C28.5404 42.0888 28.8409 42.2133 29.0624 42.4348C29.284 42.6564 29.4084 42.9569 29.4084 43.2702ZM43.8047 48.0619H46.1433C46.2617 48.0595 46.3743 48.0109 46.4572 47.9263C46.54 47.8418 46.5864 47.7282 46.5864 47.6098V28.9613C46.5864 28.8414 46.5387 28.7264 46.454 28.6416C46.3692 28.5569 46.2542 28.5092 46.1343 28.5092H43.8047C43.6848 28.5092 43.5699 28.5569 43.4851 28.6416C43.4003 28.7264 43.3527 28.8414 43.3527 28.9613V47.6098C43.3527 47.7297 43.4003 47.8447 43.4851 47.9295C43.5699 48.0143 43.6848 48.0619 43.8047 48.0619ZM44.2568 29.4133H45.6823V47.1578H44.2568V29.4133ZM43.1628 50.3372H46.7792C47.3323 50.3372 47.8628 50.1175 48.2539 49.7264C48.645 49.3353 48.8647 48.8049 48.8647 48.2518V28.3163C48.8639 27.7638 48.6438 27.2341 48.2528 26.8437C47.8618 26.4532 47.3318 26.2339 46.7792 26.2339H43.1628C42.6108 26.2347 42.0816 26.4544 41.6912 26.8447C41.3008 27.2351 41.0812 27.7643 41.0804 28.3163V48.2518C41.0804 48.8043 41.2997 49.3343 41.6901 49.7253C42.0806 50.1164 42.6103 50.3364 43.1628 50.3372ZM41.9815 28.3163C41.9823 28.0041 42.1067 27.7048 42.3275 27.484C42.5483 27.2632 42.8475 27.1388 43.1598 27.138H46.7762C47.089 27.138 47.389 27.2621 47.6105 27.483C47.832 27.7038 47.9568 28.0036 47.9576 28.3163V48.2518C47.9576 48.5651 47.8331 48.8656 47.6116 49.0871C47.39 49.3087 47.0895 49.4331 46.7762 49.4331H43.1598C42.847 49.4323 42.5473 49.3075 42.3264 49.086C42.1055 48.8646 41.9815 48.5646 41.9815 48.2518V28.3163ZM24.2008 37.5683C24.4885 37.5696 24.7735 37.5139 25.0394 37.4042C25.3053 37.2945 25.5468 37.1331 25.7499 36.9294L28.6852 33.9941C29.8717 34.6079 31.2051 34.8811 32.5374 34.7835C33.8697 34.6858 35.149 34.221 36.2333 33.4407C37.3176 32.6603 38.1647 31.5949 38.6805 30.3626C39.1963 29.1303 39.3607 27.7792 39.1555 26.4591C38.9503 25.1391 38.3835 23.9016 37.518 22.884C36.6525 21.8664 35.5221 21.1084 34.2521 20.694C32.982 20.2796 31.6221 20.225 30.3229 20.5364C29.0238 20.8477 27.8363 21.5128 26.892 22.4578C25.8148 23.5485 25.1092 24.9514 24.876 26.4666C24.6428 27.9817 24.8937 29.5319 25.5931 30.8961L22.6428 33.8374C22.336 34.1434 22.127 34.5336 22.0423 34.9585C21.9575 35.3834 22.0008 35.824 22.1668 36.2242C22.3327 36.6245 22.6137 36.9665 22.9742 37.2068C23.3347 37.4472 23.7585 37.5751 24.1918 37.5743L24.2008 37.5683ZM23.2967 34.4703L26.4581 31.2939C26.5285 31.2236 26.5737 31.132 26.5868 31.0334C26.5999 30.9348 26.58 30.8346 26.5304 30.7484C25.8389 29.5423 25.561 28.1431 25.7389 26.7643C25.9168 25.3855 26.5409 24.1028 27.5159 23.1117C28.3513 22.2754 29.4042 21.6898 30.5553 21.4212C31.7065 21.1526 32.9099 21.2117 34.0291 21.592C35.1484 21.9722 36.1388 22.6583 36.8881 23.5725C37.6374 24.4868 38.1157 25.5926 38.2688 26.7647C38.4219 27.9368 38.2437 29.1284 37.7543 30.2044C37.2649 31.2805 36.4839 32.1979 35.4999 32.8528C34.5158 33.5078 33.368 33.874 32.1865 33.9101C31.0049 33.9461 29.8369 33.6506 28.8148 33.0568C28.7282 33.0065 28.6274 32.9862 28.5282 32.9993C28.4289 33.0124 28.3368 33.0581 28.2663 33.1292L25.1019 36.2905C24.8546 36.4873 24.5434 36.5862 24.2278 36.5683C23.9122 36.5505 23.6142 36.417 23.3907 36.1935C23.1672 35.97 23.0338 35.672 23.0159 35.3564C22.998 35.0408 23.0969 34.7297 23.2937 34.4823L23.2967 34.4703ZM28.6068 30.9654C29.2767 31.6347 30.1299 32.0905 31.0588 32.275C31.9876 32.4595 32.9503 32.3644 33.8251 32.0019C34.6999 31.6393 35.4476 31.0255 35.9736 30.2381C36.4997 29.4507 36.7804 28.525 36.7804 27.578C36.7804 26.631 36.4997 25.7053 35.9736 24.9179C35.4476 24.1305 34.6999 23.5167 33.8251 23.1541C32.9503 22.7916 31.9876 22.6966 31.0588 22.881C30.1299 23.0655 29.2767 23.5213 28.6068 24.1906C28.1603 24.6345 27.806 25.1623 27.5642 25.7437C27.3225 26.325 27.198 26.9484 27.198 27.578C27.198 28.2076 27.3225 28.831 27.5642 29.4123C27.806 29.9937 28.1603 30.5215 28.6068 30.9654ZM29.2457 24.8295C29.7893 24.2857 30.4821 23.9153 31.2362 23.7652C31.9904 23.6151 32.7721 23.692 33.4826 23.9862C34.193 24.2804 34.8003 24.7787 35.2275 25.418C35.6548 26.0573 35.8828 26.809 35.8828 27.578C35.8828 28.347 35.6548 29.0987 35.2275 29.738C34.8003 30.3774 34.193 30.8756 33.4826 31.1698C32.7721 31.464 31.9904 31.5409 31.2362 31.3908C30.4821 31.2407 29.7893 30.8703 29.2457 30.3265C28.882 29.9671 28.5932 29.5391 28.3961 29.0673C28.199 28.5955 28.0975 28.0893 28.0975 27.578C28.0975 27.0667 28.199 26.5605 28.3961 26.0887C28.5932 25.6169 28.882 25.1889 29.2457 24.8295Z" fill="white"/>
<path d="M37.4881 36.2001H33.8717C33.3186 36.2001 32.7881 36.4198 32.397 36.8109C32.0059 37.202 31.7862 37.7325 31.7862 38.2856V48.2518C31.7862 48.8049 32.0059 49.3353 32.397 49.7264C32.7881 50.1175 33.3186 50.3372 33.8717 50.3372H37.4881C37.762 50.3372 38.0331 50.2833 38.2862 50.1785C38.5392 50.0737 38.7691 49.9201 38.9627 49.7264C39.1564 49.5328 39.31 49.3029 39.4148 49.0498C39.5196 48.7968 39.5735 48.5256 39.5735 48.2518V38.2856C39.5735 38.0117 39.5196 37.7405 39.4148 37.4875C39.31 37.2345 39.1564 37.0046 38.9627 36.8109C38.7691 36.6173 38.5392 36.4637 38.2862 36.3589C38.0331 36.254 37.762 36.2001 37.4881 36.2001ZM38.6695 48.2548C38.6695 48.5681 38.545 48.8686 38.3234 49.0901C38.1019 49.3117 37.8014 49.4361 37.4881 49.4361H33.8717C33.5584 49.4361 33.2579 49.3117 33.0363 49.0901C32.8148 48.8686 32.6903 48.5681 32.6903 48.2548V38.2856C32.6903 37.9722 32.8148 37.6718 33.0363 37.4502C33.2579 37.2287 33.5584 37.1042 33.8717 37.1042H37.4881C37.8014 37.1042 38.1019 37.2287 38.3234 37.4502C38.545 37.6718 38.6695 37.9722 38.6695 38.2856V48.2548ZM24.6107 41.1847C24.0581 41.1855 23.5284 41.4056 23.138 41.7966C22.7475 42.1876 22.5282 42.7176 22.5282 43.2702V48.2518C22.5282 48.8049 22.748 49.3353 23.1391 49.7264C23.5302 50.1175 24.0606 50.3372 24.6137 50.3372H28.2301C28.7827 50.3364 29.3124 50.1164 29.7028 49.7253C30.0932 49.3343 30.3125 48.8043 30.3125 48.2518V43.2702C30.3125 42.9963 30.2586 42.7251 30.1538 42.4721C30.049 42.2191 29.8954 41.9892 29.7017 41.7955C29.5081 41.6019 29.2782 41.4483 29.0252 41.3435C28.7721 41.2387 28.501 41.1847 28.2271 41.1847H24.6107ZM29.4084 43.2702V48.2518C29.4084 48.5651 29.284 48.8656 29.0624 49.0871C28.8409 49.3087 28.5404 49.4331 28.2271 49.4331H24.6107C24.2974 49.4331 23.9969 49.3087 23.7753 49.0871C23.5538 48.8656 23.4293 48.5651 23.4293 48.2518V43.2702C23.4293 42.9569 23.5538 42.6564 23.7753 42.4348C23.9969 42.2133 24.2974 42.0888 24.6107 42.0888H28.2271C28.5404 42.0888 28.8409 42.2133 29.0624 42.4348C29.284 42.6564 29.4084 42.9569 29.4084 43.2702ZM43.8047 48.0619H46.1433C46.2617 48.0595 46.3743 48.0109 46.4572 47.9263C46.54 47.8418 46.5864 47.7282 46.5864 47.6098V28.9613C46.5864 28.8414 46.5387 28.7264 46.454 28.6416C46.3692 28.5569 46.2542 28.5092 46.1343 28.5092H43.8047C43.6848 28.5092 43.5699 28.5569 43.4851 28.6416C43.4003 28.7264 43.3527 28.8414 43.3527 28.9613V47.6098C43.3527 47.7297 43.4003 47.8447 43.4851 47.9295C43.5699 48.0143 43.6848 48.0619 43.8047 48.0619ZM44.2568 29.4133H45.6823V47.1578H44.2568V29.4133ZM43.1628 50.3372H46.7792C47.3323 50.3372 47.8628 50.1175 48.2539 49.7264C48.645 49.3353 48.8647 48.8049 48.8647 48.2518V28.3163C48.8639 27.7638 48.6438 27.2341 48.2528 26.8437C47.8618 26.4532 47.3318 26.2339 46.7792 26.2339H43.1628C42.6108 26.2347 42.0816 26.4544 41.6912 26.8447C41.3008 27.2351 41.0812 27.7643 41.0804 28.3163V48.2518C41.0804 48.8043 41.2997 49.3343 41.6901 49.7253C42.0806 50.1164 42.6103 50.3364 43.1628 50.3372ZM41.9815 28.3163C41.9823 28.0041 42.1067 27.7048 42.3275 27.484C42.5483 27.2632 42.8475 27.1388 43.1598 27.138H46.7762C47.089 27.138 47.389 27.2621 47.6105 27.483C47.832 27.7038 47.9568 28.0036 47.9576 28.3163V48.2518C47.9576 48.5651 47.8331 48.8656 47.6116 49.0871C47.39 49.3087 47.0895 49.4331 46.7762 49.4331H43.1598C42.847 49.4323 42.5473 49.3075 42.3264 49.086C42.1055 48.8646 41.9815 48.5646 41.9815 48.2518V28.3163ZM24.2008 37.5683C24.4885 37.5696 24.7735 37.5139 25.0394 37.4042C25.3053 37.2945 25.5468 37.1331 25.7499 36.9294L28.6852 33.9941C29.8717 34.6079 31.2051 34.8811 32.5374 34.7835C33.8697 34.6858 35.149 34.221 36.2333 33.4407C37.3176 32.6603 38.1647 31.5949 38.6805 30.3626C39.1963 29.1303 39.3607 27.7792 39.1555 26.4591C38.9503 25.1391 38.3835 23.9016 37.518 22.884C36.6525 21.8664 35.5221 21.1084 34.2521 20.694C32.982 20.2796 31.6221 20.225 30.3229 20.5364C29.0238 20.8477 27.8363 21.5128 26.892 22.4578C25.8148 23.5485 25.1092 24.9514 24.876 26.4666C24.6428 27.9817 24.8937 29.5319 25.5931 30.8961L22.6428 33.8374C22.336 34.1434 22.127 34.5336 22.0423 34.9585C21.9575 35.3834 22.0008 35.824 22.1668 36.2242C22.3327 36.6245 22.6137 36.9665 22.9742 37.2068C23.3347 37.4472 23.7585 37.5751 24.1918 37.5743L24.2008 37.5683ZM23.2967 34.4703L26.4581 31.2939C26.5285 31.2236 26.5737 31.132 26.5868 31.0334C26.5999 30.9348 26.58 30.8346 26.5304 30.7484C25.8389 29.5423 25.561 28.1431 25.7389 26.7643C25.9168 25.3855 26.5409 24.1028 27.5159 23.1117C28.3513 22.2754 29.4042 21.6898 30.5553 21.4212C31.7065 21.1526 32.9099 21.2117 34.0291 21.592C35.1484 21.9722 36.1388 22.6583 36.8881 23.5725C37.6374 24.4868 38.1157 25.5926 38.2688 26.7647C38.4219 27.9368 38.2437 29.1284 37.7543 30.2044C37.2649 31.2805 36.4839 32.1979 35.4999 32.8528C34.5158 33.5078 33.368 33.874 32.1865 33.9101C31.0049 33.9461 29.8369 33.6506 28.8148 33.0568C28.7282 33.0065 28.6274 32.9862 28.5282 32.9993C28.4289 33.0124 28.3368 33.0581 28.2663 33.1292L25.1019 36.2905C24.8546 36.4873 24.5434 36.5862 24.2278 36.5683C23.9122 36.5505 23.6142 36.417 23.3907 36.1935C23.1672 35.97 23.0338 35.672 23.0159 35.3564C22.998 35.0408 23.0969 34.7297 23.2937 34.4823L23.2967 34.4703ZM28.6068 30.9654C29.2767 31.6347 30.1299 32.0905 31.0588 32.275C31.9876 32.4595 32.9503 32.3644 33.8251 32.0019C34.6999 31.6393 35.4476 31.0255 35.9736 30.2381C36.4997 29.4507 36.7804 28.525 36.7804 27.578C36.7804 26.631 36.4997 25.7053 35.9736 24.9179C35.4476 24.1305 34.6999 23.5167 33.8251 23.1541C32.9503 22.7916 31.9876 22.6966 31.0588 22.881C30.1299 23.0655 29.2767 23.5213 28.6068 24.1906C28.1603 24.6345 27.806 25.1623 27.5642 25.7437C27.3225 26.325 27.198 26.9484 27.198 27.578C27.198 28.2076 27.3225 28.831 27.5642 29.4123C27.806 29.9937 28.1603 30.5215 28.6068 30.9654ZM29.2457 24.8295C29.7893 24.2857 30.4821 23.9153 31.2362 23.7652C31.9904 23.6151 32.7721 23.692 33.4826 23.9862C34.193 24.2804 34.8003 24.7787 35.2275 25.418C35.6548 26.0573 35.8828 26.809 35.8828 27.578C35.8828 28.347 35.6548 29.0987 35.2275 29.738C34.8003 30.3774 34.193 30.8756 33.4826 31.1698C32.7721 31.464 31.9904 31.5409 31.2362 31.3908C30.4821 31.2407 29.7893 30.8703 29.2457 30.3265C28.882 29.9671 28.5932 29.5391 28.3961 29.0673C28.199 28.5955 28.0975 28.0893 28.0975 27.578C28.0975 27.0667 28.199 26.5605 28.3961 26.0887C28.5932 25.6169 28.882 25.1889 29.2457 24.8295Z" stroke="white" stroke-width="0.6" mask="url(#path-2-outside-1_1449_389)"/>
</svg>
