<svg width="70" height="71" viewBox="0 0 70 71" fill="none" xmlns="http://www.w3.org/2000/svg">
<circle cx="35" cy="35.3898" r="35" fill="white"/>
<path d="M48.6181 40.0342H44.9183V35.6657C44.9183 35.1753 44.5171 34.7741 44.0267 34.7741H35.6909V31.9658H39.3908C39.8811 31.9658 40.2823 31.5646 40.2823 31.0743V21.8915C40.2823 21.4012 39.8811 21 39.3908 21H30.208C29.7177 21 29.3165 21.4012 29.3165 21.8915V31.0743C29.3165 31.5646 29.7177 31.9658 30.208 31.9658H33.9079V34.7741H25.4829C24.9926 34.7741 24.5914 35.1753 24.5914 35.6657V40.0342H20.8915C20.4012 40.0342 20 40.4354 20 40.9257V50.1085C20 50.5988 20.4012 51 20.8915 51H30.0743C30.5646 51 30.9658 50.5988 30.9658 50.1085V40.9257C30.9658 40.4354 30.5646 40.0342 30.0743 40.0342H26.3744V36.5572H43.0906V40.0342H39.3908C38.9004 40.0342 38.4993 40.4354 38.4993 40.9257V50.1085C38.4993 50.5988 38.9004 51 39.3908 51H48.5736C49.0639 51 49.4651 50.5988 49.4651 50.1085V40.9257C49.5097 40.4354 49.1085 40.0342 48.6181 40.0342ZM31.0996 22.7831H38.4993V30.1828H31.0996V22.7831ZM29.2273 49.2169H21.7831V41.8172H29.1828V49.2169H29.2273ZM47.7266 49.2169H40.2823V41.8172H47.682V49.2169H47.7266Z" fill="#65221A"/>
</svg>
