<svg width="70" height="71" viewBox="0 0 70 71" fill="none" xmlns="http://www.w3.org/2000/svg">
<circle cx="35" cy="35.3898" r="35" fill="#65221A"/>
<mask id="path-2-outside-1_1449_450" maskUnits="userSpaceOnUse" x="18" y="19.3896" width="33" height="32" fill="black">
<rect fill="white" x="18" y="19.3896" width="33" height="32"/>
<path d="M25.2682 39.8056H44.3847C47.8409 39.8056 50.6529 36.9936 50.6529 33.5374C50.6529 30.403 48.2927 27.7388 45.2194 27.3251C45.1031 25.7766 44.4353 24.3384 43.3176 23.2424C42.1145 22.0636 40.524 21.4141 38.8395 21.4141C37.3022 21.4141 35.847 21.9532 34.6905 22.9416C33.6418 21.3557 31.8654 20.3896 29.9432 20.3896C26.8062 20.3896 24.2536 22.9422 24.2536 26.0793C24.2536 26.5029 24.3002 26.9218 24.3922 27.3316C21.3319 27.7618 19 30.401 19 33.5374C19 36.9936 21.812 39.8056 25.2682 39.8056ZM30.7825 38.835C30.7825 36.6049 32.597 34.7911 34.8265 34.7911C37.056 34.7911 38.8704 36.6055 38.8704 38.835C38.8704 38.8954 38.8684 38.9565 38.8658 39.0176H30.7871C30.7845 38.9565 30.7825 38.8954 30.7825 38.835ZM39.6552 39.0176C39.6571 38.9565 39.6591 38.8961 39.6591 38.835C39.6591 36.1708 37.4913 34.003 34.8271 34.003C32.1629 34.003 29.9951 36.1708 29.9951 38.835C29.9951 38.8954 29.9964 38.9565 29.9991 39.0176H25.2695C25.1316 39.0176 24.9957 39.011 24.8597 39.0005V37.6438C24.8597 37.4704 25.0003 37.3299 25.1736 37.3299H26.8922C27.3769 37.3299 27.788 37.0324 27.939 36.572C28.0519 36.2279 28.1925 35.8891 28.3567 35.566C28.576 35.1332 28.4959 34.6321 28.1531 34.2887L26.9375 33.0731C26.8784 33.014 26.8462 32.9352 26.8462 32.8512C26.8462 32.7671 26.8784 32.6883 26.9375 32.6292L28.622 30.9448C28.6811 30.8857 28.7599 30.8535 28.8439 30.8535C28.928 30.8535 29.0068 30.8857 29.0659 30.9448L30.2814 32.1603C30.6249 32.5031 31.126 32.5832 31.5587 32.3639C31.8831 32.1997 32.2213 32.0592 32.5648 31.9462C33.0251 31.7952 33.3226 31.3841 33.3226 30.8995V29.1815C33.3226 29.0082 33.4631 28.8676 33.6365 28.8676H36.019C36.1924 28.8676 36.3329 29.0082 36.3329 29.1815V30.9001C36.3329 31.3848 36.6304 31.7959 37.0908 31.9469C37.4349 32.0599 37.7737 32.2004 38.0968 32.3646C38.5296 32.5839 39.0306 32.5038 39.3741 32.161L40.5896 30.9454C40.6488 30.8863 40.7276 30.8542 40.8116 30.8542C40.8957 30.8542 40.9745 30.8863 41.0336 30.9454L42.718 32.6305C42.7771 32.6896 42.8093 32.7684 42.8093 32.8525C42.8093 32.9365 42.7771 33.0154 42.718 33.0745L41.5025 34.29C41.1597 34.6328 41.0795 35.1345 41.2989 35.5673C41.4631 35.891 41.6036 36.2299 41.7165 36.5733C41.8676 37.0337 42.2787 37.3312 42.7633 37.3312H44.4819C44.6553 37.3312 44.7958 37.4717 44.7958 37.6451V39.0018C44.6605 39.0117 44.5239 39.0189 44.386 39.0189H39.6552V39.0176ZM24.9175 28.0684C25.0384 28.0606 25.1493 27.9975 25.2176 27.8977C25.2859 27.7979 25.305 27.6718 25.2682 27.5562C25.1178 27.0794 25.041 26.5823 25.041 26.078C25.041 23.375 27.2396 21.1764 29.9426 21.1764C31.7433 21.1764 33.3962 22.1608 34.2551 23.746C34.3142 23.8551 34.4213 23.9299 34.5447 23.9483C34.6675 23.9667 34.7916 23.9253 34.8796 23.8373C35.9382 22.7827 37.3449 22.2015 38.8395 22.2015C41.8669 22.2015 44.3834 24.6634 44.4484 27.6889C44.453 27.8911 44.61 28.0573 44.8116 28.073C47.6452 28.2937 49.8649 30.6939 49.8649 33.5368C49.8649 36.1472 48.0301 38.3353 45.5825 38.8836V37.6438C45.5825 37.0363 45.088 36.5418 44.4806 36.5418H42.762C42.6221 36.5418 42.5079 36.4591 42.4639 36.3258C42.3384 35.9442 42.1828 35.5686 42.0009 35.2094C41.9372 35.084 41.9595 34.9447 42.0587 34.8456L43.2742 33.63C43.4818 33.4225 43.5967 33.1454 43.5967 32.8505C43.5967 32.5557 43.4824 32.2792 43.2742 32.0717L41.5898 30.3872C41.3823 30.1797 41.1052 30.0648 40.8103 30.0648C40.5154 30.0648 40.239 30.1791 40.0308 30.3872L38.8152 31.6028C38.7161 31.702 38.5769 31.7243 38.4514 31.6606C38.0922 31.4787 37.7166 31.323 37.335 31.1976C37.2017 31.1536 37.119 31.0393 37.119 30.8995V29.1809C37.119 28.5734 36.6245 28.0789 36.0171 28.0789H33.6345C33.0271 28.0789 32.5326 28.5734 32.5326 29.1809V30.8988C32.5326 31.0387 32.4499 31.1536 32.3166 31.197C31.935 31.3224 31.5594 31.478 31.2002 31.6599C31.0747 31.7236 30.9355 31.7013 30.8364 31.6021L29.6208 30.3866C29.4133 30.1791 29.1362 30.0641 28.8413 30.0641C28.5464 30.0641 28.27 30.1784 28.0618 30.3866L26.3774 32.071C26.1692 32.2785 26.0549 32.5557 26.0549 32.8505C26.0549 33.1454 26.1692 33.4218 26.3774 33.6294L27.5929 34.8449C27.6921 34.9441 27.7144 35.0833 27.6507 35.2087C27.4688 35.5679 27.3132 35.9436 27.1877 36.3251C27.1437 36.4584 27.0295 36.5412 26.8896 36.5412H25.171C24.5636 36.5412 24.0691 37.0357 24.0691 37.6431V38.883C21.6229 38.3359 19.788 36.1478 19.788 33.5374C19.788 30.6545 22.0412 28.253 24.9175 28.0684ZM30.4463 40.2312C30.4443 40.2312 30.4417 40.2312 30.4397 40.2312C30.2223 40.2351 30.049 40.4144 30.0523 40.6318L30.1087 43.9645L27.8714 46.3115C27.52 46.0791 27.0997 45.9431 26.6479 45.9431C25.4219 45.9431 24.425 46.9407 24.425 48.1661C24.425 49.3915 25.4225 50.389 26.6479 50.389C27.8733 50.389 28.8708 49.3915 28.8708 48.1661C28.8708 47.6762 28.7113 47.223 28.4414 46.8553L30.7904 44.3914C30.862 44.3165 30.9007 44.216 30.8994 44.1129L30.8403 40.6186C30.8364 40.4032 30.6604 40.2312 30.4463 40.2312ZM26.6479 49.6016C25.8566 49.6016 25.213 48.958 25.213 48.1667C25.213 47.3754 25.8566 46.7318 26.6479 46.7318C27.4392 46.7318 28.0828 47.3754 28.0828 48.1667C28.0828 48.958 27.4392 49.6016 26.6479 49.6016ZM24.7474 42.1927C24.819 42.1192 24.8584 42.0207 24.8584 41.9182V40.6252C24.8584 40.4078 24.6818 40.2312 24.4644 40.2312C24.247 40.2312 24.0704 40.4078 24.0704 40.6252V41.758L22.9875 42.8737C22.6329 42.6347 22.206 42.4942 21.747 42.4942C20.5209 42.4942 19.524 43.4917 19.524 44.7171C19.524 45.9425 20.5216 46.94 21.747 46.94C22.973 46.94 23.9699 45.9425 23.9699 44.7171C23.9699 44.2344 23.8149 43.7872 23.5522 43.4227L24.7474 42.1927ZM21.747 46.1526C20.9557 46.1526 20.3121 45.5091 20.3121 44.7177C20.3121 43.9264 20.9557 43.2828 21.747 43.2828C22.5383 43.2828 23.1819 43.9264 23.1819 44.7177C23.1819 45.5091 22.5383 46.1526 21.747 46.1526ZM47.9059 42.4948C47.4469 42.4948 47.0201 42.6347 46.6654 42.8737L45.5825 41.758V40.6252C45.5825 40.4078 45.4059 40.2312 45.1885 40.2312C44.9711 40.2312 44.7945 40.4078 44.7945 40.6252V41.9182C44.7945 42.0207 44.8346 42.1192 44.9055 42.1927L46.1 43.4234C45.8373 43.7885 45.6824 44.2351 45.6824 44.7177C45.6824 45.9438 46.6799 46.9407 47.9053 46.9407C49.1307 46.9407 50.1282 45.9431 50.1282 44.7177C50.1282 43.4923 49.1313 42.4948 47.9059 42.4948ZM47.9059 46.1526C47.1146 46.1526 46.4711 45.5091 46.4711 44.7177C46.4711 43.9264 47.1146 43.2828 47.9059 43.2828C48.6973 43.2828 49.3408 43.9264 49.3408 44.7177C49.3408 45.5091 48.6973 46.1526 47.9059 46.1526ZM43.005 45.9438C42.5532 45.9438 42.1329 46.0797 41.7816 46.3122L39.5442 43.9652L39.6007 40.6324C39.6046 40.415 39.4312 40.2358 39.2132 40.2318C39.2112 40.2318 39.2086 40.2318 39.2066 40.2318C38.9919 40.2318 38.8166 40.4039 38.8126 40.6193L38.7535 44.1136C38.7515 44.2173 38.7909 44.3171 38.8625 44.392L41.2115 46.8559C40.9416 47.2237 40.7821 47.6768 40.7821 48.1667C40.7821 49.3928 41.7796 50.3896 43.005 50.3896C44.2304 50.3896 45.2279 49.3921 45.2279 48.1667C45.2279 46.9413 44.231 45.9438 43.005 45.9438ZM43.005 49.6016C42.2137 49.6016 41.5701 48.958 41.5701 48.1667C41.5701 47.3754 42.2137 46.7318 43.005 46.7318C43.7963 46.7318 44.4399 47.3754 44.4399 48.1667C44.4399 48.958 43.7963 49.6016 43.005 49.6016ZM35.2205 45.9793V40.6252C35.2205 40.4078 35.0438 40.2312 34.8265 40.2312C34.6091 40.2312 34.4324 40.4078 34.4324 40.6252V45.9793C33.3942 46.1658 32.6035 47.0753 32.6035 48.1667C32.6035 49.3928 33.6011 50.3896 34.8265 50.3896C36.0519 50.3896 37.0494 49.3921 37.0494 48.1667C37.0494 47.0753 36.2587 46.1658 35.2205 45.9793ZM34.8265 49.6016C34.0351 49.6016 33.3916 48.958 33.3916 48.1667C33.3916 47.3754 34.0351 46.7318 34.8265 46.7318C35.6178 46.7318 36.2613 47.3754 36.2613 48.1667C36.2613 48.958 35.6178 49.6016 34.8265 49.6016Z"/>
</mask>
<path d="M25.2682 39.8056H44.3847C47.8409 39.8056 50.6529 36.9936 50.6529 33.5374C50.6529 30.403 48.2927 27.7388 45.2194 27.3251C45.1031 25.7766 44.4353 24.3384 43.3176 23.2424C42.1145 22.0636 40.524 21.4141 38.8395 21.4141C37.3022 21.4141 35.847 21.9532 34.6905 22.9416C33.6418 21.3557 31.8654 20.3896 29.9432 20.3896C26.8062 20.3896 24.2536 22.9422 24.2536 26.0793C24.2536 26.5029 24.3002 26.9218 24.3922 27.3316C21.3319 27.7618 19 30.401 19 33.5374C19 36.9936 21.812 39.8056 25.2682 39.8056ZM30.7825 38.835C30.7825 36.6049 32.597 34.7911 34.8265 34.7911C37.056 34.7911 38.8704 36.6055 38.8704 38.835C38.8704 38.8954 38.8684 38.9565 38.8658 39.0176H30.7871C30.7845 38.9565 30.7825 38.8954 30.7825 38.835ZM39.6552 39.0176C39.6571 38.9565 39.6591 38.8961 39.6591 38.835C39.6591 36.1708 37.4913 34.003 34.8271 34.003C32.1629 34.003 29.9951 36.1708 29.9951 38.835C29.9951 38.8954 29.9964 38.9565 29.9991 39.0176H25.2695C25.1316 39.0176 24.9957 39.011 24.8597 39.0005V37.6438C24.8597 37.4704 25.0003 37.3299 25.1736 37.3299H26.8922C27.3769 37.3299 27.788 37.0324 27.939 36.572C28.0519 36.2279 28.1925 35.8891 28.3567 35.566C28.576 35.1332 28.4959 34.6321 28.1531 34.2887L26.9375 33.0731C26.8784 33.014 26.8462 32.9352 26.8462 32.8512C26.8462 32.7671 26.8784 32.6883 26.9375 32.6292L28.622 30.9448C28.6811 30.8857 28.7599 30.8535 28.8439 30.8535C28.928 30.8535 29.0068 30.8857 29.0659 30.9448L30.2814 32.1603C30.6249 32.5031 31.126 32.5832 31.5587 32.3639C31.8831 32.1997 32.2213 32.0592 32.5648 31.9462C33.0251 31.7952 33.3226 31.3841 33.3226 30.8995V29.1815C33.3226 29.0082 33.4631 28.8676 33.6365 28.8676H36.019C36.1924 28.8676 36.3329 29.0082 36.3329 29.1815V30.9001C36.3329 31.3848 36.6304 31.7959 37.0908 31.9469C37.4349 32.0599 37.7737 32.2004 38.0968 32.3646C38.5296 32.5839 39.0306 32.5038 39.3741 32.161L40.5896 30.9454C40.6488 30.8863 40.7276 30.8542 40.8116 30.8542C40.8957 30.8542 40.9745 30.8863 41.0336 30.9454L42.718 32.6305C42.7771 32.6896 42.8093 32.7684 42.8093 32.8525C42.8093 32.9365 42.7771 33.0154 42.718 33.0745L41.5025 34.29C41.1597 34.6328 41.0795 35.1345 41.2989 35.5673C41.4631 35.891 41.6036 36.2299 41.7165 36.5733C41.8676 37.0337 42.2787 37.3312 42.7633 37.3312H44.4819C44.6553 37.3312 44.7958 37.4717 44.7958 37.6451V39.0018C44.6605 39.0117 44.5239 39.0189 44.386 39.0189H39.6552V39.0176ZM24.9175 28.0684C25.0384 28.0606 25.1493 27.9975 25.2176 27.8977C25.2859 27.7979 25.305 27.6718 25.2682 27.5562C25.1178 27.0794 25.041 26.5823 25.041 26.078C25.041 23.375 27.2396 21.1764 29.9426 21.1764C31.7433 21.1764 33.3962 22.1608 34.2551 23.746C34.3142 23.8551 34.4213 23.9299 34.5447 23.9483C34.6675 23.9667 34.7916 23.9253 34.8796 23.8373C35.9382 22.7827 37.3449 22.2015 38.8395 22.2015C41.8669 22.2015 44.3834 24.6634 44.4484 27.6889C44.453 27.8911 44.61 28.0573 44.8116 28.073C47.6452 28.2937 49.8649 30.6939 49.8649 33.5368C49.8649 36.1472 48.0301 38.3353 45.5825 38.8836V37.6438C45.5825 37.0363 45.088 36.5418 44.4806 36.5418H42.762C42.6221 36.5418 42.5079 36.4591 42.4639 36.3258C42.3384 35.9442 42.1828 35.5686 42.0009 35.2094C41.9372 35.084 41.9595 34.9447 42.0587 34.8456L43.2742 33.63C43.4818 33.4225 43.5967 33.1454 43.5967 32.8505C43.5967 32.5557 43.4824 32.2792 43.2742 32.0717L41.5898 30.3872C41.3823 30.1797 41.1052 30.0648 40.8103 30.0648C40.5154 30.0648 40.239 30.1791 40.0308 30.3872L38.8152 31.6028C38.7161 31.702 38.5769 31.7243 38.4514 31.6606C38.0922 31.4787 37.7166 31.323 37.335 31.1976C37.2017 31.1536 37.119 31.0393 37.119 30.8995V29.1809C37.119 28.5734 36.6245 28.0789 36.0171 28.0789H33.6345C33.0271 28.0789 32.5326 28.5734 32.5326 29.1809V30.8988C32.5326 31.0387 32.4499 31.1536 32.3166 31.197C31.935 31.3224 31.5594 31.478 31.2002 31.6599C31.0747 31.7236 30.9355 31.7013 30.8364 31.6021L29.6208 30.3866C29.4133 30.1791 29.1362 30.0641 28.8413 30.0641C28.5464 30.0641 28.27 30.1784 28.0618 30.3866L26.3774 32.071C26.1692 32.2785 26.0549 32.5557 26.0549 32.8505C26.0549 33.1454 26.1692 33.4218 26.3774 33.6294L27.5929 34.8449C27.6921 34.9441 27.7144 35.0833 27.6507 35.2087C27.4688 35.5679 27.3132 35.9436 27.1877 36.3251C27.1437 36.4584 27.0295 36.5412 26.8896 36.5412H25.171C24.5636 36.5412 24.0691 37.0357 24.0691 37.6431V38.883C21.6229 38.3359 19.788 36.1478 19.788 33.5374C19.788 30.6545 22.0412 28.253 24.9175 28.0684ZM30.4463 40.2312C30.4443 40.2312 30.4417 40.2312 30.4397 40.2312C30.2223 40.2351 30.049 40.4144 30.0523 40.6318L30.1087 43.9645L27.8714 46.3115C27.52 46.0791 27.0997 45.9431 26.6479 45.9431C25.4219 45.9431 24.425 46.9407 24.425 48.1661C24.425 49.3915 25.4225 50.389 26.6479 50.389C27.8733 50.389 28.8708 49.3915 28.8708 48.1661C28.8708 47.6762 28.7113 47.223 28.4414 46.8553L30.7904 44.3914C30.862 44.3165 30.9007 44.216 30.8994 44.1129L30.8403 40.6186C30.8364 40.4032 30.6604 40.2312 30.4463 40.2312ZM26.6479 49.6016C25.8566 49.6016 25.213 48.958 25.213 48.1667C25.213 47.3754 25.8566 46.7318 26.6479 46.7318C27.4392 46.7318 28.0828 47.3754 28.0828 48.1667C28.0828 48.958 27.4392 49.6016 26.6479 49.6016ZM24.7474 42.1927C24.819 42.1192 24.8584 42.0207 24.8584 41.9182V40.6252C24.8584 40.4078 24.6818 40.2312 24.4644 40.2312C24.247 40.2312 24.0704 40.4078 24.0704 40.6252V41.758L22.9875 42.8737C22.6329 42.6347 22.206 42.4942 21.747 42.4942C20.5209 42.4942 19.524 43.4917 19.524 44.7171C19.524 45.9425 20.5216 46.94 21.747 46.94C22.973 46.94 23.9699 45.9425 23.9699 44.7171C23.9699 44.2344 23.8149 43.7872 23.5522 43.4227L24.7474 42.1927ZM21.747 46.1526C20.9557 46.1526 20.3121 45.5091 20.3121 44.7177C20.3121 43.9264 20.9557 43.2828 21.747 43.2828C22.5383 43.2828 23.1819 43.9264 23.1819 44.7177C23.1819 45.5091 22.5383 46.1526 21.747 46.1526ZM47.9059 42.4948C47.4469 42.4948 47.0201 42.6347 46.6654 42.8737L45.5825 41.758V40.6252C45.5825 40.4078 45.4059 40.2312 45.1885 40.2312C44.9711 40.2312 44.7945 40.4078 44.7945 40.6252V41.9182C44.7945 42.0207 44.8346 42.1192 44.9055 42.1927L46.1 43.4234C45.8373 43.7885 45.6824 44.2351 45.6824 44.7177C45.6824 45.9438 46.6799 46.9407 47.9053 46.9407C49.1307 46.9407 50.1282 45.9431 50.1282 44.7177C50.1282 43.4923 49.1313 42.4948 47.9059 42.4948ZM47.9059 46.1526C47.1146 46.1526 46.4711 45.5091 46.4711 44.7177C46.4711 43.9264 47.1146 43.2828 47.9059 43.2828C48.6973 43.2828 49.3408 43.9264 49.3408 44.7177C49.3408 45.5091 48.6973 46.1526 47.9059 46.1526ZM43.005 45.9438C42.5532 45.9438 42.1329 46.0797 41.7816 46.3122L39.5442 43.9652L39.6007 40.6324C39.6046 40.415 39.4312 40.2358 39.2132 40.2318C39.2112 40.2318 39.2086 40.2318 39.2066 40.2318C38.9919 40.2318 38.8166 40.4039 38.8126 40.6193L38.7535 44.1136C38.7515 44.2173 38.7909 44.3171 38.8625 44.392L41.2115 46.8559C40.9416 47.2237 40.7821 47.6768 40.7821 48.1667C40.7821 49.3928 41.7796 50.3896 43.005 50.3896C44.2304 50.3896 45.2279 49.3921 45.2279 48.1667C45.2279 46.9413 44.231 45.9438 43.005 45.9438ZM43.005 49.6016C42.2137 49.6016 41.5701 48.958 41.5701 48.1667C41.5701 47.3754 42.2137 46.7318 43.005 46.7318C43.7963 46.7318 44.4399 47.3754 44.4399 48.1667C44.4399 48.958 43.7963 49.6016 43.005 49.6016ZM35.2205 45.9793V40.6252C35.2205 40.4078 35.0438 40.2312 34.8265 40.2312C34.6091 40.2312 34.4324 40.4078 34.4324 40.6252V45.9793C33.3942 46.1658 32.6035 47.0753 32.6035 48.1667C32.6035 49.3928 33.6011 50.3896 34.8265 50.3896C36.0519 50.3896 37.0494 49.3921 37.0494 48.1667C37.0494 47.0753 36.2587 46.1658 35.2205 45.9793ZM34.8265 49.6016C34.0351 49.6016 33.3916 48.958 33.3916 48.1667C33.3916 47.3754 34.0351 46.7318 34.8265 46.7318C35.6178 46.7318 36.2613 47.3754 36.2613 48.1667C36.2613 48.958 35.6178 49.6016 34.8265 49.6016Z" fill="white"/>
<path d="M25.2682 39.8056H44.3847C47.8409 39.8056 50.6529 36.9936 50.6529 33.5374C50.6529 30.403 48.2927 27.7388 45.2194 27.3251C45.1031 25.7766 44.4353 24.3384 43.3176 23.2424C42.1145 22.0636 40.524 21.4141 38.8395 21.4141C37.3022 21.4141 35.847 21.9532 34.6905 22.9416C33.6418 21.3557 31.8654 20.3896 29.9432 20.3896C26.8062 20.3896 24.2536 22.9422 24.2536 26.0793C24.2536 26.5029 24.3002 26.9218 24.3922 27.3316C21.3319 27.7618 19 30.401 19 33.5374C19 36.9936 21.812 39.8056 25.2682 39.8056ZM30.7825 38.835C30.7825 36.6049 32.597 34.7911 34.8265 34.7911C37.056 34.7911 38.8704 36.6055 38.8704 38.835C38.8704 38.8954 38.8684 38.9565 38.8658 39.0176H30.7871C30.7845 38.9565 30.7825 38.8954 30.7825 38.835ZM39.6552 39.0176C39.6571 38.9565 39.6591 38.8961 39.6591 38.835C39.6591 36.1708 37.4913 34.003 34.8271 34.003C32.1629 34.003 29.9951 36.1708 29.9951 38.835C29.9951 38.8954 29.9964 38.9565 29.9991 39.0176H25.2695C25.1316 39.0176 24.9957 39.011 24.8597 39.0005V37.6438C24.8597 37.4704 25.0003 37.3299 25.1736 37.3299H26.8922C27.3769 37.3299 27.788 37.0324 27.939 36.572C28.0519 36.2279 28.1925 35.8891 28.3567 35.566C28.576 35.1332 28.4959 34.6321 28.1531 34.2887L26.9375 33.0731C26.8784 33.014 26.8462 32.9352 26.8462 32.8512C26.8462 32.7671 26.8784 32.6883 26.9375 32.6292L28.622 30.9448C28.6811 30.8857 28.7599 30.8535 28.8439 30.8535C28.928 30.8535 29.0068 30.8857 29.0659 30.9448L30.2814 32.1603C30.6249 32.5031 31.126 32.5832 31.5587 32.3639C31.8831 32.1997 32.2213 32.0592 32.5648 31.9462C33.0251 31.7952 33.3226 31.3841 33.3226 30.8995V29.1815C33.3226 29.0082 33.4631 28.8676 33.6365 28.8676H36.019C36.1924 28.8676 36.3329 29.0082 36.3329 29.1815V30.9001C36.3329 31.3848 36.6304 31.7959 37.0908 31.9469C37.4349 32.0599 37.7737 32.2004 38.0968 32.3646C38.5296 32.5839 39.0306 32.5038 39.3741 32.161L40.5896 30.9454C40.6488 30.8863 40.7276 30.8542 40.8116 30.8542C40.8957 30.8542 40.9745 30.8863 41.0336 30.9454L42.718 32.6305C42.7771 32.6896 42.8093 32.7684 42.8093 32.8525C42.8093 32.9365 42.7771 33.0154 42.718 33.0745L41.5025 34.29C41.1597 34.6328 41.0795 35.1345 41.2989 35.5673C41.4631 35.891 41.6036 36.2299 41.7165 36.5733C41.8676 37.0337 42.2787 37.3312 42.7633 37.3312H44.4819C44.6553 37.3312 44.7958 37.4717 44.7958 37.6451V39.0018C44.6605 39.0117 44.5239 39.0189 44.386 39.0189H39.6552V39.0176ZM24.9175 28.0684C25.0384 28.0606 25.1493 27.9975 25.2176 27.8977C25.2859 27.7979 25.305 27.6718 25.2682 27.5562C25.1178 27.0794 25.041 26.5823 25.041 26.078C25.041 23.375 27.2396 21.1764 29.9426 21.1764C31.7433 21.1764 33.3962 22.1608 34.2551 23.746C34.3142 23.8551 34.4213 23.9299 34.5447 23.9483C34.6675 23.9667 34.7916 23.9253 34.8796 23.8373C35.9382 22.7827 37.3449 22.2015 38.8395 22.2015C41.8669 22.2015 44.3834 24.6634 44.4484 27.6889C44.453 27.8911 44.61 28.0573 44.8116 28.073C47.6452 28.2937 49.8649 30.6939 49.8649 33.5368C49.8649 36.1472 48.0301 38.3353 45.5825 38.8836V37.6438C45.5825 37.0363 45.088 36.5418 44.4806 36.5418H42.762C42.6221 36.5418 42.5079 36.4591 42.4639 36.3258C42.3384 35.9442 42.1828 35.5686 42.0009 35.2094C41.9372 35.084 41.9595 34.9447 42.0587 34.8456L43.2742 33.63C43.4818 33.4225 43.5967 33.1454 43.5967 32.8505C43.5967 32.5557 43.4824 32.2792 43.2742 32.0717L41.5898 30.3872C41.3823 30.1797 41.1052 30.0648 40.8103 30.0648C40.5154 30.0648 40.239 30.1791 40.0308 30.3872L38.8152 31.6028C38.7161 31.702 38.5769 31.7243 38.4514 31.6606C38.0922 31.4787 37.7166 31.323 37.335 31.1976C37.2017 31.1536 37.119 31.0393 37.119 30.8995V29.1809C37.119 28.5734 36.6245 28.0789 36.0171 28.0789H33.6345C33.0271 28.0789 32.5326 28.5734 32.5326 29.1809V30.8988C32.5326 31.0387 32.4499 31.1536 32.3166 31.197C31.935 31.3224 31.5594 31.478 31.2002 31.6599C31.0747 31.7236 30.9355 31.7013 30.8364 31.6021L29.6208 30.3866C29.4133 30.1791 29.1362 30.0641 28.8413 30.0641C28.5464 30.0641 28.27 30.1784 28.0618 30.3866L26.3774 32.071C26.1692 32.2785 26.0549 32.5557 26.0549 32.8505C26.0549 33.1454 26.1692 33.4218 26.3774 33.6294L27.5929 34.8449C27.6921 34.9441 27.7144 35.0833 27.6507 35.2087C27.4688 35.5679 27.3132 35.9436 27.1877 36.3251C27.1437 36.4584 27.0295 36.5412 26.8896 36.5412H25.171C24.5636 36.5412 24.0691 37.0357 24.0691 37.6431V38.883C21.6229 38.3359 19.788 36.1478 19.788 33.5374C19.788 30.6545 22.0412 28.253 24.9175 28.0684ZM30.4463 40.2312C30.4443 40.2312 30.4417 40.2312 30.4397 40.2312C30.2223 40.2351 30.049 40.4144 30.0523 40.6318L30.1087 43.9645L27.8714 46.3115C27.52 46.0791 27.0997 45.9431 26.6479 45.9431C25.4219 45.9431 24.425 46.9407 24.425 48.1661C24.425 49.3915 25.4225 50.389 26.6479 50.389C27.8733 50.389 28.8708 49.3915 28.8708 48.1661C28.8708 47.6762 28.7113 47.223 28.4414 46.8553L30.7904 44.3914C30.862 44.3165 30.9007 44.216 30.8994 44.1129L30.8403 40.6186C30.8364 40.4032 30.6604 40.2312 30.4463 40.2312ZM26.6479 49.6016C25.8566 49.6016 25.213 48.958 25.213 48.1667C25.213 47.3754 25.8566 46.7318 26.6479 46.7318C27.4392 46.7318 28.0828 47.3754 28.0828 48.1667C28.0828 48.958 27.4392 49.6016 26.6479 49.6016ZM24.7474 42.1927C24.819 42.1192 24.8584 42.0207 24.8584 41.9182V40.6252C24.8584 40.4078 24.6818 40.2312 24.4644 40.2312C24.247 40.2312 24.0704 40.4078 24.0704 40.6252V41.758L22.9875 42.8737C22.6329 42.6347 22.206 42.4942 21.747 42.4942C20.5209 42.4942 19.524 43.4917 19.524 44.7171C19.524 45.9425 20.5216 46.94 21.747 46.94C22.973 46.94 23.9699 45.9425 23.9699 44.7171C23.9699 44.2344 23.8149 43.7872 23.5522 43.4227L24.7474 42.1927ZM21.747 46.1526C20.9557 46.1526 20.3121 45.5091 20.3121 44.7177C20.3121 43.9264 20.9557 43.2828 21.747 43.2828C22.5383 43.2828 23.1819 43.9264 23.1819 44.7177C23.1819 45.5091 22.5383 46.1526 21.747 46.1526ZM47.9059 42.4948C47.4469 42.4948 47.0201 42.6347 46.6654 42.8737L45.5825 41.758V40.6252C45.5825 40.4078 45.4059 40.2312 45.1885 40.2312C44.9711 40.2312 44.7945 40.4078 44.7945 40.6252V41.9182C44.7945 42.0207 44.8346 42.1192 44.9055 42.1927L46.1 43.4234C45.8373 43.7885 45.6824 44.2351 45.6824 44.7177C45.6824 45.9438 46.6799 46.9407 47.9053 46.9407C49.1307 46.9407 50.1282 45.9431 50.1282 44.7177C50.1282 43.4923 49.1313 42.4948 47.9059 42.4948ZM47.9059 46.1526C47.1146 46.1526 46.4711 45.5091 46.4711 44.7177C46.4711 43.9264 47.1146 43.2828 47.9059 43.2828C48.6973 43.2828 49.3408 43.9264 49.3408 44.7177C49.3408 45.5091 48.6973 46.1526 47.9059 46.1526ZM43.005 45.9438C42.5532 45.9438 42.1329 46.0797 41.7816 46.3122L39.5442 43.9652L39.6007 40.6324C39.6046 40.415 39.4312 40.2358 39.2132 40.2318C39.2112 40.2318 39.2086 40.2318 39.2066 40.2318C38.9919 40.2318 38.8166 40.4039 38.8126 40.6193L38.7535 44.1136C38.7515 44.2173 38.7909 44.3171 38.8625 44.392L41.2115 46.8559C40.9416 47.2237 40.7821 47.6768 40.7821 48.1667C40.7821 49.3928 41.7796 50.3896 43.005 50.3896C44.2304 50.3896 45.2279 49.3921 45.2279 48.1667C45.2279 46.9413 44.231 45.9438 43.005 45.9438ZM43.005 49.6016C42.2137 49.6016 41.5701 48.958 41.5701 48.1667C41.5701 47.3754 42.2137 46.7318 43.005 46.7318C43.7963 46.7318 44.4399 47.3754 44.4399 48.1667C44.4399 48.958 43.7963 49.6016 43.005 49.6016ZM35.2205 45.9793V40.6252C35.2205 40.4078 35.0438 40.2312 34.8265 40.2312C34.6091 40.2312 34.4324 40.4078 34.4324 40.6252V45.9793C33.3942 46.1658 32.6035 47.0753 32.6035 48.1667C32.6035 49.3928 33.6011 50.3896 34.8265 50.3896C36.0519 50.3896 37.0494 49.3921 37.0494 48.1667C37.0494 47.0753 36.2587 46.1658 35.2205 45.9793ZM34.8265 49.6016C34.0351 49.6016 33.3916 48.958 33.3916 48.1667C33.3916 47.3754 34.0351 46.7318 34.8265 46.7318C35.6178 46.7318 36.2613 47.3754 36.2613 48.1667C36.2613 48.958 35.6178 49.6016 34.8265 49.6016Z" stroke="white" stroke-width="0.6" mask="url(#path-2-outside-1_1449_450)"/>
</svg>
