<svg width="101" height="100" viewBox="0 0 101 100" fill="none" xmlns="http://www.w3.org/2000/svg">
<circle cx="50.5" cy="50" r="50" fill="#65221A"/>
<path d="M65.9286 68H35.0714C34.3894 68 33.7354 67.7291 33.2532 67.2468C32.7709 66.7646 32.5 66.1106 32.5 65.4286V34.5714C32.5 33.8894 32.7709 33.2354 33.2532 32.7532C33.7354 32.2709 34.3894 32 35.0714 32H65.9286C66.6106 32 67.2646 32.2709 67.7468 32.7532C68.2291 33.2354 68.5 33.8894 68.5 34.5714V65.4286C68.5 66.1106 68.2291 66.7646 67.7468 67.2468C67.2646 67.7291 66.6106 68 65.9286 68ZM35.0714 33.7143C34.8441 33.7143 34.6261 33.8046 34.4653 33.9653C34.3046 34.1261 34.2143 34.3441 34.2143 34.5714V65.4286C34.2143 65.6559 34.3046 65.8739 34.4653 66.0347C34.6261 66.1954 34.8441 66.2857 35.0714 66.2857H65.9286C66.1559 66.2857 66.3739 66.1954 66.5347 66.0347C66.6954 65.8739 66.7857 65.6559 66.7857 65.4286V34.5714C66.7857 34.3441 66.6954 34.1261 66.5347 33.9653C66.3739 33.8046 66.1559 33.7143 65.9286 33.7143H35.0714Z" fill="#F7F4F4"/>
<path d="M51.3569 45.7143H37.6426V37.1428H51.3569V45.7143ZM39.3569 44H49.6426V38.8571H39.3569V44Z" fill="#F7F4F4"/>
<path d="M51.3569 62.8571H37.6426V49.1428H51.3569V62.8571ZM39.3569 61.1428H49.6426V50.8571H39.3569V61.1428Z" fill="#F7F4F4"/>
<path d="M63.3566 62.8571H54.7852V37.1428H63.3566V62.8571ZM56.4994 61.1428H61.6423V38.8571H56.4994V61.1428Z" fill="#F7F4F4"/>
</svg>
