<svg width="101" height="100" viewBox="0 0 101 100" fill="none" xmlns="http://www.w3.org/2000/svg">
<circle cx="50.5" cy="50" r="50" fill="#F7F4F4"/>
<path d="M61.7067 32H38.5V61.2404H46.4831L46.3439 66.9029C46.3439 67.3206 46.5759 67.7383 46.9937 67.924C47.365 68.0632 47.8291 68.0168 48.154 67.7383L50.1033 66.021L52.0527 67.7383C52.2848 67.8776 52.5168 67.9704 52.7953 67.9704H53.213C53.6308 67.7847 53.8628 67.367 53.8628 66.9029L53.7236 61.2869H61.7067V32ZM50.846 64.2109C50.4282 63.8396 49.8249 63.8396 49.4071 64.1645L48.2468 65.1856L48.3861 59.059C48.9894 59.2447 49.5928 59.3839 50.1962 59.3839C50.7531 59.3839 51.3101 59.2911 51.8206 59.1054L51.9599 65.1856L50.846 64.2109ZM51.9599 57.0168H51.7742V57.1096C51.3101 57.3881 50.7531 57.5274 50.1962 57.5274C48.3861 57.5274 46.9008 56.0421 46.9008 54.232C46.9008 52.4219 48.3861 50.9367 50.1962 50.9367C52.0063 50.9367 53.4915 52.4219 53.4915 54.232C53.4915 55.3459 52.9346 56.4134 51.9599 57.0168ZM59.8502 59.3839H53.6772V57.9915C54.7447 57.0168 55.3481 55.6244 55.3481 54.1856C55.3945 51.308 53.0738 48.9409 50.1962 48.9409C47.3185 48.9409 44.9979 51.1687 44.9515 54.0464C44.9515 55.4852 45.5084 56.8312 46.5295 57.8523V59.3839H40.3565V33.8565H59.8502V59.3839Z" fill="#65221A"/>
<path d="M47.0865 40.1688H53.1202C53.6308 40.1688 54.0485 39.7511 54.0485 39.2405C54.0949 38.7764 53.7236 38.3587 53.213 38.3123C53.1666 38.3123 53.1666 38.3123 53.1202 38.3123H47.0865C46.6223 38.2659 46.2046 38.6372 46.1582 39.1477C46.1582 39.1941 46.1582 39.1941 46.1582 39.2405C46.1582 39.7511 46.5759 40.1688 47.0865 40.1688Z" fill="#65221A"/>
<path d="M44.3013 45.2743H55.9047C56.4152 45.2743 56.8329 44.8566 56.8329 44.346C56.8793 43.8819 56.508 43.4641 55.9975 43.4177C55.9511 43.4177 55.9511 43.4177 55.9047 43.4177H44.3013C43.8372 43.3713 43.4195 43.7426 43.373 44.2532C43.373 44.2996 43.373 44.2996 43.373 44.346C43.373 44.8566 43.7908 45.2743 44.3013 45.2743Z" fill="#65221A"/>
</svg>
