<svg width="101" height="100" viewBox="0 0 101 100" fill="none" xmlns="http://www.w3.org/2000/svg">
<circle cx="50.5" cy="50" r="50" fill="#F7F4F4"/>
<path d="M57.4843 36.4879L57.4843 36.4879L57.4873 36.4879C57.6533 36.4869 57.8169 36.447 57.9648 36.3714C58.1126 36.2958 58.2407 36.1866 58.3388 36.0525L58.3388 36.0525L58.3404 36.0503C58.4988 35.825 58.5621 35.5464 58.5164 35.2748C58.4708 35.0032 58.3199 34.7606 58.0965 34.5996L58.0965 34.5996L58.0952 34.5986C56.0198 33.1354 53.5426 32.35 51.0032 32.35C48.4639 32.35 45.9867 33.1354 43.9112 34.5986L43.911 34.5983L43.9025 34.6053C43.6984 34.7728 43.5655 35.0116 43.5309 35.2734C43.4962 35.5352 43.5624 35.8004 43.716 36.0152C43.8695 36.23 44.099 36.3785 44.3579 36.4304C44.6168 36.4824 44.8858 36.434 45.1104 36.295L45.1105 36.2952L45.1179 36.29C46.8386 35.0769 48.8924 34.4257 50.9977 34.4257C53.103 34.4257 55.1567 35.0769 56.8774 36.2899C57.055 36.4159 57.2666 36.485 57.4843 36.4879Z" fill="#65221A" stroke="#65221A" stroke-width="0.3"/>
<path d="M52.9416 41.4975L52.9416 41.4976L52.9431 41.4986C53.1178 41.6186 53.3237 41.6851 53.5356 41.6899C53.7577 41.6963 53.9761 41.6315 54.1587 41.5049C54.3415 41.3782 54.4789 41.1962 54.5508 40.9857C54.6226 40.7752 54.6252 40.5472 54.558 40.3351C54.4908 40.1231 54.3574 39.9381 54.1775 39.8074L54.1768 39.8069C53.2512 39.1427 52.1376 38.7918 50.9985 38.8055C49.8725 38.7986 48.7733 39.1482 47.8581 39.804C47.7389 39.8787 47.636 39.9767 47.5557 40.0923C47.4743 40.2093 47.4179 40.3418 47.3899 40.4815C47.3618 40.6212 47.3628 40.7652 47.3927 40.9046C47.4226 41.0439 47.4807 41.1756 47.5636 41.2915C47.6465 41.4075 47.7523 41.5051 47.8744 41.5785C47.9966 41.6519 48.1325 41.6994 48.2738 41.7181C48.4151 41.7368 48.5587 41.7263 48.6957 41.6872C48.8311 41.6486 48.9573 41.5829 49.0665 41.4942C49.6297 41.0917 50.3057 40.8773 50.998 40.8816L50.999 40.8816C51.6946 40.8815 52.3731 41.0966 52.9416 41.4975Z" fill="#65221A" stroke="#65221A" stroke-width="0.3"/>
<path d="M62.0772 31.4453L62.0784 31.4454C62.3007 31.452 62.5193 31.3871 62.7022 31.2604C62.885 31.1337 63.0224 30.9517 63.0942 30.7412C63.1661 30.5307 63.1686 30.3027 63.1014 30.0906C63.0342 29.8786 62.9008 29.6936 62.7209 29.5629L62.7192 29.5617C59.2988 27.1466 55.2145 25.85 51.0274 25.85C46.8417 25.85 42.7588 27.1457 39.3391 29.5592C39.2196 29.6339 39.1166 29.7321 39.0361 29.8478C38.9548 29.9648 38.8984 30.0973 38.8703 30.237C38.8423 30.3767 38.8433 30.5207 38.8731 30.6601C38.903 30.7994 38.9612 30.9311 39.0441 31.047C39.127 31.163 39.2328 31.2607 39.3549 31.334C39.4771 31.4074 39.613 31.4549 39.7543 31.4736C39.8956 31.4923 40.0392 31.4818 40.1762 31.4427C40.3114 31.4042 40.4374 31.3386 40.5465 31.2501C43.6129 29.0908 47.2715 27.9319 51.0219 27.9319C54.774 27.9319 58.4343 29.0919 61.5015 31.2531L61.5025 31.2537C61.6718 31.3712 61.8713 31.4377 62.0772 31.4453Z" fill="#65221A" stroke="#65221A" stroke-width="0.3"/>
<path d="M52.0453 56.4097V56.4088V51.8284C52.0557 51.6866 52.0369 51.5441 51.9903 51.4097C51.943 51.2734 51.868 51.1483 51.77 51.0423C51.6721 50.9364 51.5533 50.8518 51.421 50.794C51.2888 50.7362 51.1461 50.7063 51.0018 50.7063C50.8575 50.7063 50.7147 50.7362 50.5825 50.794C50.4503 50.8518 50.3315 50.9364 50.2335 51.0423C50.1356 51.1483 50.0606 51.2734 50.0133 51.4097C49.9666 51.5441 49.9479 51.6866 49.9582 51.8284V56.4088C49.9582 56.6852 50.0676 56.9504 50.2624 57.1464C50.4572 57.3425 50.7217 57.4534 50.9981 57.4552L50.9999 57.4551C51.2767 57.4535 51.5416 57.3428 51.7373 57.1471C51.933 56.9514 52.0437 56.6865 52.0453 56.4097Z" fill="#65221A" stroke="#65221A" stroke-width="0.3"/>
<path d="M61.0131 55.2649H61.0132L61.0131 55.2614C60.9513 52.6455 59.8688 50.1575 57.9969 48.3292C56.1249 46.501 53.6121 45.4774 50.9954 45.4774C48.3788 45.4774 45.866 46.501 43.994 48.3292C42.1221 50.1575 41.0395 52.6455 40.9778 55.2614L40.9777 55.2614V55.2649V64.2373C40.9465 65.5721 41.1823 66.8998 41.6713 68.1422C42.1606 69.3852 42.8934 70.5178 43.8268 71.4734C44.7601 72.4291 45.8751 73.1884 47.1062 73.7069C48.3373 74.2254 49.6596 74.4925 50.9954 74.4925C52.3313 74.4925 53.6536 74.2254 54.8847 73.7069C56.1158 73.1884 57.2308 72.4291 58.1641 71.4734C59.0974 70.5178 59.8303 69.3852 60.3196 68.1422C60.8086 66.8998 61.0444 65.5721 61.0131 64.2373V55.2649ZM43.0539 55.2649C43.0539 53.1594 43.8903 51.1402 45.3791 49.6513C46.8679 48.1625 48.8872 47.3261 50.9927 47.3261C53.0982 47.3261 55.1175 48.1625 56.6063 49.6513C58.0951 51.1402 58.9315 53.1594 58.9315 55.2649V64.2391C58.9315 66.3446 58.0951 68.3638 56.6063 69.8527C55.1175 71.3415 53.0982 72.1779 50.9927 72.1779C48.8872 72.1779 46.8679 71.3415 45.3791 69.8527C43.8903 68.3638 43.0539 66.3446 43.0539 64.2391V55.2649Z" fill="#65221A" stroke="#65221A" stroke-width="0.3"/>
</svg>
