<svg width="60" height="60" viewBox="0 0 60 60" fill="none" xmlns="http://www.w3.org/2000/svg">
<g id="shake hands">
<g id="Group 57">
<path id="Vector" d="M34.2823 29.4412C37.0205 27.3176 38.8646 23.2941 38.8646 19.4941C38.8646 13.9618 34.9528 11 30.0911 11C25.2852 11 21.3175 13.9618 21.3175 19.4941C21.3175 23.2941 23.1617 27.3176 25.8999 29.4412C19.194 30.95 14.2764 35.8676 14.2764 40.5059C14.3881 46.0382 21.4293 49 30.147 49C38.8646 49 45.9058 46.0382 45.9058 40.5059C45.9058 35.8676 40.9881 30.95 34.2823 29.4412Z" fill="black"/>
<path id="Vector_2" d="M48.7557 28.6589C50.3204 27.4854 51.3263 25.1942 51.3263 23.0707C51.3263 19.9412 49.1469 18.2648 46.4087 18.2648C43.6704 18.2648 41.491 19.9412 41.491 23.0707C41.491 25.1942 42.5528 27.4854 44.0616 28.6589C42.4969 28.9942 41.0999 29.7207 40.0381 30.5589C43.894 32.7942 46.5763 36.203 46.9675 39.6677C51.6057 39.5001 55.294 37.8795 55.294 34.8618C55.294 32.2912 52.4999 29.4971 48.7557 28.6589Z" fill="black"/>
<path id="Vector_3" d="M20.2559 30.5589C19.1382 29.7207 17.7971 28.9942 16.2324 28.6589C17.7971 27.4854 18.8029 25.1942 18.8029 23.0707C18.8029 19.9412 16.6235 18.2648 13.8853 18.2648C11.1471 18.2648 8.96765 19.9412 8.96765 23.0707C8.96765 25.1942 10.0294 27.4854 11.5382 28.6589C7.79412 29.4971 5 32.2912 5 34.8618C5 37.8795 8.68824 39.5001 13.3265 39.6118C13.7176 36.203 16.4 32.7942 20.2559 30.5589Z" fill="black"/>
</g>
</g>
</svg>
