<svg width="60" height="60" viewBox="0 0 60 60" fill="none" xmlns="http://www.w3.org/2000/svg">
<g id="shake hands">
<g id="Group 58">
<path id="Vector" d="M19 46C21.2091 46 23 44.2091 23 42C23 39.7909 21.2091 38 19 38C16.7909 38 15 39.7909 15 42C15 44.2091 16.7909 46 19 46Z" fill="black"/>
<path id="Vector_2" d="M41.6667 46C43.8759 46 45.6667 44.2091 45.6667 42C45.6667 39.7909 43.8759 38 41.6667 38C39.4576 38 37.6667 39.7909 37.6667 42C37.6667 44.2091 39.4576 46 41.6667 46Z" fill="black"/>
<path id="Vector_3" d="M19 35.3333C22.6767 35.3333 25.6667 38.3233 25.6667 42C25.6667 42.4567 25.62 42.9017 25.5333 43.3333H35V16.6667C35 15.1933 33.8067 14 32.3333 14H9.66667C8.19333 14 7 15.1933 7 16.6667V40.6667C7 42.14 8.19333 43.3333 9.66667 43.3333H12.4667C12.3783 42.9017 12.3333 42.4567 12.3333 42C12.3333 38.3233 15.3233 35.3333 19 35.3333Z" fill="black"/>
<path id="Vector_4" d="M45.6668 30H51.8235L48.9285 24.2117C48.2468 22.8483 46.8751 22 45.3501 22H44.3318V28.6667C44.3318 29.4017 44.9301 30 45.6651 30H45.6668Z" fill="black"/>
<path id="Vector_5" d="M41.6667 28.6667V22H37.6667V36.67C38.9251 35.7233 40.5267 35.2117 42.2484 35.3583C45.4217 35.6283 47.9917 38.1667 48.3017 41.3367C48.3684 42.025 48.3301 42.6967 48.2001 43.3333H49.6667C51.1401 43.3333 52.3334 42.14 52.3334 40.6667V38H49.6667C48.9301 38 48.3334 37.4033 48.3334 36.6667C48.3334 35.93 48.9301 35.3333 49.6667 35.3333H52.3334V32.6667H45.6667C43.4617 32.6667 41.6667 30.8717 41.6667 28.6667Z" fill="black"/>
</g>
</g>
</svg>
