<svg width="60" height="60" viewBox="0 0 60 60" fill="none" xmlns="http://www.w3.org/2000/svg">
<path d="M25.4209 14.9394C25.6267 16.1475 26.1543 17.2218 26.8935 18.0359C26.9023 18.0448 26.9097 18.0536 26.917 18.0624C27.812 19.0323 29.0112 19.626 30.3265 19.626C31.6418 19.626 32.841 19.0323 33.736 18.0624C33.7433 18.0536 33.7522 18.0448 33.7595 18.0359C34.4987 17.2218 35.0263 16.1475 35.232 14.9394C35.2938 14.5751 35.3261 14.1973 35.3261 13.8123C35.3261 10.6071 33.0835 8 30.3265 8C27.5695 8 25.3269 10.6071 25.3269 13.8123C25.3269 14.1959 25.3592 14.5706 25.4195 14.9321C25.4209 14.9336 25.4209 14.9366 25.4209 14.9394Z" fill="black"/>
<path d="M36.5339 30.3528C36.7778 30.3322 36.9894 30.5129 37.01 30.7554L38.0167 42.6548C39.141 41.87 40.1329 40.9206 40.9736 39.8214V27.969C40.9736 25.2797 38.8705 23.0458 36.187 22.8842L30.3248 22.5271L24.461 22.8842C21.7776 23.0458 19.6746 25.2797 19.6746 27.969V39.8214C20.5137 40.9178 21.5057 41.8686 22.6314 42.6563L23.6396 30.7554C23.6601 30.5129 23.8718 30.3292 24.1157 30.3528C24.3582 30.3733 24.5389 30.5864 24.5184 30.8289L23.4706 43.1985C25.5383 44.4331 27.9029 45.0826 30.3248 45.0826C32.7496 45.0826 35.1128 44.4316 37.1776 43.1985L36.1312 30.8289C36.1106 30.5864 36.2914 30.3733 36.5339 30.3528Z" fill="black"/>
<path d="M50.304 27.9264L47.2178 27.6662C47.0311 27.6501 46.8754 27.5193 46.8284 27.3385C46.4374 25.8455 45.8423 24.4111 45.0619 23.0752C44.9678 22.9136 44.9855 22.7108 45.1059 22.5682L47.1032 20.2036C45.6718 18.1109 43.8891 16.3282 41.7979 14.8983L39.4333 16.8955C39.2907 17.016 39.0879 17.0336 38.9263 16.9396C37.9945 16.3944 37.0128 15.9402 35.9988 15.5817C35.771 16.5251 35.3669 17.3849 34.829 18.1138C40.6222 20.0346 44.6122 25.5206 44.6122 31.6768C44.6122 34.7791 43.6363 37.7301 41.7832 40.2123C41.7832 40.2138 41.7817 40.2138 41.7817 40.2152C41.7773 40.2226 41.7714 40.2284 41.767 40.2358C41.7626 40.2417 41.7582 40.2461 41.7538 40.252C40.6839 41.676 39.3789 42.8708 37.874 43.8084H37.8726C35.6138 45.2178 33.0038 45.9643 30.3247 45.9643C27.65 45.9643 25.0429 45.2192 22.7826 43.8128C22.7797 43.8099 22.7768 43.8084 22.7738 43.8069C22.7709 43.8055 22.7694 43.804 22.7665 43.8026C21.2645 42.8664 19.9639 41.6746 18.8985 40.2579L18.897 40.2564C18.8911 40.249 18.8867 40.2431 18.8808 40.2358C18.8764 40.2284 18.8706 40.2226 18.8661 40.2152C18.8661 40.2152 18.8661 40.2138 18.8647 40.2138C17.013 37.7316 16.0357 34.7806 16.0357 31.6768C16.0357 25.5192 20.0286 20.0331 25.8232 18.1138C25.2854 17.3849 24.8812 16.5251 24.6534 15.5817C23.6335 15.9418 22.6504 16.3973 21.7231 16.9396C21.5614 17.0336 21.3586 17.016 21.216 16.8955L18.8514 14.8983C16.7572 16.3312 14.9746 18.1124 13.5477 20.2021L15.5448 22.5682C15.6653 22.7108 15.683 22.9136 15.5889 23.0752C14.8071 24.4096 14.2119 25.8439 13.821 27.3385C13.7739 27.5193 13.6182 27.6501 13.4315 27.6662L10.3454 27.9264C10.1161 29.1491 10 30.4086 10 31.6768C10 32.9436 10.1161 34.203 10.3454 35.4272L13.4315 35.6859C13.6182 35.7021 13.7739 35.8329 13.821 36.0137C14.2119 37.5082 14.8071 38.9425 15.5889 40.2769C15.683 40.4386 15.6653 40.6414 15.5448 40.784L13.5477 43.1501C14.9776 45.2413 16.7602 47.0224 18.8514 48.4524L21.216 46.4552C21.3586 46.3347 21.5629 46.317 21.7231 46.4111C22.2242 46.705 22.7518 46.9784 23.2911 47.2223C24.1626 47.6177 25.0694 47.9395 25.9864 48.179C26.1671 48.2275 26.2994 48.3833 26.3141 48.57L26.5742 51.6546C29.0182 52.1147 31.6179 52.1147 34.0751 51.6576L34.3352 48.5685C34.3499 48.3833 34.4822 48.2275 34.6629 48.179C35.5844 47.938 36.4911 47.6177 37.3582 47.2238C37.8976 46.9799 38.4251 46.7065 38.9263 46.4125C39.0864 46.3186 39.2907 46.3361 39.4333 46.4567L41.7979 48.4539C43.8891 47.0224 45.6718 45.2398 47.1032 43.1486L45.1059 40.784C44.9855 40.64 44.9678 40.4371 45.0619 40.2755C45.8423 38.9411 46.4374 37.5082 46.8284 36.0137C46.8754 35.8329 47.0311 35.7021 47.2178 35.6859L50.304 35.4272C50.5332 34.2016 50.6493 32.9407 50.6493 31.6768C50.6493 30.4115 50.5332 29.1506 50.304 27.9264Z" fill="black"/>
</svg>
