<svg width="60" height="60" viewBox="0 0 60 60" fill="none" xmlns="http://www.w3.org/2000/svg">
<path d="M42.7488 41.751C43.5559 41.9734 44.5726 42.1068 45.0937 41.5921C45.7292 40.9566 45.583 39.584 45.4559 38.9676L43.6385 36.9976L43.5876 36.9404L43.0538 36.3685L42.9395 36.2414L42.4247 35.6822L42.2468 35.4916L41.7765 34.9705L41.5351 34.7099L41.0585 34.1952L40.8424 33.9537L40.3467 33.4263L40.0798 33.1403L39.5715 32.6383L39.2918 32.346L38.7835 31.7931L38.5674 31.5643L37.9319 30.9289L37.7921 30.7827L36.356 29.2512C36.048 28.9371 35.7212 28.6422 35.3773 28.3679C32.7655 26.2772 31.1514 27.4783 29.5501 29.0034L29.1878 29.3465C27.0908 31.3546 25.2161 31.6724 23.6274 30.2934C22.1722 29.0225 22.2993 25.4765 22.3184 25.0762V24.9046L24.6506 21.3142L18.4102 21.0155L15.2773 34.9705C17.2473 36.5846 28.1838 45.5384 29.9631 46.8983C30.9799 47.6736 32.6384 47.4702 33.7759 47.1588C32.5813 46.0849 31.1451 44.725 30.1792 43.7908L29.7852 43.4095L29.6581 43.2888L29.2133 42.8567L30.1029 41.948C30.141 41.9797 33.6552 45.424 35.587 47.0762C35.6813 47.1789 35.8004 47.2555 35.9328 47.2989C36.0652 47.3423 36.2065 47.351 36.3433 47.3241C36.9787 47.1779 37.6841 46.212 38.0972 45.4176L31.4628 39.3679L32.3207 38.4274L39.0758 44.5725C40.4357 45.0364 41.4334 45.0808 41.8147 44.6932C42.196 44.3056 42.0434 43.1617 41.8909 42.666L34.6084 35.6758L35.4854 34.7608L42.7488 41.751Z" fill="black"/>
<path d="M32.9626 20.3927L26.4109 20.9456L23.564 25.3303C23.5258 26.6013 23.7292 28.7428 24.4473 29.3592C25.1653 29.9756 26.2393 30.4268 28.2982 28.4568L28.6922 28.0819L29.1434 27.6752C29.468 27.3892 29.812 27.1259 30.1729 26.8872C30.5381 26.6468 30.9306 26.4505 31.3421 26.3026C31.5494 26.2313 31.7619 26.176 31.9776 26.1374C32.2001 26.099 32.4255 26.0799 32.6512 26.0802H32.6893C32.829 26.0728 32.969 26.0728 33.1088 26.0802H33.1723C33.3241 26.0996 33.4747 26.1272 33.6235 26.1628H33.7125C33.8716 26.2034 34.0286 26.2522 34.1827 26.3089C34.3416 26.3661 34.5068 26.4424 34.672 26.525L34.78 26.5758C34.9453 26.6585 35.1105 26.7538 35.2757 26.8618L35.3583 26.9126C35.5151 27.0143 35.6718 27.1245 35.8286 27.2431L35.9239 27.313C36.0955 27.4464 36.2734 27.5926 36.4513 27.7515L36.5721 27.8659C36.7564 28.0311 36.9407 28.2027 37.1249 28.3933L37.8367 29.1241L37.9447 29.2385L38.5802 29.8739L38.7708 30.0709L39.3046 30.6302L39.5334 30.8716L40.0799 31.4436L40.2642 31.6342L41.7067 33.1657L41.9418 33.4199L42.393 33.9028L42.6599 34.1888L43.0666 34.6273L43.3081 34.8878L43.7021 35.3072L43.9245 35.5487L44.3312 35.9872L44.6553 36.2414L45.0874 36.7116L45.2082 36.8451L45.5005 37.1628L45.7102 37.3916L45.8563 37.5505L46.047 37.7602L47.5276 36.3939L42.1134 23.049L32.9626 20.3927Z" fill="black"/>
<path d="M14.0763 34.532L17.1583 20.7613L9.20221 17.4187L3 33.4771L14.0763 34.532Z" fill="black"/>
<path d="M58.3498 34.6908L51.1308 19.0963L43.4607 22.9346L48.7288 35.8728L58.3498 34.6908Z" fill="black"/>
</svg>
