<svg width="101" height="100" viewBox="0 0 101 100" fill="none" xmlns="http://www.w3.org/2000/svg">
<circle cx="50.5" cy="50" r="50" fill="#65221A"/>
<mask id="path-2-outside-1_1387_533" maskUnits="userSpaceOnUse" x="31.5" y="31" width="38" height="38" fill="black">
<rect fill="white" x="31.5" y="31" width="38" height="38"/>
<path d="M61.7113 46.908H60.4267C60.2423 46.2981 60.0029 45.7062 59.7116 45.1395L60.5937 44.2532C61.0651 43.7811 61.33 43.1412 61.33 42.474C61.33 41.8069 61.0651 41.167 60.5937 40.6949L59.7759 39.877C59.3038 39.4056 58.6639 39.1408 57.9967 39.1408C57.3295 39.1408 56.6897 39.4056 56.2176 39.877L55.3869 40.7035C54.8046 40.3882 54.1939 40.1287 53.5628 39.9284V38.7766C53.5617 38.1092 53.296 37.4694 52.8241 36.9975C52.3522 36.5256 51.7124 36.26 51.045 36.2588H49.8889C49.2215 36.26 48.5817 36.5256 48.1098 36.9975C47.6379 37.4694 47.3723 38.1092 47.3711 38.7766V39.9284C46.74 40.1287 46.1293 40.3882 45.547 40.7035L44.7163 39.877C44.2443 39.4056 43.6044 39.1408 42.9372 39.1408C42.27 39.1408 41.6301 39.4056 41.1581 39.877L40.3402 40.6949C39.8688 41.167 39.604 41.8069 39.604 42.474C39.604 43.1412 39.8688 43.7811 40.3402 44.2532L41.2223 45.1395C40.931 45.7062 40.6916 46.2981 40.5072 46.908H39.2226C38.5552 46.9091 37.9155 47.1747 37.4435 47.6467C36.9716 48.1186 36.706 48.7583 36.7049 49.4257V50.5819C36.706 51.2493 36.9716 51.889 37.4435 52.3609C37.9155 52.8329 38.5552 53.0985 39.2226 53.0996H40.5072C40.6916 53.7095 40.931 54.3014 41.2223 54.8681L40.3402 55.7544C39.8688 56.2265 39.604 56.8664 39.604 57.5336C39.604 58.2007 39.8688 58.8406 40.3402 59.3127L41.1581 60.1305C41.6301 60.602 42.27 60.8668 42.9372 60.8668C43.6044 60.8668 44.2443 60.602 44.7163 60.1305L45.547 59.3041C46.1293 59.6193 46.74 59.8788 47.3711 60.0792V61.231C47.3723 61.8984 47.6379 62.5382 48.1098 63.0101C48.5817 63.482 49.2215 63.7476 49.8889 63.7488H51.045C51.7124 63.7476 52.3522 63.482 52.8241 63.0101C53.296 62.5382 53.5617 61.8984 53.5628 61.231V60.0792C54.1939 59.8788 54.8046 59.6193 55.3869 59.3041L56.2176 60.1305C56.6897 60.602 57.3295 60.8668 57.9967 60.8668C58.6639 60.8668 59.3038 60.602 59.7759 60.1305L60.5937 59.3127C61.0651 58.8406 61.33 58.2007 61.33 57.5336C61.33 56.8664 61.0651 56.2265 60.5937 55.7544L59.7116 54.8681C60.0029 54.3014 60.2423 53.7095 60.4267 53.0996H61.7113C62.3787 53.0985 63.0184 52.8329 63.4904 52.3609C63.9623 51.889 64.2279 51.2493 64.2291 50.5819V49.4257C64.2279 48.7583 63.9623 48.1186 63.4904 47.6467C63.0184 47.1747 62.3787 46.9091 61.7113 46.908ZM63.12 50.5819C63.12 50.7669 63.0836 50.95 63.0128 51.121C62.942 51.2919 62.8382 51.4472 62.7074 51.578C62.5766 51.7088 62.4213 51.8126 62.2504 51.8834C62.0795 51.9542 61.8963 51.9906 61.7113 51.9906H60.0242C59.8993 51.9911 59.7781 52.0336 59.6803 52.1112C59.5824 52.1889 59.5135 52.2972 59.4847 52.4188C59.2786 53.2212 58.9677 53.9929 58.5598 54.7139C58.5 54.8191 58.4764 54.941 58.4927 55.0609C58.5089 55.1808 58.5641 55.2921 58.6497 55.3776L59.8272 56.5551C60.09 56.8198 60.2375 57.1777 60.2375 57.5507C60.2375 57.9237 60.09 58.2815 59.8272 58.5462L59.0094 59.3641C58.7447 59.6269 58.3868 59.7743 58.0138 59.7743C57.6409 59.7743 57.283 59.6269 57.0183 59.3641L55.8879 58.2379C55.801 58.1445 55.6847 58.0838 55.5585 58.0659C55.4322 58.0479 55.3036 58.0739 55.1942 58.1394C54.467 58.5758 53.6832 58.9101 52.8648 59.1329C52.7432 59.1601 52.6346 59.228 52.5567 59.3253C52.4789 59.4226 52.4365 59.5435 52.4366 59.6681V61.2353C52.4366 61.6089 52.2882 61.9672 52.024 62.2314C51.7598 62.4956 51.4015 62.644 51.0279 62.644H49.8718C49.4981 62.644 49.1398 62.4956 48.8756 62.2314C48.6114 61.9672 48.463 61.6089 48.463 61.2353V59.6638C48.4631 59.5392 48.4208 59.4183 48.3429 59.321C48.2651 59.2237 48.1564 59.1558 48.0348 59.1286C47.2407 58.9006 46.4804 58.5679 45.774 58.1394C45.6867 58.0892 45.5878 58.0626 45.4871 58.0624C45.3416 58.0631 45.2021 58.1198 45.0974 58.2208L43.967 59.3512C43.7023 59.614 43.3444 59.7615 42.9714 59.7615C42.5985 59.7615 42.2406 59.614 41.9759 59.3512L41.1581 58.5334C40.8953 58.2687 40.7478 57.9108 40.7478 57.5378C40.7478 57.1648 40.8953 56.807 41.1581 56.5423L42.3356 55.3648C42.4149 55.2779 42.4647 55.1681 42.4778 55.0512C42.4909 54.9342 42.4666 54.8162 42.4084 54.7139C42.0024 53.9884 41.6943 53.2123 41.492 52.406C41.4625 52.2847 41.3935 52.1768 41.2957 52.0993C41.198 52.0217 41.0773 51.979 40.9525 51.9778H39.2569C38.8833 51.9778 38.5249 51.8293 38.2607 51.5651C37.9965 51.301 37.8481 50.9426 37.8481 50.569V49.4129C37.8481 49.0393 37.9965 48.6809 38.2607 48.4167C38.5249 48.1526 38.8833 48.0041 39.2569 48.0041H40.944C41.0687 48.0029 41.1895 47.9601 41.2872 47.8826C41.3849 47.8051 41.454 47.6971 41.4835 47.5759C41.6906 46.778 42.0015 46.0107 42.4084 45.2937C42.4681 45.1885 42.4917 45.0666 42.4755 44.9466C42.4592 44.8267 42.4041 44.7155 42.3185 44.63L41.1409 43.4525C40.8781 43.1878 40.7307 42.8299 40.7307 42.4569C40.7307 42.0839 40.8781 41.7261 41.1409 41.4614L41.9588 40.6435C42.2235 40.3807 42.5813 40.2332 42.9543 40.2332C43.3273 40.2332 43.6852 40.3807 43.9499 40.6435L45.0803 41.7739C45.1672 41.8674 45.2838 41.9278 45.4103 41.945C45.5368 41.9621 45.6653 41.935 45.774 41.8681C46.5016 41.4325 47.2853 41.0983 48.1033 40.8747C48.2249 40.8475 48.3336 40.7796 48.4114 40.6823C48.4893 40.585 48.5316 40.4641 48.5315 40.3395V38.7766C48.5315 38.403 48.6799 38.0446 48.9441 37.7805C49.2083 37.5163 49.5667 37.3678 49.9403 37.3678H51.0964C51.2814 37.3678 51.4646 37.4043 51.6355 37.4751C51.8064 37.5459 51.9617 37.6496 52.0925 37.7805C52.2234 37.9113 52.3271 38.0666 52.3979 38.2375C52.4687 38.4084 52.5052 38.5916 52.5052 38.7766V40.3438C52.5051 40.4684 52.5474 40.5893 52.6253 40.6866C52.7031 40.7839 52.8118 40.8518 52.9333 40.879C53.7275 41.107 54.4878 41.4396 55.1942 41.8681C55.2998 41.9322 55.4239 41.959 55.5465 41.9442C55.6692 41.9295 55.7833 41.874 55.8707 41.7868L57.0012 40.6564C57.2659 40.3936 57.6237 40.2461 57.9967 40.2461C58.3697 40.2461 58.7276 40.3936 58.9923 40.6564L59.8101 41.4742C60.0729 41.7389 60.2204 42.0968 60.2204 42.4697C60.2204 42.8427 60.0729 43.2006 59.8101 43.4653L58.6326 44.6428C58.5532 44.7297 58.5034 44.8395 58.4903 44.9564C58.4773 45.0733 58.5016 45.1914 58.5598 45.2937C58.9657 46.0192 59.2739 46.7952 59.4761 47.6016C59.5056 47.7228 59.5747 47.8307 59.6724 47.9083C59.7701 47.9858 59.8909 48.0286 60.0156 48.0298H61.7027C62.0763 48.0298 62.4347 48.1782 62.6989 48.4424C62.9631 48.7066 63.1115 49.065 63.1115 49.4386L63.12 50.5819ZM50.4841 42.8915C49.0774 42.8915 47.7023 43.3086 46.5327 44.0902C45.3631 44.8717 44.4515 45.9824 43.9132 47.282C43.3749 48.5816 43.234 50.0117 43.5085 51.3913C43.7829 52.771 44.4603 54.0383 45.4549 55.0329C46.4496 56.0276 47.7169 56.705 49.0965 56.9794C50.4762 57.2538 51.9062 57.113 53.2058 56.5747C54.5054 56.0364 55.6162 55.1248 56.3977 53.9552C57.1792 52.7856 57.5964 51.4105 57.5964 50.0038C57.5941 48.1182 56.844 46.3105 55.5107 44.9772C54.1774 43.6438 52.3697 42.8938 50.4841 42.8915ZM50.4841 55.9985C49.2984 55.9985 48.1394 55.6469 47.1536 54.9882C46.1678 54.3295 45.3994 53.3932 44.9457 52.2979C44.492 51.2025 44.3733 49.9971 44.6046 48.8343C44.8359 47.6714 45.4068 46.6033 46.2452 45.7649C47.0836 44.9265 48.1517 44.3556 49.3146 44.1243C50.4774 43.893 51.6828 44.0117 52.7782 44.4654C53.8735 44.9191 54.8098 45.6875 55.4685 46.6733C56.1272 47.6591 56.4788 48.8182 56.4788 50.0038C56.4788 51.5937 55.8472 53.1185 54.723 54.2427C53.5987 55.3669 52.074 55.9985 50.4841 55.9985ZM59.322 62.7554C58.7159 62.7565 58.135 62.9978 57.7064 63.4263C57.2778 63.8549 57.0366 64.4358 57.0354 65.0419C57.0356 65.2107 57.0557 65.3788 57.0954 65.5429C53.9369 66.8891 50.443 67.2403 47.0798 66.5498C43.7165 65.8592 40.6437 64.1597 38.2712 61.6779C35.8987 59.196 34.3393 56.0499 33.8008 52.6589C33.2624 49.268 33.7705 45.7935 35.2576 42.6988L35.2875 42.8187C35.3155 42.9399 35.3836 43.0482 35.4807 43.1259C35.5778 43.2036 35.6984 43.2462 35.8228 43.2469C35.8682 43.2532 35.9143 43.2532 35.9598 43.2469C36.0322 43.2282 36.1001 43.195 36.1594 43.1494C36.2188 43.1039 36.2683 43.0468 36.3051 42.9816C36.3418 42.9165 36.3651 42.8446 36.3735 42.7703C36.3818 42.6959 36.3751 42.6207 36.3537 42.549L35.9812 41.0118C35.9643 40.9395 35.9322 40.8716 35.8872 40.8126C35.8422 40.7535 35.7852 40.7047 35.72 40.6692C35.656 40.6316 35.5851 40.6074 35.5116 40.5978C35.438 40.5882 35.3633 40.5936 35.2918 40.6135L33.7846 41.0589C33.7146 41.0785 33.6491 41.1118 33.592 41.1568C33.5348 41.2018 33.4871 41.2575 33.4515 41.321C33.4159 41.3844 33.3932 41.4542 33.3846 41.5264C33.376 41.5986 33.3817 41.6718 33.4013 41.7418C33.421 41.8118 33.4543 41.8773 33.4993 41.9344C33.5443 41.9916 33.6 42.0393 33.6635 42.0749C33.7269 42.1105 33.7967 42.1332 33.8689 42.1418C33.9411 42.1504 34.0143 42.1447 34.0843 42.1251L34.3412 42.0523C33.1287 44.5275 32.4988 47.2475 32.5 50.0038C32.498 52.9838 33.2366 55.9177 34.6493 58.5416C36.0621 61.1655 38.1047 63.3972 40.5936 65.0361C43.0825 66.675 45.9397 67.6697 48.9083 67.9308C51.8769 68.1919 54.8638 67.7113 57.6006 66.532C57.8513 66.8213 58.1706 67.0429 58.5293 67.1764C58.888 67.31 59.2745 67.3512 59.6533 67.2962C60.032 67.2413 60.3909 67.0919 60.6969 66.862C61.0028 66.632 61.246 66.3288 61.4041 65.9802C61.5622 65.6317 61.63 65.2489 61.6015 64.8673C61.5729 64.4856 61.4488 64.1172 61.2406 63.7961C61.0324 63.4749 60.7468 63.2113 60.41 63.0294C60.0732 62.8476 59.6961 62.7533 59.3134 62.7554H59.322ZM59.322 66.2237C59.0882 66.2237 58.8597 66.1544 58.6654 66.0245C58.471 65.8947 58.3196 65.7101 58.2301 65.4942C58.1407 65.2782 58.1173 65.0406 58.1629 64.8113C58.2085 64.5821 58.321 64.3715 58.4863 64.2062C58.6516 64.041 58.8622 63.9284 59.0914 63.8828C59.3207 63.8372 59.5583 63.8606 59.7742 63.9501C59.9902 64.0395 60.1748 64.191 60.3046 64.3853C60.4345 64.5797 60.5038 64.8082 60.5038 65.0419C60.5038 65.1971 60.4732 65.3508 60.4138 65.4942C60.3544 65.6376 60.2674 65.7678 60.1576 65.8776C60.0479 65.9873 59.9176 66.0744 59.7742 66.1338C59.6308 66.1931 59.4772 66.2237 59.322 66.2237ZM66.8796 57.8825L66.6227 57.9553C68.2547 54.6546 68.8343 50.9325 68.2831 47.2918C67.7318 43.6511 66.0763 40.2674 63.5403 37.5977C61.0042 34.9281 57.7098 33.1013 54.1022 32.3641C50.4946 31.6269 46.7476 32.0149 43.3675 33.4756C43.016 33.0752 42.535 32.8111 42.0085 32.7292C41.482 32.6473 40.9435 32.7529 40.487 33.0275C40.0304 33.3022 39.6848 33.7284 39.5105 34.2319C39.3362 34.7354 39.3442 35.2841 39.5332 35.7822C39.7221 36.2804 40.08 36.6964 40.5444 36.9576C41.0088 37.2188 41.5501 37.3086 42.074 37.2114C42.5978 37.1142 43.0709 36.8361 43.4106 36.4256C43.7503 36.0152 43.9351 35.4985 43.9327 34.9657C43.9326 34.7969 43.9125 34.6287 43.8728 34.4647C47.0317 33.1177 50.5264 32.766 53.8904 33.4566C57.2544 34.1472 60.3278 35.8472 62.7006 38.3297C65.0734 40.8123 66.6327 43.9595 67.1705 47.3513C67.7083 50.7431 67.199 54.2182 65.7106 57.313L65.6806 57.1889C65.6629 57.1183 65.6315 57.0519 65.5881 56.9935C65.5447 56.9351 65.4903 56.8858 65.4279 56.8484C65.3654 56.811 65.2963 56.7863 65.2243 56.7756C65.1523 56.765 65.0789 56.7686 65.0084 56.7864C64.9378 56.8041 64.8714 56.8355 64.813 56.8789C64.7546 56.9223 64.7053 56.9767 64.6679 57.0391C64.6305 57.1016 64.6058 57.1707 64.5952 57.2427C64.5845 57.3147 64.5882 57.3881 64.6059 57.4586L64.9912 58.9787C65.0082 59.051 65.0402 59.1189 65.0852 59.1779C65.1302 59.2369 65.1872 59.2858 65.2524 59.3213C65.3348 59.372 65.4297 59.3987 65.5265 59.3983C65.5777 59.4046 65.6294 59.4046 65.6806 59.3983L67.1836 58.9701C67.2536 58.9505 67.319 58.9172 67.3762 58.8722C67.4333 58.8272 67.4811 58.7714 67.5166 58.708C67.5522 58.6446 67.575 58.5748 67.5836 58.5026C67.5922 58.4304 67.5865 58.3572 67.5668 58.2872C67.5471 58.2172 67.5139 58.1517 67.4689 58.0946C67.4239 58.0374 67.3681 57.9897 67.3047 57.9541C67.2413 57.9185 67.1715 57.8958 67.0993 57.8872C67.0271 57.8786 66.9539 57.8843 66.8839 57.9039L66.8796 57.8825ZM41.6462 36.1432C41.4121 36.1441 41.183 36.0754 40.988 35.9458C40.793 35.8163 40.6409 35.6318 40.5509 35.4156C40.4609 35.1995 40.4371 34.9615 40.4826 34.7319C40.5281 34.5022 40.6407 34.2913 40.8063 34.1257C40.9718 33.9602 41.1828 33.8476 41.4124 33.8021C41.6421 33.7566 41.88 33.7804 42.0962 33.8704C42.3123 33.9604 42.4968 34.1125 42.6263 34.3075C42.7559 34.5025 42.8246 34.7316 42.8237 34.9657C42.8226 35.2776 42.6982 35.5765 42.4776 35.7971C42.257 36.0177 41.9581 36.1421 41.6462 36.1432Z"/>
</mask>
<path d="M61.7113 46.908H60.4267C60.2423 46.2981 60.0029 45.7062 59.7116 45.1395L60.5937 44.2532C61.0651 43.7811 61.33 43.1412 61.33 42.474C61.33 41.8069 61.0651 41.167 60.5937 40.6949L59.7759 39.877C59.3038 39.4056 58.6639 39.1408 57.9967 39.1408C57.3295 39.1408 56.6897 39.4056 56.2176 39.877L55.3869 40.7035C54.8046 40.3882 54.1939 40.1287 53.5628 39.9284V38.7766C53.5617 38.1092 53.296 37.4694 52.8241 36.9975C52.3522 36.5256 51.7124 36.26 51.045 36.2588H49.8889C49.2215 36.26 48.5817 36.5256 48.1098 36.9975C47.6379 37.4694 47.3723 38.1092 47.3711 38.7766V39.9284C46.74 40.1287 46.1293 40.3882 45.547 40.7035L44.7163 39.877C44.2443 39.4056 43.6044 39.1408 42.9372 39.1408C42.27 39.1408 41.6301 39.4056 41.1581 39.877L40.3402 40.6949C39.8688 41.167 39.604 41.8069 39.604 42.474C39.604 43.1412 39.8688 43.7811 40.3402 44.2532L41.2223 45.1395C40.931 45.7062 40.6916 46.2981 40.5072 46.908H39.2226C38.5552 46.9091 37.9155 47.1747 37.4435 47.6467C36.9716 48.1186 36.706 48.7583 36.7049 49.4257V50.5819C36.706 51.2493 36.9716 51.889 37.4435 52.3609C37.9155 52.8329 38.5552 53.0985 39.2226 53.0996H40.5072C40.6916 53.7095 40.931 54.3014 41.2223 54.8681L40.3402 55.7544C39.8688 56.2265 39.604 56.8664 39.604 57.5336C39.604 58.2007 39.8688 58.8406 40.3402 59.3127L41.1581 60.1305C41.6301 60.602 42.27 60.8668 42.9372 60.8668C43.6044 60.8668 44.2443 60.602 44.7163 60.1305L45.547 59.3041C46.1293 59.6193 46.74 59.8788 47.3711 60.0792V61.231C47.3723 61.8984 47.6379 62.5382 48.1098 63.0101C48.5817 63.482 49.2215 63.7476 49.8889 63.7488H51.045C51.7124 63.7476 52.3522 63.482 52.8241 63.0101C53.296 62.5382 53.5617 61.8984 53.5628 61.231V60.0792C54.1939 59.8788 54.8046 59.6193 55.3869 59.3041L56.2176 60.1305C56.6897 60.602 57.3295 60.8668 57.9967 60.8668C58.6639 60.8668 59.3038 60.602 59.7759 60.1305L60.5937 59.3127C61.0651 58.8406 61.33 58.2007 61.33 57.5336C61.33 56.8664 61.0651 56.2265 60.5937 55.7544L59.7116 54.8681C60.0029 54.3014 60.2423 53.7095 60.4267 53.0996H61.7113C62.3787 53.0985 63.0184 52.8329 63.4904 52.3609C63.9623 51.889 64.2279 51.2493 64.2291 50.5819V49.4257C64.2279 48.7583 63.9623 48.1186 63.4904 47.6467C63.0184 47.1747 62.3787 46.9091 61.7113 46.908ZM63.12 50.5819C63.12 50.7669 63.0836 50.95 63.0128 51.121C62.942 51.2919 62.8382 51.4472 62.7074 51.578C62.5766 51.7088 62.4213 51.8126 62.2504 51.8834C62.0795 51.9542 61.8963 51.9906 61.7113 51.9906H60.0242C59.8993 51.9911 59.7781 52.0336 59.6803 52.1112C59.5824 52.1889 59.5135 52.2972 59.4847 52.4188C59.2786 53.2212 58.9677 53.9929 58.5598 54.7139C58.5 54.8191 58.4764 54.941 58.4927 55.0609C58.5089 55.1808 58.5641 55.2921 58.6497 55.3776L59.8272 56.5551C60.09 56.8198 60.2375 57.1777 60.2375 57.5507C60.2375 57.9237 60.09 58.2815 59.8272 58.5462L59.0094 59.3641C58.7447 59.6269 58.3868 59.7743 58.0138 59.7743C57.6409 59.7743 57.283 59.6269 57.0183 59.3641L55.8879 58.2379C55.801 58.1445 55.6847 58.0838 55.5585 58.0659C55.4322 58.0479 55.3036 58.0739 55.1942 58.1394C54.467 58.5758 53.6832 58.9101 52.8648 59.1329C52.7432 59.1601 52.6346 59.228 52.5567 59.3253C52.4789 59.4226 52.4365 59.5435 52.4366 59.6681V61.2353C52.4366 61.6089 52.2882 61.9672 52.024 62.2314C51.7598 62.4956 51.4015 62.644 51.0279 62.644H49.8718C49.4981 62.644 49.1398 62.4956 48.8756 62.2314C48.6114 61.9672 48.463 61.6089 48.463 61.2353V59.6638C48.4631 59.5392 48.4208 59.4183 48.3429 59.321C48.2651 59.2237 48.1564 59.1558 48.0348 59.1286C47.2407 58.9006 46.4804 58.5679 45.774 58.1394C45.6867 58.0892 45.5878 58.0626 45.4871 58.0624C45.3416 58.0631 45.2021 58.1198 45.0974 58.2208L43.967 59.3512C43.7023 59.614 43.3444 59.7615 42.9714 59.7615C42.5985 59.7615 42.2406 59.614 41.9759 59.3512L41.1581 58.5334C40.8953 58.2687 40.7478 57.9108 40.7478 57.5378C40.7478 57.1648 40.8953 56.807 41.1581 56.5423L42.3356 55.3648C42.4149 55.2779 42.4647 55.1681 42.4778 55.0512C42.4909 54.9342 42.4666 54.8162 42.4084 54.7139C42.0024 53.9884 41.6943 53.2123 41.492 52.406C41.4625 52.2847 41.3935 52.1768 41.2957 52.0993C41.198 52.0217 41.0773 51.979 40.9525 51.9778H39.2569C38.8833 51.9778 38.5249 51.8293 38.2607 51.5651C37.9965 51.301 37.8481 50.9426 37.8481 50.569V49.4129C37.8481 49.0393 37.9965 48.6809 38.2607 48.4167C38.5249 48.1526 38.8833 48.0041 39.2569 48.0041H40.944C41.0687 48.0029 41.1895 47.9601 41.2872 47.8826C41.3849 47.8051 41.454 47.6971 41.4835 47.5759C41.6906 46.778 42.0015 46.0107 42.4084 45.2937C42.4681 45.1885 42.4917 45.0666 42.4755 44.9466C42.4592 44.8267 42.4041 44.7155 42.3185 44.63L41.1409 43.4525C40.8781 43.1878 40.7307 42.8299 40.7307 42.4569C40.7307 42.0839 40.8781 41.7261 41.1409 41.4614L41.9588 40.6435C42.2235 40.3807 42.5813 40.2332 42.9543 40.2332C43.3273 40.2332 43.6852 40.3807 43.9499 40.6435L45.0803 41.7739C45.1672 41.8674 45.2838 41.9278 45.4103 41.945C45.5368 41.9621 45.6653 41.935 45.774 41.8681C46.5016 41.4325 47.2853 41.0983 48.1033 40.8747C48.2249 40.8475 48.3336 40.7796 48.4114 40.6823C48.4893 40.585 48.5316 40.4641 48.5315 40.3395V38.7766C48.5315 38.403 48.6799 38.0446 48.9441 37.7805C49.2083 37.5163 49.5667 37.3678 49.9403 37.3678H51.0964C51.2814 37.3678 51.4646 37.4043 51.6355 37.4751C51.8064 37.5459 51.9617 37.6496 52.0925 37.7805C52.2234 37.9113 52.3271 38.0666 52.3979 38.2375C52.4687 38.4084 52.5052 38.5916 52.5052 38.7766V40.3438C52.5051 40.4684 52.5474 40.5893 52.6253 40.6866C52.7031 40.7839 52.8118 40.8518 52.9333 40.879C53.7275 41.107 54.4878 41.4396 55.1942 41.8681C55.2998 41.9322 55.4239 41.959 55.5465 41.9442C55.6692 41.9295 55.7833 41.874 55.8707 41.7868L57.0012 40.6564C57.2659 40.3936 57.6237 40.2461 57.9967 40.2461C58.3697 40.2461 58.7276 40.3936 58.9923 40.6564L59.8101 41.4742C60.0729 41.7389 60.2204 42.0968 60.2204 42.4697C60.2204 42.8427 60.0729 43.2006 59.8101 43.4653L58.6326 44.6428C58.5532 44.7297 58.5034 44.8395 58.4903 44.9564C58.4773 45.0733 58.5016 45.1914 58.5598 45.2937C58.9657 46.0192 59.2739 46.7952 59.4761 47.6016C59.5056 47.7228 59.5747 47.8307 59.6724 47.9083C59.7701 47.9858 59.8909 48.0286 60.0156 48.0298H61.7027C62.0763 48.0298 62.4347 48.1782 62.6989 48.4424C62.9631 48.7066 63.1115 49.065 63.1115 49.4386L63.12 50.5819ZM50.4841 42.8915C49.0774 42.8915 47.7023 43.3086 46.5327 44.0902C45.3631 44.8717 44.4515 45.9824 43.9132 47.282C43.3749 48.5816 43.234 50.0117 43.5085 51.3913C43.7829 52.771 44.4603 54.0383 45.4549 55.0329C46.4496 56.0276 47.7169 56.705 49.0965 56.9794C50.4762 57.2538 51.9062 57.113 53.2058 56.5747C54.5054 56.0364 55.6162 55.1248 56.3977 53.9552C57.1792 52.7856 57.5964 51.4105 57.5964 50.0038C57.5941 48.1182 56.844 46.3105 55.5107 44.9772C54.1774 43.6438 52.3697 42.8938 50.4841 42.8915ZM50.4841 55.9985C49.2984 55.9985 48.1394 55.6469 47.1536 54.9882C46.1678 54.3295 45.3994 53.3932 44.9457 52.2979C44.492 51.2025 44.3733 49.9971 44.6046 48.8343C44.8359 47.6714 45.4068 46.6033 46.2452 45.7649C47.0836 44.9265 48.1517 44.3556 49.3146 44.1243C50.4774 43.893 51.6828 44.0117 52.7782 44.4654C53.8735 44.9191 54.8098 45.6875 55.4685 46.6733C56.1272 47.6591 56.4788 48.8182 56.4788 50.0038C56.4788 51.5937 55.8472 53.1185 54.723 54.2427C53.5987 55.3669 52.074 55.9985 50.4841 55.9985ZM59.322 62.7554C58.7159 62.7565 58.135 62.9978 57.7064 63.4263C57.2778 63.8549 57.0366 64.4358 57.0354 65.0419C57.0356 65.2107 57.0557 65.3788 57.0954 65.5429C53.9369 66.8891 50.443 67.2403 47.0798 66.5498C43.7165 65.8592 40.6437 64.1597 38.2712 61.6779C35.8987 59.196 34.3393 56.0499 33.8008 52.6589C33.2624 49.268 33.7705 45.7935 35.2576 42.6988L35.2875 42.8187C35.3155 42.9399 35.3836 43.0482 35.4807 43.1259C35.5778 43.2036 35.6984 43.2462 35.8228 43.2469C35.8682 43.2532 35.9143 43.2532 35.9598 43.2469C36.0322 43.2282 36.1001 43.195 36.1594 43.1494C36.2188 43.1039 36.2683 43.0468 36.3051 42.9816C36.3418 42.9165 36.3651 42.8446 36.3735 42.7703C36.3818 42.6959 36.3751 42.6207 36.3537 42.549L35.9812 41.0118C35.9643 40.9395 35.9322 40.8716 35.8872 40.8126C35.8422 40.7535 35.7852 40.7047 35.72 40.6692C35.656 40.6316 35.5851 40.6074 35.5116 40.5978C35.438 40.5882 35.3633 40.5936 35.2918 40.6135L33.7846 41.0589C33.7146 41.0785 33.6491 41.1118 33.592 41.1568C33.5348 41.2018 33.4871 41.2575 33.4515 41.321C33.4159 41.3844 33.3932 41.4542 33.3846 41.5264C33.376 41.5986 33.3817 41.6718 33.4013 41.7418C33.421 41.8118 33.4543 41.8773 33.4993 41.9344C33.5443 41.9916 33.6 42.0393 33.6635 42.0749C33.7269 42.1105 33.7967 42.1332 33.8689 42.1418C33.9411 42.1504 34.0143 42.1447 34.0843 42.1251L34.3412 42.0523C33.1287 44.5275 32.4988 47.2475 32.5 50.0038C32.498 52.9838 33.2366 55.9177 34.6493 58.5416C36.0621 61.1655 38.1047 63.3972 40.5936 65.0361C43.0825 66.675 45.9397 67.6697 48.9083 67.9308C51.8769 68.1919 54.8638 67.7113 57.6006 66.532C57.8513 66.8213 58.1706 67.0429 58.5293 67.1764C58.888 67.31 59.2745 67.3512 59.6533 67.2962C60.032 67.2413 60.3909 67.0919 60.6969 66.862C61.0028 66.632 61.246 66.3288 61.4041 65.9802C61.5622 65.6317 61.63 65.2489 61.6015 64.8673C61.5729 64.4856 61.4488 64.1172 61.2406 63.7961C61.0324 63.4749 60.7468 63.2113 60.41 63.0294C60.0732 62.8476 59.6961 62.7533 59.3134 62.7554H59.322ZM59.322 66.2237C59.0882 66.2237 58.8597 66.1544 58.6654 66.0245C58.471 65.8947 58.3196 65.7101 58.2301 65.4942C58.1407 65.2782 58.1173 65.0406 58.1629 64.8113C58.2085 64.5821 58.321 64.3715 58.4863 64.2062C58.6516 64.041 58.8622 63.9284 59.0914 63.8828C59.3207 63.8372 59.5583 63.8606 59.7742 63.9501C59.9902 64.0395 60.1748 64.191 60.3046 64.3853C60.4345 64.5797 60.5038 64.8082 60.5038 65.0419C60.5038 65.1971 60.4732 65.3508 60.4138 65.4942C60.3544 65.6376 60.2674 65.7678 60.1576 65.8776C60.0479 65.9873 59.9176 66.0744 59.7742 66.1338C59.6308 66.1931 59.4772 66.2237 59.322 66.2237ZM66.8796 57.8825L66.6227 57.9553C68.2547 54.6546 68.8343 50.9325 68.2831 47.2918C67.7318 43.6511 66.0763 40.2674 63.5403 37.5977C61.0042 34.9281 57.7098 33.1013 54.1022 32.3641C50.4946 31.6269 46.7476 32.0149 43.3675 33.4756C43.016 33.0752 42.535 32.8111 42.0085 32.7292C41.482 32.6473 40.9435 32.7529 40.487 33.0275C40.0304 33.3022 39.6848 33.7284 39.5105 34.2319C39.3362 34.7354 39.3442 35.2841 39.5332 35.7822C39.7221 36.2804 40.08 36.6964 40.5444 36.9576C41.0088 37.2188 41.5501 37.3086 42.074 37.2114C42.5978 37.1142 43.0709 36.8361 43.4106 36.4256C43.7503 36.0152 43.9351 35.4985 43.9327 34.9657C43.9326 34.7969 43.9125 34.6287 43.8728 34.4647C47.0317 33.1177 50.5264 32.766 53.8904 33.4566C57.2544 34.1472 60.3278 35.8472 62.7006 38.3297C65.0734 40.8123 66.6327 43.9595 67.1705 47.3513C67.7083 50.7431 67.199 54.2182 65.7106 57.313L65.6806 57.1889C65.6629 57.1183 65.6315 57.0519 65.5881 56.9935C65.5447 56.9351 65.4903 56.8858 65.4279 56.8484C65.3654 56.811 65.2963 56.7863 65.2243 56.7756C65.1523 56.765 65.0789 56.7686 65.0084 56.7864C64.9378 56.8041 64.8714 56.8355 64.813 56.8789C64.7546 56.9223 64.7053 56.9767 64.6679 57.0391C64.6305 57.1016 64.6058 57.1707 64.5952 57.2427C64.5845 57.3147 64.5882 57.3881 64.6059 57.4586L64.9912 58.9787C65.0082 59.051 65.0402 59.1189 65.0852 59.1779C65.1302 59.2369 65.1872 59.2858 65.2524 59.3213C65.3348 59.372 65.4297 59.3987 65.5265 59.3983C65.5777 59.4046 65.6294 59.4046 65.6806 59.3983L67.1836 58.9701C67.2536 58.9505 67.319 58.9172 67.3762 58.8722C67.4333 58.8272 67.4811 58.7714 67.5166 58.708C67.5522 58.6446 67.575 58.5748 67.5836 58.5026C67.5922 58.4304 67.5865 58.3572 67.5668 58.2872C67.5471 58.2172 67.5139 58.1517 67.4689 58.0946C67.4239 58.0374 67.3681 57.9897 67.3047 57.9541C67.2413 57.9185 67.1715 57.8958 67.0993 57.8872C67.0271 57.8786 66.9539 57.8843 66.8839 57.9039L66.8796 57.8825ZM41.6462 36.1432C41.4121 36.1441 41.183 36.0754 40.988 35.9458C40.793 35.8163 40.6409 35.6318 40.5509 35.4156C40.4609 35.1995 40.4371 34.9615 40.4826 34.7319C40.5281 34.5022 40.6407 34.2913 40.8063 34.1257C40.9718 33.9602 41.1828 33.8476 41.4124 33.8021C41.6421 33.7566 41.88 33.7804 42.0962 33.8704C42.3123 33.9604 42.4968 34.1125 42.6263 34.3075C42.7559 34.5025 42.8246 34.7316 42.8237 34.9657C42.8226 35.2776 42.6982 35.5765 42.4776 35.7971C42.257 36.0177 41.9581 36.1421 41.6462 36.1432Z" fill="#F7F4F4"/>
<path d="M61.7113 46.908H60.4267C60.2423 46.2981 60.0029 45.7062 59.7116 45.1395L60.5937 44.2532C61.0651 43.7811 61.33 43.1412 61.33 42.474C61.33 41.8069 61.0651 41.167 60.5937 40.6949L59.7759 39.877C59.3038 39.4056 58.6639 39.1408 57.9967 39.1408C57.3295 39.1408 56.6897 39.4056 56.2176 39.877L55.3869 40.7035C54.8046 40.3882 54.1939 40.1287 53.5628 39.9284V38.7766C53.5617 38.1092 53.296 37.4694 52.8241 36.9975C52.3522 36.5256 51.7124 36.26 51.045 36.2588H49.8889C49.2215 36.26 48.5817 36.5256 48.1098 36.9975C47.6379 37.4694 47.3723 38.1092 47.3711 38.7766V39.9284C46.74 40.1287 46.1293 40.3882 45.547 40.7035L44.7163 39.877C44.2443 39.4056 43.6044 39.1408 42.9372 39.1408C42.27 39.1408 41.6301 39.4056 41.1581 39.877L40.3402 40.6949C39.8688 41.167 39.604 41.8069 39.604 42.474C39.604 43.1412 39.8688 43.7811 40.3402 44.2532L41.2223 45.1395C40.931 45.7062 40.6916 46.2981 40.5072 46.908H39.2226C38.5552 46.9091 37.9155 47.1747 37.4435 47.6467C36.9716 48.1186 36.706 48.7583 36.7049 49.4257V50.5819C36.706 51.2493 36.9716 51.889 37.4435 52.3609C37.9155 52.8329 38.5552 53.0985 39.2226 53.0996H40.5072C40.6916 53.7095 40.931 54.3014 41.2223 54.8681L40.3402 55.7544C39.8688 56.2265 39.604 56.8664 39.604 57.5336C39.604 58.2007 39.8688 58.8406 40.3402 59.3127L41.1581 60.1305C41.6301 60.602 42.27 60.8668 42.9372 60.8668C43.6044 60.8668 44.2443 60.602 44.7163 60.1305L45.547 59.3041C46.1293 59.6193 46.74 59.8788 47.3711 60.0792V61.231C47.3723 61.8984 47.6379 62.5382 48.1098 63.0101C48.5817 63.482 49.2215 63.7476 49.8889 63.7488H51.045C51.7124 63.7476 52.3522 63.482 52.8241 63.0101C53.296 62.5382 53.5617 61.8984 53.5628 61.231V60.0792C54.1939 59.8788 54.8046 59.6193 55.3869 59.3041L56.2176 60.1305C56.6897 60.602 57.3295 60.8668 57.9967 60.8668C58.6639 60.8668 59.3038 60.602 59.7759 60.1305L60.5937 59.3127C61.0651 58.8406 61.33 58.2007 61.33 57.5336C61.33 56.8664 61.0651 56.2265 60.5937 55.7544L59.7116 54.8681C60.0029 54.3014 60.2423 53.7095 60.4267 53.0996H61.7113C62.3787 53.0985 63.0184 52.8329 63.4904 52.3609C63.9623 51.889 64.2279 51.2493 64.2291 50.5819V49.4257C64.2279 48.7583 63.9623 48.1186 63.4904 47.6467C63.0184 47.1747 62.3787 46.9091 61.7113 46.908ZM63.12 50.5819C63.12 50.7669 63.0836 50.95 63.0128 51.121C62.942 51.2919 62.8382 51.4472 62.7074 51.578C62.5766 51.7088 62.4213 51.8126 62.2504 51.8834C62.0795 51.9542 61.8963 51.9906 61.7113 51.9906H60.0242C59.8993 51.9911 59.7781 52.0336 59.6803 52.1112C59.5824 52.1889 59.5135 52.2972 59.4847 52.4188C59.2786 53.2212 58.9677 53.9929 58.5598 54.7139C58.5 54.8191 58.4764 54.941 58.4927 55.0609C58.5089 55.1808 58.5641 55.2921 58.6497 55.3776L59.8272 56.5551C60.09 56.8198 60.2375 57.1777 60.2375 57.5507C60.2375 57.9237 60.09 58.2815 59.8272 58.5462L59.0094 59.3641C58.7447 59.6269 58.3868 59.7743 58.0138 59.7743C57.6409 59.7743 57.283 59.6269 57.0183 59.3641L55.8879 58.2379C55.801 58.1445 55.6847 58.0838 55.5585 58.0659C55.4322 58.0479 55.3036 58.0739 55.1942 58.1394C54.467 58.5758 53.6832 58.9101 52.8648 59.1329C52.7432 59.1601 52.6346 59.228 52.5567 59.3253C52.4789 59.4226 52.4365 59.5435 52.4366 59.6681V61.2353C52.4366 61.6089 52.2882 61.9672 52.024 62.2314C51.7598 62.4956 51.4015 62.644 51.0279 62.644H49.8718C49.4981 62.644 49.1398 62.4956 48.8756 62.2314C48.6114 61.9672 48.463 61.6089 48.463 61.2353V59.6638C48.4631 59.5392 48.4208 59.4183 48.3429 59.321C48.2651 59.2237 48.1564 59.1558 48.0348 59.1286C47.2407 58.9006 46.4804 58.5679 45.774 58.1394C45.6867 58.0892 45.5878 58.0626 45.4871 58.0624C45.3416 58.0631 45.2021 58.1198 45.0974 58.2208L43.967 59.3512C43.7023 59.614 43.3444 59.7615 42.9714 59.7615C42.5985 59.7615 42.2406 59.614 41.9759 59.3512L41.1581 58.5334C40.8953 58.2687 40.7478 57.9108 40.7478 57.5378C40.7478 57.1648 40.8953 56.807 41.1581 56.5423L42.3356 55.3648C42.4149 55.2779 42.4647 55.1681 42.4778 55.0512C42.4909 54.9342 42.4666 54.8162 42.4084 54.7139C42.0024 53.9884 41.6943 53.2123 41.492 52.406C41.4625 52.2847 41.3935 52.1768 41.2957 52.0993C41.198 52.0217 41.0773 51.979 40.9525 51.9778H39.2569C38.8833 51.9778 38.5249 51.8293 38.2607 51.5651C37.9965 51.301 37.8481 50.9426 37.8481 50.569V49.4129C37.8481 49.0393 37.9965 48.6809 38.2607 48.4167C38.5249 48.1526 38.8833 48.0041 39.2569 48.0041H40.944C41.0687 48.0029 41.1895 47.9601 41.2872 47.8826C41.3849 47.8051 41.454 47.6971 41.4835 47.5759C41.6906 46.778 42.0015 46.0107 42.4084 45.2937C42.4681 45.1885 42.4917 45.0666 42.4755 44.9466C42.4592 44.8267 42.4041 44.7155 42.3185 44.63L41.1409 43.4525C40.8781 43.1878 40.7307 42.8299 40.7307 42.4569C40.7307 42.0839 40.8781 41.7261 41.1409 41.4614L41.9588 40.6435C42.2235 40.3807 42.5813 40.2332 42.9543 40.2332C43.3273 40.2332 43.6852 40.3807 43.9499 40.6435L45.0803 41.7739C45.1672 41.8674 45.2838 41.9278 45.4103 41.945C45.5368 41.9621 45.6653 41.935 45.774 41.8681C46.5016 41.4325 47.2853 41.0983 48.1033 40.8747C48.2249 40.8475 48.3336 40.7796 48.4114 40.6823C48.4893 40.585 48.5316 40.4641 48.5315 40.3395V38.7766C48.5315 38.403 48.6799 38.0446 48.9441 37.7805C49.2083 37.5163 49.5667 37.3678 49.9403 37.3678H51.0964C51.2814 37.3678 51.4646 37.4043 51.6355 37.4751C51.8064 37.5459 51.9617 37.6496 52.0925 37.7805C52.2234 37.9113 52.3271 38.0666 52.3979 38.2375C52.4687 38.4084 52.5052 38.5916 52.5052 38.7766V40.3438C52.5051 40.4684 52.5474 40.5893 52.6253 40.6866C52.7031 40.7839 52.8118 40.8518 52.9333 40.879C53.7275 41.107 54.4878 41.4396 55.1942 41.8681C55.2998 41.9322 55.4239 41.959 55.5465 41.9442C55.6692 41.9295 55.7833 41.874 55.8707 41.7868L57.0012 40.6564C57.2659 40.3936 57.6237 40.2461 57.9967 40.2461C58.3697 40.2461 58.7276 40.3936 58.9923 40.6564L59.8101 41.4742C60.0729 41.7389 60.2204 42.0968 60.2204 42.4697C60.2204 42.8427 60.0729 43.2006 59.8101 43.4653L58.6326 44.6428C58.5532 44.7297 58.5034 44.8395 58.4903 44.9564C58.4773 45.0733 58.5016 45.1914 58.5598 45.2937C58.9657 46.0192 59.2739 46.7952 59.4761 47.6016C59.5056 47.7228 59.5747 47.8307 59.6724 47.9083C59.7701 47.9858 59.8909 48.0286 60.0156 48.0298H61.7027C62.0763 48.0298 62.4347 48.1782 62.6989 48.4424C62.9631 48.7066 63.1115 49.065 63.1115 49.4386L63.12 50.5819ZM50.4841 42.8915C49.0774 42.8915 47.7023 43.3086 46.5327 44.0902C45.3631 44.8717 44.4515 45.9824 43.9132 47.282C43.3749 48.5816 43.234 50.0117 43.5085 51.3913C43.7829 52.771 44.4603 54.0383 45.4549 55.0329C46.4496 56.0276 47.7169 56.705 49.0965 56.9794C50.4762 57.2538 51.9062 57.113 53.2058 56.5747C54.5054 56.0364 55.6162 55.1248 56.3977 53.9552C57.1792 52.7856 57.5964 51.4105 57.5964 50.0038C57.5941 48.1182 56.844 46.3105 55.5107 44.9772C54.1774 43.6438 52.3697 42.8938 50.4841 42.8915ZM50.4841 55.9985C49.2984 55.9985 48.1394 55.6469 47.1536 54.9882C46.1678 54.3295 45.3994 53.3932 44.9457 52.2979C44.492 51.2025 44.3733 49.9971 44.6046 48.8343C44.8359 47.6714 45.4068 46.6033 46.2452 45.7649C47.0836 44.9265 48.1517 44.3556 49.3146 44.1243C50.4774 43.893 51.6828 44.0117 52.7782 44.4654C53.8735 44.9191 54.8098 45.6875 55.4685 46.6733C56.1272 47.6591 56.4788 48.8182 56.4788 50.0038C56.4788 51.5937 55.8472 53.1185 54.723 54.2427C53.5987 55.3669 52.074 55.9985 50.4841 55.9985ZM59.322 62.7554C58.7159 62.7565 58.135 62.9978 57.7064 63.4263C57.2778 63.8549 57.0366 64.4358 57.0354 65.0419C57.0356 65.2107 57.0557 65.3788 57.0954 65.5429C53.9369 66.8891 50.443 67.2403 47.0798 66.5498C43.7165 65.8592 40.6437 64.1597 38.2712 61.6779C35.8987 59.196 34.3393 56.0499 33.8008 52.6589C33.2624 49.268 33.7705 45.7935 35.2576 42.6988L35.2875 42.8187C35.3155 42.9399 35.3836 43.0482 35.4807 43.1259C35.5778 43.2036 35.6984 43.2462 35.8228 43.2469C35.8682 43.2532 35.9143 43.2532 35.9598 43.2469C36.0322 43.2282 36.1001 43.195 36.1594 43.1494C36.2188 43.1039 36.2683 43.0468 36.3051 42.9816C36.3418 42.9165 36.3651 42.8446 36.3735 42.7703C36.3818 42.6959 36.3751 42.6207 36.3537 42.549L35.9812 41.0118C35.9643 40.9395 35.9322 40.8716 35.8872 40.8126C35.8422 40.7535 35.7852 40.7047 35.72 40.6692C35.656 40.6316 35.5851 40.6074 35.5116 40.5978C35.438 40.5882 35.3633 40.5936 35.2918 40.6135L33.7846 41.0589C33.7146 41.0785 33.6491 41.1118 33.592 41.1568C33.5348 41.2018 33.4871 41.2575 33.4515 41.321C33.4159 41.3844 33.3932 41.4542 33.3846 41.5264C33.376 41.5986 33.3817 41.6718 33.4013 41.7418C33.421 41.8118 33.4543 41.8773 33.4993 41.9344C33.5443 41.9916 33.6 42.0393 33.6635 42.0749C33.7269 42.1105 33.7967 42.1332 33.8689 42.1418C33.9411 42.1504 34.0143 42.1447 34.0843 42.1251L34.3412 42.0523C33.1287 44.5275 32.4988 47.2475 32.5 50.0038C32.498 52.9838 33.2366 55.9177 34.6493 58.5416C36.0621 61.1655 38.1047 63.3972 40.5936 65.0361C43.0825 66.675 45.9397 67.6697 48.9083 67.9308C51.8769 68.1919 54.8638 67.7113 57.6006 66.532C57.8513 66.8213 58.1706 67.0429 58.5293 67.1764C58.888 67.31 59.2745 67.3512 59.6533 67.2962C60.032 67.2413 60.3909 67.0919 60.6969 66.862C61.0028 66.632 61.246 66.3288 61.4041 65.9802C61.5622 65.6317 61.63 65.2489 61.6015 64.8673C61.5729 64.4856 61.4488 64.1172 61.2406 63.7961C61.0324 63.4749 60.7468 63.2113 60.41 63.0294C60.0732 62.8476 59.6961 62.7533 59.3134 62.7554H59.322ZM59.322 66.2237C59.0882 66.2237 58.8597 66.1544 58.6654 66.0245C58.471 65.8947 58.3196 65.7101 58.2301 65.4942C58.1407 65.2782 58.1173 65.0406 58.1629 64.8113C58.2085 64.5821 58.321 64.3715 58.4863 64.2062C58.6516 64.041 58.8622 63.9284 59.0914 63.8828C59.3207 63.8372 59.5583 63.8606 59.7742 63.9501C59.9902 64.0395 60.1748 64.191 60.3046 64.3853C60.4345 64.5797 60.5038 64.8082 60.5038 65.0419C60.5038 65.1971 60.4732 65.3508 60.4138 65.4942C60.3544 65.6376 60.2674 65.7678 60.1576 65.8776C60.0479 65.9873 59.9176 66.0744 59.7742 66.1338C59.6308 66.1931 59.4772 66.2237 59.322 66.2237ZM66.8796 57.8825L66.6227 57.9553C68.2547 54.6546 68.8343 50.9325 68.2831 47.2918C67.7318 43.6511 66.0763 40.2674 63.5403 37.5977C61.0042 34.9281 57.7098 33.1013 54.1022 32.3641C50.4946 31.6269 46.7476 32.0149 43.3675 33.4756C43.016 33.0752 42.535 32.8111 42.0085 32.7292C41.482 32.6473 40.9435 32.7529 40.487 33.0275C40.0304 33.3022 39.6848 33.7284 39.5105 34.2319C39.3362 34.7354 39.3442 35.2841 39.5332 35.7822C39.7221 36.2804 40.08 36.6964 40.5444 36.9576C41.0088 37.2188 41.5501 37.3086 42.074 37.2114C42.5978 37.1142 43.0709 36.8361 43.4106 36.4256C43.7503 36.0152 43.9351 35.4985 43.9327 34.9657C43.9326 34.7969 43.9125 34.6287 43.8728 34.4647C47.0317 33.1177 50.5264 32.766 53.8904 33.4566C57.2544 34.1472 60.3278 35.8472 62.7006 38.3297C65.0734 40.8123 66.6327 43.9595 67.1705 47.3513C67.7083 50.7431 67.199 54.2182 65.7106 57.313L65.6806 57.1889C65.6629 57.1183 65.6315 57.0519 65.5881 56.9935C65.5447 56.9351 65.4903 56.8858 65.4279 56.8484C65.3654 56.811 65.2963 56.7863 65.2243 56.7756C65.1523 56.765 65.0789 56.7686 65.0084 56.7864C64.9378 56.8041 64.8714 56.8355 64.813 56.8789C64.7546 56.9223 64.7053 56.9767 64.6679 57.0391C64.6305 57.1016 64.6058 57.1707 64.5952 57.2427C64.5845 57.3147 64.5882 57.3881 64.6059 57.4586L64.9912 58.9787C65.0082 59.051 65.0402 59.1189 65.0852 59.1779C65.1302 59.2369 65.1872 59.2858 65.2524 59.3213C65.3348 59.372 65.4297 59.3987 65.5265 59.3983C65.5777 59.4046 65.6294 59.4046 65.6806 59.3983L67.1836 58.9701C67.2536 58.9505 67.319 58.9172 67.3762 58.8722C67.4333 58.8272 67.4811 58.7714 67.5166 58.708C67.5522 58.6446 67.575 58.5748 67.5836 58.5026C67.5922 58.4304 67.5865 58.3572 67.5668 58.2872C67.5471 58.2172 67.5139 58.1517 67.4689 58.0946C67.4239 58.0374 67.3681 57.9897 67.3047 57.9541C67.2413 57.9185 67.1715 57.8958 67.0993 57.8872C67.0271 57.8786 66.9539 57.8843 66.8839 57.9039L66.8796 57.8825ZM41.6462 36.1432C41.4121 36.1441 41.183 36.0754 40.988 35.9458C40.793 35.8163 40.6409 35.6318 40.5509 35.4156C40.4609 35.1995 40.4371 34.9615 40.4826 34.7319C40.5281 34.5022 40.6407 34.2913 40.8063 34.1257C40.9718 33.9602 41.1828 33.8476 41.4124 33.8021C41.6421 33.7566 41.88 33.7804 42.0962 33.8704C42.3123 33.9604 42.4968 34.1125 42.6263 34.3075C42.7559 34.5025 42.8246 34.7316 42.8237 34.9657C42.8226 35.2776 42.6982 35.5765 42.4776 35.7971C42.257 36.0177 41.9581 36.1421 41.6462 36.1432Z" stroke="#F7F4F4" stroke-width="0.6" mask="url(#path-2-outside-1_1387_533)"/>
</svg>
