<svg width="101" height="100" viewBox="0 0 101 100" fill="none" xmlns="http://www.w3.org/2000/svg">
<circle cx="50.5" cy="50" r="50" fill="#65221A"/>
<path d="M66.8418 54.841H62.4019V49.5988C62.4019 49.0104 61.9205 48.529 61.3321 48.529H51.3291V45.159H55.7689C56.3574 45.159 56.8388 44.6776 56.8388 44.0892V33.0698C56.8388 32.4814 56.3574 32 55.7689 32H44.7496C44.1612 32 43.6798 32.4814 43.6798 33.0698V44.0892C43.6798 44.6776 44.1612 45.159 44.7496 45.159H49.1894V48.529H39.0795C38.4911 48.529 38.0097 49.0104 38.0097 49.5988V54.841H33.5698C32.9814 54.841 32.5 55.3224 32.5 55.9108V66.9302C32.5 67.5186 32.9814 68 33.5698 68H44.5892C45.1776 68 45.659 67.5186 45.659 66.9302V55.9108C45.659 55.3224 45.1776 54.841 44.5892 54.841H40.1493V50.6686H60.2088V54.841H55.7689C55.1805 54.841 54.6991 55.3224 54.6991 55.9108V66.9302C54.6991 67.5186 55.1805 68 55.7689 68H66.7883C67.3767 68 67.8581 67.5186 67.8581 66.9302V55.9108C67.9116 55.3224 67.4302 54.841 66.8418 54.841ZM45.8195 34.1397H54.6991V43.0193H45.8195V34.1397ZM43.5728 65.8603H34.6397V56.9807H43.5193V65.8603H43.5728ZM65.7719 65.8603H56.8388V56.9807H65.7184V65.8603H65.7719Z" fill="#F7F4F4"/>
</svg>
