<svg width="101" height="100" viewBox="0 0 101 100" fill="none" xmlns="http://www.w3.org/2000/svg">
<circle cx="50.5" cy="50" r="50" fill="#65221A"/>
<path d="M40.3352 39.1624L40.3343 39.1617C39.8808 38.8184 39.6431 38.3187 39.6367 37.7194L39.6367 37.718C39.6367 37.1201 39.8835 36.6174 40.3726 36.2173L40.3734 36.2166L40.3734 36.2166C40.6728 35.9759 41.035 35.8129 41.4427 35.73V35.234C41.4427 34.835 41.7687 34.509 42.1677 34.509C42.5668 34.509 42.8927 34.835 42.8927 35.234V35.756C43.3105 35.848 43.6803 36.0119 43.9822 36.2663C44.4207 36.635 44.6664 37.1042 44.6985 37.6568L44.6985 37.6572C44.7202 38.0537 44.4183 38.4017 44.0187 38.4247C43.6087 38.4601 43.2709 38.1383 43.2489 37.7437C43.2394 37.6021 43.1864 37.4942 43.0467 37.3752L43.0462 37.3748C42.8621 37.2162 42.5608 37.123 42.1437 37.123C41.7648 37.123 41.4845 37.2093 41.2983 37.3592C41.1992 37.4396 41.1501 37.5087 41.1246 37.5659C41.0991 37.6227 41.0927 37.6769 41.0927 37.736C41.0927 37.8318 41.1074 37.888 41.1251 37.9243C41.142 37.959 41.1662 37.9851 41.2041 38.0136C41.3412 38.1136 41.6469 38.2762 42.326 38.4238C43.0653 38.5814 43.6194 38.7962 44.0063 39.0877C44.4668 39.4253 44.7047 39.9261 44.7047 40.526C44.7047 41.1241 44.4518 41.6328 43.9687 42.0269L43.968 42.0275C43.6687 42.2681 43.3065 42.4312 42.8987 42.514V43.01C42.8987 43.4091 42.5728 43.735 42.1737 43.735C41.7747 43.735 41.4487 43.4091 41.4487 43.01V42.5012C41.0294 42.4129 40.6601 42.2434 40.3592 41.9896C39.9142 41.6146 39.675 41.1452 39.6429 40.5933L39.6429 40.5927C39.6213 40.1891 39.9248 39.8472 40.3246 39.8252C40.3247 39.8252 40.3248 39.8252 40.3249 39.8252L40.3317 39.95C40.6377 39.932 40.9437 40.184 40.9617 40.514L40.3352 39.1624ZM40.3352 39.1624C40.7276 39.4535 41.2812 39.6685 42.0152 39.8262L40.3352 39.1624Z" fill="#F7F4F4" stroke="#F7F4F4" stroke-width="0.25"/>
<path d="M38.9164 45.775H52.9324C53.3314 45.775 53.6574 45.449 53.6574 45.05C53.6574 44.651 53.3314 44.325 52.9324 44.325H38.9164C38.5174 44.325 38.1914 44.651 38.1914 45.05C38.1914 45.449 38.5174 45.775 38.9164 45.775Z" fill="#F7F4F4" stroke="#F7F4F4" stroke-width="0.25"/>
<path d="M38.9164 49.483H52.9324C53.3314 49.483 53.6574 49.1571 53.6574 48.758C53.6574 48.359 53.3314 48.033 52.9324 48.033H38.9164C38.5174 48.033 38.1914 48.359 38.1914 48.758C38.1914 49.1571 38.5174 49.483 38.9164 49.483Z" fill="#F7F4F4" stroke="#F7F4F4" stroke-width="0.25"/>
<path d="M38.9164 53.191H48.5584C48.9574 53.191 49.2834 52.865 49.2834 52.466C49.2834 52.0669 48.9574 51.741 48.5584 51.741H38.9164C38.5174 51.741 38.1914 52.0669 38.1914 52.466C38.1914 52.865 38.5174 53.191 38.9164 53.191Z" fill="#F7F4F4" stroke="#F7F4F4" stroke-width="0.25"/>
<path d="M45.3964 55.449H38.9164C38.5174 55.449 38.1914 55.7749 38.1914 56.174C38.1914 56.573 38.5174 56.899 38.9164 56.899H45.3964C45.7954 56.899 46.1214 56.573 46.1214 56.174C46.1214 55.7749 45.7954 55.449 45.3964 55.449Z" fill="#F7F4F4" stroke="#F7F4F4" stroke-width="0.25"/>
<path d="M49.4388 32.092L49.4384 32.0916C49.3019 31.9551 49.1144 31.875 48.924 31.875H35.1C34.701 31.875 34.375 32.201 34.375 32.6V60.05C34.375 60.449 34.701 60.775 35.1 60.775H48.7428C49.1086 64.8884 52.5569 68.125 56.754 68.125C61.1914 68.125 64.805 64.4987 64.805 60.05C64.805 55.8417 61.581 52.3811 57.479 52.009V40.502C57.479 40.3161 57.408 40.1267 57.2675 39.9927L49.4388 32.092ZM49.649 39.777V34.3615L55.02 39.777H49.649ZM35.825 33.325H48.199V40.502C48.199 40.901 48.525 41.227 48.924 41.227H56.035V52.0089C52.1716 52.3565 49.096 55.4445 48.7489 59.319H35.825V33.325ZM56.754 66.675C53.1155 66.675 50.153 63.7014 50.153 60.05C50.153 56.3986 53.1155 53.425 56.754 53.425C60.3925 53.425 63.355 56.3986 63.355 60.05C63.355 63.7014 60.3925 66.675 56.754 66.675Z" fill="#F7F4F4" stroke="#F7F4F4" stroke-width="0.25"/>
<path d="M53.6535 60.2344L53.6537 60.2345L55.5917 62.1665L55.5916 62.1665L55.5938 62.1686C55.7363 62.3039 55.9168 62.377 56.1059 62.377C56.295 62.377 56.4756 62.3039 56.618 62.1686L56.618 62.1686L56.6201 62.1665L59.8541 58.9445L59.8543 58.9444C60.1371 58.6615 60.1371 58.2044 59.8543 57.9216C59.5715 57.6388 59.1143 57.6388 58.8315 57.9216L56.1059 60.6356L54.6763 59.2116C54.6763 59.2115 54.6762 59.2115 54.6762 59.2115C54.3933 58.9288 53.9363 58.9288 53.6535 59.2116C53.3707 59.4944 53.3707 59.9515 53.6535 60.2344Z" fill="#F7F4F4" stroke="#F7F4F4" stroke-width="0.25"/>
</svg>
