<svg width="101" height="100" viewBox="0 0 101 100" fill="none" xmlns="http://www.w3.org/2000/svg">
<circle cx="50.5" cy="50" r="50" fill="#65221A"/>
<path d="M39.9831 55.5416H40.2331V55.2916V53.947V53.697H39.9831H35.212C34.8652 53.697 34.5512 53.4109 34.5512 53.0361V34.212C34.5512 33.8652 34.8373 33.5512 35.212 33.5512H53.8193C54.1661 33.5512 54.4801 33.8373 54.4801 34.212V39.0265V39.2765H54.7301H56.0313H56.2813V39.0265V34.212C56.2813 32.8595 55.1718 31.75 53.8193 31.75H35.212C33.8595 31.75 32.75 32.8595 32.75 34.212V53.0361C32.75 54.4289 33.8564 55.5416 35.212 55.5416H39.9831Z" fill="#F7F4F4" stroke="#F7F4F4" stroke-width="0.5"/>
<path d="M45.5348 61.9608H45.7848V61.7108V60.3663V60.1163H45.5348H41.5011C41.1543 60.1163 40.8403 59.8302 40.8403 59.4554V40.588C40.8403 40.2411 41.1264 39.9271 41.5011 39.9271H60.1517C60.4985 39.9271 60.8125 40.2132 60.8125 40.588V44.8386V45.0886H61.0625H62.3638H62.6138V44.8386V40.588C62.6138 39.2354 61.5042 38.1259 60.1517 38.1259H41.5011C40.1486 38.1259 39.0391 39.2354 39.0391 40.588V59.4988C39.0391 60.8513 40.1486 61.9608 41.5011 61.9608H45.5348Z" fill="#F7F4F4" stroke="#F7F4F4" stroke-width="0.5"/>
<path d="M47.1398 68.25H66.3542C67.7068 68.25 68.8163 67.1405 68.8163 65.7879V46.3132C68.8163 44.9607 67.7068 43.8512 66.3542 43.8512H47.1398C45.7873 43.8512 44.6777 44.9607 44.6777 46.3132V65.7879C44.6777 67.1405 45.7873 68.25 47.1398 68.25ZM46.4789 46.3132C46.4789 45.9664 46.765 45.6524 47.1398 45.6524H66.3542C66.7011 45.6524 67.0151 45.9385 67.0151 46.3132V65.7879C67.0151 66.1348 66.729 66.4488 66.3542 66.4488H47.1398C46.793 66.4488 46.4789 66.1627 46.4789 65.7879V46.3132Z" fill="#F7F4F4" stroke="#F7F4F4" stroke-width="0.5"/>
</svg>
