<svg width="101" height="100" viewBox="0 0 101 100" fill="none" xmlns="http://www.w3.org/2000/svg">
<circle cx="50.5" cy="50" r="50" fill="#F7F4F4"/>
<path d="M45.9097 57.5842L45.9098 57.5841L45.8698 57.5397C44.5458 56.1925 43.7296 54.3452 43.7296 52.3121C43.7296 50.2544 44.5665 48.3876 45.9174 47.0368C47.2656 45.6851 49.1316 44.8496 51.1916 44.849L45.9097 57.5842ZM45.9097 57.5842L45.9151 57.5897M45.9097 57.5842L45.9151 57.5897M45.9151 57.5897C47.2649 58.9394 49.1317 59.7763 51.1927 59.7763C53.2525 59.7763 55.1193 58.9407 56.468 57.5885L45.9151 57.5897ZM49.8839 53.9351L48.6999 52.7511L48.6997 52.7509C48.3437 52.3962 47.7676 52.3959 47.4124 52.7511L47.4122 52.7513C47.134 53.0306 47.0738 53.4453 47.2323 53.7825H47.1552L47.4113 54.0386L49.3533 55.9806L49.3535 55.9808C49.7096 56.3355 50.2856 56.3358 50.6408 55.9806C50.6913 55.9301 50.7341 55.8757 50.7703 55.8175L55.0653 49.8153L55.0655 49.8151C55.3566 49.4065 55.2608 48.8396 54.8525 48.5487C54.444 48.2578 53.8773 48.3534 53.5864 48.7615L49.8839 53.9351ZM49.8839 53.9351L53.5862 48.7618L49.8839 53.9351ZM62.6345 67.2626L62.6346 67.2627L62.6397 67.2576C63.1899 66.7074 63.532 65.9468 63.532 65.1092V39.5184C63.532 38.6808 63.1888 37.9201 62.6373 37.3722C62.0872 36.8209 61.3255 36.4776 60.4912 36.4776H56.6967V35.5762C56.6967 35.0724 56.2884 34.6655 55.7861 34.6655H54.7954C54.6547 33.9548 54.2821 33.3215 53.7553 32.8362C53.095 32.2271 52.1864 31.85 51.1916 31.85C50.1968 31.85 49.2882 32.2271 48.6268 32.8362L48.6268 32.8362C48.0999 33.3215 47.7273 33.9548 47.5866 34.6655H46.5959C46.0922 34.6655 45.6853 35.0738 45.6853 35.5762V36.4776H41.8908C41.0532 36.4776 40.2926 36.8197 39.7424 37.3699C39.1921 37.9202 38.85 38.6808 38.85 39.5184V65.1092C38.85 65.9468 39.1921 66.7074 39.7424 67.2576C40.2926 67.8079 41.0532 68.15 41.8908 68.15H60.4912C61.2998 68.15 62.0394 67.8275 62.5857 67.3069C62.5861 67.3065 62.5865 67.3061 62.587 67.3057L62.6345 67.2626ZM41.0299 65.9701L40.9252 66.0748L41.0299 65.9701C40.8078 65.7481 40.6701 65.4424 40.6701 65.1092V39.5184C40.6701 39.1852 40.8078 38.8795 41.0299 38.6574C41.2519 38.4353 41.5576 38.2977 41.8908 38.2977H45.6853V38.9402C45.6853 39.444 46.0936 39.8508 46.5959 39.8508H55.7861C56.2899 39.8508 56.6967 39.4426 56.6967 38.9402V38.2988H60.4912C60.8272 38.2988 61.1324 38.4357 61.3514 38.6578L61.3522 38.6586C61.5743 38.8807 61.7119 39.1864 61.7119 39.5195V65.1103C61.7119 65.4435 61.5743 65.7492 61.3522 65.9713L61.3521 65.9712L61.3486 65.975L61.3202 66.0054C61.1033 66.2064 60.8115 66.3299 60.4912 66.3299H41.8908C41.5576 66.3299 41.2519 66.1922 41.0299 65.9701ZM54.8755 36.4868V37.3882V38.0296H47.5054V37.3882V36.4868H48.0878L48.0867 36.4879H48.449C48.9528 36.4879 49.3596 36.0797 49.3596 35.5773H49.3601L49.3591 35.565C49.3581 35.5525 49.3571 35.5404 49.3561 35.5286C49.3492 35.4466 49.3437 35.3805 49.3437 35.3025C49.3437 34.8673 49.5373 34.4671 49.8564 34.1732L49.8566 34.1731C50.1907 33.8641 50.6627 33.6701 51.1904 33.6701C51.718 33.6701 52.1901 33.8651 52.5245 34.1732L52.5245 34.1732C52.8426 34.4662 53.036 34.8649 53.0372 35.2984L53.0274 35.4756C52.9716 35.9722 53.3273 36.4215 53.8242 36.4801L53.8242 36.4803L53.8322 36.4808L53.9211 36.4865L53.9211 36.4868H53.9307H54.8755ZM55.1817 48.3231L55.2773 48.4187C56.2427 49.4312 56.8357 50.8033 56.8357 52.3132C56.8357 53.8742 56.2049 55.2857 55.183 56.3043L55.1828 56.3045C54.1618 57.3255 52.7501 57.9574 51.1916 57.9574C49.633 57.9574 48.2213 57.3255 47.2003 56.3045L47.2004 56.3044L47.1955 56.2998L47.1585 56.266C46.1616 55.251 45.5463 53.855 45.5463 52.3144C45.5463 50.7534 46.1771 49.3418 47.199 48.3233L47.1992 48.3231C48.2202 47.3021 49.6319 46.6702 51.1904 46.6702C52.749 46.6702 54.1607 47.3021 55.1817 48.3231ZM56.4692 47.0356C55.1199 45.6864 53.254 44.8496 51.1939 44.849L56.4682 57.5884C57.819 56.2375 58.6558 54.3708 58.6558 52.3132C58.6558 50.2522 57.8189 48.3854 56.4692 47.0356ZM51.1916 34.271C50.6878 34.271 50.281 34.6793 50.281 35.1816V35.8487C50.281 36.3525 50.6892 36.7593 51.1916 36.7593C51.6954 36.7593 52.1022 36.3511 52.1022 35.8487V35.1816C52.1022 34.6778 51.6939 34.271 51.1916 34.271Z" fill="#65221A" stroke="#65221A" stroke-width="0.3"/>
</svg>
