<svg width="100" height="100" viewBox="0 0 100 100" fill="none" xmlns="http://www.w3.org/2000/svg">
<circle cx="50" cy="50" r="50" fill="#F7F4F4"/>
<mask id="path-2-outside-1_1350_236" maskUnits="userSpaceOnUse" x="33" y="31" width="38" height="41" fill="black">
<rect fill="white" x="33" y="31" width="38" height="41"/>
<path d="M37.7758 44.186C37.7201 44.1256 37.6759 44.0538 37.6457 43.9747C37.6155 43.8957 37.6 43.811 37.6 43.7255C37.6 43.6399 37.6155 43.5552 37.6457 43.4762C37.6759 43.3972 37.7201 43.3254 37.7758 43.2649L44.3758 36.0993C44.4315 36.0388 44.4976 35.9908 44.5704 35.9581C44.6432 35.9253 44.7212 35.9085 44.8 35.9085C44.8788 35.9085 44.9568 35.9253 45.0296 35.9581C45.1024 35.9908 45.1685 36.0388 45.2242 36.0993L48.4 39.5473L54.1516 33.3028H52C51.8409 33.3028 51.6883 33.2342 51.5757 33.112C51.4632 32.9899 51.4 32.8242 51.4 32.6514C51.4 32.4786 51.4632 32.313 51.5757 32.1908C51.6883 32.0686 51.8409 32 52 32H55.6C55.6788 32 55.7568 32.0168 55.8296 32.0495C55.9024 32.0823 55.9686 32.1303 56.0243 32.1907C56.08 32.2512 56.1242 32.3231 56.1544 32.4021C56.1845 32.4811 56.2 32.5659 56.2 32.6514V36.5599C56.2 36.7327 56.1368 36.8984 56.0243 37.0205C55.9117 37.1427 55.7591 37.2113 55.6 37.2113C55.4409 37.2113 55.2883 37.1427 55.1757 37.0205C55.0632 36.8984 55 36.7327 55 36.5599V34.224L48.8242 40.929C48.7685 40.9895 48.7024 41.0375 48.6296 41.0702C48.5568 41.103 48.4788 41.1198 48.4 41.1198C48.3212 41.1198 48.2432 41.103 48.1704 41.0702C48.0976 41.0375 48.0315 40.9895 47.9758 40.929L44.8 37.4811L38.6242 44.186C38.5685 44.2465 38.5024 44.2945 38.4296 44.3273C38.3568 44.36 38.2788 44.3769 38.2 44.3769C38.1212 44.3769 38.0432 44.36 37.9704 44.3273C37.8976 44.2945 37.8315 44.2465 37.7758 44.186ZM49.6 45.6797C49.5998 45.507 49.5366 45.3414 49.4241 45.2193C49.3116 45.0972 49.1591 45.0285 49 45.0283H47.2C47.0409 45.0285 46.8884 45.0972 46.7759 45.2193C46.6634 45.3414 46.6002 45.507 46.6 45.6797V59.3595H47.8C47.9591 59.3595 48.1117 59.4281 48.2243 59.5503C48.3368 59.6724 48.4 59.8381 48.4 60.0109C48.4 60.1837 48.3368 60.3493 48.2243 60.4715C48.1117 60.5937 47.9591 60.6623 47.8 60.6623H35.8C35.3228 60.6617 34.8652 60.4557 34.5278 60.0893C34.1903 59.7229 34.0005 59.2262 34 58.7081V32.6514C34 32.4786 34.0632 32.313 34.1757 32.1908C34.2883 32.0686 34.4409 32 34.6 32C34.7591 32 34.9117 32.0686 35.0243 32.1908C35.1368 32.313 35.2 32.4786 35.2 32.6514V58.7081C35.2001 58.8808 35.2634 59.0464 35.3759 59.1686C35.4884 59.2907 35.6409 59.3594 35.8 59.3595H37.6V49.5882C37.6005 49.0701 37.7903 48.5734 38.1278 48.207C38.4652 47.8406 38.9228 47.6346 39.4 47.634H41.2C41.6772 47.6346 42.1348 47.8406 42.4722 48.207C42.8097 48.5734 42.9995 49.0701 43 49.5882V59.3595H45.4V45.6797C45.4005 45.1616 45.5903 44.6649 45.9278 44.2985C46.2652 43.9321 46.7228 43.7261 47.2 43.7255H49C49.4772 43.7261 49.9348 43.9321 50.2722 44.2985C50.6097 44.6649 50.7995 45.1616 50.8 45.6797V52.227C50.8 52.3997 50.7368 52.5654 50.6243 52.6876C50.5117 52.8098 50.3591 52.8784 50.2 52.8784C50.0409 52.8784 49.8883 52.8098 49.7757 52.6876C49.6632 52.5654 49.6 52.3997 49.6 52.227V45.6797ZM41.8 49.5882C41.7998 49.4155 41.7366 49.2499 41.6241 49.1278C41.5116 49.0057 41.3591 48.937 41.2 48.9368H39.4C39.2409 48.937 39.0884 49.0057 38.9759 49.1278C38.8634 49.2499 38.8002 49.4155 38.8 49.5882V59.3595H41.8V49.5882ZM53.2 41.7712V48.7453C53.2 48.9181 53.2632 49.0838 53.3757 49.206C53.4883 49.3281 53.6409 49.3968 53.8 49.3968C53.9591 49.3968 54.1117 49.3281 54.2243 49.206C54.3368 49.0838 54.4 48.9181 54.4 48.7453V41.7712C54.4002 41.5985 54.4634 41.4329 54.5759 41.3108C54.6884 41.1887 54.8409 41.12 55 41.1198H56.8C56.9591 41.12 57.1116 41.1887 57.2241 41.3108C57.3366 41.4329 57.3998 41.5985 57.4 41.7712V47.1454C57.4 47.3182 57.4632 47.4839 57.5757 47.606C57.6883 47.7282 57.8409 47.7968 58 47.7968C58.1591 47.7968 58.3117 47.7282 58.4243 47.606C58.5368 47.4839 58.6 47.3182 58.6 47.1454V41.7712C58.5995 41.2531 58.4097 40.7564 58.0722 40.39C57.7348 40.0236 57.2772 39.8176 56.8 39.817H55C54.5228 39.8176 54.0652 40.0236 53.7278 40.39C53.3903 40.7564 53.2005 41.2531 53.2 41.7712ZM70 60.0109C70 62.2011 69.4018 64.3422 68.281 66.1633C67.1602 67.9844 65.5672 69.4038 63.7034 70.242C61.8396 71.0802 59.7887 71.2995 57.8101 70.8722C55.8315 70.4449 54.014 69.3902 52.5875 67.8414C51.161 66.2927 50.1896 64.3195 49.796 62.1713C49.4024 60.0232 49.6044 57.7965 50.3764 55.773C51.1484 53.7495 52.4558 52.02 54.1332 50.8031C55.8106 49.5863 57.7826 48.9368 59.8 48.9368C62.5043 48.9401 65.0969 50.1079 67.0092 52.184C68.9214 54.26 69.997 57.0749 70 60.0109ZM68.8 60.0109C68.8 58.0783 68.2722 56.1892 67.2832 54.5823C66.2943 52.9754 64.8887 51.723 63.2441 50.9834C61.5996 50.2439 59.79 50.0504 58.0442 50.4274C56.2984 50.8044 54.6947 51.735 53.436 53.1016C52.1774 54.4681 51.3202 56.2092 50.9729 58.1046C50.6257 60.0001 50.8039 61.9647 51.4851 63.7502C52.1663 65.5356 53.3198 67.0617 54.7999 68.1354C56.2799 69.2091 58.02 69.7821 59.8 69.7821C62.1861 69.7793 64.4738 68.7489 66.1611 66.9171C67.8483 65.0852 68.7974 62.6015 68.8 60.0109ZM59.8 56.7538C60.1181 56.7543 60.4231 56.8917 60.6481 57.1359C60.873 57.3801 60.9996 57.7112 61 58.0566C61 58.2294 61.0632 58.3951 61.1757 58.5173C61.2883 58.6394 61.4409 58.7081 61.6 58.7081C61.7591 58.7081 61.9117 58.6394 62.0243 58.5173C62.1368 58.3951 62.2 58.2294 62.2 58.0566C62.1985 57.4805 62.0209 56.9212 61.6952 56.4664C61.3694 56.0116 60.9139 55.687 60.4 55.5435V54.7996C60.4 54.6268 60.3368 54.4611 60.2243 54.3389C60.1117 54.2168 59.9591 54.1481 59.8 54.1481C59.6409 54.1481 59.4883 54.2168 59.3757 54.3389C59.2632 54.4611 59.2 54.6268 59.2 54.7996V55.5435C58.6346 55.7009 58.1417 56.0771 57.8138 56.6013C57.4858 57.1256 57.3455 57.7618 57.4192 58.3904C57.4929 59.019 57.7755 59.5968 58.2139 60.0151C58.6523 60.4335 59.2163 60.6636 59.8 60.6623C60.0373 60.6623 60.2693 60.7387 60.4667 60.8819C60.664 61.025 60.8178 61.2285 60.9087 61.4666C60.9995 61.7046 61.0232 61.9666 60.9769 62.2193C60.9306 62.472 60.8164 62.7042 60.6485 62.8864C60.4807 63.0686 60.2669 63.1927 60.0341 63.2429C59.8013 63.2932 59.56 63.2674 59.3408 63.1688C59.1215 63.0702 58.9341 62.9032 58.8022 62.689C58.6704 62.4747 58.6 62.2228 58.6 61.9651C58.6 61.7924 58.5368 61.6267 58.4243 61.5045C58.3117 61.3824 58.1591 61.3137 58 61.3137C57.8409 61.3137 57.6883 61.3824 57.5757 61.5045C57.4632 61.6267 57.4 61.7924 57.4 61.9651C57.4015 62.5413 57.5791 63.1005 57.9048 63.5553C58.2306 64.0101 58.6861 64.3348 59.2 64.4783V65.2222C59.2 65.395 59.2632 65.5607 59.3757 65.6828C59.4883 65.805 59.6409 65.8736 59.8 65.8736C59.9591 65.8736 60.1117 65.805 60.2243 65.6828C60.3368 65.5607 60.4 65.395 60.4 65.2222V64.4783C60.9654 64.3209 61.4583 63.9447 61.7862 63.4205C62.1142 62.8962 62.2545 62.26 62.1808 61.6314C62.1071 61.0028 61.8245 60.425 61.3861 60.0066C60.9477 59.5883 60.3837 59.3582 59.8 59.3595C59.4817 59.3595 59.1765 59.2222 58.9515 58.9779C58.7264 58.7336 58.6 58.4022 58.6 58.0566C58.6 57.7111 58.7264 57.3797 58.9515 57.1354C59.1765 56.8911 59.4817 56.7538 59.8 56.7538ZM67.6 60.0109C67.6 61.6858 67.1425 63.3231 66.2855 64.7157C65.4284 66.1083 64.2102 67.1937 62.7849 67.8347C61.3597 68.4756 59.7913 68.6433 58.2783 68.3166C56.7652 67.9898 55.3754 67.1833 54.2846 65.999C53.1937 64.8146 52.4508 63.3057 52.1499 61.663C51.8489 60.0203 52.0034 58.3176 52.5937 56.7702C53.1841 55.2228 54.1838 53.9002 55.4666 52.9697C56.7493 52.0391 58.2573 51.5425 59.8 51.5425C61.868 51.5451 63.8505 52.4381 65.3128 54.0257C66.7751 55.6133 67.5976 57.7657 67.6 60.0109ZM66.4 60.0109C66.4 58.5937 66.0129 57.2083 65.2877 56.0299C64.5625 54.8515 63.5317 53.9331 62.3257 53.3908C61.1197 52.8484 59.7927 52.7065 58.5124 52.983C57.2321 53.2595 56.0561 53.9419 55.1331 54.9441C54.2101 55.9462 53.5815 57.223 53.3268 58.613C53.0722 60.0029 53.2029 61.4437 53.7024 62.753C54.2019 64.0624 55.0479 65.1815 56.1332 65.9688C57.2186 66.7562 58.4946 67.1765 59.8 67.1765C61.5498 67.1743 63.2274 66.4187 64.4647 65.0753C65.702 63.732 66.398 61.9107 66.4 60.0109Z"/>
</mask>
<path d="M37.7758 44.186C37.7201 44.1256 37.6759 44.0538 37.6457 43.9747C37.6155 43.8957 37.6 43.811 37.6 43.7255C37.6 43.6399 37.6155 43.5552 37.6457 43.4762C37.6759 43.3972 37.7201 43.3254 37.7758 43.2649L44.3758 36.0993C44.4315 36.0388 44.4976 35.9908 44.5704 35.9581C44.6432 35.9253 44.7212 35.9085 44.8 35.9085C44.8788 35.9085 44.9568 35.9253 45.0296 35.9581C45.1024 35.9908 45.1685 36.0388 45.2242 36.0993L48.4 39.5473L54.1516 33.3028H52C51.8409 33.3028 51.6883 33.2342 51.5757 33.112C51.4632 32.9899 51.4 32.8242 51.4 32.6514C51.4 32.4786 51.4632 32.313 51.5757 32.1908C51.6883 32.0686 51.8409 32 52 32H55.6C55.6788 32 55.7568 32.0168 55.8296 32.0495C55.9024 32.0823 55.9686 32.1303 56.0243 32.1907C56.08 32.2512 56.1242 32.3231 56.1544 32.4021C56.1845 32.4811 56.2 32.5659 56.2 32.6514V36.5599C56.2 36.7327 56.1368 36.8984 56.0243 37.0205C55.9117 37.1427 55.7591 37.2113 55.6 37.2113C55.4409 37.2113 55.2883 37.1427 55.1757 37.0205C55.0632 36.8984 55 36.7327 55 36.5599V34.224L48.8242 40.929C48.7685 40.9895 48.7024 41.0375 48.6296 41.0702C48.5568 41.103 48.4788 41.1198 48.4 41.1198C48.3212 41.1198 48.2432 41.103 48.1704 41.0702C48.0976 41.0375 48.0315 40.9895 47.9758 40.929L44.8 37.4811L38.6242 44.186C38.5685 44.2465 38.5024 44.2945 38.4296 44.3273C38.3568 44.36 38.2788 44.3769 38.2 44.3769C38.1212 44.3769 38.0432 44.36 37.9704 44.3273C37.8976 44.2945 37.8315 44.2465 37.7758 44.186ZM49.6 45.6797C49.5998 45.507 49.5366 45.3414 49.4241 45.2193C49.3116 45.0972 49.1591 45.0285 49 45.0283H47.2C47.0409 45.0285 46.8884 45.0972 46.7759 45.2193C46.6634 45.3414 46.6002 45.507 46.6 45.6797V59.3595H47.8C47.9591 59.3595 48.1117 59.4281 48.2243 59.5503C48.3368 59.6724 48.4 59.8381 48.4 60.0109C48.4 60.1837 48.3368 60.3493 48.2243 60.4715C48.1117 60.5937 47.9591 60.6623 47.8 60.6623H35.8C35.3228 60.6617 34.8652 60.4557 34.5278 60.0893C34.1903 59.7229 34.0005 59.2262 34 58.7081V32.6514C34 32.4786 34.0632 32.313 34.1757 32.1908C34.2883 32.0686 34.4409 32 34.6 32C34.7591 32 34.9117 32.0686 35.0243 32.1908C35.1368 32.313 35.2 32.4786 35.2 32.6514V58.7081C35.2001 58.8808 35.2634 59.0464 35.3759 59.1686C35.4884 59.2907 35.6409 59.3594 35.8 59.3595H37.6V49.5882C37.6005 49.0701 37.7903 48.5734 38.1278 48.207C38.4652 47.8406 38.9228 47.6346 39.4 47.634H41.2C41.6772 47.6346 42.1348 47.8406 42.4722 48.207C42.8097 48.5734 42.9995 49.0701 43 49.5882V59.3595H45.4V45.6797C45.4005 45.1616 45.5903 44.6649 45.9278 44.2985C46.2652 43.9321 46.7228 43.7261 47.2 43.7255H49C49.4772 43.7261 49.9348 43.9321 50.2722 44.2985C50.6097 44.6649 50.7995 45.1616 50.8 45.6797V52.227C50.8 52.3997 50.7368 52.5654 50.6243 52.6876C50.5117 52.8098 50.3591 52.8784 50.2 52.8784C50.0409 52.8784 49.8883 52.8098 49.7757 52.6876C49.6632 52.5654 49.6 52.3997 49.6 52.227V45.6797ZM41.8 49.5882C41.7998 49.4155 41.7366 49.2499 41.6241 49.1278C41.5116 49.0057 41.3591 48.937 41.2 48.9368H39.4C39.2409 48.937 39.0884 49.0057 38.9759 49.1278C38.8634 49.2499 38.8002 49.4155 38.8 49.5882V59.3595H41.8V49.5882ZM53.2 41.7712V48.7453C53.2 48.9181 53.2632 49.0838 53.3757 49.206C53.4883 49.3281 53.6409 49.3968 53.8 49.3968C53.9591 49.3968 54.1117 49.3281 54.2243 49.206C54.3368 49.0838 54.4 48.9181 54.4 48.7453V41.7712C54.4002 41.5985 54.4634 41.4329 54.5759 41.3108C54.6884 41.1887 54.8409 41.12 55 41.1198H56.8C56.9591 41.12 57.1116 41.1887 57.2241 41.3108C57.3366 41.4329 57.3998 41.5985 57.4 41.7712V47.1454C57.4 47.3182 57.4632 47.4839 57.5757 47.606C57.6883 47.7282 57.8409 47.7968 58 47.7968C58.1591 47.7968 58.3117 47.7282 58.4243 47.606C58.5368 47.4839 58.6 47.3182 58.6 47.1454V41.7712C58.5995 41.2531 58.4097 40.7564 58.0722 40.39C57.7348 40.0236 57.2772 39.8176 56.8 39.817H55C54.5228 39.8176 54.0652 40.0236 53.7278 40.39C53.3903 40.7564 53.2005 41.2531 53.2 41.7712ZM70 60.0109C70 62.2011 69.4018 64.3422 68.281 66.1633C67.1602 67.9844 65.5672 69.4038 63.7034 70.242C61.8396 71.0802 59.7887 71.2995 57.8101 70.8722C55.8315 70.4449 54.014 69.3902 52.5875 67.8414C51.161 66.2927 50.1896 64.3195 49.796 62.1713C49.4024 60.0232 49.6044 57.7965 50.3764 55.773C51.1484 53.7495 52.4558 52.02 54.1332 50.8031C55.8106 49.5863 57.7826 48.9368 59.8 48.9368C62.5043 48.9401 65.0969 50.1079 67.0092 52.184C68.9214 54.26 69.997 57.0749 70 60.0109ZM68.8 60.0109C68.8 58.0783 68.2722 56.1892 67.2832 54.5823C66.2943 52.9754 64.8887 51.723 63.2441 50.9834C61.5996 50.2439 59.79 50.0504 58.0442 50.4274C56.2984 50.8044 54.6947 51.735 53.436 53.1016C52.1774 54.4681 51.3202 56.2092 50.9729 58.1046C50.6257 60.0001 50.8039 61.9647 51.4851 63.7502C52.1663 65.5356 53.3198 67.0617 54.7999 68.1354C56.2799 69.2091 58.02 69.7821 59.8 69.7821C62.1861 69.7793 64.4738 68.7489 66.1611 66.9171C67.8483 65.0852 68.7974 62.6015 68.8 60.0109ZM59.8 56.7538C60.1181 56.7543 60.4231 56.8917 60.6481 57.1359C60.873 57.3801 60.9996 57.7112 61 58.0566C61 58.2294 61.0632 58.3951 61.1757 58.5173C61.2883 58.6394 61.4409 58.7081 61.6 58.7081C61.7591 58.7081 61.9117 58.6394 62.0243 58.5173C62.1368 58.3951 62.2 58.2294 62.2 58.0566C62.1985 57.4805 62.0209 56.9212 61.6952 56.4664C61.3694 56.0116 60.9139 55.687 60.4 55.5435V54.7996C60.4 54.6268 60.3368 54.4611 60.2243 54.3389C60.1117 54.2168 59.9591 54.1481 59.8 54.1481C59.6409 54.1481 59.4883 54.2168 59.3757 54.3389C59.2632 54.4611 59.2 54.6268 59.2 54.7996V55.5435C58.6346 55.7009 58.1417 56.0771 57.8138 56.6013C57.4858 57.1256 57.3455 57.7618 57.4192 58.3904C57.4929 59.019 57.7755 59.5968 58.2139 60.0151C58.6523 60.4335 59.2163 60.6636 59.8 60.6623C60.0373 60.6623 60.2693 60.7387 60.4667 60.8819C60.664 61.025 60.8178 61.2285 60.9087 61.4666C60.9995 61.7046 61.0232 61.9666 60.9769 62.2193C60.9306 62.472 60.8164 62.7042 60.6485 62.8864C60.4807 63.0686 60.2669 63.1927 60.0341 63.2429C59.8013 63.2932 59.56 63.2674 59.3408 63.1688C59.1215 63.0702 58.9341 62.9032 58.8022 62.689C58.6704 62.4747 58.6 62.2228 58.6 61.9651C58.6 61.7924 58.5368 61.6267 58.4243 61.5045C58.3117 61.3824 58.1591 61.3137 58 61.3137C57.8409 61.3137 57.6883 61.3824 57.5757 61.5045C57.4632 61.6267 57.4 61.7924 57.4 61.9651C57.4015 62.5413 57.5791 63.1005 57.9048 63.5553C58.2306 64.0101 58.6861 64.3348 59.2 64.4783V65.2222C59.2 65.395 59.2632 65.5607 59.3757 65.6828C59.4883 65.805 59.6409 65.8736 59.8 65.8736C59.9591 65.8736 60.1117 65.805 60.2243 65.6828C60.3368 65.5607 60.4 65.395 60.4 65.2222V64.4783C60.9654 64.3209 61.4583 63.9447 61.7862 63.4205C62.1142 62.8962 62.2545 62.26 62.1808 61.6314C62.1071 61.0028 61.8245 60.425 61.3861 60.0066C60.9477 59.5883 60.3837 59.3582 59.8 59.3595C59.4817 59.3595 59.1765 59.2222 58.9515 58.9779C58.7264 58.7336 58.6 58.4022 58.6 58.0566C58.6 57.7111 58.7264 57.3797 58.9515 57.1354C59.1765 56.8911 59.4817 56.7538 59.8 56.7538ZM67.6 60.0109C67.6 61.6858 67.1425 63.3231 66.2855 64.7157C65.4284 66.1083 64.2102 67.1937 62.7849 67.8347C61.3597 68.4756 59.7913 68.6433 58.2783 68.3166C56.7652 67.9898 55.3754 67.1833 54.2846 65.999C53.1937 64.8146 52.4508 63.3057 52.1499 61.663C51.8489 60.0203 52.0034 58.3176 52.5937 56.7702C53.1841 55.2228 54.1838 53.9002 55.4666 52.9697C56.7493 52.0391 58.2573 51.5425 59.8 51.5425C61.868 51.5451 63.8505 52.4381 65.3128 54.0257C66.7751 55.6133 67.5976 57.7657 67.6 60.0109ZM66.4 60.0109C66.4 58.5937 66.0129 57.2083 65.2877 56.0299C64.5625 54.8515 63.5317 53.9331 62.3257 53.3908C61.1197 52.8484 59.7927 52.7065 58.5124 52.983C57.2321 53.2595 56.0561 53.9419 55.1331 54.9441C54.2101 55.9462 53.5815 57.223 53.3268 58.613C53.0722 60.0029 53.2029 61.4437 53.7024 62.753C54.2019 64.0624 55.0479 65.1815 56.1332 65.9688C57.2186 66.7562 58.4946 67.1765 59.8 67.1765C61.5498 67.1743 63.2274 66.4187 64.4647 65.0753C65.702 63.732 66.398 61.9107 66.4 60.0109Z" fill="#65221A"/>
<path d="M37.7758 44.186C37.7201 44.1256 37.6759 44.0538 37.6457 43.9747C37.6155 43.8957 37.6 43.811 37.6 43.7255C37.6 43.6399 37.6155 43.5552 37.6457 43.4762C37.6759 43.3972 37.7201 43.3254 37.7758 43.2649L44.3758 36.0993C44.4315 36.0388 44.4976 35.9908 44.5704 35.9581C44.6432 35.9253 44.7212 35.9085 44.8 35.9085C44.8788 35.9085 44.9568 35.9253 45.0296 35.9581C45.1024 35.9908 45.1685 36.0388 45.2242 36.0993L48.4 39.5473L54.1516 33.3028H52C51.8409 33.3028 51.6883 33.2342 51.5757 33.112C51.4632 32.9899 51.4 32.8242 51.4 32.6514C51.4 32.4786 51.4632 32.313 51.5757 32.1908C51.6883 32.0686 51.8409 32 52 32H55.6C55.6788 32 55.7568 32.0168 55.8296 32.0495C55.9024 32.0823 55.9686 32.1303 56.0243 32.1907C56.08 32.2512 56.1242 32.3231 56.1544 32.4021C56.1845 32.4811 56.2 32.5659 56.2 32.6514V36.5599C56.2 36.7327 56.1368 36.8984 56.0243 37.0205C55.9117 37.1427 55.7591 37.2113 55.6 37.2113C55.4409 37.2113 55.2883 37.1427 55.1757 37.0205C55.0632 36.8984 55 36.7327 55 36.5599V34.224L48.8242 40.929C48.7685 40.9895 48.7024 41.0375 48.6296 41.0702C48.5568 41.103 48.4788 41.1198 48.4 41.1198C48.3212 41.1198 48.2432 41.103 48.1704 41.0702C48.0976 41.0375 48.0315 40.9895 47.9758 40.929L44.8 37.4811L38.6242 44.186C38.5685 44.2465 38.5024 44.2945 38.4296 44.3273C38.3568 44.36 38.2788 44.3769 38.2 44.3769C38.1212 44.3769 38.0432 44.36 37.9704 44.3273C37.8976 44.2945 37.8315 44.2465 37.7758 44.186ZM49.6 45.6797C49.5998 45.507 49.5366 45.3414 49.4241 45.2193C49.3116 45.0972 49.1591 45.0285 49 45.0283H47.2C47.0409 45.0285 46.8884 45.0972 46.7759 45.2193C46.6634 45.3414 46.6002 45.507 46.6 45.6797V59.3595H47.8C47.9591 59.3595 48.1117 59.4281 48.2243 59.5503C48.3368 59.6724 48.4 59.8381 48.4 60.0109C48.4 60.1837 48.3368 60.3493 48.2243 60.4715C48.1117 60.5937 47.9591 60.6623 47.8 60.6623H35.8C35.3228 60.6617 34.8652 60.4557 34.5278 60.0893C34.1903 59.7229 34.0005 59.2262 34 58.7081V32.6514C34 32.4786 34.0632 32.313 34.1757 32.1908C34.2883 32.0686 34.4409 32 34.6 32C34.7591 32 34.9117 32.0686 35.0243 32.1908C35.1368 32.313 35.2 32.4786 35.2 32.6514V58.7081C35.2001 58.8808 35.2634 59.0464 35.3759 59.1686C35.4884 59.2907 35.6409 59.3594 35.8 59.3595H37.6V49.5882C37.6005 49.0701 37.7903 48.5734 38.1278 48.207C38.4652 47.8406 38.9228 47.6346 39.4 47.634H41.2C41.6772 47.6346 42.1348 47.8406 42.4722 48.207C42.8097 48.5734 42.9995 49.0701 43 49.5882V59.3595H45.4V45.6797C45.4005 45.1616 45.5903 44.6649 45.9278 44.2985C46.2652 43.9321 46.7228 43.7261 47.2 43.7255H49C49.4772 43.7261 49.9348 43.9321 50.2722 44.2985C50.6097 44.6649 50.7995 45.1616 50.8 45.6797V52.227C50.8 52.3997 50.7368 52.5654 50.6243 52.6876C50.5117 52.8098 50.3591 52.8784 50.2 52.8784C50.0409 52.8784 49.8883 52.8098 49.7757 52.6876C49.6632 52.5654 49.6 52.3997 49.6 52.227V45.6797ZM41.8 49.5882C41.7998 49.4155 41.7366 49.2499 41.6241 49.1278C41.5116 49.0057 41.3591 48.937 41.2 48.9368H39.4C39.2409 48.937 39.0884 49.0057 38.9759 49.1278C38.8634 49.2499 38.8002 49.4155 38.8 49.5882V59.3595H41.8V49.5882ZM53.2 41.7712V48.7453C53.2 48.9181 53.2632 49.0838 53.3757 49.206C53.4883 49.3281 53.6409 49.3968 53.8 49.3968C53.9591 49.3968 54.1117 49.3281 54.2243 49.206C54.3368 49.0838 54.4 48.9181 54.4 48.7453V41.7712C54.4002 41.5985 54.4634 41.4329 54.5759 41.3108C54.6884 41.1887 54.8409 41.12 55 41.1198H56.8C56.9591 41.12 57.1116 41.1887 57.2241 41.3108C57.3366 41.4329 57.3998 41.5985 57.4 41.7712V47.1454C57.4 47.3182 57.4632 47.4839 57.5757 47.606C57.6883 47.7282 57.8409 47.7968 58 47.7968C58.1591 47.7968 58.3117 47.7282 58.4243 47.606C58.5368 47.4839 58.6 47.3182 58.6 47.1454V41.7712C58.5995 41.2531 58.4097 40.7564 58.0722 40.39C57.7348 40.0236 57.2772 39.8176 56.8 39.817H55C54.5228 39.8176 54.0652 40.0236 53.7278 40.39C53.3903 40.7564 53.2005 41.2531 53.2 41.7712ZM70 60.0109C70 62.2011 69.4018 64.3422 68.281 66.1633C67.1602 67.9844 65.5672 69.4038 63.7034 70.242C61.8396 71.0802 59.7887 71.2995 57.8101 70.8722C55.8315 70.4449 54.014 69.3902 52.5875 67.8414C51.161 66.2927 50.1896 64.3195 49.796 62.1713C49.4024 60.0232 49.6044 57.7965 50.3764 55.773C51.1484 53.7495 52.4558 52.02 54.1332 50.8031C55.8106 49.5863 57.7826 48.9368 59.8 48.9368C62.5043 48.9401 65.0969 50.1079 67.0092 52.184C68.9214 54.26 69.997 57.0749 70 60.0109ZM68.8 60.0109C68.8 58.0783 68.2722 56.1892 67.2832 54.5823C66.2943 52.9754 64.8887 51.723 63.2441 50.9834C61.5996 50.2439 59.79 50.0504 58.0442 50.4274C56.2984 50.8044 54.6947 51.735 53.436 53.1016C52.1774 54.4681 51.3202 56.2092 50.9729 58.1046C50.6257 60.0001 50.8039 61.9647 51.4851 63.7502C52.1663 65.5356 53.3198 67.0617 54.7999 68.1354C56.2799 69.2091 58.02 69.7821 59.8 69.7821C62.1861 69.7793 64.4738 68.7489 66.1611 66.9171C67.8483 65.0852 68.7974 62.6015 68.8 60.0109ZM59.8 56.7538C60.1181 56.7543 60.4231 56.8917 60.6481 57.1359C60.873 57.3801 60.9996 57.7112 61 58.0566C61 58.2294 61.0632 58.3951 61.1757 58.5173C61.2883 58.6394 61.4409 58.7081 61.6 58.7081C61.7591 58.7081 61.9117 58.6394 62.0243 58.5173C62.1368 58.3951 62.2 58.2294 62.2 58.0566C62.1985 57.4805 62.0209 56.9212 61.6952 56.4664C61.3694 56.0116 60.9139 55.687 60.4 55.5435V54.7996C60.4 54.6268 60.3368 54.4611 60.2243 54.3389C60.1117 54.2168 59.9591 54.1481 59.8 54.1481C59.6409 54.1481 59.4883 54.2168 59.3757 54.3389C59.2632 54.4611 59.2 54.6268 59.2 54.7996V55.5435C58.6346 55.7009 58.1417 56.0771 57.8138 56.6013C57.4858 57.1256 57.3455 57.7618 57.4192 58.3904C57.4929 59.019 57.7755 59.5968 58.2139 60.0151C58.6523 60.4335 59.2163 60.6636 59.8 60.6623C60.0373 60.6623 60.2693 60.7387 60.4667 60.8819C60.664 61.025 60.8178 61.2285 60.9087 61.4666C60.9995 61.7046 61.0232 61.9666 60.9769 62.2193C60.9306 62.472 60.8164 62.7042 60.6485 62.8864C60.4807 63.0686 60.2669 63.1927 60.0341 63.2429C59.8013 63.2932 59.56 63.2674 59.3408 63.1688C59.1215 63.0702 58.9341 62.9032 58.8022 62.689C58.6704 62.4747 58.6 62.2228 58.6 61.9651C58.6 61.7924 58.5368 61.6267 58.4243 61.5045C58.3117 61.3824 58.1591 61.3137 58 61.3137C57.8409 61.3137 57.6883 61.3824 57.5757 61.5045C57.4632 61.6267 57.4 61.7924 57.4 61.9651C57.4015 62.5413 57.5791 63.1005 57.9048 63.5553C58.2306 64.0101 58.6861 64.3348 59.2 64.4783V65.2222C59.2 65.395 59.2632 65.5607 59.3757 65.6828C59.4883 65.805 59.6409 65.8736 59.8 65.8736C59.9591 65.8736 60.1117 65.805 60.2243 65.6828C60.3368 65.5607 60.4 65.395 60.4 65.2222V64.4783C60.9654 64.3209 61.4583 63.9447 61.7862 63.4205C62.1142 62.8962 62.2545 62.26 62.1808 61.6314C62.1071 61.0028 61.8245 60.425 61.3861 60.0066C60.9477 59.5883 60.3837 59.3582 59.8 59.3595C59.4817 59.3595 59.1765 59.2222 58.9515 58.9779C58.7264 58.7336 58.6 58.4022 58.6 58.0566C58.6 57.7111 58.7264 57.3797 58.9515 57.1354C59.1765 56.8911 59.4817 56.7538 59.8 56.7538ZM67.6 60.0109C67.6 61.6858 67.1425 63.3231 66.2855 64.7157C65.4284 66.1083 64.2102 67.1937 62.7849 67.8347C61.3597 68.4756 59.7913 68.6433 58.2783 68.3166C56.7652 67.9898 55.3754 67.1833 54.2846 65.999C53.1937 64.8146 52.4508 63.3057 52.1499 61.663C51.8489 60.0203 52.0034 58.3176 52.5937 56.7702C53.1841 55.2228 54.1838 53.9002 55.4666 52.9697C56.7493 52.0391 58.2573 51.5425 59.8 51.5425C61.868 51.5451 63.8505 52.4381 65.3128 54.0257C66.7751 55.6133 67.5976 57.7657 67.6 60.0109ZM66.4 60.0109C66.4 58.5937 66.0129 57.2083 65.2877 56.0299C64.5625 54.8515 63.5317 53.9331 62.3257 53.3908C61.1197 52.8484 59.7927 52.7065 58.5124 52.983C57.2321 53.2595 56.0561 53.9419 55.1331 54.9441C54.2101 55.9462 53.5815 57.223 53.3268 58.613C53.0722 60.0029 53.2029 61.4437 53.7024 62.753C54.2019 64.0624 55.0479 65.1815 56.1332 65.9688C57.2186 66.7562 58.4946 67.1765 59.8 67.1765C61.5498 67.1743 63.2274 66.4187 64.4647 65.0753C65.702 63.732 66.398 61.9107 66.4 60.0109Z" stroke="#65221A" stroke-width="0.7" mask="url(#path-2-outside-1_1350_236)"/>
</svg>
