<svg width="100" height="100" viewBox="0 0 100 100" fill="none" xmlns="http://www.w3.org/2000/svg">
<circle cx="50" cy="50" r="50" fill="#65221A"/>
<path d="M44 57.5C43.7033 57.5 43.4133 57.588 43.1666 57.7528C42.92 57.9176 42.7277 58.1519 42.6142 58.426C42.5006 58.7001 42.4709 59.0017 42.5288 59.2926C42.5867 59.5836 42.7296 59.8509 42.9393 60.0607C43.1491 60.2704 43.4164 60.4133 43.7074 60.4712C43.9983 60.5291 44.2999 60.4994 44.574 60.3858C44.8481 60.2723 45.0824 60.08 45.2472 59.8334C45.412 59.5867 45.5 59.2967 45.5 59C45.5 58.6022 45.342 58.2206 45.0607 57.9393C44.7794 57.658 44.3978 57.5 44 57.5V57.5ZM44 48.5C43.7033 48.5 43.4133 48.588 43.1666 48.7528C42.92 48.9176 42.7277 49.1519 42.6142 49.426C42.5006 49.7001 42.4709 50.0017 42.5288 50.2926C42.5867 50.5836 42.7296 50.8509 42.9393 51.0607C43.1491 51.2704 43.4164 51.4133 43.7074 51.4712C43.9983 51.5291 44.2999 51.4994 44.574 51.3858C44.8481 51.2723 45.0824 51.08 45.2472 50.8334C45.412 50.5867 45.5 50.2967 45.5 50C45.5 49.6022 45.342 49.2206 45.0607 48.9393C44.7794 48.658 44.3978 48.5 44 48.5V48.5ZM56 35H44C42.4087 35 40.8826 35.6321 39.7574 36.7574C38.6321 37.8826 38 39.4087 38 41V59C38 60.5913 38.6321 62.1174 39.7574 63.2426C40.8826 64.3679 42.4087 65 44 65H56C57.5913 65 59.1174 64.3679 60.2426 63.2426C61.3679 62.1174 62 60.5913 62 59V41C62 39.4087 61.3679 37.8826 60.2426 36.7574C59.1174 35.6321 57.5913 35 56 35ZM59 59C59 59.7956 58.6839 60.5587 58.1213 61.1213C57.5587 61.6839 56.7956 62 56 62H44C43.2044 62 42.4413 61.6839 41.8787 61.1213C41.3161 60.5587 41 59.7956 41 59V55.16C41.906 55.7053 42.9426 55.9956 44 56H56C57.0574 55.9956 58.094 55.7053 59 55.16V59ZM59 50C59 50.7956 58.6839 51.5587 58.1213 52.1213C57.5587 52.6839 56.7956 53 56 53H44C43.2044 53 42.4413 52.6839 41.8787 52.1213C41.3161 51.5587 41 50.7956 41 50V46.16C41.906 46.7053 42.9426 46.9956 44 47H56C57.0574 46.9956 58.094 46.7053 59 46.16V50ZM56 44H44C43.2044 44 42.4413 43.6839 41.8787 43.1213C41.3161 42.5587 41 41.7956 41 41C41 40.2044 41.3161 39.4413 41.8787 38.8787C42.4413 38.3161 43.2044 38 44 38H56C56.7956 38 57.5587 38.3161 58.1213 38.8787C58.6839 39.4413 59 40.2044 59 41C59 41.7956 58.6839 42.5587 58.1213 43.1213C57.5587 43.6839 56.7956 44 56 44V44Z" fill="#F7F4F4"/>
</svg>
