<svg width="100" height="100" viewBox="0 0 100 100" fill="none" xmlns="http://www.w3.org/2000/svg">
<circle cx="50" cy="50" r="50" fill="#F7F4F4"/>
<path d="M63.5 62H62V39.5C62 39.1022 61.842 38.7206 61.5607 38.4393C61.2794 38.158 60.8978 38 60.5 38C60.1022 38 59.7206 38.158 59.4393 38.4393C59.158 38.7206 59 39.1022 59 39.5V62H56V45.5C56 45.1022 55.842 44.7206 55.5607 44.4393C55.2794 44.158 54.8978 44 54.5 44C54.1022 44 53.7206 44.158 53.4393 44.4393C53.158 44.7206 53 45.1022 53 45.5V62H50V51.5C50 51.1022 49.842 50.7206 49.5607 50.4393C49.2794 50.158 48.8978 50 48.5 50C48.1022 50 47.7206 50.158 47.4393 50.4393C47.158 50.7206 47 51.1022 47 51.5V62H44V57.5C44 57.1022 43.842 56.7206 43.5607 56.4393C43.2794 56.158 42.8978 56 42.5 56C42.1022 56 41.7206 56.158 41.4393 56.4393C41.158 56.7206 41 57.1022 41 57.5V62H38V36.5C38 36.1022 37.842 35.7206 37.5607 35.4393C37.2794 35.158 36.8978 35 36.5 35C36.1022 35 35.7206 35.158 35.4393 35.4393C35.158 35.7206 35 36.1022 35 36.5V63.5C35 63.8978 35.158 64.2794 35.4393 64.5607C35.7206 64.842 36.1022 65 36.5 65H63.5C63.8978 65 64.2794 64.842 64.5607 64.5607C64.842 64.2794 65 63.8978 65 63.5C65 63.1022 64.842 62.7206 64.5607 62.4393C64.2794 62.158 63.8978 62 63.5 62Z" fill="#65221A"/>
</svg>
