<svg width="985" height="336" viewBox="0 0 985 336" fill="none" xmlns="http://www.w3.org/2000/svg">
<g filter="url(#filter0_d_1354_181)">
<rect width="963" height="284" rx="30" transform="matrix(-1 0 0 1 974 40)" fill="white"/>
</g>
<path d="M89.6667 33.3333C88.9233 33.3333 88.21 33.4467 87.5 33.55C87.73 32.7767 87.9667 31.99 88.3467 31.2833C88.7267 30.2567 89.32 29.3667 89.91 28.47C90.4033 27.5 91.2733 26.8433 91.9133 26.0133C92.5833 25.2067 93.4967 24.67 94.22 24C94.93 23.3 95.86 22.95 96.6 22.4567C97.3733 22.0133 98.0467 21.5233 98.7667 21.29L100.563 20.55L102.143 19.8933L100.527 13.4333L98.5367 13.9133C97.9 14.0733 97.1233 14.26 96.24 14.4833C95.3367 14.65 94.3733 15.1067 93.3 15.5233C92.24 15.9967 91.0133 16.3167 89.8733 17.0767C88.7267 17.8033 87.4033 18.41 86.2367 19.3833C85.1067 20.3867 83.7433 21.2567 82.7367 22.5333C81.6367 23.7267 80.55 24.98 79.7067 26.4067C78.73 27.7667 78.0667 29.26 77.3667 30.7367C76.7333 32.2133 76.2233 33.7234 75.8067 35.19C75.0167 38.13 74.6633 40.9234 74.5267 43.3134C74.4133 45.7067 74.48 47.6967 74.62 49.1367C74.67 49.8167 74.7633 50.4767 74.83 50.9333L74.9133 51.4933L75 51.4734C75.5929 54.2428 76.9577 56.7878 78.9365 58.8139C80.9154 60.8401 83.4275 62.2647 86.1821 62.9228C88.9368 63.5809 91.8215 63.4457 94.5025 62.5328C97.1835 61.6199 99.5513 59.9667 101.332 57.7643C103.113 55.5619 104.233 52.9004 104.565 50.0877C104.896 47.2749 104.424 44.4259 103.204 41.8701C101.983 39.3143 100.064 37.1562 97.6688 35.6455C95.2732 34.1348 92.4988 33.3332 89.6667 33.3333ZM126.333 33.3333C125.59 33.3333 124.877 33.4467 124.167 33.55C124.397 32.7767 124.633 31.99 125.013 31.2833C125.393 30.2567 125.987 29.3667 126.577 28.47C127.07 27.5 127.94 26.8433 128.58 26.0133C129.25 25.2067 130.163 24.67 130.887 24C131.597 23.3 132.527 22.95 133.267 22.4567C134.04 22.0133 134.713 21.5233 135.433 21.29L137.23 20.55L138.81 19.8933L137.193 13.4333L135.203 13.9133C134.567 14.0733 133.79 14.26 132.907 14.4833C132.003 14.65 131.04 15.1067 129.967 15.5233C128.91 16 127.68 16.3167 126.54 17.08C125.393 17.8067 124.07 18.4133 122.903 19.3867C121.773 20.39 120.41 21.26 119.403 22.5333C118.303 23.7267 117.217 24.98 116.373 26.4067C115.397 27.7667 114.733 29.26 114.033 30.7367C113.4 32.2133 112.89 33.7234 112.473 35.19C111.683 38.13 111.33 40.9234 111.193 43.3134C111.08 45.7067 111.147 47.6967 111.287 49.1367C111.337 49.8167 111.43 50.4767 111.497 50.9333L111.58 51.4933L111.667 51.4734C112.26 54.2428 113.624 56.7878 115.603 58.8139C117.582 60.8401 120.094 62.2647 122.849 62.9228C125.603 63.5809 128.488 63.4457 131.169 62.5328C133.85 61.6199 136.218 59.9667 137.999 57.7643C139.779 55.5619 140.9 52.9004 141.231 50.0877C141.563 47.2749 141.091 44.4259 139.87 41.8701C138.65 39.3143 136.731 37.1562 134.336 35.6455C131.94 34.1348 129.166 33.3332 126.333 33.3333Z" fill="url(#paint0_linear_1354_181)"/>
<defs>
<filter id="filter0_d_1354_181" x="0" y="30" width="985" height="306" filterUnits="userSpaceOnUse" color-interpolation-filters="sRGB">
<feFlood flood-opacity="0" result="BackgroundImageFix"/>
<feColorMatrix in="SourceAlpha" type="matrix" values="0 0 0 0 0 0 0 0 0 0 0 0 0 0 0 0 0 0 127 0" result="hardAlpha"/>
<feMorphology radius="1" operator="dilate" in="SourceAlpha" result="effect1_dropShadow_1354_181"/>
<feOffset dy="1"/>
<feGaussianBlur stdDeviation="5"/>
<feComposite in2="hardAlpha" operator="out"/>
<feColorMatrix type="matrix" values="0 0 0 0 0 0 0 0 0 0 0 0 0 0 0 0 0 0 0.1 0"/>
<feBlend mode="normal" in2="BackgroundImageFix" result="effect1_dropShadow_1354_181"/>
<feBlend mode="normal" in="SourceGraphic" in2="effect1_dropShadow_1354_181" result="shape"/>
</filter>
<linearGradient id="paint0_linear_1354_181" x1="74" y1="63" x2="141" y2="13" gradientUnits="userSpaceOnUse">
<stop stop-color="#65221A"/>
<stop offset="1" stop-color="#962F23"/>
</linearGradient>
</defs>
</svg>
