<svg width="101" height="100" viewBox="0 0 101 100" fill="none" xmlns="http://www.w3.org/2000/svg">
<circle cx="50.5" cy="50" r="50" fill="#F7F4F4"/>
<path d="M64.4152 60.785C65.3552 59.5249 66.0003 58.0698 66.3029 56.5271C66.6054 54.9844 66.5577 53.3934 66.1632 51.8716C65.7687 50.3498 65.0375 48.936 64.0236 47.7346C63.0097 46.5331 61.739 45.5747 60.3052 44.93C59.9929 43.1331 59.2751 41.4311 58.2064 39.9532C57.1377 38.4753 55.7462 37.2605 54.1377 36.401C52.5291 35.5415 50.7458 35.06 48.9233 34.993C47.1007 34.926 45.2868 35.2753 43.6195 36.0143C41.9522 36.7534 40.4753 37.8628 39.301 39.2582C38.1267 40.6537 37.2859 42.2984 36.8425 44.0675C36.3991 45.8365 36.3647 47.6834 36.7421 49.4677C37.1194 51.252 37.8985 52.9269 39.0202 54.365L36.9352 56.435C36.727 56.6459 36.586 56.9138 36.53 57.2047C36.4739 57.4957 36.5053 57.7968 36.6202 58.07C36.7327 58.3439 36.9238 58.5784 37.1694 58.7439C37.415 58.9094 37.704 58.9985 38.0002 59H46.5352C47.3851 60.7919 48.7252 62.3064 50.4003 63.3683C52.0754 64.4301 54.0169 64.9958 56.0002 65H65.0002C65.2963 64.9985 65.5854 64.9094 65.831 64.7439C66.0765 64.5784 66.2676 64.3439 66.3802 64.07C66.495 63.7968 66.5264 63.4957 66.4704 63.2047C66.4143 62.9138 66.2733 62.6459 66.0652 62.435L64.4152 60.785ZM45.5002 54.5C45.5022 55.0023 45.5423 55.5037 45.6202 56H41.6152L42.1402 55.49C42.2808 55.3505 42.3924 55.1846 42.4685 55.0018C42.5447 54.819 42.5839 54.623 42.5839 54.425C42.5839 54.2269 42.5447 54.0309 42.4685 53.8481C42.3924 53.6653 42.2808 53.4994 42.1402 53.36C41.2995 52.5285 40.633 51.5378 40.1797 50.4458C39.7265 49.3538 39.4954 48.1823 39.5002 47C39.5002 44.613 40.4484 42.3238 42.1362 40.636C43.824 38.9482 46.1132 38 48.5002 38C50.3627 37.9888 52.1819 38.5615 53.7021 39.6378C55.2222 40.714 56.3669 42.2395 56.9752 44C56.6452 44 56.3302 44 56.0002 44C53.2154 44 50.5447 45.1062 48.5756 47.0753C46.6064 49.0445 45.5002 51.7152 45.5002 54.5ZM61.3102 62L61.3852 62.075H56.0002C54.2652 62.0719 52.5849 61.4673 51.2456 60.3644C49.9064 59.2614 48.9909 57.7282 48.6553 56.026C48.3196 54.3238 48.5845 52.5578 49.4048 51.029C50.2251 49.5002 51.5501 48.303 53.154 47.6415C54.7579 46.98 56.5416 46.895 58.2012 47.4011C59.8607 47.9072 61.2935 48.9729 62.2554 50.4169C63.2173 51.8608 63.6488 53.5936 63.4765 55.32C63.3041 57.0464 62.5385 58.6597 61.3102 59.885C61.0275 60.1619 60.8658 60.5393 60.8602 60.935C60.861 61.1334 60.9012 61.3297 60.9784 61.5126C61.0557 61.6954 61.1684 61.861 61.3102 62Z" fill="#65221A"/>
</svg>
