<svg width="101" height="100" viewBox="0 0 101 100" fill="none" xmlns="http://www.w3.org/2000/svg">
<circle cx="50.5" cy="50" r="50" fill="#F7F4F4"/>
<path d="M43 53H46C46.3978 53 46.7794 52.842 47.0607 52.5607C47.342 52.2794 47.5 51.8978 47.5 51.5C47.5 51.1022 47.342 50.7206 47.0607 50.4393C46.7794 50.158 46.3978 50 46 50H43C42.6022 50 42.2206 50.158 41.9393 50.4393C41.658 50.7206 41.5 51.1022 41.5 51.5C41.5 51.8978 41.658 52.2794 41.9393 52.5607C42.2206 52.842 42.6022 53 43 53ZM52 56H43C42.6022 56 42.2206 56.158 41.9393 56.4393C41.658 56.7206 41.5 57.1022 41.5 57.5C41.5 57.8978 41.658 58.2794 41.9393 58.5607C42.2206 58.842 42.6022 59 43 59H52C52.3978 59 52.7794 58.842 53.0607 58.5607C53.342 58.2794 53.5 57.8978 53.5 57.5C53.5 57.1022 53.342 56.7206 53.0607 56.4393C52.7794 56.158 52.3978 56 52 56ZM61 35H40C38.8065 35 37.6619 35.4741 36.818 36.318C35.9741 37.1619 35.5 38.3065 35.5 39.5V60.5C35.5 61.6935 35.9741 62.8381 36.818 63.682C37.6619 64.5259 38.8065 65 40 65H61C62.1935 65 63.3381 64.5259 64.182 63.682C65.0259 62.8381 65.5 61.6935 65.5 60.5V39.5C65.5 38.3065 65.0259 37.1619 64.182 36.318C63.3381 35.4741 62.1935 35 61 35ZM53.5 38V42.935L51.235 41.675C51.007 41.5433 50.7483 41.474 50.485 41.474C50.2217 41.474 49.963 41.5433 49.735 41.675L47.5 42.935V38H53.5ZM62.5 60.5C62.5 60.8978 62.342 61.2794 62.0607 61.5607C61.7794 61.842 61.3978 62 61 62H40C39.6022 62 39.2206 61.842 38.9393 61.5607C38.658 61.2794 38.5 60.8978 38.5 60.5V39.5C38.5 39.1022 38.658 38.7206 38.9393 38.4393C39.2206 38.158 39.6022 38 40 38H44.5V45.5C44.5016 45.7618 44.5716 46.0186 44.7032 46.2449C44.8348 46.4712 45.0233 46.6591 45.25 46.79C45.478 46.9217 45.7367 46.991 46 46.991C46.2633 46.991 46.522 46.9217 46.75 46.79L50.5 44.705L54.265 46.805C54.4892 46.9321 54.7423 46.9992 55 47C55.3978 47 55.7794 46.842 56.0607 46.5607C56.342 46.2794 56.5 45.8978 56.5 45.5V38H61C61.3978 38 61.7794 38.158 62.0607 38.4393C62.342 38.7206 62.5 39.1022 62.5 39.5V60.5Z" fill="#65221A"/>
</svg>
