<svg width="101" height="100" viewBox="0 0 101 100" fill="none" xmlns="http://www.w3.org/2000/svg">
<circle cx="50.5" cy="50" r="50" fill="#65221A"/>
<path d="M61 35H40C38.8065 35 37.6619 35.4741 36.818 36.318C35.9741 37.1619 35.5 38.3065 35.5 39.5V54.5C35.5 55.6935 35.9741 56.8381 36.818 57.682C37.6619 58.5259 38.8065 59 40 59H44.5V62H40C39.6022 62 39.2206 62.158 38.9393 62.4393C38.658 62.7206 38.5 63.1022 38.5 63.5C38.5 63.8978 38.658 64.2794 38.9393 64.5607C39.2206 64.842 39.6022 65 40 65H61C61.3978 65 61.7794 64.842 62.0607 64.5607C62.342 64.2794 62.5 63.8978 62.5 63.5C62.5 63.1022 62.342 62.7206 62.0607 62.4393C61.7794 62.158 61.3978 62 61 62H56.5V59H61C62.1935 59 63.3381 58.5259 64.182 57.682C65.0259 56.8381 65.5 55.6935 65.5 54.5V39.5C65.5 38.3065 65.0259 37.1619 64.182 36.318C63.3381 35.4741 62.1935 35 61 35ZM53.5 62H47.5V59H53.5V62ZM62.5 54.5C62.5 54.8978 62.342 55.2794 62.0607 55.5607C61.7794 55.842 61.3978 56 61 56H40C39.6022 56 39.2206 55.842 38.9393 55.5607C38.658 55.2794 38.5 54.8978 38.5 54.5V53H62.5V54.5ZM62.5 50H38.5V39.5C38.5 39.1022 38.658 38.7206 38.9393 38.4393C39.2206 38.158 39.6022 38 40 38H61C61.3978 38 61.7794 38.158 62.0607 38.4393C62.342 38.7206 62.5 39.1022 62.5 39.5V50Z" fill="#F7F4F4"/>
</svg>
