<svg width="101" height="100" viewBox="0 0 101 100" fill="none" xmlns="http://www.w3.org/2000/svg">
<circle cx="50.5" cy="50" r="50" fill="#65221A"/>
<path d="M65.5 54.5H62.5V50C62.5 49.6022 62.342 49.2206 62.0607 48.9393C61.7794 48.658 61.3978 48.5 61 48.5H52V45.5H55C55.3978 45.5 55.7794 45.342 56.0607 45.0607C56.342 44.7794 56.5 44.3978 56.5 44V35C56.5 34.6022 56.342 34.2206 56.0607 33.9393C55.7794 33.658 55.3978 33.5 55 33.5H46C45.6022 33.5 45.2206 33.658 44.9393 33.9393C44.658 34.2206 44.5 34.6022 44.5 35V44C44.5 44.3978 44.658 44.7794 44.9393 45.0607C45.2206 45.342 45.6022 45.5 46 45.5H49V48.5H40C39.6022 48.5 39.2206 48.658 38.9393 48.9393C38.658 49.2206 38.5 49.6022 38.5 50V54.5H35.5C35.1022 54.5 34.7206 54.658 34.4393 54.9393C34.158 55.2206 34 55.6022 34 56V65C34 65.3978 34.158 65.7794 34.4393 66.0607C34.7206 66.342 35.1022 66.5 35.5 66.5H44.5C44.8978 66.5 45.2794 66.342 45.5607 66.0607C45.842 65.7794 46 65.3978 46 65V56C46 55.6022 45.842 55.2206 45.5607 54.9393C45.2794 54.658 44.8978 54.5 44.5 54.5H41.5V51.5H59.5V54.5H56.5C56.1022 54.5 55.7206 54.658 55.4393 54.9393C55.158 55.2206 55 55.6022 55 56V65C55 65.3978 55.158 65.7794 55.4393 66.0607C55.7206 66.342 56.1022 66.5 56.5 66.5H65.5C65.8978 66.5 66.2794 66.342 66.5607 66.0607C66.842 65.7794 67 65.3978 67 65V56C67 55.6022 66.842 55.2206 66.5607 54.9393C66.2794 54.658 65.8978 54.5 65.5 54.5ZM43 57.5V63.5H37V57.5H43ZM47.5 42.5V36.5H53.5V42.5H47.5ZM64 63.5H58V57.5H64V63.5Z" fill="#F7F4F4"/>
</svg>
