<svg width="101" height="100" viewBox="0 0 101 100" fill="none" xmlns="http://www.w3.org/2000/svg">
<circle cx="50.5" cy="50" r="50" fill="#F7F4F4"/>
<path d="M49 45.5H55C55.3978 45.5 55.7794 45.342 56.0607 45.0607C56.342 44.7794 56.5 44.3978 56.5 44C56.5 43.6022 56.342 43.2206 56.0607 42.9393C55.7794 42.658 55.3978 42.5 55 42.5H52V41C52 40.6022 51.842 40.2206 51.5607 39.9393C51.2794 39.658 50.8978 39.5 50.5 39.5C50.1022 39.5 49.7207 39.658 49.4393 39.9393C49.158 40.2206 49 40.6022 49 41V42.5C47.8065 42.5 46.6619 42.9741 45.818 43.818C44.9741 44.6619 44.5 45.8065 44.5 47C44.5 48.1935 44.9741 49.3381 45.818 50.182C46.6619 51.0259 47.8065 51.5 49 51.5H52C52.3978 51.5 52.7794 51.658 53.0607 51.9393C53.342 52.2206 53.5 52.6022 53.5 53C53.5 53.3978 53.342 53.7794 53.0607 54.0607C52.7794 54.342 52.3978 54.5 52 54.5H46C45.6022 54.5 45.2207 54.658 44.9393 54.9393C44.658 55.2206 44.5 55.6022 44.5 56C44.5 56.3978 44.658 56.7794 44.9393 57.0607C45.2207 57.342 45.6022 57.5 46 57.5H49V59C49 59.3978 49.158 59.7794 49.4393 60.0607C49.7207 60.342 50.1022 60.5 50.5 60.5C50.8978 60.5 51.2794 60.342 51.5607 60.0607C51.842 59.7794 52 59.3978 52 59V57.5C53.1935 57.5 54.3381 57.0259 55.182 56.182C56.0259 55.3381 56.5 54.1935 56.5 53C56.5 51.8065 56.0259 50.6619 55.182 49.818C54.3381 48.9741 53.1935 48.5 52 48.5H49C48.6022 48.5 48.2207 48.342 47.9393 48.0607C47.658 47.7794 47.5 47.3978 47.5 47C47.5 46.6022 47.658 46.2206 47.9393 45.9393C48.2207 45.658 48.6022 45.5 49 45.5ZM50.5 33.5C47.2366 33.5 44.0465 34.4677 41.3331 36.2808C38.6197 38.0938 36.5048 40.6707 35.256 43.6857C34.0071 46.7007 33.6804 50.0183 34.3171 53.219C34.9537 56.4197 36.5252 59.3597 38.8327 61.6673C41.1403 63.9748 44.0803 65.5463 47.281 66.183C50.4817 66.8196 53.7993 66.4929 56.8143 65.244C59.8293 63.9952 62.4062 61.8803 64.2193 59.1669C66.0323 56.4535 67 53.2634 67 50C67 45.6239 65.2616 41.4271 62.1673 38.3327C59.0729 35.2384 54.8761 33.5 50.5 33.5ZM50.5 63.5C47.83 63.5 45.2199 62.7082 42.9998 61.2248C40.7797 59.7414 39.0494 57.633 38.0276 55.1662C37.0059 52.6994 36.7385 49.985 37.2594 47.3663C37.7803 44.7475 39.0661 42.3421 40.9541 40.4541C42.8421 38.566 45.2475 37.2803 47.8663 36.7594C50.485 36.2385 53.1994 36.5058 55.6662 37.5276C58.133 38.5494 60.2414 40.2797 61.7248 42.4998C63.2082 44.7199 64 47.33 64 50C64 53.5804 62.5777 57.0142 60.0459 59.5459C57.5142 62.0777 54.0804 63.5 50.5 63.5Z" fill="#65221A"/>
</svg>
