<svg width="100" height="100" viewBox="0 0 100 100" fill="none" xmlns="http://www.w3.org/2000/svg">
<circle cx="50" cy="50" r="50" fill="#65221A"/>
<path d="M59.75 63.5C61.8211 63.5 63.5 61.8211 63.5 59.75C63.5 57.6789 61.8211 56 59.75 56C57.6789 56 56 57.6789 56 59.75C56 61.8211 57.6789 63.5 59.75 63.5Z" stroke="#F7F4F4" stroke-width="3" stroke-linecap="round" stroke-linejoin="round"/>
<path d="M40.25 63.5C42.3211 63.5 44 61.8211 44 59.75C44 57.6789 42.3211 56 40.25 56C38.1789 56 36.5 57.6789 36.5 59.75C36.5 61.8211 38.1789 63.5 40.25 63.5Z" stroke="#F7F4F4" stroke-width="3" stroke-linecap="round" stroke-linejoin="round"/>
<path d="M56 44H62L66.5 48.5V56H56V44Z" stroke="#F7F4F4" stroke-width="3" stroke-linecap="round" stroke-linejoin="round"/>
<path d="M56 36.5H33.5V56H56V36.5Z" stroke="#F7F4F4" stroke-width="3" stroke-linecap="round" stroke-linejoin="round"/>
</svg>
