<svg width="101" height="100" viewBox="0 0 101 100" fill="none" xmlns="http://www.w3.org/2000/svg">
<circle cx="50.5" cy="50" r="50" fill="#F7F4F4"/>
<path d="M51.15 49.4V32.6C51.15 32.1858 50.8142 31.85 50.4 31.85H33.6C33.1858 31.85 32.85 32.1858 32.85 32.6V49.4C32.85 49.8142 33.1858 50.15 33.6 50.15H50.4C50.8142 50.15 51.15 49.8142 51.15 49.4ZM49.65 48.65H34.35V33.35H49.65V48.65Z" fill="#65221A" stroke="#65221A" stroke-width="0.3"/>
<path d="M39.0856 41.2963L39.0855 41.2964C38.9669 41.5717 38.696 41.7501 38.3964 41.7501H36.1859C35.7717 41.7501 35.4359 41.4143 35.4359 41.0001C35.4359 40.5859 35.7717 40.2501 36.1859 40.2501H37.9024L39.3736 36.827L39.3737 36.8268C39.4945 36.5468 39.7743 36.359 40.0875 36.3736C40.3949 36.3837 40.6654 36.5805 40.7689 36.8706M39.0856 41.2963L40.6276 36.9211M39.0856 41.2963L39.9991 39.1707L41.6694 43.8373C41.6694 43.8373 41.6694 43.8373 41.6694 43.8373C41.7668 44.1098 42.0125 44.302 42.3004 44.331M39.0856 41.2963L44.3626 41.7501M40.7689 36.8706L40.6276 36.9211M40.7689 36.8706L40.7689 36.8705L40.6276 36.9211M40.7689 36.8706L42.5502 41.8474M40.6276 36.9211L42.4501 42.0128L42.5502 41.8474M42.5502 41.8474L43.2983 40.6115L43.2984 40.6115C43.4342 40.3874 43.6773 40.2501 43.9399 40.2501H47.8168C48.231 40.2501 48.5668 40.5859 48.5668 41.0001C48.5668 41.4143 48.231 41.7501 47.8168 41.7501H44.3626M42.5502 41.8474L42.6154 42.0294L44.3626 41.7501M44.3626 41.7501L44.4064 41.6777L44.278 41.6001V41.7501H44.3626ZM44.3626 41.7501L43.0171 43.9731L43.0171 43.9732C42.8805 44.1988 42.6362 44.3346 42.3758 44.3346C42.3512 44.3346 42.3262 44.3336 42.3004 44.331M42.3004 44.331L42.3154 44.1817L42.3003 44.3309C42.3003 44.3309 42.3004 44.331 42.3004 44.331Z" fill="#65221A" stroke="#65221A" stroke-width="0.3"/>
<path d="M43.9379 37.2268H47.8147C48.2289 37.2268 48.5647 36.891 48.5647 36.4768C48.5647 36.0626 48.2289 35.7268 47.8147 35.7268H43.9379C43.5237 35.7268 43.1879 36.0626 43.1879 36.4768C43.1879 36.891 43.5237 37.2268 43.9379 37.2268Z" fill="#65221A" stroke="#65221A" stroke-width="0.3"/>
<path d="M50.9365 64.7929L50.9367 64.7929L54.5428 63.7324C54.5428 63.7324 54.5429 63.7324 54.5429 63.7324C54.6637 63.6971 54.7732 63.6319 54.8617 63.5433L54.7557 63.4373L54.8617 63.5433L64.1954 54.2093L64.0894 54.1033L64.1954 54.2093L66.5289 51.8755C66.8219 51.5826 66.8219 51.1079 66.5289 50.815L66.4229 50.921L66.5289 50.815L63.9833 48.2697C63.9833 48.2697 63.9833 48.2697 63.9833 48.2697C63.6904 47.9767 63.2157 47.9767 62.9228 48.2697C62.9228 48.2697 62.9227 48.2697 62.9227 48.2697L60.5893 50.6029L60.5892 50.6029L51.2556 59.9369C51.1669 60.0255 51.1018 60.1353 51.0663 60.2553L51.0663 60.2555L50.0054 63.8619L50.0054 63.8621C49.9282 64.1255 50.0006 64.4096 50.1946 64.6037C50.3372 64.7468 50.5292 64.8236 50.725 64.8236C50.7961 64.8236 50.8672 64.8133 50.9365 64.7929ZM62.1801 51.1332L63.453 49.8605L64.9381 51.3453L63.6652 52.6184L62.9226 51.8758L62.1801 51.1332ZM51.8324 62.9661L52.4513 60.862L61.1195 52.1938L61.862 52.9364L62.6046 53.679L53.9363 62.3473L51.8324 62.9661Z" fill="#65221A" stroke="#65221A" stroke-width="0.3"/>
<path d="M68.4 39.65H52.8C52.3858 39.65 52.05 39.9859 52.05 40.4C52.05 40.8142 52.3858 41.15 52.8 41.15H67.65V66.6501H40.35V51.8C40.35 51.3855 40.0141 51.05 39.6 51.05C39.1859 51.05 38.85 51.3855 38.85 51.8V67.4C38.85 67.8146 39.1859 68.15 39.6 68.15H68.4C68.8141 68.15 69.15 67.8146 69.15 67.4V40.4C69.15 39.9859 68.8142 39.65 68.4 39.65Z" fill="#65221A" stroke="#65221A" stroke-width="0.3"/>
<path d="M42.0004 56.75H46.8004C47.2145 56.75 47.5504 56.4146 47.5504 56C47.5504 55.5855 47.2145 55.25 46.8004 55.25H42.0004C41.5862 55.25 41.2504 55.5855 41.2504 56C41.2504 56.4146 41.5862 56.75 42.0004 56.75Z" fill="#65221A" stroke="#65221A" stroke-width="0.3"/>
<path d="M42.0004 59.75H49.2004C49.6145 59.75 49.9504 59.4146 49.9504 59C49.9504 58.5855 49.6145 58.25 49.2004 58.25H42.0004C41.5862 58.25 41.2504 58.5855 41.2504 59C41.2504 59.4146 41.5862 59.75 42.0004 59.75Z" fill="#65221A" stroke="#65221A" stroke-width="0.3"/>
</svg>
