<svg width="101" height="100" viewBox="0 0 101 100" fill="none" xmlns="http://www.w3.org/2000/svg">
<circle cx="50.5" cy="50" r="50" fill="#F7F4F4"/>
<path d="M44.3435 45.1875H44.3437C45.6726 45.1875 46.9716 44.7935 48.0765 44.0552C49.1814 43.3169 50.0425 42.2676 50.5511 41.0399C51.0596 39.8122 51.1926 38.4613 50.9334 37.158C50.6742 35.8547 50.0343 34.6575 49.0946 33.7179C48.155 32.7782 46.9578 32.1383 45.6545 31.8791C44.3512 31.6199 43.0003 31.7529 41.7726 32.2614C40.5449 32.77 39.4956 33.6311 38.7573 34.736C38.019 35.8409 37.625 37.1399 37.625 38.4688L37.625 38.469C37.627 40.2503 38.3354 41.958 39.595 43.2175C40.8545 44.4771 42.5622 45.1855 44.3435 45.1875ZM44.3439 33.375C45.3513 33.375 46.3361 33.6738 47.1737 34.2335C48.0113 34.7932 48.6642 35.5887 49.0498 36.5195C49.4353 37.4502 49.5362 38.4744 49.3396 39.4625C49.1431 40.4506 48.6579 41.3582 47.9456 42.0706C47.2332 42.783 46.3256 43.2681 45.3375 43.4646C44.3494 43.6612 43.3252 43.5603 42.3945 43.1748C41.4637 42.7892 40.6682 42.1364 40.1085 41.2987C39.5488 40.4611 39.25 39.4763 39.25 38.4689C39.2516 37.1184 39.7887 35.8237 40.7437 34.8687C41.6987 33.9137 42.9934 33.3766 44.3439 33.375Z" fill="#65221A" stroke="#65221A" stroke-width="0.5"/>
<path d="M48.4051 50.7269L48.4053 50.7268C48.5463 50.6274 48.6521 50.4856 48.7072 50.3221C48.7624 50.1585 48.764 49.9817 48.7119 49.8172C48.6598 49.6526 48.5567 49.5089 48.4174 49.407C48.2782 49.305 48.1101 49.2499 47.9375 49.2499H47.9374H45.7772L45.1151 47.2758C45.1151 47.2758 45.115 47.2758 45.115 47.2758C45.0609 47.1144 44.9574 46.974 44.8192 46.8746C44.6809 46.7751 44.5149 46.7216 44.3446 46.7216C44.1743 46.7216 44.0083 46.7751 43.8701 46.8746C43.7319 46.974 43.6284 47.1144 43.5742 47.2758C43.5742 47.2758 43.5742 47.2758 43.5742 47.2758L42.9121 49.2499H40.7518H40.7517C40.5791 49.2499 40.4111 49.305 40.2718 49.407C40.1326 49.5089 40.0295 49.6526 39.9774 49.8172L40.2135 49.8919L39.9774 49.8172C39.9253 49.9817 39.9269 50.1585 39.982 50.3221C40.0372 50.4856 40.1429 50.6274 40.284 50.7268L40.2841 50.7269L42.0096 51.941L41.3539 53.8951L41.3539 53.8952C41.2995 54.0575 41.2978 54.2328 41.3489 54.3962C41.4001 54.5596 41.5015 54.7026 41.6388 54.8049L41.7882 54.6044L41.6388 54.8049C41.7761 54.9072 41.9421 54.9635 42.1133 54.9658C42.2845 54.9682 42.452 54.9164 42.592 54.8179L42.592 54.8179L44.3446 53.5843L46.0973 54.8179L46.0973 54.8179C46.2373 54.9164 46.4048 54.9682 46.576 54.9658C46.7472 54.9635 46.9132 54.9072 47.0505 54.8049C47.1877 54.7026 47.2892 54.5596 47.3404 54.3962C47.3915 54.2328 47.3898 54.0575 47.3354 53.8952L47.3354 53.8951L46.6797 51.941L48.4051 50.7269ZM44.9464 51.8833L44.9464 51.8835L45.0067 52.0632L44.8123 51.9264L44.8123 51.9263C44.6753 51.83 44.512 51.7784 44.3446 51.7784C44.1773 51.7784 44.0139 51.83 43.877 51.9263L43.8769 51.9264L43.6825 52.0632L43.7428 51.8835L43.7429 51.8833C43.7984 51.7174 43.799 51.5381 43.7444 51.3719C43.6899 51.2057 43.5833 51.0615 43.4403 50.9607L43.4401 50.9606L43.3182 50.8749H43.4965C43.4965 50.8749 43.4965 50.8749 43.4965 50.8749C43.6668 50.8749 43.8328 50.8214 43.971 50.7219C44.1093 50.6225 44.2128 50.4821 44.2669 50.3206L44.3446 50.0889L44.4224 50.3206C44.4765 50.4821 44.58 50.6225 44.7183 50.7219C44.8565 50.8214 45.0225 50.8749 45.1928 50.8749C45.1928 50.8749 45.1928 50.8749 45.1928 50.8749H45.3711L45.2492 50.9606L45.249 50.9608C45.106 51.0615 44.9994 51.2057 44.9448 51.3719C44.8903 51.5381 44.8908 51.7174 44.9464 51.8833Z" fill="#65221A" stroke="#65221A" stroke-width="0.5"/>
<path d="M56.719 50.3125H56.7188C54.9449 50.3125 53.2109 50.8385 51.736 51.824C50.2611 52.8095 49.1115 54.2102 48.4327 55.8491C47.7539 57.4879 47.5763 59.2912 47.9223 61.031C48.2684 62.7707 49.1226 64.3688 50.3769 65.6231C51.6312 66.8774 53.2293 67.7316 54.969 68.0777C56.7088 68.4237 58.5121 68.2461 60.1509 67.5673C61.7898 66.8885 63.1905 65.7389 64.176 64.264C65.1615 62.7891 65.6875 61.0551 65.6875 59.2812V59.281C65.6848 56.9032 64.7391 54.6236 63.0578 52.9422C61.3764 51.2609 59.0968 50.3152 56.719 50.3125ZM56.7185 66.625C55.2661 66.6249 53.8464 66.1942 52.6388 65.3874C51.4311 64.5804 50.4898 63.4335 49.934 62.0916C49.3782 60.7497 49.2328 59.2731 49.5161 57.8486C49.7995 56.424 50.4989 55.1155 51.5259 54.0884C52.553 53.0614 53.8615 52.362 55.2861 52.0786C56.7106 51.7952 58.1872 51.9407 59.5291 52.4965C60.871 53.0523 62.0179 53.9936 62.8249 55.2013C63.6317 56.4089 64.0624 57.8286 64.0625 59.281C64.0603 61.228 63.2858 63.0947 61.909 64.4715C60.5322 65.8483 58.6655 66.6228 56.7185 66.625Z" fill="#65221A" stroke="#65221A" stroke-width="0.5"/>
<path d="M61.5 58.4687H57.5312V54.5C57.5312 54.2845 57.4456 54.0778 57.2933 53.9255C57.1409 53.7731 56.9342 53.6875 56.7187 53.6875C56.5033 53.6875 56.2966 53.7731 56.1442 53.9255C55.9919 54.0778 55.9062 54.2845 55.9062 54.5V58.4687H51.9375C51.722 58.4687 51.5153 58.5544 51.363 58.7067C51.2106 58.8591 51.125 59.0658 51.125 59.2812C51.125 59.4967 51.2106 59.7034 51.363 59.8558C51.5153 60.0081 51.722 60.0937 51.9375 60.0937H55.9062V64.0625C55.9062 64.278 55.9919 64.4846 56.1442 64.637C56.2966 64.7894 56.5033 64.875 56.7187 64.875C56.9342 64.875 57.1409 64.7894 57.2933 64.637C57.4456 64.4846 57.5312 64.278 57.5312 64.0625V60.0937H61.5C61.7155 60.0937 61.9221 60.0081 62.0745 59.8558C62.2269 59.7034 62.3125 59.4967 62.3125 59.2812C62.3125 59.0658 62.2269 58.8591 62.0745 58.7067C61.9221 58.5544 61.7155 58.4687 61.5 58.4687Z" fill="#65221A" stroke="#65221A" stroke-width="0.5"/>
<path d="M54.2518 50.0105L54.4372 49.9609V49.769V49.3564V49.3561C54.4355 48.0182 54.0302 46.712 53.2741 45.6082C52.518 44.5044 51.4464 43.6545 50.1995 43.1695L50.0342 43.1053L49.9189 43.24C49.6536 43.5501 49.363 43.8378 49.0503 44.1001L48.6869 44.4048L49.1437 44.5324C50.1975 44.8267 51.1263 45.4573 51.7886 46.3283C52.4508 47.1991 52.8102 48.2626 52.8122 49.3566V50.1444V50.5147L53.1556 50.3763C53.5132 50.2323 53.8793 50.1101 54.2518 50.0105Z" fill="#65221A" stroke="#65221A" stroke-width="0.5"/>
<path d="M47.0227 57.3437H35.984C35.9551 57.3437 35.9274 57.3322 35.907 57.3117C35.8866 57.2913 35.8751 57.2637 35.875 57.2348V49.3567C35.877 48.2626 36.2364 47.1992 36.8986 46.3283C37.5609 45.4573 38.4897 44.8267 39.5435 44.5324L40.0003 44.4048L39.6369 44.1001C39.3242 43.8378 39.0336 43.5501 38.7682 43.24L38.653 43.1053L38.4877 43.1695C37.2408 43.6545 36.1692 44.5044 35.4131 45.6082C34.657 46.712 34.2517 48.0182 34.25 49.3561V49.3564L34.25 57.235L34.25 57.2353C34.2505 57.6949 34.4333 58.1355 34.7583 58.4605C35.0832 58.7854 35.5239 58.9682 35.9834 58.9687H35.9837H46.8922H47.1281L47.1417 58.7332C47.163 58.3656 47.2055 57.9995 47.269 57.6368L47.3203 57.3437H47.0227Z" fill="#65221A" stroke="#65221A" stroke-width="0.5"/>
</svg>
