<svg width="101" height="100" viewBox="0 0 101 100" fill="none" xmlns="http://www.w3.org/2000/svg">
<circle cx="50.5" cy="50" r="50" fill="#65221A"/>
<mask id="path-2-outside-1_1378_809" maskUnits="userSpaceOnUse" x="30.5" y="31" width="38" height="38" fill="black">
<rect fill="white" x="30.5" y="31" width="38" height="38"/>
<path d="M37.0843 53.8243L39.7309 51.6428C40.7499 50.8528 41.6762 50.3349 42.7079 50.0119C43.1281 49.8802 43.5615 49.7825 44.0212 49.7126C43.9631 49.5654 43.909 49.4168 43.8595 49.2669C43.7641 48.9775 43.6837 48.6777 43.6196 48.3688H42.4539V44.8667H43.6192C43.7277 44.3502 43.8822 43.8527 44.0784 43.3798C44.2806 42.8956 44.525 42.434 44.8076 42.0006L43.9826 41.1756L46.4589 38.6993L47.2839 39.5243C47.7182 39.2413 48.1806 38.9964 48.6663 38.7952C49.1392 38.5994 49.6357 38.4445 50.15 38.3364V37.1702H53.652V38.3359C54.1663 38.444 54.6624 38.5989 55.1353 38.7947C55.6214 38.9951 56.0829 39.2399 56.5181 39.5239L57.3431 38.6989L59.8194 41.1752L58.9949 41.9997C59.2784 42.4345 59.5232 42.896 59.7231 43.3785C59.9189 43.855 60.0734 44.352 60.1815 44.8663H61.3485V48.2311L63.8339 46.7961C64.3845 46.4781 65.0142 46.414 65.5834 46.5662C66.154 46.7188 66.6673 47.0891 66.9844 47.6383L67.4528 48.4542C67.7417 48.9839 67.7876 49.5576 67.6449 50.0919C67.4968 50.6438 67.1416 51.1504 66.6446 51.5083L54.5742 60.2015C54.4893 60.2624 54.3966 60.3038 54.3008 60.326L43.5283 62.8714L42.6874 63.5292L43.5247 64.9797C43.7368 65.3463 43.6119 65.8165 43.2453 66.0286L40.0099 67.8967C39.6433 68.1088 39.1731 67.9839 38.9609 67.6173L31.6033 54.8737C31.3912 54.5071 31.5161 54.0369 31.8827 53.8247L35.1181 51.9567C35.4847 51.7446 35.9549 51.8695 36.1671 52.2361L37.0843 53.8243ZM51.9012 43.9404C52.6403 43.9404 53.3095 44.2402 53.7938 44.7245C54.278 45.2088 54.5779 45.8784 54.5779 46.6175C54.5779 47.3566 54.278 48.0258 53.7938 48.5101C53.3095 48.9943 52.6403 49.2942 51.9012 49.2942C51.1621 49.2942 50.4925 48.9943 50.0082 48.5101C49.524 48.0258 49.2241 47.3566 49.2241 46.6175C49.2241 45.8784 49.524 45.2088 50.0082 44.7245C50.4925 44.2402 51.1621 43.9404 51.9012 43.9404ZM52.7062 45.8121C52.5004 45.6063 52.2156 45.4786 51.9012 45.4786C51.5869 45.4786 51.3016 45.6063 51.0958 45.8121C50.89 46.0179 50.7623 46.3032 50.7623 46.6175C50.7623 46.9319 50.89 47.2167 51.0958 47.4225C51.3016 47.6283 51.5869 47.756 51.9012 47.756C52.2156 47.756 52.5004 47.6283 52.7062 47.4225C52.912 47.2167 53.0397 46.9319 53.0397 46.6175C53.0397 46.3032 52.912 46.0179 52.7062 45.8121ZM45.6348 49.5776C45.8197 49.5722 46.0092 49.5704 46.2045 49.5704H52.3791C53.0124 49.5704 53.5889 49.8302 54.0064 50.2473C54.4266 50.6679 54.6864 51.2453 54.6864 51.8777V52.0776L57.776 50.2936C58.025 49.8965 58.2349 49.4745 58.3989 49.0343C58.5797 48.5469 58.7087 48.0331 58.7759 47.5029L58.8609 46.8301H59.8103V46.4045H58.8609L58.775 45.7317C58.6964 45.117 58.5361 44.5237 58.3057 43.9668C58.0677 43.3953 57.7565 42.8619 57.3863 42.3827L56.972 41.8471L57.6443 41.1752L57.3431 40.874L56.6703 41.5463L56.1352 41.1325C55.655 40.7613 55.1217 40.4501 54.5497 40.213C53.9937 39.9818 53.4013 39.821 52.7866 39.7428L52.1138 39.657V38.7084H51.6882V39.6574L51.0154 39.7433C50.3994 39.8214 49.8061 39.9827 49.2487 40.2135C48.6813 40.4483 48.1488 40.7595 47.6664 41.1325L47.1308 41.5463L46.4589 40.8745L46.1577 41.1756L46.8296 41.8475L46.4157 42.3831C46.0428 42.8656 45.7316 43.398 45.4967 43.9654C45.265 44.5269 45.1042 45.1197 45.0265 45.7321L44.9407 46.4049H43.9921V46.8306H44.9411L45.027 47.5034C45.082 47.9363 45.1814 48.3661 45.3196 48.7863C45.41 49.0598 45.5153 49.3241 45.6348 49.5776ZM60.0252 48.9952L61.1109 48.3683H60.1828C60.1383 48.5805 60.0852 48.7895 60.0252 48.9952ZM41.4195 41.5291C41.0797 41.7812 40.5991 41.7094 40.347 41.3696C40.0948 41.0298 40.1666 40.5492 40.5064 40.2971L51.4447 32.1531C51.7241 31.9459 52.0979 31.9573 52.3623 32.1567L57.2018 35.7597V32.7691C57.2018 32.3443 57.5462 32 57.9709 32H60.6153C61.0401 32 61.3844 32.3443 61.3844 32.7691V38.8738L63.296 40.2971C63.6359 40.5492 63.7076 41.0298 63.4555 41.3696C63.2034 41.7094 62.7227 41.7812 62.3829 41.5291L60.206 39.9086C59.9898 39.7724 59.8462 39.5316 59.8462 39.2572V33.5382H58.74V37.2883C58.7378 37.4473 58.6887 37.6077 58.5869 37.7449C58.3348 38.0847 57.8542 38.1565 57.5144 37.9043L51.9012 33.7249L41.4195 41.5291ZM41.9138 62.1895L42.6752 61.5935C42.7692 61.5076 42.8855 61.444 43.0181 61.4131L53.8069 58.8659L65.7496 50.2645C65.9568 50.1151 66.1035 49.9115 66.1612 49.6958C66.2053 49.5308 66.1939 49.3555 66.1122 49.1965L65.6561 48.4079C65.5502 48.2248 65.378 48.1008 65.1872 48.0499C64.9955 47.999 64.7852 48.0194 64.6035 48.1244L54.2508 54.1019C54.1781 54.2027 54.0972 54.2972 54.0096 54.3849C53.5889 54.8051 53.0124 55.0649 52.3791 55.0649H46.2045C45.7797 55.0649 45.4354 54.7206 45.4354 54.2958C45.4354 53.8711 45.7797 53.5267 46.2045 53.5267H52.3791C52.5913 53.5267 52.7844 53.44 52.9234 53.3019C53.0615 53.1629 53.1482 52.9698 53.1482 52.7576V51.8777C53.1482 51.6655 53.0615 51.4725 52.9234 51.3334C52.7844 51.1953 52.5913 51.1086 52.3791 51.1086H46.2045C44.9807 51.1086 44.0217 51.2103 43.1649 51.4784C42.3163 51.7437 41.5385 52.1821 40.6681 52.8562L37.8611 55.1699L41.9138 62.1895ZM35.2222 53.6694L33.316 54.7697L39.9058 66.184L41.812 65.0837L35.2222 53.6694Z"/>
</mask>
<path d="M37.0843 53.8243L39.7309 51.6428C40.7499 50.8528 41.6762 50.3349 42.7079 50.0119C43.1281 49.8802 43.5615 49.7825 44.0212 49.7126C43.9631 49.5654 43.909 49.4168 43.8595 49.2669C43.7641 48.9775 43.6837 48.6777 43.6196 48.3688H42.4539V44.8667H43.6192C43.7277 44.3502 43.8822 43.8527 44.0784 43.3798C44.2806 42.8956 44.525 42.434 44.8076 42.0006L43.9826 41.1756L46.4589 38.6993L47.2839 39.5243C47.7182 39.2413 48.1806 38.9964 48.6663 38.7952C49.1392 38.5994 49.6357 38.4445 50.15 38.3364V37.1702H53.652V38.3359C54.1663 38.444 54.6624 38.5989 55.1353 38.7947C55.6214 38.9951 56.0829 39.2399 56.5181 39.5239L57.3431 38.6989L59.8194 41.1752L58.9949 41.9997C59.2784 42.4345 59.5232 42.896 59.7231 43.3785C59.9189 43.855 60.0734 44.352 60.1815 44.8663H61.3485V48.2311L63.8339 46.7961C64.3845 46.4781 65.0142 46.414 65.5834 46.5662C66.154 46.7188 66.6673 47.0891 66.9844 47.6383L67.4528 48.4542C67.7417 48.9839 67.7876 49.5576 67.6449 50.0919C67.4968 50.6438 67.1416 51.1504 66.6446 51.5083L54.5742 60.2015C54.4893 60.2624 54.3966 60.3038 54.3008 60.326L43.5283 62.8714L42.6874 63.5292L43.5247 64.9797C43.7368 65.3463 43.6119 65.8165 43.2453 66.0286L40.0099 67.8967C39.6433 68.1088 39.1731 67.9839 38.9609 67.6173L31.6033 54.8737C31.3912 54.5071 31.5161 54.0369 31.8827 53.8247L35.1181 51.9567C35.4847 51.7446 35.9549 51.8695 36.1671 52.2361L37.0843 53.8243ZM51.9012 43.9404C52.6403 43.9404 53.3095 44.2402 53.7938 44.7245C54.278 45.2088 54.5779 45.8784 54.5779 46.6175C54.5779 47.3566 54.278 48.0258 53.7938 48.5101C53.3095 48.9943 52.6403 49.2942 51.9012 49.2942C51.1621 49.2942 50.4925 48.9943 50.0082 48.5101C49.524 48.0258 49.2241 47.3566 49.2241 46.6175C49.2241 45.8784 49.524 45.2088 50.0082 44.7245C50.4925 44.2402 51.1621 43.9404 51.9012 43.9404ZM52.7062 45.8121C52.5004 45.6063 52.2156 45.4786 51.9012 45.4786C51.5869 45.4786 51.3016 45.6063 51.0958 45.8121C50.89 46.0179 50.7623 46.3032 50.7623 46.6175C50.7623 46.9319 50.89 47.2167 51.0958 47.4225C51.3016 47.6283 51.5869 47.756 51.9012 47.756C52.2156 47.756 52.5004 47.6283 52.7062 47.4225C52.912 47.2167 53.0397 46.9319 53.0397 46.6175C53.0397 46.3032 52.912 46.0179 52.7062 45.8121ZM45.6348 49.5776C45.8197 49.5722 46.0092 49.5704 46.2045 49.5704H52.3791C53.0124 49.5704 53.5889 49.8302 54.0064 50.2473C54.4266 50.6679 54.6864 51.2453 54.6864 51.8777V52.0776L57.776 50.2936C58.025 49.8965 58.2349 49.4745 58.3989 49.0343C58.5797 48.5469 58.7087 48.0331 58.7759 47.5029L58.8609 46.8301H59.8103V46.4045H58.8609L58.775 45.7317C58.6964 45.117 58.5361 44.5237 58.3057 43.9668C58.0677 43.3953 57.7565 42.8619 57.3863 42.3827L56.972 41.8471L57.6443 41.1752L57.3431 40.874L56.6703 41.5463L56.1352 41.1325C55.655 40.7613 55.1217 40.4501 54.5497 40.213C53.9937 39.9818 53.4013 39.821 52.7866 39.7428L52.1138 39.657V38.7084H51.6882V39.6574L51.0154 39.7433C50.3994 39.8214 49.8061 39.9827 49.2487 40.2135C48.6813 40.4483 48.1488 40.7595 47.6664 41.1325L47.1308 41.5463L46.4589 40.8745L46.1577 41.1756L46.8296 41.8475L46.4157 42.3831C46.0428 42.8656 45.7316 43.398 45.4967 43.9654C45.265 44.5269 45.1042 45.1197 45.0265 45.7321L44.9407 46.4049H43.9921V46.8306H44.9411L45.027 47.5034C45.082 47.9363 45.1814 48.3661 45.3196 48.7863C45.41 49.0598 45.5153 49.3241 45.6348 49.5776ZM60.0252 48.9952L61.1109 48.3683H60.1828C60.1383 48.5805 60.0852 48.7895 60.0252 48.9952ZM41.4195 41.5291C41.0797 41.7812 40.5991 41.7094 40.347 41.3696C40.0948 41.0298 40.1666 40.5492 40.5064 40.2971L51.4447 32.1531C51.7241 31.9459 52.0979 31.9573 52.3623 32.1567L57.2018 35.7597V32.7691C57.2018 32.3443 57.5462 32 57.9709 32H60.6153C61.0401 32 61.3844 32.3443 61.3844 32.7691V38.8738L63.296 40.2971C63.6359 40.5492 63.7076 41.0298 63.4555 41.3696C63.2034 41.7094 62.7227 41.7812 62.3829 41.5291L60.206 39.9086C59.9898 39.7724 59.8462 39.5316 59.8462 39.2572V33.5382H58.74V37.2883C58.7378 37.4473 58.6887 37.6077 58.5869 37.7449C58.3348 38.0847 57.8542 38.1565 57.5144 37.9043L51.9012 33.7249L41.4195 41.5291ZM41.9138 62.1895L42.6752 61.5935C42.7692 61.5076 42.8855 61.444 43.0181 61.4131L53.8069 58.8659L65.7496 50.2645C65.9568 50.1151 66.1035 49.9115 66.1612 49.6958C66.2053 49.5308 66.1939 49.3555 66.1122 49.1965L65.6561 48.4079C65.5502 48.2248 65.378 48.1008 65.1872 48.0499C64.9955 47.999 64.7852 48.0194 64.6035 48.1244L54.2508 54.1019C54.1781 54.2027 54.0972 54.2972 54.0096 54.3849C53.5889 54.8051 53.0124 55.0649 52.3791 55.0649H46.2045C45.7797 55.0649 45.4354 54.7206 45.4354 54.2958C45.4354 53.8711 45.7797 53.5267 46.2045 53.5267H52.3791C52.5913 53.5267 52.7844 53.44 52.9234 53.3019C53.0615 53.1629 53.1482 52.9698 53.1482 52.7576V51.8777C53.1482 51.6655 53.0615 51.4725 52.9234 51.3334C52.7844 51.1953 52.5913 51.1086 52.3791 51.1086H46.2045C44.9807 51.1086 44.0217 51.2103 43.1649 51.4784C42.3163 51.7437 41.5385 52.1821 40.6681 52.8562L37.8611 55.1699L41.9138 62.1895ZM35.2222 53.6694L33.316 54.7697L39.9058 66.184L41.812 65.0837L35.2222 53.6694Z" fill="#F7F4F4"/>
<path d="M37.0843 53.8243L39.7309 51.6428C40.7499 50.8528 41.6762 50.3349 42.7079 50.0119C43.1281 49.8802 43.5615 49.7825 44.0212 49.7126C43.9631 49.5654 43.909 49.4168 43.8595 49.2669C43.7641 48.9775 43.6837 48.6777 43.6196 48.3688H42.4539V44.8667H43.6192C43.7277 44.3502 43.8822 43.8527 44.0784 43.3798C44.2806 42.8956 44.525 42.434 44.8076 42.0006L43.9826 41.1756L46.4589 38.6993L47.2839 39.5243C47.7182 39.2413 48.1806 38.9964 48.6663 38.7952C49.1392 38.5994 49.6357 38.4445 50.15 38.3364V37.1702H53.652V38.3359C54.1663 38.444 54.6624 38.5989 55.1353 38.7947C55.6214 38.9951 56.0829 39.2399 56.5181 39.5239L57.3431 38.6989L59.8194 41.1752L58.9949 41.9997C59.2784 42.4345 59.5232 42.896 59.7231 43.3785C59.9189 43.855 60.0734 44.352 60.1815 44.8663H61.3485V48.2311L63.8339 46.7961C64.3845 46.4781 65.0142 46.414 65.5834 46.5662C66.154 46.7188 66.6673 47.0891 66.9844 47.6383L67.4528 48.4542C67.7417 48.9839 67.7876 49.5576 67.6449 50.0919C67.4968 50.6438 67.1416 51.1504 66.6446 51.5083L54.5742 60.2015C54.4893 60.2624 54.3966 60.3038 54.3008 60.326L43.5283 62.8714L42.6874 63.5292L43.5247 64.9797C43.7368 65.3463 43.6119 65.8165 43.2453 66.0286L40.0099 67.8967C39.6433 68.1088 39.1731 67.9839 38.9609 67.6173L31.6033 54.8737C31.3912 54.5071 31.5161 54.0369 31.8827 53.8247L35.1181 51.9567C35.4847 51.7446 35.9549 51.8695 36.1671 52.2361L37.0843 53.8243ZM51.9012 43.9404C52.6403 43.9404 53.3095 44.2402 53.7938 44.7245C54.278 45.2088 54.5779 45.8784 54.5779 46.6175C54.5779 47.3566 54.278 48.0258 53.7938 48.5101C53.3095 48.9943 52.6403 49.2942 51.9012 49.2942C51.1621 49.2942 50.4925 48.9943 50.0082 48.5101C49.524 48.0258 49.2241 47.3566 49.2241 46.6175C49.2241 45.8784 49.524 45.2088 50.0082 44.7245C50.4925 44.2402 51.1621 43.9404 51.9012 43.9404ZM52.7062 45.8121C52.5004 45.6063 52.2156 45.4786 51.9012 45.4786C51.5869 45.4786 51.3016 45.6063 51.0958 45.8121C50.89 46.0179 50.7623 46.3032 50.7623 46.6175C50.7623 46.9319 50.89 47.2167 51.0958 47.4225C51.3016 47.6283 51.5869 47.756 51.9012 47.756C52.2156 47.756 52.5004 47.6283 52.7062 47.4225C52.912 47.2167 53.0397 46.9319 53.0397 46.6175C53.0397 46.3032 52.912 46.0179 52.7062 45.8121ZM45.6348 49.5776C45.8197 49.5722 46.0092 49.5704 46.2045 49.5704H52.3791C53.0124 49.5704 53.5889 49.8302 54.0064 50.2473C54.4266 50.6679 54.6864 51.2453 54.6864 51.8777V52.0776L57.776 50.2936C58.025 49.8965 58.2349 49.4745 58.3989 49.0343C58.5797 48.5469 58.7087 48.0331 58.7759 47.5029L58.8609 46.8301H59.8103V46.4045H58.8609L58.775 45.7317C58.6964 45.117 58.5361 44.5237 58.3057 43.9668C58.0677 43.3953 57.7565 42.8619 57.3863 42.3827L56.972 41.8471L57.6443 41.1752L57.3431 40.874L56.6703 41.5463L56.1352 41.1325C55.655 40.7613 55.1217 40.4501 54.5497 40.213C53.9937 39.9818 53.4013 39.821 52.7866 39.7428L52.1138 39.657V38.7084H51.6882V39.6574L51.0154 39.7433C50.3994 39.8214 49.8061 39.9827 49.2487 40.2135C48.6813 40.4483 48.1488 40.7595 47.6664 41.1325L47.1308 41.5463L46.4589 40.8745L46.1577 41.1756L46.8296 41.8475L46.4157 42.3831C46.0428 42.8656 45.7316 43.398 45.4967 43.9654C45.265 44.5269 45.1042 45.1197 45.0265 45.7321L44.9407 46.4049H43.9921V46.8306H44.9411L45.027 47.5034C45.082 47.9363 45.1814 48.3661 45.3196 48.7863C45.41 49.0598 45.5153 49.3241 45.6348 49.5776ZM60.0252 48.9952L61.1109 48.3683H60.1828C60.1383 48.5805 60.0852 48.7895 60.0252 48.9952ZM41.4195 41.5291C41.0797 41.7812 40.5991 41.7094 40.347 41.3696C40.0948 41.0298 40.1666 40.5492 40.5064 40.2971L51.4447 32.1531C51.7241 31.9459 52.0979 31.9573 52.3623 32.1567L57.2018 35.7597V32.7691C57.2018 32.3443 57.5462 32 57.9709 32H60.6153C61.0401 32 61.3844 32.3443 61.3844 32.7691V38.8738L63.296 40.2971C63.6359 40.5492 63.7076 41.0298 63.4555 41.3696C63.2034 41.7094 62.7227 41.7812 62.3829 41.5291L60.206 39.9086C59.9898 39.7724 59.8462 39.5316 59.8462 39.2572V33.5382H58.74V37.2883C58.7378 37.4473 58.6887 37.6077 58.5869 37.7449C58.3348 38.0847 57.8542 38.1565 57.5144 37.9043L51.9012 33.7249L41.4195 41.5291ZM41.9138 62.1895L42.6752 61.5935C42.7692 61.5076 42.8855 61.444 43.0181 61.4131L53.8069 58.8659L65.7496 50.2645C65.9568 50.1151 66.1035 49.9115 66.1612 49.6958C66.2053 49.5308 66.1939 49.3555 66.1122 49.1965L65.6561 48.4079C65.5502 48.2248 65.378 48.1008 65.1872 48.0499C64.9955 47.999 64.7852 48.0194 64.6035 48.1244L54.2508 54.1019C54.1781 54.2027 54.0972 54.2972 54.0096 54.3849C53.5889 54.8051 53.0124 55.0649 52.3791 55.0649H46.2045C45.7797 55.0649 45.4354 54.7206 45.4354 54.2958C45.4354 53.8711 45.7797 53.5267 46.2045 53.5267H52.3791C52.5913 53.5267 52.7844 53.44 52.9234 53.3019C53.0615 53.1629 53.1482 52.9698 53.1482 52.7576V51.8777C53.1482 51.6655 53.0615 51.4725 52.9234 51.3334C52.7844 51.1953 52.5913 51.1086 52.3791 51.1086H46.2045C44.9807 51.1086 44.0217 51.2103 43.1649 51.4784C42.3163 51.7437 41.5385 52.1821 40.6681 52.8562L37.8611 55.1699L41.9138 62.1895ZM35.2222 53.6694L33.316 54.7697L39.9058 66.184L41.812 65.0837L35.2222 53.6694Z" stroke="#F7F4F4" stroke-width="0.6" mask="url(#path-2-outside-1_1378_809)"/>
</svg>
