<svg width="101" height="100" viewBox="0 0 101 100" fill="none" xmlns="http://www.w3.org/2000/svg">
<circle cx="50.5" cy="50" r="50" fill="#F7F4F4"/>
<mask id="path-2-outside-1_1378_763" maskUnits="userSpaceOnUse" x="32" y="31" width="38" height="38" fill="black">
<rect fill="white" x="32" y="31" width="38" height="38"/>
<path fill-rule="evenodd" clip-rule="evenodd" d="M45.1559 34.8503H42.3767V38.5955H51.6798V34.8503H48.4167L48.3599 34.3703C48.3203 34.018 48.1584 33.6907 47.9023 33.4455C47.6676 33.2192 47.3543 33.0927 47.0283 33.0927C46.7022 33.0927 46.3889 33.2192 46.1543 33.4455C45.8981 33.6906 45.7363 34.018 45.6971 34.3703L45.6399 34.8503H45.1559ZM52.7706 34.7459H57.7246C58.6075 34.7481 59.4537 35.0999 60.078 35.7243C60.7024 36.3487 61.054 37.1949 61.0561 38.0779V64.668C61.054 65.551 60.7024 66.3972 60.078 67.0216C59.4537 67.646 58.6075 67.9978 57.7246 68H36.3316C35.4486 67.9978 34.6024 67.646 33.9781 67.0216C33.3538 66.3972 33.0021 65.551 33 64.668V38.0779C33.0021 37.1949 33.3538 36.3487 33.9781 35.7243C34.6024 35.0999 35.4486 34.7481 36.3316 34.7459H41.2847V34.5695C41.2844 34.3705 41.3554 34.178 41.4847 34.0267C41.5555 33.9432 41.6436 33.8761 41.7429 33.8301C41.8423 33.7841 41.9504 33.7603 42.0599 33.7603H44.7175C44.8488 33.3374 45.0869 32.9554 45.4087 32.6511C45.8445 32.2333 46.4249 32 47.0287 32C47.6324 32 48.2128 32.2333 48.6487 32.6511C48.9702 32.9555 49.2079 33.3375 49.339 33.7603H51.9966C52.1058 33.7607 52.2135 33.7848 52.3124 33.8309C52.4113 33.8771 52.499 33.9441 52.5694 34.0275C52.6988 34.1788 52.7697 34.3713 52.7694 34.5703V34.7467L52.7706 34.7459ZM41.2847 38.6235H37.2948C37.1225 38.6247 36.9576 38.6938 36.836 38.8158C36.7143 38.9378 36.6456 39.1028 36.6448 39.2751V63.4712C36.6458 63.6437 36.7148 63.8089 36.8368 63.9308C36.9587 64.0528 37.1239 64.1218 37.2964 64.1228H56.7618C56.9343 64.1218 57.0994 64.0528 57.2214 63.9308C57.3433 63.8089 57.4123 63.6437 57.4134 63.4712V39.2751C57.4125 39.1025 57.3436 38.9373 57.2216 38.8153C57.0996 38.6932 56.9343 38.6243 56.7618 38.6235H52.7706V38.8763C52.7709 39.0753 52.7 39.2678 52.5706 39.4191C52.5003 39.5026 52.4126 39.5698 52.3137 39.616C52.2148 39.6622 52.107 39.6863 51.9978 39.6867H42.0599C41.9507 39.6863 41.843 39.6621 41.7441 39.6159C41.6452 39.5697 41.5575 39.5025 41.4871 39.4191C41.3569 39.2682 41.2851 39.0756 41.2847 38.8763V38.6235ZM52.7706 37.5323V35.8367H57.7246C58.3179 35.8391 58.8862 36.0759 59.3058 36.4955C59.7253 36.915 59.9621 37.4834 59.9645 38.0767V64.668C59.9621 65.2614 59.7253 65.8297 59.3058 66.2493C58.8862 66.6688 58.3179 66.9056 57.7246 66.908H36.3316C35.7382 66.9056 35.1699 66.6688 34.7503 66.2493C34.3308 65.8297 34.094 65.2614 34.0916 64.668V38.0779C34.094 37.4846 34.3308 36.9162 34.7503 36.4967C35.1699 36.0771 35.7382 35.8403 36.3316 35.8379H41.2847V37.5323H37.2948C36.8329 37.5332 36.3902 37.7172 36.0636 38.0438C35.7371 38.3705 35.5532 38.8132 35.5524 39.2751V63.4712C35.5533 63.9331 35.7372 64.3757 36.0638 64.7022C36.3903 65.0288 36.8329 65.2127 37.2948 65.2136H56.7618C57.2236 65.2127 57.6662 65.0288 57.9928 64.7022C58.3193 64.3757 58.5032 63.9331 58.5042 63.4712V39.2751C58.5033 38.8132 58.3195 38.3705 57.9929 38.0438C57.6663 37.7172 57.2237 37.5332 56.7618 37.5323H52.7706ZM39.3647 46.6626L40.1583 47.6046C40.2042 47.6592 40.2604 47.7042 40.3236 47.7371C40.3869 47.7699 40.456 47.79 40.527 47.7962C40.5981 47.8023 40.6696 47.7944 40.7376 47.7728C40.8055 47.7513 40.8686 47.7165 40.9231 47.6706L42.8707 46.021C42.9771 45.9267 43.0423 45.7945 43.0525 45.6527C43.0626 45.5109 43.017 45.3708 42.9252 45.2622C42.8334 45.1537 42.7028 45.0853 42.5613 45.0718C42.4198 45.0583 42.2786 45.1006 42.1679 45.1898L40.6383 46.4882L40.1983 45.9638C40.1524 45.9091 40.0962 45.8639 40.0329 45.8309C39.9696 45.7979 39.9003 45.7777 39.8292 45.7714C39.758 45.7652 39.6864 45.773 39.6182 45.7944C39.5501 45.8159 39.4869 45.8505 39.4321 45.8964C39.3774 45.9423 39.3322 45.9985 39.2992 46.0618C39.2662 46.1252 39.246 46.1944 39.2398 46.2655C39.2335 46.3367 39.2413 46.4084 39.2628 46.4765C39.2842 46.5446 39.3189 46.6079 39.3647 46.6626ZM44.5367 45.763H54.2754C54.4175 45.7592 54.5525 45.7 54.6516 45.5982C54.7507 45.4963 54.8062 45.3598 54.8062 45.2176C54.8062 45.0755 54.7507 44.9389 54.6516 44.8371C54.5525 44.7352 54.4175 44.6761 54.2754 44.6722H44.5379C44.3958 44.6761 44.2608 44.7352 44.1617 44.8371C44.0625 44.9389 44.0071 45.0755 44.0071 45.2176C44.0071 45.3598 44.0625 45.4963 44.1617 45.5982C44.2608 45.7 44.3958 45.7592 44.5379 45.763H44.5367ZM44.5367 48.1886H54.2754C54.4175 48.1847 54.5525 48.1256 54.6516 48.0237C54.7507 47.9219 54.8062 47.7853 54.8062 47.6432C54.8062 47.501 54.7507 47.3645 54.6516 47.2627C54.5525 47.1608 54.4175 47.1016 54.2754 47.0978H44.5379C44.3958 47.1016 44.2608 47.1608 44.1617 47.2627C44.0625 47.3645 44.0071 47.501 44.0071 47.6432C44.0071 47.7853 44.0625 47.9219 44.1617 48.0237C44.2608 48.1256 44.3958 48.1847 44.5379 48.1886H44.5367ZM39.3647 52.9601L40.1583 53.9025C40.2511 54.0126 40.3837 54.0814 40.5271 54.0938C40.6705 54.1061 40.8129 54.0611 40.9231 53.9685L42.8707 52.3185C42.9809 52.2254 43.0495 52.0922 43.0615 51.9484C43.0735 51.8046 43.0279 51.6619 42.9347 51.5518C42.8415 51.4416 42.7084 51.373 42.5646 51.3609C42.4208 51.3489 42.2781 51.3946 42.1679 51.4878L40.6351 52.7857L40.1951 52.2613C40.1499 52.2049 40.0938 52.1581 40.0301 52.1237C39.9665 52.0892 39.8966 52.0679 39.8246 52.0608C39.7526 52.0538 39.6799 52.0612 39.6108 52.0827C39.5418 52.1041 39.4776 52.1392 39.4223 52.1857C39.3669 52.2323 39.3214 52.2895 39.2885 52.3539C39.2556 52.4183 39.2358 52.4887 39.2305 52.5608C39.2251 52.633 39.2342 52.7055 39.2573 52.774C39.2803 52.8426 39.3169 52.9059 39.3647 52.9601ZM44.5367 52.061H54.2754C54.4175 52.0571 54.5525 51.998 54.6516 51.8961C54.7507 51.7942 54.8062 51.6577 54.8062 51.5156C54.8062 51.3734 54.7507 51.2369 54.6516 51.135C54.5525 51.0332 54.4175 50.974 54.2754 50.9702H44.5379C44.3958 50.974 44.2608 51.0332 44.1617 51.135C44.0625 51.2369 44.0071 51.3734 44.0071 51.5156C44.0071 51.6577 44.0625 51.7942 44.1617 51.8961C44.2608 51.998 44.3958 52.0571 44.5379 52.061H44.5367ZM44.5367 54.4861H54.2754C54.4175 54.4823 54.5525 54.4231 54.6516 54.3213C54.7507 54.2194 54.8062 54.0829 54.8062 53.9407C54.8062 53.7986 54.7507 53.6621 54.6516 53.5602C54.5525 53.4583 54.4175 53.3992 54.2754 53.3953H44.5379C44.3958 53.3992 44.2608 53.4583 44.1617 53.5602C44.0625 53.6621 44.0071 53.7986 44.0071 53.9407C44.0071 54.0829 44.0625 54.2194 44.1617 54.3213C44.2608 54.4231 44.3958 54.4823 44.5379 54.4861H44.5367ZM39.3647 59.2565L40.1595 60.2001C40.2054 60.2547 40.2615 60.2997 40.3248 60.3325C40.388 60.3654 40.4572 60.3855 40.5282 60.3917C40.5992 60.3978 40.6707 60.39 40.7387 60.3685C40.8067 60.347 40.8697 60.3123 40.9243 60.2665L42.8719 58.6165C42.9265 58.5703 42.9714 58.5139 43.0041 58.4504C43.0369 58.3869 43.0568 58.3176 43.0627 58.2463C43.0687 58.1751 43.0605 58.1035 43.0388 58.0354C43.017 57.9674 42.9821 57.9042 42.9359 57.8497C42.8898 57.7951 42.8333 57.7502 42.7698 57.7175C42.7063 57.6847 42.637 57.6648 42.5658 57.6589C42.4946 57.6529 42.4229 57.6611 42.3548 57.6828C42.2868 57.7046 42.2237 57.7395 42.1691 57.7857L40.6363 59.0837L40.1963 58.5593C40.1513 58.5025 40.0953 58.4552 40.0317 58.4204C39.968 58.3856 39.8981 58.3638 39.8259 58.3565C39.7538 58.3492 39.6809 58.3564 39.6115 58.3777C39.5422 58.399 39.4779 58.434 39.4223 58.4806C39.3667 58.5272 39.321 58.5844 39.2879 58.649C39.2549 58.7135 39.2351 58.784 39.2297 58.8564C39.2243 58.9287 39.2335 59.0014 39.2567 59.0701C39.2799 59.1388 39.3166 59.2022 39.3647 59.2565ZM44.5367 58.3569H54.2754C54.4175 58.353 54.5525 58.2939 54.6516 58.192C54.7507 58.0902 54.8062 57.9536 54.8062 57.8115C54.8062 57.6694 54.7507 57.5328 54.6516 57.431C54.5525 57.3291 54.4175 57.27 54.2754 57.2661H44.5379C44.3958 57.27 44.2608 57.3291 44.1617 57.431C44.0625 57.5328 44.0071 57.6694 44.0071 57.8115C44.0071 57.9536 44.0625 58.0902 44.1617 58.192C44.2608 58.2939 44.3958 58.353 44.5379 58.3569H44.5367ZM44.5367 60.7825H54.2754C54.4175 60.7786 54.5525 60.7195 54.6516 60.6176C54.7507 60.5157 54.8062 60.3792 54.8062 60.2371C54.8062 60.0949 54.7507 59.9584 54.6516 59.8565C54.5525 59.7547 54.4175 59.6955 54.2754 59.6917H44.5379C44.3958 59.6955 44.2608 59.7547 44.1617 59.8565C44.0625 59.9584 44.0071 60.0949 44.0071 60.2371C44.0071 60.3792 44.0625 60.5157 44.1617 60.6176C44.2608 60.7195 44.3958 60.7786 44.5379 60.7825H44.5367ZM64.5545 60.1501L66.0765 62.7628L67.3505 60.1501H64.5545ZM68.7029 59.8637L66.6109 64.1568C66.5664 64.248 66.4974 64.3249 66.4117 64.379C66.3259 64.433 66.2267 64.4621 66.1254 64.463C66.024 64.4638 65.9244 64.4363 65.8377 64.3837C65.7511 64.331 65.6808 64.2552 65.6349 64.1648L63.1549 59.9113C63.0935 59.8209 63.0608 59.7141 63.0609 59.6049V40.9375C63.0618 40.5179 63.2289 40.1158 63.5258 39.8193C63.8226 39.5229 64.2249 39.3562 64.6445 39.3559H67.1885C67.6076 39.3568 68.0093 39.5238 68.3056 39.8202C68.602 40.1166 68.7688 40.5183 68.7697 40.9375V59.6049C68.7698 59.6952 68.7474 59.7842 68.7045 59.8637H68.7029ZM64.1537 41.817H67.6785V40.9371C67.6777 40.8072 67.6258 40.6829 67.534 40.5911C67.4422 40.4993 67.3179 40.4474 67.1881 40.4467H64.6445C64.5147 40.4474 64.3904 40.4993 64.2985 40.5911C64.2067 40.6829 64.1548 40.8072 64.1541 40.9371V41.817H64.1537ZM64.1537 44.4006H67.6785V42.9078H64.1537V44.4006ZM66.4617 45.4914V59.0593H67.6785V45.4914H66.4617ZM65.3709 59.0593V45.4914H64.1537V59.0593H65.3709Z"/>
</mask>
<path fill-rule="evenodd" clip-rule="evenodd" d="M45.1559 34.8503H42.3767V38.5955H51.6798V34.8503H48.4167L48.3599 34.3703C48.3203 34.018 48.1584 33.6907 47.9023 33.4455C47.6676 33.2192 47.3543 33.0927 47.0283 33.0927C46.7022 33.0927 46.3889 33.2192 46.1543 33.4455C45.8981 33.6906 45.7363 34.018 45.6971 34.3703L45.6399 34.8503H45.1559ZM52.7706 34.7459H57.7246C58.6075 34.7481 59.4537 35.0999 60.078 35.7243C60.7024 36.3487 61.054 37.1949 61.0561 38.0779V64.668C61.054 65.551 60.7024 66.3972 60.078 67.0216C59.4537 67.646 58.6075 67.9978 57.7246 68H36.3316C35.4486 67.9978 34.6024 67.646 33.9781 67.0216C33.3538 66.3972 33.0021 65.551 33 64.668V38.0779C33.0021 37.1949 33.3538 36.3487 33.9781 35.7243C34.6024 35.0999 35.4486 34.7481 36.3316 34.7459H41.2847V34.5695C41.2844 34.3705 41.3554 34.178 41.4847 34.0267C41.5555 33.9432 41.6436 33.8761 41.7429 33.8301C41.8423 33.7841 41.9504 33.7603 42.0599 33.7603H44.7175C44.8488 33.3374 45.0869 32.9554 45.4087 32.6511C45.8445 32.2333 46.4249 32 47.0287 32C47.6324 32 48.2128 32.2333 48.6487 32.6511C48.9702 32.9555 49.2079 33.3375 49.339 33.7603H51.9966C52.1058 33.7607 52.2135 33.7848 52.3124 33.8309C52.4113 33.8771 52.499 33.9441 52.5694 34.0275C52.6988 34.1788 52.7697 34.3713 52.7694 34.5703V34.7467L52.7706 34.7459ZM41.2847 38.6235H37.2948C37.1225 38.6247 36.9576 38.6938 36.836 38.8158C36.7143 38.9378 36.6456 39.1028 36.6448 39.2751V63.4712C36.6458 63.6437 36.7148 63.8089 36.8368 63.9308C36.9587 64.0528 37.1239 64.1218 37.2964 64.1228H56.7618C56.9343 64.1218 57.0994 64.0528 57.2214 63.9308C57.3433 63.8089 57.4123 63.6437 57.4134 63.4712V39.2751C57.4125 39.1025 57.3436 38.9373 57.2216 38.8153C57.0996 38.6932 56.9343 38.6243 56.7618 38.6235H52.7706V38.8763C52.7709 39.0753 52.7 39.2678 52.5706 39.4191C52.5003 39.5026 52.4126 39.5698 52.3137 39.616C52.2148 39.6622 52.107 39.6863 51.9978 39.6867H42.0599C41.9507 39.6863 41.843 39.6621 41.7441 39.6159C41.6452 39.5697 41.5575 39.5025 41.4871 39.4191C41.3569 39.2682 41.2851 39.0756 41.2847 38.8763V38.6235ZM52.7706 37.5323V35.8367H57.7246C58.3179 35.8391 58.8862 36.0759 59.3058 36.4955C59.7253 36.915 59.9621 37.4834 59.9645 38.0767V64.668C59.9621 65.2614 59.7253 65.8297 59.3058 66.2493C58.8862 66.6688 58.3179 66.9056 57.7246 66.908H36.3316C35.7382 66.9056 35.1699 66.6688 34.7503 66.2493C34.3308 65.8297 34.094 65.2614 34.0916 64.668V38.0779C34.094 37.4846 34.3308 36.9162 34.7503 36.4967C35.1699 36.0771 35.7382 35.8403 36.3316 35.8379H41.2847V37.5323H37.2948C36.8329 37.5332 36.3902 37.7172 36.0636 38.0438C35.7371 38.3705 35.5532 38.8132 35.5524 39.2751V63.4712C35.5533 63.9331 35.7372 64.3757 36.0638 64.7022C36.3903 65.0288 36.8329 65.2127 37.2948 65.2136H56.7618C57.2236 65.2127 57.6662 65.0288 57.9928 64.7022C58.3193 64.3757 58.5032 63.9331 58.5042 63.4712V39.2751C58.5033 38.8132 58.3195 38.3705 57.9929 38.0438C57.6663 37.7172 57.2237 37.5332 56.7618 37.5323H52.7706ZM39.3647 46.6626L40.1583 47.6046C40.2042 47.6592 40.2604 47.7042 40.3236 47.7371C40.3869 47.7699 40.456 47.79 40.527 47.7962C40.5981 47.8023 40.6696 47.7944 40.7376 47.7728C40.8055 47.7513 40.8686 47.7165 40.9231 47.6706L42.8707 46.021C42.9771 45.9267 43.0423 45.7945 43.0525 45.6527C43.0626 45.5109 43.017 45.3708 42.9252 45.2622C42.8334 45.1537 42.7028 45.0853 42.5613 45.0718C42.4198 45.0583 42.2786 45.1006 42.1679 45.1898L40.6383 46.4882L40.1983 45.9638C40.1524 45.9091 40.0962 45.8639 40.0329 45.8309C39.9696 45.7979 39.9003 45.7777 39.8292 45.7714C39.758 45.7652 39.6864 45.773 39.6182 45.7944C39.5501 45.8159 39.4869 45.8505 39.4321 45.8964C39.3774 45.9423 39.3322 45.9985 39.2992 46.0618C39.2662 46.1252 39.246 46.1944 39.2398 46.2655C39.2335 46.3367 39.2413 46.4084 39.2628 46.4765C39.2842 46.5446 39.3189 46.6079 39.3647 46.6626ZM44.5367 45.763H54.2754C54.4175 45.7592 54.5525 45.7 54.6516 45.5982C54.7507 45.4963 54.8062 45.3598 54.8062 45.2176C54.8062 45.0755 54.7507 44.9389 54.6516 44.8371C54.5525 44.7352 54.4175 44.6761 54.2754 44.6722H44.5379C44.3958 44.6761 44.2608 44.7352 44.1617 44.8371C44.0625 44.9389 44.0071 45.0755 44.0071 45.2176C44.0071 45.3598 44.0625 45.4963 44.1617 45.5982C44.2608 45.7 44.3958 45.7592 44.5379 45.763H44.5367ZM44.5367 48.1886H54.2754C54.4175 48.1847 54.5525 48.1256 54.6516 48.0237C54.7507 47.9219 54.8062 47.7853 54.8062 47.6432C54.8062 47.501 54.7507 47.3645 54.6516 47.2627C54.5525 47.1608 54.4175 47.1016 54.2754 47.0978H44.5379C44.3958 47.1016 44.2608 47.1608 44.1617 47.2627C44.0625 47.3645 44.0071 47.501 44.0071 47.6432C44.0071 47.7853 44.0625 47.9219 44.1617 48.0237C44.2608 48.1256 44.3958 48.1847 44.5379 48.1886H44.5367ZM39.3647 52.9601L40.1583 53.9025C40.2511 54.0126 40.3837 54.0814 40.5271 54.0938C40.6705 54.1061 40.8129 54.0611 40.9231 53.9685L42.8707 52.3185C42.9809 52.2254 43.0495 52.0922 43.0615 51.9484C43.0735 51.8046 43.0279 51.6619 42.9347 51.5518C42.8415 51.4416 42.7084 51.373 42.5646 51.3609C42.4208 51.3489 42.2781 51.3946 42.1679 51.4878L40.6351 52.7857L40.1951 52.2613C40.1499 52.2049 40.0938 52.1581 40.0301 52.1237C39.9665 52.0892 39.8966 52.0679 39.8246 52.0608C39.7526 52.0538 39.6799 52.0612 39.6108 52.0827C39.5418 52.1041 39.4776 52.1392 39.4223 52.1857C39.3669 52.2323 39.3214 52.2895 39.2885 52.3539C39.2556 52.4183 39.2358 52.4887 39.2305 52.5608C39.2251 52.633 39.2342 52.7055 39.2573 52.774C39.2803 52.8426 39.3169 52.9059 39.3647 52.9601ZM44.5367 52.061H54.2754C54.4175 52.0571 54.5525 51.998 54.6516 51.8961C54.7507 51.7942 54.8062 51.6577 54.8062 51.5156C54.8062 51.3734 54.7507 51.2369 54.6516 51.135C54.5525 51.0332 54.4175 50.974 54.2754 50.9702H44.5379C44.3958 50.974 44.2608 51.0332 44.1617 51.135C44.0625 51.2369 44.0071 51.3734 44.0071 51.5156C44.0071 51.6577 44.0625 51.7942 44.1617 51.8961C44.2608 51.998 44.3958 52.0571 44.5379 52.061H44.5367ZM44.5367 54.4861H54.2754C54.4175 54.4823 54.5525 54.4231 54.6516 54.3213C54.7507 54.2194 54.8062 54.0829 54.8062 53.9407C54.8062 53.7986 54.7507 53.6621 54.6516 53.5602C54.5525 53.4583 54.4175 53.3992 54.2754 53.3953H44.5379C44.3958 53.3992 44.2608 53.4583 44.1617 53.5602C44.0625 53.6621 44.0071 53.7986 44.0071 53.9407C44.0071 54.0829 44.0625 54.2194 44.1617 54.3213C44.2608 54.4231 44.3958 54.4823 44.5379 54.4861H44.5367ZM39.3647 59.2565L40.1595 60.2001C40.2054 60.2547 40.2615 60.2997 40.3248 60.3325C40.388 60.3654 40.4572 60.3855 40.5282 60.3917C40.5992 60.3978 40.6707 60.39 40.7387 60.3685C40.8067 60.347 40.8697 60.3123 40.9243 60.2665L42.8719 58.6165C42.9265 58.5703 42.9714 58.5139 43.0041 58.4504C43.0369 58.3869 43.0568 58.3176 43.0627 58.2463C43.0687 58.1751 43.0605 58.1035 43.0388 58.0354C43.017 57.9674 42.9821 57.9042 42.9359 57.8497C42.8898 57.7951 42.8333 57.7502 42.7698 57.7175C42.7063 57.6847 42.637 57.6648 42.5658 57.6589C42.4946 57.6529 42.4229 57.6611 42.3548 57.6828C42.2868 57.7046 42.2237 57.7395 42.1691 57.7857L40.6363 59.0837L40.1963 58.5593C40.1513 58.5025 40.0953 58.4552 40.0317 58.4204C39.968 58.3856 39.8981 58.3638 39.8259 58.3565C39.7538 58.3492 39.6809 58.3564 39.6115 58.3777C39.5422 58.399 39.4779 58.434 39.4223 58.4806C39.3667 58.5272 39.321 58.5844 39.2879 58.649C39.2549 58.7135 39.2351 58.784 39.2297 58.8564C39.2243 58.9287 39.2335 59.0014 39.2567 59.0701C39.2799 59.1388 39.3166 59.2022 39.3647 59.2565ZM44.5367 58.3569H54.2754C54.4175 58.353 54.5525 58.2939 54.6516 58.192C54.7507 58.0902 54.8062 57.9536 54.8062 57.8115C54.8062 57.6694 54.7507 57.5328 54.6516 57.431C54.5525 57.3291 54.4175 57.27 54.2754 57.2661H44.5379C44.3958 57.27 44.2608 57.3291 44.1617 57.431C44.0625 57.5328 44.0071 57.6694 44.0071 57.8115C44.0071 57.9536 44.0625 58.0902 44.1617 58.192C44.2608 58.2939 44.3958 58.353 44.5379 58.3569H44.5367ZM44.5367 60.7825H54.2754C54.4175 60.7786 54.5525 60.7195 54.6516 60.6176C54.7507 60.5157 54.8062 60.3792 54.8062 60.2371C54.8062 60.0949 54.7507 59.9584 54.6516 59.8565C54.5525 59.7547 54.4175 59.6955 54.2754 59.6917H44.5379C44.3958 59.6955 44.2608 59.7547 44.1617 59.8565C44.0625 59.9584 44.0071 60.0949 44.0071 60.2371C44.0071 60.3792 44.0625 60.5157 44.1617 60.6176C44.2608 60.7195 44.3958 60.7786 44.5379 60.7825H44.5367ZM64.5545 60.1501L66.0765 62.7628L67.3505 60.1501H64.5545ZM68.7029 59.8637L66.6109 64.1568C66.5664 64.248 66.4974 64.3249 66.4117 64.379C66.3259 64.433 66.2267 64.4621 66.1254 64.463C66.024 64.4638 65.9244 64.4363 65.8377 64.3837C65.7511 64.331 65.6808 64.2552 65.6349 64.1648L63.1549 59.9113C63.0935 59.8209 63.0608 59.7141 63.0609 59.6049V40.9375C63.0618 40.5179 63.2289 40.1158 63.5258 39.8193C63.8226 39.5229 64.2249 39.3562 64.6445 39.3559H67.1885C67.6076 39.3568 68.0093 39.5238 68.3056 39.8202C68.602 40.1166 68.7688 40.5183 68.7697 40.9375V59.6049C68.7698 59.6952 68.7474 59.7842 68.7045 59.8637H68.7029ZM64.1537 41.817H67.6785V40.9371C67.6777 40.8072 67.6258 40.6829 67.534 40.5911C67.4422 40.4993 67.3179 40.4474 67.1881 40.4467H64.6445C64.5147 40.4474 64.3904 40.4993 64.2985 40.5911C64.2067 40.6829 64.1548 40.8072 64.1541 40.9371V41.817H64.1537ZM64.1537 44.4006H67.6785V42.9078H64.1537V44.4006ZM66.4617 45.4914V59.0593H67.6785V45.4914H66.4617ZM65.3709 59.0593V45.4914H64.1537V59.0593H65.3709Z" fill="#65221A"/>
<path fill-rule="evenodd" clip-rule="evenodd" d="M45.1559 34.8503H42.3767V38.5955H51.6798V34.8503H48.4167L48.3599 34.3703C48.3203 34.018 48.1584 33.6907 47.9023 33.4455C47.6676 33.2192 47.3543 33.0927 47.0283 33.0927C46.7022 33.0927 46.3889 33.2192 46.1543 33.4455C45.8981 33.6906 45.7363 34.018 45.6971 34.3703L45.6399 34.8503H45.1559ZM52.7706 34.7459H57.7246C58.6075 34.7481 59.4537 35.0999 60.078 35.7243C60.7024 36.3487 61.054 37.1949 61.0561 38.0779V64.668C61.054 65.551 60.7024 66.3972 60.078 67.0216C59.4537 67.646 58.6075 67.9978 57.7246 68H36.3316C35.4486 67.9978 34.6024 67.646 33.9781 67.0216C33.3538 66.3972 33.0021 65.551 33 64.668V38.0779C33.0021 37.1949 33.3538 36.3487 33.9781 35.7243C34.6024 35.0999 35.4486 34.7481 36.3316 34.7459H41.2847V34.5695C41.2844 34.3705 41.3554 34.178 41.4847 34.0267C41.5555 33.9432 41.6436 33.8761 41.7429 33.8301C41.8423 33.7841 41.9504 33.7603 42.0599 33.7603H44.7175C44.8488 33.3374 45.0869 32.9554 45.4087 32.6511C45.8445 32.2333 46.4249 32 47.0287 32C47.6324 32 48.2128 32.2333 48.6487 32.6511C48.9702 32.9555 49.2079 33.3375 49.339 33.7603H51.9966C52.1058 33.7607 52.2135 33.7848 52.3124 33.8309C52.4113 33.8771 52.499 33.9441 52.5694 34.0275C52.6988 34.1788 52.7697 34.3713 52.7694 34.5703V34.7467L52.7706 34.7459ZM41.2847 38.6235H37.2948C37.1225 38.6247 36.9576 38.6938 36.836 38.8158C36.7143 38.9378 36.6456 39.1028 36.6448 39.2751V63.4712C36.6458 63.6437 36.7148 63.8089 36.8368 63.9308C36.9587 64.0528 37.1239 64.1218 37.2964 64.1228H56.7618C56.9343 64.1218 57.0994 64.0528 57.2214 63.9308C57.3433 63.8089 57.4123 63.6437 57.4134 63.4712V39.2751C57.4125 39.1025 57.3436 38.9373 57.2216 38.8153C57.0996 38.6932 56.9343 38.6243 56.7618 38.6235H52.7706V38.8763C52.7709 39.0753 52.7 39.2678 52.5706 39.4191C52.5003 39.5026 52.4126 39.5698 52.3137 39.616C52.2148 39.6622 52.107 39.6863 51.9978 39.6867H42.0599C41.9507 39.6863 41.843 39.6621 41.7441 39.6159C41.6452 39.5697 41.5575 39.5025 41.4871 39.4191C41.3569 39.2682 41.2851 39.0756 41.2847 38.8763V38.6235ZM52.7706 37.5323V35.8367H57.7246C58.3179 35.8391 58.8862 36.0759 59.3058 36.4955C59.7253 36.915 59.9621 37.4834 59.9645 38.0767V64.668C59.9621 65.2614 59.7253 65.8297 59.3058 66.2493C58.8862 66.6688 58.3179 66.9056 57.7246 66.908H36.3316C35.7382 66.9056 35.1699 66.6688 34.7503 66.2493C34.3308 65.8297 34.094 65.2614 34.0916 64.668V38.0779C34.094 37.4846 34.3308 36.9162 34.7503 36.4967C35.1699 36.0771 35.7382 35.8403 36.3316 35.8379H41.2847V37.5323H37.2948C36.8329 37.5332 36.3902 37.7172 36.0636 38.0438C35.7371 38.3705 35.5532 38.8132 35.5524 39.2751V63.4712C35.5533 63.9331 35.7372 64.3757 36.0638 64.7022C36.3903 65.0288 36.8329 65.2127 37.2948 65.2136H56.7618C57.2236 65.2127 57.6662 65.0288 57.9928 64.7022C58.3193 64.3757 58.5032 63.9331 58.5042 63.4712V39.2751C58.5033 38.8132 58.3195 38.3705 57.9929 38.0438C57.6663 37.7172 57.2237 37.5332 56.7618 37.5323H52.7706ZM39.3647 46.6626L40.1583 47.6046C40.2042 47.6592 40.2604 47.7042 40.3236 47.7371C40.3869 47.7699 40.456 47.79 40.527 47.7962C40.5981 47.8023 40.6696 47.7944 40.7376 47.7728C40.8055 47.7513 40.8686 47.7165 40.9231 47.6706L42.8707 46.021C42.9771 45.9267 43.0423 45.7945 43.0525 45.6527C43.0626 45.5109 43.017 45.3708 42.9252 45.2622C42.8334 45.1537 42.7028 45.0853 42.5613 45.0718C42.4198 45.0583 42.2786 45.1006 42.1679 45.1898L40.6383 46.4882L40.1983 45.9638C40.1524 45.9091 40.0962 45.8639 40.0329 45.8309C39.9696 45.7979 39.9003 45.7777 39.8292 45.7714C39.758 45.7652 39.6864 45.773 39.6182 45.7944C39.5501 45.8159 39.4869 45.8505 39.4321 45.8964C39.3774 45.9423 39.3322 45.9985 39.2992 46.0618C39.2662 46.1252 39.246 46.1944 39.2398 46.2655C39.2335 46.3367 39.2413 46.4084 39.2628 46.4765C39.2842 46.5446 39.3189 46.6079 39.3647 46.6626ZM44.5367 45.763H54.2754C54.4175 45.7592 54.5525 45.7 54.6516 45.5982C54.7507 45.4963 54.8062 45.3598 54.8062 45.2176C54.8062 45.0755 54.7507 44.9389 54.6516 44.8371C54.5525 44.7352 54.4175 44.6761 54.2754 44.6722H44.5379C44.3958 44.6761 44.2608 44.7352 44.1617 44.8371C44.0625 44.9389 44.0071 45.0755 44.0071 45.2176C44.0071 45.3598 44.0625 45.4963 44.1617 45.5982C44.2608 45.7 44.3958 45.7592 44.5379 45.763H44.5367ZM44.5367 48.1886H54.2754C54.4175 48.1847 54.5525 48.1256 54.6516 48.0237C54.7507 47.9219 54.8062 47.7853 54.8062 47.6432C54.8062 47.501 54.7507 47.3645 54.6516 47.2627C54.5525 47.1608 54.4175 47.1016 54.2754 47.0978H44.5379C44.3958 47.1016 44.2608 47.1608 44.1617 47.2627C44.0625 47.3645 44.0071 47.501 44.0071 47.6432C44.0071 47.7853 44.0625 47.9219 44.1617 48.0237C44.2608 48.1256 44.3958 48.1847 44.5379 48.1886H44.5367ZM39.3647 52.9601L40.1583 53.9025C40.2511 54.0126 40.3837 54.0814 40.5271 54.0938C40.6705 54.1061 40.8129 54.0611 40.9231 53.9685L42.8707 52.3185C42.9809 52.2254 43.0495 52.0922 43.0615 51.9484C43.0735 51.8046 43.0279 51.6619 42.9347 51.5518C42.8415 51.4416 42.7084 51.373 42.5646 51.3609C42.4208 51.3489 42.2781 51.3946 42.1679 51.4878L40.6351 52.7857L40.1951 52.2613C40.1499 52.2049 40.0938 52.1581 40.0301 52.1237C39.9665 52.0892 39.8966 52.0679 39.8246 52.0608C39.7526 52.0538 39.6799 52.0612 39.6108 52.0827C39.5418 52.1041 39.4776 52.1392 39.4223 52.1857C39.3669 52.2323 39.3214 52.2895 39.2885 52.3539C39.2556 52.4183 39.2358 52.4887 39.2305 52.5608C39.2251 52.633 39.2342 52.7055 39.2573 52.774C39.2803 52.8426 39.3169 52.9059 39.3647 52.9601ZM44.5367 52.061H54.2754C54.4175 52.0571 54.5525 51.998 54.6516 51.8961C54.7507 51.7942 54.8062 51.6577 54.8062 51.5156C54.8062 51.3734 54.7507 51.2369 54.6516 51.135C54.5525 51.0332 54.4175 50.974 54.2754 50.9702H44.5379C44.3958 50.974 44.2608 51.0332 44.1617 51.135C44.0625 51.2369 44.0071 51.3734 44.0071 51.5156C44.0071 51.6577 44.0625 51.7942 44.1617 51.8961C44.2608 51.998 44.3958 52.0571 44.5379 52.061H44.5367ZM44.5367 54.4861H54.2754C54.4175 54.4823 54.5525 54.4231 54.6516 54.3213C54.7507 54.2194 54.8062 54.0829 54.8062 53.9407C54.8062 53.7986 54.7507 53.6621 54.6516 53.5602C54.5525 53.4583 54.4175 53.3992 54.2754 53.3953H44.5379C44.3958 53.3992 44.2608 53.4583 44.1617 53.5602C44.0625 53.6621 44.0071 53.7986 44.0071 53.9407C44.0071 54.0829 44.0625 54.2194 44.1617 54.3213C44.2608 54.4231 44.3958 54.4823 44.5379 54.4861H44.5367ZM39.3647 59.2565L40.1595 60.2001C40.2054 60.2547 40.2615 60.2997 40.3248 60.3325C40.388 60.3654 40.4572 60.3855 40.5282 60.3917C40.5992 60.3978 40.6707 60.39 40.7387 60.3685C40.8067 60.347 40.8697 60.3123 40.9243 60.2665L42.8719 58.6165C42.9265 58.5703 42.9714 58.5139 43.0041 58.4504C43.0369 58.3869 43.0568 58.3176 43.0627 58.2463C43.0687 58.1751 43.0605 58.1035 43.0388 58.0354C43.017 57.9674 42.9821 57.9042 42.9359 57.8497C42.8898 57.7951 42.8333 57.7502 42.7698 57.7175C42.7063 57.6847 42.637 57.6648 42.5658 57.6589C42.4946 57.6529 42.4229 57.6611 42.3548 57.6828C42.2868 57.7046 42.2237 57.7395 42.1691 57.7857L40.6363 59.0837L40.1963 58.5593C40.1513 58.5025 40.0953 58.4552 40.0317 58.4204C39.968 58.3856 39.8981 58.3638 39.8259 58.3565C39.7538 58.3492 39.6809 58.3564 39.6115 58.3777C39.5422 58.399 39.4779 58.434 39.4223 58.4806C39.3667 58.5272 39.321 58.5844 39.2879 58.649C39.2549 58.7135 39.2351 58.784 39.2297 58.8564C39.2243 58.9287 39.2335 59.0014 39.2567 59.0701C39.2799 59.1388 39.3166 59.2022 39.3647 59.2565ZM44.5367 58.3569H54.2754C54.4175 58.353 54.5525 58.2939 54.6516 58.192C54.7507 58.0902 54.8062 57.9536 54.8062 57.8115C54.8062 57.6694 54.7507 57.5328 54.6516 57.431C54.5525 57.3291 54.4175 57.27 54.2754 57.2661H44.5379C44.3958 57.27 44.2608 57.3291 44.1617 57.431C44.0625 57.5328 44.0071 57.6694 44.0071 57.8115C44.0071 57.9536 44.0625 58.0902 44.1617 58.192C44.2608 58.2939 44.3958 58.353 44.5379 58.3569H44.5367ZM44.5367 60.7825H54.2754C54.4175 60.7786 54.5525 60.7195 54.6516 60.6176C54.7507 60.5157 54.8062 60.3792 54.8062 60.2371C54.8062 60.0949 54.7507 59.9584 54.6516 59.8565C54.5525 59.7547 54.4175 59.6955 54.2754 59.6917H44.5379C44.3958 59.6955 44.2608 59.7547 44.1617 59.8565C44.0625 59.9584 44.0071 60.0949 44.0071 60.2371C44.0071 60.3792 44.0625 60.5157 44.1617 60.6176C44.2608 60.7195 44.3958 60.7786 44.5379 60.7825H44.5367ZM64.5545 60.1501L66.0765 62.7628L67.3505 60.1501H64.5545ZM68.7029 59.8637L66.6109 64.1568C66.5664 64.248 66.4974 64.3249 66.4117 64.379C66.3259 64.433 66.2267 64.4621 66.1254 64.463C66.024 64.4638 65.9244 64.4363 65.8377 64.3837C65.7511 64.331 65.6808 64.2552 65.6349 64.1648L63.1549 59.9113C63.0935 59.8209 63.0608 59.7141 63.0609 59.6049V40.9375C63.0618 40.5179 63.2289 40.1158 63.5258 39.8193C63.8226 39.5229 64.2249 39.3562 64.6445 39.3559H67.1885C67.6076 39.3568 68.0093 39.5238 68.3056 39.8202C68.602 40.1166 68.7688 40.5183 68.7697 40.9375V59.6049C68.7698 59.6952 68.7474 59.7842 68.7045 59.8637H68.7029ZM64.1537 41.817H67.6785V40.9371C67.6777 40.8072 67.6258 40.6829 67.534 40.5911C67.4422 40.4993 67.3179 40.4474 67.1881 40.4467H64.6445C64.5147 40.4474 64.3904 40.4993 64.2985 40.5911C64.2067 40.6829 64.1548 40.8072 64.1541 40.9371V41.817H64.1537ZM64.1537 44.4006H67.6785V42.9078H64.1537V44.4006ZM66.4617 45.4914V59.0593H67.6785V45.4914H66.4617ZM65.3709 59.0593V45.4914H64.1537V59.0593H65.3709Z" stroke="#65221A" stroke-width="0.6" mask="url(#path-2-outside-1_1378_763)"/>
</svg>
