<svg width="101" height="100" viewBox="0 0 101 100" fill="none" xmlns="http://www.w3.org/2000/svg">
<circle cx="50.5" cy="50" r="50" fill="#F7F4F4"/>
<mask id="path-2-outside-1_1378_741" maskUnits="userSpaceOnUse" x="29.5" y="31" width="41" height="38" fill="black">
<rect fill="white" x="29.5" y="31" width="41" height="38"/>
<path d="M64.9413 32H35.5297C34.1962 32.0017 32.9179 32.5321 31.975 33.475C31.0321 34.4179 30.5017 35.6962 30.5 37.0297V55.8537C30.5018 57.1871 31.0323 58.4653 31.9752 59.4081C32.918 60.3509 34.1963 60.8813 35.5297 60.883H44.8122C44.8135 61.4063 44.6696 61.9197 44.3964 62.3661C44.1232 62.8124 43.7314 63.1741 43.2647 63.4109H41.794C41.1856 63.4115 40.6023 63.6534 40.1722 64.0836C39.742 64.5138 39.5 65.0971 39.4994 65.7055V67.4407C39.4994 67.5141 39.5139 67.5869 39.542 67.6547C39.5701 67.7226 39.6113 67.7842 39.6633 67.8362C39.7152 67.8881 39.7768 67.9293 39.8447 67.9574C39.9126 67.9855 39.9853 68 40.0587 68H60.4117C60.4852 68 60.5579 67.9855 60.6258 67.9574C60.6936 67.9293 60.7553 67.8881 60.8072 67.8362C60.8592 67.7842 60.9004 67.7226 60.9285 67.6547C60.9566 67.5869 60.9711 67.5141 60.9711 67.4407V65.7059C60.9705 65.0976 60.7286 64.5144 60.2985 64.0842C59.8684 63.6541 59.2852 63.4121 58.677 63.4114H56.9268C56.4601 63.1746 56.0683 62.8128 55.7951 62.3665C55.5219 61.9202 55.378 61.4067 55.3794 60.8834H64.9413C66.2748 60.8818 67.5532 60.3512 68.4961 59.4083C69.439 58.4653 69.9694 57.1868 69.9709 55.8533V37.0292C69.9691 35.6959 69.4386 34.4176 68.4958 33.4748C67.5529 32.5321 66.2746 32.0017 64.9413 32ZM35.5297 33.1173H64.9413C65.9782 33.1185 66.9723 33.5309 67.7055 34.2641C68.4387 34.9973 68.8511 35.9914 68.8523 37.0283V55.2926H31.6186V37.0297C31.6194 35.9925 32.0317 34.9981 32.765 34.2646C33.4982 33.5311 34.4925 33.1185 35.5297 33.1173ZM59.8506 65.7059V66.8832H40.6203V65.7059C40.6207 65.3945 40.7444 65.096 40.9643 64.8756C41.1843 64.6552 41.4826 64.5309 41.794 64.53H58.677C58.9883 64.5309 59.2866 64.6552 59.5066 64.8756C59.7266 65.096 59.8503 65.3945 59.8506 65.7059ZM55.1771 63.4114H45.0252C45.6189 62.7036 45.9403 61.8071 45.9317 60.8834H54.2612C54.2611 61.8073 54.5853 62.7019 55.1771 63.4114ZM64.9413 59.7644H35.5297C34.5897 59.763 33.6816 59.4237 32.971 58.8084C32.2604 58.1931 31.7949 57.3427 31.6592 56.4126H68.8108C68.6752 57.3426 68.2097 58.1928 67.4994 58.8081C66.789 59.4234 65.8811 59.7628 64.9413 59.7644ZM50.7948 58.0806V58.0977C50.7948 58.2461 50.7358 58.3883 50.631 58.4932C50.5261 58.5981 50.3838 58.657 50.2355 58.657C50.0871 58.657 49.9449 58.5981 49.84 58.4932C49.7351 58.3883 49.6762 58.2461 49.6762 58.0977V58.0806C49.6762 57.9322 49.7351 57.79 49.84 57.6851C49.9449 57.5802 50.0871 57.5213 50.2355 57.5213C50.3838 57.5213 50.5261 57.5802 50.631 57.6851C50.7358 57.79 50.7948 57.9322 50.7948 58.0806ZM59.4444 48.7683V50.8836C59.4439 51.4608 59.2144 52.0143 58.8063 52.4225C58.3982 52.8306 57.8448 53.0602 57.2676 53.0608H54.9018C54.7534 53.0608 54.6112 53.0019 54.5063 52.897C54.4014 52.7921 54.3425 52.6499 54.3425 52.5015C54.3425 52.3532 54.4014 52.2109 54.5063 52.106C54.6112 52.0011 54.7534 51.9422 54.9018 51.9422H57.2663C57.5469 51.9419 57.8159 51.8302 58.0142 51.6317C58.2126 51.4333 58.3242 51.1642 58.3244 50.8836V48.7683C58.3244 48.62 58.3833 48.4777 58.4882 48.3728C58.5931 48.2679 58.7354 48.209 58.8837 48.209C59.032 48.209 59.1743 48.2679 59.2792 48.3728C59.3841 48.4777 59.443 48.62 59.443 48.7683H59.4444ZM54.3434 35.7025C54.3434 35.5542 54.4023 35.4119 54.5072 35.307C54.6121 35.2021 54.7543 35.1432 54.9027 35.1432H57.2672C57.8444 35.1437 58.3978 35.3732 58.806 35.7813C59.2142 36.1894 59.4438 36.7427 59.4444 37.3199V39.4371C59.4444 39.5854 59.3854 39.7277 59.2805 39.8326C59.1757 39.9375 59.0334 39.9964 58.8851 39.9964C58.7367 39.9964 58.5945 39.9375 58.4896 39.8326C58.3847 39.7277 58.3258 39.5854 58.3258 39.4371V37.3199C58.3254 37.0394 58.2138 36.7705 58.0154 36.5721C57.8171 36.3738 57.5482 36.2622 57.2676 36.2618H54.9018C54.7536 36.2616 54.6115 36.2026 54.5069 36.0977C54.4022 35.9928 54.3434 35.8507 54.3434 35.7025ZM41.0266 50.8836V48.7683C41.0266 48.62 41.0855 48.4777 41.1904 48.3728C41.2953 48.2679 41.4375 48.209 41.5859 48.209C41.7342 48.209 41.8765 48.2679 41.9814 48.3728C42.0863 48.4777 42.1452 48.62 42.1452 48.7683V50.8836C42.1457 51.1643 42.2575 51.4333 42.4561 51.6316C42.6548 51.8299 42.924 51.9413 43.2047 51.9413H45.5692C45.7175 51.9413 45.8598 52.0002 45.9647 52.1051C46.0696 52.21 46.1285 52.3523 46.1285 52.5006C46.1285 52.649 46.0696 52.7912 45.9647 52.8961C45.8598 53.001 45.7175 53.0599 45.5692 53.0599H43.2047C42.6274 53.0597 42.0738 52.8304 41.6654 52.4224C41.2571 52.0143 41.0273 51.4609 41.0266 50.8836ZM41.0266 39.4357V37.3199C41.0272 36.7428 41.2567 36.1895 41.6648 35.7814C42.0729 35.3733 42.6262 35.1438 43.2033 35.1432H45.5678C45.7162 35.1432 45.8584 35.2021 45.9633 35.307C46.0682 35.4119 46.1271 35.5542 46.1271 35.7025C46.1271 35.8509 46.0682 35.9931 45.9633 36.098C45.8584 36.2029 45.7162 36.2618 45.5678 36.2618H43.2047C42.9241 36.2622 42.6552 36.3738 42.4569 36.5721C42.2585 36.7705 42.1469 37.0394 42.1465 37.3199V39.4371C42.1465 39.5854 42.0876 39.7277 41.9827 39.8326C41.8778 39.9375 41.7356 39.9964 41.5872 39.9964C41.4389 39.9964 41.2966 39.9375 41.1917 39.8326C41.0869 39.7277 41.0279 39.5854 41.0279 39.4371L41.0266 39.4357ZM44.363 40.3137V47.8903C44.3637 48.4081 44.5697 48.9044 44.9359 49.2705C45.3021 49.6366 45.7985 49.8425 46.3163 49.8431H54.1533C54.6711 49.8425 55.1675 49.6366 55.5337 49.2705C55.8998 48.9044 56.1059 48.4081 56.1066 47.8903V40.3137C56.106 39.7959 55.9 39.2995 55.5338 38.9334C55.1676 38.5673 54.6711 38.3614 54.1533 38.3609H46.3176C45.7998 38.3614 45.3033 38.5673 44.9371 38.9334C44.5709 39.2995 44.3649 39.7959 44.3643 40.3137H44.363ZM49.139 39.4795H51.3293V42.444H49.1403L49.139 39.4795ZM45.4825 40.3137C45.4827 40.0925 45.5708 39.8804 45.7273 39.724C45.8838 39.5676 46.0959 39.4796 46.3172 39.4795H48.0235V43.0033C48.0235 43.1516 48.0825 43.2939 48.1873 43.3988C48.2922 43.5037 48.4345 43.5626 48.5828 43.5626H51.8917C52.0394 43.5616 52.1808 43.5023 52.2849 43.3975C52.389 43.2927 52.4474 43.151 52.4474 43.0033V39.4795H54.1515C54.3728 39.4796 54.5849 39.5676 54.7414 39.724C54.8979 39.8804 54.9859 40.0925 54.9862 40.3137V47.8903C54.9859 48.1116 54.8979 48.3237 54.7414 48.4801C54.5849 48.6365 54.3728 48.7244 54.1515 48.7245H46.3176C46.0964 48.7244 45.8842 48.6365 45.7277 48.4801C45.5712 48.3237 45.4832 48.1116 45.483 47.8903L45.4825 40.3137ZM49.4748 46.4115C49.4748 46.2631 49.5338 46.1209 49.6386 46.016C49.7435 45.9111 49.8858 45.8522 50.0341 45.8522H51.1956C51.344 45.8522 51.4862 45.9111 51.5911 46.016C51.696 46.1209 51.7549 46.2631 51.7549 46.4115C51.7549 46.5598 51.696 46.7021 51.5911 46.807C51.4862 46.9118 51.344 46.9708 51.1956 46.9708H50.0341C49.8858 46.9708 49.7435 46.9118 49.6386 46.807C49.5338 46.7021 49.4748 46.5598 49.4748 46.4115Z"/>
</mask>
<path d="M64.9413 32H35.5297C34.1962 32.0017 32.9179 32.5321 31.975 33.475C31.0321 34.4179 30.5017 35.6962 30.5 37.0297V55.8537C30.5018 57.1871 31.0323 58.4653 31.9752 59.4081C32.918 60.3509 34.1963 60.8813 35.5297 60.883H44.8122C44.8135 61.4063 44.6696 61.9197 44.3964 62.3661C44.1232 62.8124 43.7314 63.1741 43.2647 63.4109H41.794C41.1856 63.4115 40.6023 63.6534 40.1722 64.0836C39.742 64.5138 39.5 65.0971 39.4994 65.7055V67.4407C39.4994 67.5141 39.5139 67.5869 39.542 67.6547C39.5701 67.7226 39.6113 67.7842 39.6633 67.8362C39.7152 67.8881 39.7768 67.9293 39.8447 67.9574C39.9126 67.9855 39.9853 68 40.0587 68H60.4117C60.4852 68 60.5579 67.9855 60.6258 67.9574C60.6936 67.9293 60.7553 67.8881 60.8072 67.8362C60.8592 67.7842 60.9004 67.7226 60.9285 67.6547C60.9566 67.5869 60.9711 67.5141 60.9711 67.4407V65.7059C60.9705 65.0976 60.7286 64.5144 60.2985 64.0842C59.8684 63.6541 59.2852 63.4121 58.677 63.4114H56.9268C56.4601 63.1746 56.0683 62.8128 55.7951 62.3665C55.5219 61.9202 55.378 61.4067 55.3794 60.8834H64.9413C66.2748 60.8818 67.5532 60.3512 68.4961 59.4083C69.439 58.4653 69.9694 57.1868 69.9709 55.8533V37.0292C69.9691 35.6959 69.4386 34.4176 68.4958 33.4748C67.5529 32.5321 66.2746 32.0017 64.9413 32ZM35.5297 33.1173H64.9413C65.9782 33.1185 66.9723 33.5309 67.7055 34.2641C68.4387 34.9973 68.8511 35.9914 68.8523 37.0283V55.2926H31.6186V37.0297C31.6194 35.9925 32.0317 34.9981 32.765 34.2646C33.4982 33.5311 34.4925 33.1185 35.5297 33.1173ZM59.8506 65.7059V66.8832H40.6203V65.7059C40.6207 65.3945 40.7444 65.096 40.9643 64.8756C41.1843 64.6552 41.4826 64.5309 41.794 64.53H58.677C58.9883 64.5309 59.2866 64.6552 59.5066 64.8756C59.7266 65.096 59.8503 65.3945 59.8506 65.7059ZM55.1771 63.4114H45.0252C45.6189 62.7036 45.9403 61.8071 45.9317 60.8834H54.2612C54.2611 61.8073 54.5853 62.7019 55.1771 63.4114ZM64.9413 59.7644H35.5297C34.5897 59.763 33.6816 59.4237 32.971 58.8084C32.2604 58.1931 31.7949 57.3427 31.6592 56.4126H68.8108C68.6752 57.3426 68.2097 58.1928 67.4994 58.8081C66.789 59.4234 65.8811 59.7628 64.9413 59.7644ZM50.7948 58.0806V58.0977C50.7948 58.2461 50.7358 58.3883 50.631 58.4932C50.5261 58.5981 50.3838 58.657 50.2355 58.657C50.0871 58.657 49.9449 58.5981 49.84 58.4932C49.7351 58.3883 49.6762 58.2461 49.6762 58.0977V58.0806C49.6762 57.9322 49.7351 57.79 49.84 57.6851C49.9449 57.5802 50.0871 57.5213 50.2355 57.5213C50.3838 57.5213 50.5261 57.5802 50.631 57.6851C50.7358 57.79 50.7948 57.9322 50.7948 58.0806ZM59.4444 48.7683V50.8836C59.4439 51.4608 59.2144 52.0143 58.8063 52.4225C58.3982 52.8306 57.8448 53.0602 57.2676 53.0608H54.9018C54.7534 53.0608 54.6112 53.0019 54.5063 52.897C54.4014 52.7921 54.3425 52.6499 54.3425 52.5015C54.3425 52.3532 54.4014 52.2109 54.5063 52.106C54.6112 52.0011 54.7534 51.9422 54.9018 51.9422H57.2663C57.5469 51.9419 57.8159 51.8302 58.0142 51.6317C58.2126 51.4333 58.3242 51.1642 58.3244 50.8836V48.7683C58.3244 48.62 58.3833 48.4777 58.4882 48.3728C58.5931 48.2679 58.7354 48.209 58.8837 48.209C59.032 48.209 59.1743 48.2679 59.2792 48.3728C59.3841 48.4777 59.443 48.62 59.443 48.7683H59.4444ZM54.3434 35.7025C54.3434 35.5542 54.4023 35.4119 54.5072 35.307C54.6121 35.2021 54.7543 35.1432 54.9027 35.1432H57.2672C57.8444 35.1437 58.3978 35.3732 58.806 35.7813C59.2142 36.1894 59.4438 36.7427 59.4444 37.3199V39.4371C59.4444 39.5854 59.3854 39.7277 59.2805 39.8326C59.1757 39.9375 59.0334 39.9964 58.8851 39.9964C58.7367 39.9964 58.5945 39.9375 58.4896 39.8326C58.3847 39.7277 58.3258 39.5854 58.3258 39.4371V37.3199C58.3254 37.0394 58.2138 36.7705 58.0154 36.5721C57.8171 36.3738 57.5482 36.2622 57.2676 36.2618H54.9018C54.7536 36.2616 54.6115 36.2026 54.5069 36.0977C54.4022 35.9928 54.3434 35.8507 54.3434 35.7025ZM41.0266 50.8836V48.7683C41.0266 48.62 41.0855 48.4777 41.1904 48.3728C41.2953 48.2679 41.4375 48.209 41.5859 48.209C41.7342 48.209 41.8765 48.2679 41.9814 48.3728C42.0863 48.4777 42.1452 48.62 42.1452 48.7683V50.8836C42.1457 51.1643 42.2575 51.4333 42.4561 51.6316C42.6548 51.8299 42.924 51.9413 43.2047 51.9413H45.5692C45.7175 51.9413 45.8598 52.0002 45.9647 52.1051C46.0696 52.21 46.1285 52.3523 46.1285 52.5006C46.1285 52.649 46.0696 52.7912 45.9647 52.8961C45.8598 53.001 45.7175 53.0599 45.5692 53.0599H43.2047C42.6274 53.0597 42.0738 52.8304 41.6654 52.4224C41.2571 52.0143 41.0273 51.4609 41.0266 50.8836ZM41.0266 39.4357V37.3199C41.0272 36.7428 41.2567 36.1895 41.6648 35.7814C42.0729 35.3733 42.6262 35.1438 43.2033 35.1432H45.5678C45.7162 35.1432 45.8584 35.2021 45.9633 35.307C46.0682 35.4119 46.1271 35.5542 46.1271 35.7025C46.1271 35.8509 46.0682 35.9931 45.9633 36.098C45.8584 36.2029 45.7162 36.2618 45.5678 36.2618H43.2047C42.9241 36.2622 42.6552 36.3738 42.4569 36.5721C42.2585 36.7705 42.1469 37.0394 42.1465 37.3199V39.4371C42.1465 39.5854 42.0876 39.7277 41.9827 39.8326C41.8778 39.9375 41.7356 39.9964 41.5872 39.9964C41.4389 39.9964 41.2966 39.9375 41.1917 39.8326C41.0869 39.7277 41.0279 39.5854 41.0279 39.4371L41.0266 39.4357ZM44.363 40.3137V47.8903C44.3637 48.4081 44.5697 48.9044 44.9359 49.2705C45.3021 49.6366 45.7985 49.8425 46.3163 49.8431H54.1533C54.6711 49.8425 55.1675 49.6366 55.5337 49.2705C55.8998 48.9044 56.1059 48.4081 56.1066 47.8903V40.3137C56.106 39.7959 55.9 39.2995 55.5338 38.9334C55.1676 38.5673 54.6711 38.3614 54.1533 38.3609H46.3176C45.7998 38.3614 45.3033 38.5673 44.9371 38.9334C44.5709 39.2995 44.3649 39.7959 44.3643 40.3137H44.363ZM49.139 39.4795H51.3293V42.444H49.1403L49.139 39.4795ZM45.4825 40.3137C45.4827 40.0925 45.5708 39.8804 45.7273 39.724C45.8838 39.5676 46.0959 39.4796 46.3172 39.4795H48.0235V43.0033C48.0235 43.1516 48.0825 43.2939 48.1873 43.3988C48.2922 43.5037 48.4345 43.5626 48.5828 43.5626H51.8917C52.0394 43.5616 52.1808 43.5023 52.2849 43.3975C52.389 43.2927 52.4474 43.151 52.4474 43.0033V39.4795H54.1515C54.3728 39.4796 54.5849 39.5676 54.7414 39.724C54.8979 39.8804 54.9859 40.0925 54.9862 40.3137V47.8903C54.9859 48.1116 54.8979 48.3237 54.7414 48.4801C54.5849 48.6365 54.3728 48.7244 54.1515 48.7245H46.3176C46.0964 48.7244 45.8842 48.6365 45.7277 48.4801C45.5712 48.3237 45.4832 48.1116 45.483 47.8903L45.4825 40.3137ZM49.4748 46.4115C49.4748 46.2631 49.5338 46.1209 49.6386 46.016C49.7435 45.9111 49.8858 45.8522 50.0341 45.8522H51.1956C51.344 45.8522 51.4862 45.9111 51.5911 46.016C51.696 46.1209 51.7549 46.2631 51.7549 46.4115C51.7549 46.5598 51.696 46.7021 51.5911 46.807C51.4862 46.9118 51.344 46.9708 51.1956 46.9708H50.0341C49.8858 46.9708 49.7435 46.9118 49.6386 46.807C49.5338 46.7021 49.4748 46.5598 49.4748 46.4115Z" fill="#65221A"/>
<path d="M64.9413 32H35.5297C34.1962 32.0017 32.9179 32.5321 31.975 33.475C31.0321 34.4179 30.5017 35.6962 30.5 37.0297V55.8537C30.5018 57.1871 31.0323 58.4653 31.9752 59.4081C32.918 60.3509 34.1963 60.8813 35.5297 60.883H44.8122C44.8135 61.4063 44.6696 61.9197 44.3964 62.3661C44.1232 62.8124 43.7314 63.1741 43.2647 63.4109H41.794C41.1856 63.4115 40.6023 63.6534 40.1722 64.0836C39.742 64.5138 39.5 65.0971 39.4994 65.7055V67.4407C39.4994 67.5141 39.5139 67.5869 39.542 67.6547C39.5701 67.7226 39.6113 67.7842 39.6633 67.8362C39.7152 67.8881 39.7768 67.9293 39.8447 67.9574C39.9126 67.9855 39.9853 68 40.0587 68H60.4117C60.4852 68 60.5579 67.9855 60.6258 67.9574C60.6936 67.9293 60.7553 67.8881 60.8072 67.8362C60.8592 67.7842 60.9004 67.7226 60.9285 67.6547C60.9566 67.5869 60.9711 67.5141 60.9711 67.4407V65.7059C60.9705 65.0976 60.7286 64.5144 60.2985 64.0842C59.8684 63.6541 59.2852 63.4121 58.677 63.4114H56.9268C56.4601 63.1746 56.0683 62.8128 55.7951 62.3665C55.5219 61.9202 55.378 61.4067 55.3794 60.8834H64.9413C66.2748 60.8818 67.5532 60.3512 68.4961 59.4083C69.439 58.4653 69.9694 57.1868 69.9709 55.8533V37.0292C69.9691 35.6959 69.4386 34.4176 68.4958 33.4748C67.5529 32.5321 66.2746 32.0017 64.9413 32ZM35.5297 33.1173H64.9413C65.9782 33.1185 66.9723 33.5309 67.7055 34.2641C68.4387 34.9973 68.8511 35.9914 68.8523 37.0283V55.2926H31.6186V37.0297C31.6194 35.9925 32.0317 34.9981 32.765 34.2646C33.4982 33.5311 34.4925 33.1185 35.5297 33.1173ZM59.8506 65.7059V66.8832H40.6203V65.7059C40.6207 65.3945 40.7444 65.096 40.9643 64.8756C41.1843 64.6552 41.4826 64.5309 41.794 64.53H58.677C58.9883 64.5309 59.2866 64.6552 59.5066 64.8756C59.7266 65.096 59.8503 65.3945 59.8506 65.7059ZM55.1771 63.4114H45.0252C45.6189 62.7036 45.9403 61.8071 45.9317 60.8834H54.2612C54.2611 61.8073 54.5853 62.7019 55.1771 63.4114ZM64.9413 59.7644H35.5297C34.5897 59.763 33.6816 59.4237 32.971 58.8084C32.2604 58.1931 31.7949 57.3427 31.6592 56.4126H68.8108C68.6752 57.3426 68.2097 58.1928 67.4994 58.8081C66.789 59.4234 65.8811 59.7628 64.9413 59.7644ZM50.7948 58.0806V58.0977C50.7948 58.2461 50.7358 58.3883 50.631 58.4932C50.5261 58.5981 50.3838 58.657 50.2355 58.657C50.0871 58.657 49.9449 58.5981 49.84 58.4932C49.7351 58.3883 49.6762 58.2461 49.6762 58.0977V58.0806C49.6762 57.9322 49.7351 57.79 49.84 57.6851C49.9449 57.5802 50.0871 57.5213 50.2355 57.5213C50.3838 57.5213 50.5261 57.5802 50.631 57.6851C50.7358 57.79 50.7948 57.9322 50.7948 58.0806ZM59.4444 48.7683V50.8836C59.4439 51.4608 59.2144 52.0143 58.8063 52.4225C58.3982 52.8306 57.8448 53.0602 57.2676 53.0608H54.9018C54.7534 53.0608 54.6112 53.0019 54.5063 52.897C54.4014 52.7921 54.3425 52.6499 54.3425 52.5015C54.3425 52.3532 54.4014 52.2109 54.5063 52.106C54.6112 52.0011 54.7534 51.9422 54.9018 51.9422H57.2663C57.5469 51.9419 57.8159 51.8302 58.0142 51.6317C58.2126 51.4333 58.3242 51.1642 58.3244 50.8836V48.7683C58.3244 48.62 58.3833 48.4777 58.4882 48.3728C58.5931 48.2679 58.7354 48.209 58.8837 48.209C59.032 48.209 59.1743 48.2679 59.2792 48.3728C59.3841 48.4777 59.443 48.62 59.443 48.7683H59.4444ZM54.3434 35.7025C54.3434 35.5542 54.4023 35.4119 54.5072 35.307C54.6121 35.2021 54.7543 35.1432 54.9027 35.1432H57.2672C57.8444 35.1437 58.3978 35.3732 58.806 35.7813C59.2142 36.1894 59.4438 36.7427 59.4444 37.3199V39.4371C59.4444 39.5854 59.3854 39.7277 59.2805 39.8326C59.1757 39.9375 59.0334 39.9964 58.8851 39.9964C58.7367 39.9964 58.5945 39.9375 58.4896 39.8326C58.3847 39.7277 58.3258 39.5854 58.3258 39.4371V37.3199C58.3254 37.0394 58.2138 36.7705 58.0154 36.5721C57.8171 36.3738 57.5482 36.2622 57.2676 36.2618H54.9018C54.7536 36.2616 54.6115 36.2026 54.5069 36.0977C54.4022 35.9928 54.3434 35.8507 54.3434 35.7025ZM41.0266 50.8836V48.7683C41.0266 48.62 41.0855 48.4777 41.1904 48.3728C41.2953 48.2679 41.4375 48.209 41.5859 48.209C41.7342 48.209 41.8765 48.2679 41.9814 48.3728C42.0863 48.4777 42.1452 48.62 42.1452 48.7683V50.8836C42.1457 51.1643 42.2575 51.4333 42.4561 51.6316C42.6548 51.8299 42.924 51.9413 43.2047 51.9413H45.5692C45.7175 51.9413 45.8598 52.0002 45.9647 52.1051C46.0696 52.21 46.1285 52.3523 46.1285 52.5006C46.1285 52.649 46.0696 52.7912 45.9647 52.8961C45.8598 53.001 45.7175 53.0599 45.5692 53.0599H43.2047C42.6274 53.0597 42.0738 52.8304 41.6654 52.4224C41.2571 52.0143 41.0273 51.4609 41.0266 50.8836ZM41.0266 39.4357V37.3199C41.0272 36.7428 41.2567 36.1895 41.6648 35.7814C42.0729 35.3733 42.6262 35.1438 43.2033 35.1432H45.5678C45.7162 35.1432 45.8584 35.2021 45.9633 35.307C46.0682 35.4119 46.1271 35.5542 46.1271 35.7025C46.1271 35.8509 46.0682 35.9931 45.9633 36.098C45.8584 36.2029 45.7162 36.2618 45.5678 36.2618H43.2047C42.9241 36.2622 42.6552 36.3738 42.4569 36.5721C42.2585 36.7705 42.1469 37.0394 42.1465 37.3199V39.4371C42.1465 39.5854 42.0876 39.7277 41.9827 39.8326C41.8778 39.9375 41.7356 39.9964 41.5872 39.9964C41.4389 39.9964 41.2966 39.9375 41.1917 39.8326C41.0869 39.7277 41.0279 39.5854 41.0279 39.4371L41.0266 39.4357ZM44.363 40.3137V47.8903C44.3637 48.4081 44.5697 48.9044 44.9359 49.2705C45.3021 49.6366 45.7985 49.8425 46.3163 49.8431H54.1533C54.6711 49.8425 55.1675 49.6366 55.5337 49.2705C55.8998 48.9044 56.1059 48.4081 56.1066 47.8903V40.3137C56.106 39.7959 55.9 39.2995 55.5338 38.9334C55.1676 38.5673 54.6711 38.3614 54.1533 38.3609H46.3176C45.7998 38.3614 45.3033 38.5673 44.9371 38.9334C44.5709 39.2995 44.3649 39.7959 44.3643 40.3137H44.363ZM49.139 39.4795H51.3293V42.444H49.1403L49.139 39.4795ZM45.4825 40.3137C45.4827 40.0925 45.5708 39.8804 45.7273 39.724C45.8838 39.5676 46.0959 39.4796 46.3172 39.4795H48.0235V43.0033C48.0235 43.1516 48.0825 43.2939 48.1873 43.3988C48.2922 43.5037 48.4345 43.5626 48.5828 43.5626H51.8917C52.0394 43.5616 52.1808 43.5023 52.2849 43.3975C52.389 43.2927 52.4474 43.151 52.4474 43.0033V39.4795H54.1515C54.3728 39.4796 54.5849 39.5676 54.7414 39.724C54.8979 39.8804 54.9859 40.0925 54.9862 40.3137V47.8903C54.9859 48.1116 54.8979 48.3237 54.7414 48.4801C54.5849 48.6365 54.3728 48.7244 54.1515 48.7245H46.3176C46.0964 48.7244 45.8842 48.6365 45.7277 48.4801C45.5712 48.3237 45.4832 48.1116 45.483 47.8903L45.4825 40.3137ZM49.4748 46.4115C49.4748 46.2631 49.5338 46.1209 49.6386 46.016C49.7435 45.9111 49.8858 45.8522 50.0341 45.8522H51.1956C51.344 45.8522 51.4862 45.9111 51.5911 46.016C51.696 46.1209 51.7549 46.2631 51.7549 46.4115C51.7549 46.5598 51.696 46.7021 51.5911 46.807C51.4862 46.9118 51.344 46.9708 51.1956 46.9708H50.0341C49.8858 46.9708 49.7435 46.9118 49.6386 46.807C49.5338 46.7021 49.4748 46.5598 49.4748 46.4115Z" stroke="#65221A" stroke-width="0.6" mask="url(#path-2-outside-1_1378_741)"/>
</svg>
