<svg width="101" height="100" viewBox="0 0 101 100" fill="none" xmlns="http://www.w3.org/2000/svg">
<circle cx="50.5" cy="50" r="50" fill="#F7F4F4"/>
<path d="M50.4459 51.1622L65.6017 42.5704V52.1633C65.6017 52.3606 65.6681 52.5367 65.7953 52.6639C65.9224 52.791 66.0986 52.8575 66.2959 52.8575C66.4933 52.8575 66.6694 52.791 66.7965 52.6639C66.9237 52.5367 66.9901 52.3606 66.9901 52.1633V41.3878C66.9901 41.2757 66.9538 41.1561 66.8974 41.0513C66.8406 40.9459 66.7573 40.8438 66.6512 40.7732L66.6345 40.762L66.6212 40.7576C66.6197 40.7569 66.6174 40.7558 66.6141 40.7542C66.6049 40.7497 66.5916 40.7431 66.5741 40.7343C66.5392 40.7167 66.4894 40.6911 66.4255 40.658C66.2977 40.5918 66.1147 40.4961 65.8844 40.3752C65.4237 40.1332 64.7742 39.7904 63.9987 39.3802C62.4478 38.5596 60.3935 37.4696 58.3391 36.3777C56.2847 35.2859 54.2304 34.1924 52.6794 33.3651C51.904 32.9514 51.2544 32.6043 50.7937 32.3573C50.5633 32.2337 50.3802 32.1353 50.2523 32.0661C50.1883 32.0314 50.1383 32.0042 50.1032 31.9849C50.0786 31.9714 50.0643 31.9633 50.0575 31.9595C50.0533 31.9572 50.0519 31.9564 50.0526 31.9568C49.9462 31.8859 49.822 31.85 49.7041 31.85C49.595 31.85 49.4792 31.8813 49.3911 31.959L32.7547 41.0384L32.7544 41.0379L32.7433 41.0453C32.6445 41.1111 32.5497 41.2067 32.4787 41.3092C32.4101 41.4083 32.35 41.534 32.35 41.6599V57.551C32.35 57.8269 32.4911 58.0337 32.6889 58.1656L32.6887 58.166L32.6983 58.1714L49.3513 67.5864L49.3512 67.5865L49.3581 67.5899C49.6079 67.7149 49.8976 67.7313 50.1207 67.5165L53.2134 65.2918L53.2135 65.2919L53.2158 65.2901C53.5044 65.0737 53.5598 64.6585 53.3633 64.331L53.3593 64.3244L53.3547 64.3182C53.1445 64.0378 52.7254 63.964 52.4381 64.1786C52.4378 64.1789 52.4375 64.1791 52.4372 64.1793L50.4459 65.6363V51.1622ZM58.1997 37.9044L42.4965 46.426L42.4962 46.4254L42.4848 46.433C42.287 46.5649 42.1459 46.7717 42.1459 47.0476V51.3641L39.5071 49.8981V45.1775L55.5204 36.443L58.1997 37.9044ZM38.4576 50.9819L38.4573 50.9824L38.4681 50.9883L42.4903 53.2169C42.7033 53.3557 42.9836 53.3545 43.1954 53.2132C43.3933 53.0813 43.5344 52.8745 43.5344 52.5986V48.2247L49.0575 51.2186V65.8375L33.7384 57.1372V42.8379L38.1187 45.2318V50.3673C38.1187 50.6432 38.2598 50.8501 38.4576 50.9819ZM64.8447 41.4438L49.6966 49.9779L44.2952 46.9943L59.7104 38.6199L64.8447 41.4438ZM49.6979 33.341L54.0101 35.6746L38.8123 44.0468L34.5001 41.7131L49.6979 33.341Z" fill="#65221A" stroke="#65221A" stroke-width="0.3"/>
<path d="M66.7964 55.5195L66.7971 55.5186C67.0018 55.2456 67.0031 54.8349 66.7287 54.5606L65.5315 53.3633C65.3996 53.2315 65.2435 53.1586 65.08 53.1495C64.9174 53.1405 64.7609 53.1952 64.6279 53.2949L64.6279 53.2949L64.6235 53.2984L63.5615 54.1581C63.0628 53.8696 62.5621 53.6682 62.0215 53.5141L61.8185 52.1949L61.8187 52.1948L61.8174 52.1883C61.7522 51.8622 61.485 51.5779 61.1261 51.5779H59.439C59.0801 51.5779 58.8129 51.8622 58.7477 52.1883L58.7476 52.1882L58.7465 52.1949L58.5436 53.5141C58.002 53.6685 57.5004 53.8703 57.0007 54.1597L55.9381 53.3501L55.9381 53.3501L55.9372 53.3494C55.6769 53.1542 55.2557 53.131 55.0266 53.4247L53.8363 54.615C53.7045 54.7468 53.6316 54.903 53.6226 55.0665C53.6135 55.229 53.6683 55.3856 53.768 55.5186L53.768 55.5186L53.7687 55.5195L54.5783 56.5821C54.2889 57.0818 54.0871 57.5834 53.9328 58.125L52.6135 58.3279L52.6134 58.3278L52.6069 58.3291C52.2809 58.3943 51.9965 58.6614 51.9965 59.0204V60.7075C51.9965 61.0664 52.2809 61.3336 52.6069 61.3988L52.6068 61.3989L52.6135 61.3999L53.9328 61.6029C54.0871 62.1445 54.2889 62.646 54.5783 63.1457L53.7687 64.2084L53.768 64.2093C53.5728 64.4695 53.5496 64.8908 53.8433 65.1199L55.0336 66.3101C55.1654 66.442 55.3216 66.5148 55.4851 66.5239C55.6476 66.5329 55.8042 66.4782 55.9372 66.3785L55.9381 66.3778L57.0007 65.5682C57.5004 65.8575 58.002 66.0594 58.5436 66.2137L58.7465 67.533L58.7464 67.533L58.7477 67.5396C58.8129 67.8656 59.08 68.15 59.439 68.15H61.1261C61.485 68.15 61.7522 67.8656 61.8174 67.5396L61.8175 67.5396L61.8185 67.533L62.0215 66.2137C62.5631 66.0594 63.0647 65.8575 63.5644 65.5682L64.627 66.3778L64.6382 66.3863L64.6508 66.3927C64.6549 66.3947 64.6591 66.3968 64.6634 66.3989C64.7627 66.4487 64.8995 66.5173 65.0444 66.5173C65.2375 66.5173 65.4425 66.4535 65.5859 66.3101L66.7832 65.1129C66.915 64.981 66.9879 64.8248 66.9969 64.6614C67.006 64.4988 66.9512 64.3423 66.8515 64.2093L66.8508 64.2084L66.0412 63.1457C66.3306 62.646 66.5324 62.1445 66.6867 61.6029L68.006 61.3999L68.0061 61.4001L68.0126 61.3988C68.3386 61.3336 68.623 61.0664 68.623 60.7075V59.0204V59.0055L68.6201 58.991C68.5876 58.8287 68.5072 58.6671 68.3922 58.5439C68.2796 58.4232 68.1244 58.3303 67.9411 58.3263L66.6323 58.125C66.478 57.5834 66.2761 57.0818 65.9868 56.5821L66.7964 55.5195ZM66.0054 60.2321L65.9964 60.2332L65.9877 60.2354C65.7363 60.2982 65.4609 60.491 65.3887 60.7799L65.3881 60.7798L65.386 60.7935C65.2817 61.4716 64.9676 62.1043 64.5883 62.7543L64.5881 62.7542L64.5838 62.7628C64.4538 63.0227 64.4538 63.2901 64.5838 63.5501L64.5898 63.5622L64.5979 63.573L65.3362 64.5573L64.9759 64.9176L63.9995 64.1852C63.7707 63.9652 63.418 63.9852 63.1594 64.1786C62.5797 64.6001 61.9492 64.8623 61.2665 64.9674L61.2664 64.9667L61.253 64.9701C60.9746 65.0397 60.7717 65.2517 60.7069 65.576L60.7053 65.5842L60.7045 65.5924L60.6076 66.7071H60.1163L59.9689 65.4787L59.9678 65.4693L59.9655 65.4602C59.9026 65.2089 59.7099 64.9335 59.421 64.8613L59.421 64.8612L59.4183 64.8606C58.727 64.7011 58.0899 64.4355 57.5059 64.0639L57.4994 64.0598L57.4925 64.0563C57.2326 63.9263 56.9652 63.9263 56.7053 64.0563L56.6932 64.0623L56.6823 64.0705L55.698 64.8087L55.3401 64.4508L56.0688 63.5278C56.1801 63.4121 56.2285 63.2513 56.2285 63.102C56.2285 62.9554 56.1818 62.7976 56.0746 62.6824C55.7072 62.1019 55.4442 61.4689 55.2858 60.7826L55.2859 60.7826L55.2852 60.7799C55.2156 60.5016 55.0036 60.2987 54.6793 60.2338L54.6794 60.2335L54.6685 60.2321L53.4938 60.0853V59.5882L54.6685 59.4413L54.6775 59.4402L54.6863 59.438C54.9376 59.3752 55.213 59.1824 55.2852 58.8935L55.2858 58.8937L55.2879 58.8799C55.3923 58.2018 55.7064 57.5692 56.0856 56.9191L56.0858 56.9193L56.0902 56.9106C56.2201 56.6507 56.2201 56.3833 56.0902 56.1234L56.0841 56.1113L56.076 56.1005L55.3377 55.1161L55.6956 54.7582L56.6187 55.4869C56.7344 55.5983 56.8952 55.6466 57.0444 55.6466C57.1911 55.6466 57.3489 55.5999 57.4641 55.4927C58.0446 55.1253 58.6776 54.8623 59.3639 54.704L59.3639 54.704L59.3665 54.7033C59.6449 54.6337 59.8478 54.4217 59.9126 54.0974L59.9131 54.0975L59.9145 54.0859L60.0619 52.8575H60.5576L60.705 54.0859L60.7062 54.0952L60.7084 54.1044C60.7713 54.3557 60.964 54.6311 61.253 54.7033L61.253 54.7034L61.2556 54.704C61.9469 54.8635 62.5841 55.1291 63.168 55.5007L63.1745 55.5048L63.1814 55.5083C63.4414 55.6383 63.7088 55.6383 63.9687 55.5083L63.9808 55.5022L63.9916 55.4941L64.9759 54.7559L65.3362 55.1161L64.6038 56.0926C64.3849 56.3202 64.4037 56.6704 64.5943 56.9286C64.9687 57.5177 65.2815 58.1485 65.3857 58.8783L65.3868 58.886L65.3887 58.8935C65.4583 59.1719 65.6703 59.3747 65.9946 59.4396L65.9945 59.44L66.0054 59.4413L67.1802 59.5882V60.0853L66.0054 60.2321Z" fill="#65221A" stroke="#65221A" stroke-width="0.3"/>
<path d="M60.3626 55.5507C57.9941 55.5507 56.0766 57.4681 56.0766 59.8367C56.0766 62.2053 57.9941 64.1228 60.3626 64.1228C62.7312 64.1228 64.6487 62.2053 64.6487 59.8367C64.6487 57.4681 62.7312 55.5507 60.3626 55.5507ZM60.3626 62.7343C58.7584 62.7343 57.465 61.4409 57.465 59.8367C57.465 58.2325 58.7584 56.9391 60.3626 56.9391C61.9668 56.9391 63.2602 58.2325 63.2602 59.8367C63.2602 61.4409 61.9668 62.7343 60.3626 62.7343Z" fill="#65221A" stroke="#65221A" stroke-width="0.3"/>
</svg>
