<svg width="101" height="100" viewBox="0 0 101 100" fill="none" xmlns="http://www.w3.org/2000/svg">
<circle cx="50.5" cy="50" r="50" fill="#65221A"/>
<path d="M60.6015 64.8487H60.6014V64.9987C60.6014 65.8463 59.9481 66.5045 59.1153 66.5045H38.6281C39.1359 65.8313 39.4466 65.0004 39.4466 64.0911V34.9908C39.4466 34.1653 40.118 33.4941 40.9426 33.4941H61.4177C60.9114 34.1649 60.6015 34.9917 60.6015 35.8967V37.3934V64.8487ZM64.666 33.4965H64.6774C65.9949 33.5132 67.0661 34.591 67.0661 35.8967L67.0662 36.5713H62.2454V35.8967C62.2454 34.5743 63.3307 33.4965 64.666 33.4965ZM62.2453 38.2153H67.8881C68.3418 38.2153 68.7101 37.847 68.7101 37.3933V35.8967C68.7102 33.7041 66.9291 31.9014 64.7253 31.8551C64.724 31.8548 64.7226 31.8544 64.7212 31.8541C64.7118 31.8521 64.6988 31.85 64.6833 31.85H40.9425C39.2112 31.85 37.8025 33.2587 37.8025 34.9907V61.775H32.172C31.7181 61.775 31.35 62.1443 31.35 62.5978V64.0911C31.35 66.2841 33.1038 68.0658 35.2806 68.1295C35.2828 68.1301 35.2855 68.1308 35.2894 68.1319C35.2937 68.1331 35.2994 68.1346 35.3074 68.1368C35.3264 68.1419 35.3585 68.15 35.3966 68.15H59.1152C60.8426 68.15 62.2453 66.7345 62.2453 64.9986V38.2153ZM32.994 64.0911V63.4206H37.8025V64.0911C37.8025 65.4162 36.7235 66.4946 35.3983 66.4946C34.073 66.4946 32.994 65.4162 32.994 64.0911Z" fill="#F7F4F4" stroke="#F7F4F4" stroke-width="0.3"/>
<path d="M41.5258 54.8226C41.5258 55.2761 41.8939 55.6455 42.3478 55.6455H57.7053C58.1593 55.6455 58.5274 55.2761 58.5274 54.8226C58.5274 54.3692 58.1593 53.9998 57.7053 53.9998H42.3478C41.8939 53.9998 41.5258 54.3692 41.5258 54.8226Z" fill="#F7F4F4" stroke="#F7F4F4" stroke-width="0.3"/>
<path d="M57.7113 58.5521H42.3537C41.8997 58.5521 41.5316 58.9214 41.5316 59.3749C41.5316 59.8284 41.8997 60.1977 42.3537 60.1977H57.7112C58.1651 60.1977 58.5332 59.8284 58.5332 59.3749C58.5332 58.9214 58.1653 58.5521 57.7113 58.5521Z" fill="#F7F4F4" stroke="#F7F4F4" stroke-width="0.3"/>
<path d="M57.7053 63.1092H42.3478C41.8939 63.1092 41.5258 63.4785 41.5258 63.932C41.5258 64.3855 41.8939 64.7548 42.3478 64.7548H57.7053C58.1593 64.7548 58.5274 64.3855 58.5274 63.932C58.5274 63.4785 58.1593 63.1092 57.7053 63.1092Z" fill="#F7F4F4" stroke="#F7F4F4" stroke-width="0.3"/>
<path d="M43.7206 45.2587V43.1761H49.2085V45.1143C49.2085 45.568 49.5768 45.9363 50.0306 45.9363C50.4843 45.9363 50.8526 45.568 50.8526 45.1143V43.1761H56.3413V45.2587C56.3413 45.7122 56.7094 46.0815 57.1634 46.0815C57.6173 46.0815 57.9854 45.7122 57.9854 45.2587V42.3541C57.9854 41.9004 57.6171 41.5321 57.1634 41.5321H50.8527V40.0007H52.5661C53.0198 40.0007 53.3881 39.6324 53.3881 39.1787V36.0681C53.3881 35.6144 53.0198 35.2461 52.5661 35.2461H47.3713C46.9176 35.2461 46.5493 35.6144 46.5493 36.0681V39.1787C46.5493 39.6324 46.9176 40.0007 47.3713 40.0007H49.2086V41.5321H42.8986C42.4449 41.5321 42.0766 41.9004 42.0766 42.3541V45.2587V45.2588C42.0767 45.7122 42.4446 46.0815 42.8986 46.0815C43.3525 46.0815 43.7206 45.7122 43.7206 45.2587ZM48.1932 36.8902H51.7439V38.3567H48.1932V36.8902Z" fill="#F7F4F4" stroke="#F7F4F4" stroke-width="0.3"/>
<path d="M45.1895 49.9751C45.1895 48.7107 44.1616 47.6818 42.8971 47.6818C41.6327 47.6818 40.6039 48.7107 40.6039 49.9751C40.6039 51.2395 41.6327 52.2683 42.8971 52.2683C44.1616 52.2683 45.1895 51.2393 45.1895 49.9751ZM42.2479 49.9751C42.2479 49.6184 42.539 49.3275 42.897 49.3275C43.2542 49.3275 43.5454 49.6183 43.5454 49.9751C43.5454 50.3318 43.2542 50.6226 42.897 50.6226C42.539 50.6226 42.2479 50.3317 42.2479 49.9751Z" fill="#F7F4F4" stroke="#F7F4F4" stroke-width="0.3"/>
<path d="M52.3223 49.9751V49.975C52.3222 48.7107 51.2935 47.6818 50.0291 47.6818C48.7646 47.6818 47.7367 48.7107 47.7367 49.9751C47.7367 51.2394 48.7646 52.2683 50.0291 52.2683C51.2935 52.2683 52.3223 51.2395 52.3223 49.9751ZM50.0291 50.6226C49.6719 50.6226 49.3807 50.3318 49.3807 49.9751C49.3807 49.6183 49.6719 49.3275 50.0291 49.3275C50.3871 49.3275 50.6782 49.6184 50.6782 49.9751C50.6782 50.3317 50.3871 50.6226 50.0291 50.6226Z" fill="#F7F4F4" stroke="#F7F4F4" stroke-width="0.3"/>
<path d="M57.1627 47.6818C55.8983 47.6818 54.8695 48.7107 54.8695 49.9751C54.8695 51.2395 55.8983 52.2683 57.1627 52.2683C58.4272 52.2683 59.4551 51.2394 59.4551 49.9751C59.4551 48.7107 58.4271 47.6818 57.1627 47.6818ZM57.1627 50.6226C56.8047 50.6226 56.5136 50.3317 56.5136 49.9751C56.5136 49.6184 56.8047 49.3275 57.1627 49.3275C57.5199 49.3275 57.8111 49.6183 57.8111 49.9751C57.8111 50.3318 57.5199 50.6226 57.1627 50.6226Z" fill="#F7F4F4" stroke="#F7F4F4" stroke-width="0.3"/>
</svg>
