<svg width="101" height="100" viewBox="0 0 101 100" fill="none" xmlns="http://www.w3.org/2000/svg">
<circle cx="50.5" cy="50" r="50" fill="#F7F4F4"/>
<mask id="path-2-outside-1_1378_748" maskUnits="userSpaceOnUse" x="38" y="31" width="26" height="38" fill="black">
<rect fill="white" x="38" y="31" width="26" height="38"/>
<path d="M63.0594 61.427L63.0534 54.8046C63.0535 54.4915 62.9699 54.1842 62.8114 53.9142C62.6529 53.6443 62.4252 53.4216 62.1518 53.2691C61.8784 53.1166 61.5692 53.0399 61.2562 53.0469C60.9433 53.0539 60.6379 53.1443 60.3715 53.3089C60.2571 53.067 60.0849 52.8571 59.8701 52.6974C59.6554 52.5378 59.4047 52.4334 59.1402 52.3934V33.8607C59.1396 33.3674 58.9434 32.8944 58.5946 32.5456C58.2457 32.1968 57.7728 32.0006 57.2795 32H40.8611C40.3678 32.0006 39.8948 32.1968 39.5459 32.5456C39.197 32.8944 39.0007 33.3673 39 33.8607V64.369C39.0007 64.8624 39.197 65.3353 39.5459 65.6841C39.8948 66.0329 40.3678 66.2291 40.8611 66.2297H50.119V66.5009C50.1194 66.8983 50.2775 67.2794 50.5586 67.5604C50.8396 67.8415 51.2206 67.9995 51.6181 68H61.2793C61.6768 67.9995 62.0578 67.8415 62.3388 67.5604C62.6199 67.2794 62.778 66.8983 62.7784 66.5009V65.3497C62.7784 64.9634 62.6287 64.5921 62.3606 64.314L62.9379 62.2964C63.0188 62.0137 63.0597 61.7211 63.0594 61.427ZM59.5367 54.1224V57.6357C59.5405 57.7669 59.5953 57.8914 59.6895 57.9829C59.7836 58.0743 59.9097 58.1254 60.0409 58.1254C60.1721 58.1254 60.2982 58.0743 60.3923 57.9829C60.4865 57.8914 60.5413 57.7669 60.5451 57.6357V54.8046C60.5451 54.6055 60.6242 54.4145 60.765 54.2737C60.9058 54.1329 61.0968 54.0537 61.2959 54.0537C61.4951 54.0537 61.686 54.1329 61.8269 54.2737C61.9677 54.4145 62.0468 54.6055 62.0468 54.8046L62.051 61.4279C62.0515 61.6285 62.0237 61.8282 61.9683 62.021L61.4417 63.862C61.3878 63.8559 61.3336 63.8528 61.2793 63.8527H51.6603C50.6905 62.6864 50.0258 61.2975 49.7259 59.8106C49.528 58.9076 49.4218 58.2237 49.3361 57.6741C49.271 57.0672 49.1334 56.4703 48.9264 55.8961C48.882 55.788 48.866 55.6703 48.8801 55.5543C48.8942 55.4383 48.9379 55.3278 49.007 55.2335C49.072 55.1412 49.1601 55.0675 49.2624 55.0198C49.3647 54.9721 49.4778 54.952 49.5903 54.9615C50.3219 55.0182 50.7636 55.2037 52.0547 58.5477C52.097 58.6576 52.1765 58.7491 52.2792 58.8066C52.382 58.864 52.5016 58.8836 52.6174 58.862C52.7331 58.8404 52.8376 58.779 52.9128 58.6884C52.988 58.5979 53.0291 58.4838 53.029 58.3661V55.0033L53.0537 48.3625C53.0463 48.2528 53.0624 48.1429 53.1009 48.0399C53.1395 47.937 53.1995 47.8435 53.2771 47.7656C53.4171 47.6428 53.5979 47.5765 53.7841 47.5797C53.8839 47.5744 53.9836 47.5905 54.0766 47.6271C54.1696 47.6636 54.2537 47.7197 54.3232 47.7915C54.3927 47.8633 54.4459 47.9492 54.4794 48.0434C54.5128 48.1376 54.5256 48.2378 54.517 48.3374V56.4986C54.5208 56.6298 54.5756 56.7543 54.6698 56.8457C54.7639 56.9372 54.89 56.9883 55.0212 56.9883C55.1524 56.9883 55.2785 56.9372 55.3726 56.8457C55.4668 56.7543 55.5216 56.6298 55.5254 56.4986V53.667C55.5254 53.4679 55.6045 53.2769 55.7453 53.1361C55.8861 52.9953 56.0771 52.9162 56.2762 52.9162C56.4754 52.9162 56.6663 52.9953 56.8072 53.1361C56.948 53.2769 57.0271 53.4679 57.0271 53.667V56.9531C57.0271 57.0867 57.0802 57.2149 57.1747 57.3094C57.2692 57.404 57.3974 57.4571 57.531 57.4571C57.6647 57.4571 57.7929 57.404 57.8874 57.3094C57.9819 57.2149 58.035 57.0867 58.035 56.9531V54.122C58.0352 53.9229 58.1144 53.732 58.2552 53.5913C58.396 53.4505 58.5868 53.3713 58.7859 53.3711C58.8869 53.3615 58.9888 53.3743 59.0843 53.4086C59.1798 53.443 59.2666 53.498 59.3383 53.5698C59.4101 53.6416 59.4651 53.7284 59.4993 53.8239C59.5336 53.9194 59.5464 54.0214 59.5367 54.1224ZM58.1322 52.4898C57.9959 52.5444 57.8669 52.6161 57.7485 52.703C57.6204 52.5077 57.4548 52.3397 57.2613 52.209C57.0677 52.0782 56.8502 51.9871 56.6212 51.9411C56.9616 51.0373 57.1349 50.0791 57.1328 49.1134C57.1331 47.5549 56.6816 46.0298 55.833 44.7227C54.9844 43.4155 53.7752 42.3823 52.3516 41.7482C50.928 41.1141 49.3511 40.9062 47.8118 41.1497C46.2725 41.3932 44.8368 42.0776 43.6784 43.1202C42.5201 44.1628 41.6887 45.5187 41.2851 47.024C40.8814 48.5292 40.9227 50.1192 41.4039 51.6015C41.8852 53.0838 42.7858 54.3948 43.9967 55.3758C45.2076 56.3569 46.6769 56.9659 48.2267 57.1292C48.2647 57.3347 48.3005 57.5632 48.3414 57.8267C48.4267 58.3895 48.538 59.0905 48.7422 60.0234C48.9162 60.8305 49.1791 61.6158 49.5259 62.365H40.0079V35.744H58.1322V52.4898ZM55.5254 51.9556V48.3374C55.5381 47.8981 55.385 47.4702 55.0965 47.1388C54.6853 45.9006 53.9061 44.8173 52.8631 44.0335C51.7693 43.211 50.4369 42.768 49.0684 42.7719C47.489 42.7723 45.9666 43.362 44.799 44.4256C43.6315 45.4893 42.9028 46.9503 42.7556 48.5228C42.6085 50.0953 43.0534 51.6662 44.0033 52.928C44.9532 54.1898 46.3397 55.0518 47.8916 55.3452C47.8486 55.5878 47.8598 55.837 47.9244 56.0748C46.5962 55.8561 45.3583 55.262 44.3569 54.3625C43.3554 53.4631 42.6323 52.2959 42.2728 50.9987C41.9133 49.7015 41.9325 48.3285 42.3281 47.0419C42.7237 45.7553 43.4792 44.6087 44.5054 43.7376C45.5316 42.8665 46.7856 42.3072 48.1194 42.1258C49.4532 41.9444 50.811 42.1484 52.0326 42.7137C53.2542 43.2791 54.2885 44.1822 55.0134 45.3164C55.7383 46.4506 56.1235 47.7686 56.1236 49.1146C56.1257 50.0931 55.9219 51.0611 55.5254 51.9556ZM48.3973 54.4068C47.4907 54.2913 46.6289 53.9448 45.8947 53.4005C45.1605 52.8563 44.5784 52.1325 44.2042 51.2987C43.8301 50.4648 43.6764 49.5488 43.758 48.6385C43.8396 47.7282 44.1537 46.8542 44.6702 46.1001C45.1866 45.3461 45.8882 44.7374 46.7075 44.3324C47.5268 43.9274 48.4364 43.7397 49.3491 43.7872C50.2618 43.8348 51.147 44.116 51.9198 44.604C52.6926 45.0919 53.327 45.7703 53.7623 46.5739C53.5305 46.5724 53.3008 46.6182 53.0873 46.7083C52.8737 46.7985 52.6807 46.9312 52.5201 47.0983C52.3594 47.2654 52.2345 47.4635 52.1529 47.6805C52.0713 47.8975 52.0347 48.1288 52.0453 48.3604L52.0206 55.0016V55.917C51.2881 54.478 50.669 54.0341 49.6683 53.9557C49.4366 53.9371 49.2036 53.9677 48.9846 54.0454C48.7656 54.1232 48.5654 54.2463 48.3973 54.4068ZM40.8611 33.0079H57.2795C57.5056 33.0079 57.7225 33.0978 57.8825 33.2577C58.0424 33.4176 58.1322 33.6345 58.1322 33.8607V34.736H40.0079V33.8607C40.0079 33.7487 40.03 33.6378 40.0729 33.5343C40.1158 33.4308 40.1786 33.3368 40.2579 33.2576C40.3371 33.1784 40.4311 33.1156 40.5347 33.0727C40.6382 33.0299 40.7491 33.0079 40.8611 33.0079ZM40.0084 64.3681V63.373H50.0657C50.2427 63.6637 50.4365 63.9439 50.646 64.2121C50.3467 64.4673 50.1597 64.8299 50.1254 65.2217H40.8611C40.7491 65.2218 40.6382 65.1998 40.5347 65.157C40.4311 65.1141 40.3371 65.0513 40.2579 64.9721C40.1786 64.8929 40.1158 64.7989 40.0729 64.6954C40.03 64.5919 40.0079 64.481 40.0079 64.369L40.0084 64.3681ZM61.7709 66.5C61.7707 66.6302 61.7189 66.755 61.6268 66.8471C61.5347 66.9392 61.4099 66.991 61.2797 66.9912H51.6181C51.488 66.991 51.3634 66.9393 51.2713 66.8474C51.1793 66.7555 51.1274 66.6309 51.1269 66.5009V65.3497C51.1271 65.2195 51.179 65.0947 51.271 65.0026C51.3631 64.9105 51.4879 64.8587 51.6181 64.8585H61.2793C61.4095 64.8587 61.5343 64.9105 61.6264 65.0026C61.7184 65.0947 61.7703 65.2195 61.7705 65.3497L61.7709 66.5ZM49.5741 52.9388C49.5741 53.005 49.561 53.0705 49.5357 53.1316C49.5104 53.1928 49.4733 53.2483 49.4265 53.2951C49.3797 53.3419 49.3241 53.3791 49.263 53.4044C49.2018 53.4297 49.1363 53.4428 49.0701 53.4428C49.0039 53.4428 48.9384 53.4297 48.8772 53.4044C48.8161 53.3791 48.7605 53.3419 48.7137 53.2951C48.6669 53.2483 48.6298 53.1928 48.6045 53.1316C48.5792 53.0705 48.5661 53.005 48.5661 52.9388V52.3112C48.3949 52.2802 48.2277 52.2305 48.0673 52.1632C47.8153 52.0655 47.5886 51.9124 47.4036 51.7154C47.2187 51.5184 47.0804 51.2824 46.9988 51.0248C46.9662 50.8976 46.9846 50.7626 47.0499 50.6487C47.1153 50.5348 47.2225 50.4509 47.3488 50.4148C47.4751 50.3787 47.6105 50.3933 47.7261 50.4554C47.8418 50.5176 47.9287 50.6224 47.9683 50.7476C48.0097 50.8601 48.0751 50.9621 48.16 51.0466C48.2449 51.1311 48.3473 51.196 48.4599 51.2367C48.658 51.3174 48.8713 51.3538 49.0849 51.3433C49.2985 51.3329 49.5072 51.2758 49.6964 51.1761C49.8521 51.0957 49.9787 50.9686 50.0586 50.8126C50.1384 50.6567 50.1676 50.4797 50.142 50.3063C50.0567 49.8454 49.566 49.5201 48.7895 49.4139C48.4346 49.3873 48.0947 49.2598 47.8098 49.0464C47.5249 48.833 47.307 48.5426 47.1817 48.2094C47.0821 47.9156 47.0653 47.6 47.133 47.2972C47.2006 46.9944 47.3502 46.716 47.5654 46.4924C47.8398 46.2172 48.1864 46.025 48.5653 45.9382V45.2892C48.5653 45.1555 48.6184 45.0274 48.7129 44.9328C48.8074 44.8383 48.9356 44.7852 49.0692 44.7852C49.2029 44.7852 49.3311 44.8383 49.4256 44.9328C49.5201 45.0274 49.5732 45.1555 49.5732 45.2892V45.9288C50.0745 46.0354 50.5235 46.3123 50.8438 46.7124C50.8855 46.7638 50.9167 46.823 50.9356 46.8864C50.9544 46.9499 50.9606 47.0164 50.9538 47.0823C50.9469 47.1481 50.9272 47.2119 50.8956 47.2702C50.8641 47.3284 50.8214 47.3798 50.77 47.4215C50.7186 47.4632 50.6595 47.4944 50.5961 47.5133C50.5326 47.5321 50.4661 47.5383 50.4002 47.5315C50.3344 47.5246 50.2705 47.5049 50.2123 47.4733C50.1541 47.4418 50.1027 47.3991 50.061 47.3477C49.952 47.2109 49.8149 47.0989 49.659 47.0196C49.503 46.9402 49.3319 46.8952 49.1571 46.8877C48.999 46.8776 48.8405 46.8999 48.6913 46.9532C48.5421 47.0065 48.4053 47.0897 48.2894 47.1977C48.2032 47.2869 48.1432 47.398 48.116 47.519C48.0887 47.64 48.0951 47.7661 48.1346 47.8837C48.2026 48.0379 48.313 48.1697 48.4529 48.2636C48.5929 48.3575 48.7566 48.4097 48.9251 48.4141C50.1446 48.5812 50.9717 49.2212 51.1329 50.1268C51.1986 50.5098 51.141 50.9037 50.9684 51.2518C50.7957 51.5999 50.5169 51.8841 50.1723 52.0634C49.984 52.1641 49.7833 52.2395 49.5753 52.2877L49.5741 52.9388Z"/>
</mask>
<path d="M63.0594 61.427L63.0534 54.8046C63.0535 54.4915 62.9699 54.1842 62.8114 53.9142C62.6529 53.6443 62.4252 53.4216 62.1518 53.2691C61.8784 53.1166 61.5692 53.0399 61.2562 53.0469C60.9433 53.0539 60.6379 53.1443 60.3715 53.3089C60.2571 53.067 60.0849 52.8571 59.8701 52.6974C59.6554 52.5378 59.4047 52.4334 59.1402 52.3934V33.8607C59.1396 33.3674 58.9434 32.8944 58.5946 32.5456C58.2457 32.1968 57.7728 32.0006 57.2795 32H40.8611C40.3678 32.0006 39.8948 32.1968 39.5459 32.5456C39.197 32.8944 39.0007 33.3673 39 33.8607V64.369C39.0007 64.8624 39.197 65.3353 39.5459 65.6841C39.8948 66.0329 40.3678 66.2291 40.8611 66.2297H50.119V66.5009C50.1194 66.8983 50.2775 67.2794 50.5586 67.5604C50.8396 67.8415 51.2206 67.9995 51.6181 68H61.2793C61.6768 67.9995 62.0578 67.8415 62.3388 67.5604C62.6199 67.2794 62.778 66.8983 62.7784 66.5009V65.3497C62.7784 64.9634 62.6287 64.5921 62.3606 64.314L62.9379 62.2964C63.0188 62.0137 63.0597 61.7211 63.0594 61.427ZM59.5367 54.1224V57.6357C59.5405 57.7669 59.5953 57.8914 59.6895 57.9829C59.7836 58.0743 59.9097 58.1254 60.0409 58.1254C60.1721 58.1254 60.2982 58.0743 60.3923 57.9829C60.4865 57.8914 60.5413 57.7669 60.5451 57.6357V54.8046C60.5451 54.6055 60.6242 54.4145 60.765 54.2737C60.9058 54.1329 61.0968 54.0537 61.2959 54.0537C61.4951 54.0537 61.686 54.1329 61.8269 54.2737C61.9677 54.4145 62.0468 54.6055 62.0468 54.8046L62.051 61.4279C62.0515 61.6285 62.0237 61.8282 61.9683 62.021L61.4417 63.862C61.3878 63.8559 61.3336 63.8528 61.2793 63.8527H51.6603C50.6905 62.6864 50.0258 61.2975 49.7259 59.8106C49.528 58.9076 49.4218 58.2237 49.3361 57.6741C49.271 57.0672 49.1334 56.4703 48.9264 55.8961C48.882 55.788 48.866 55.6703 48.8801 55.5543C48.8942 55.4383 48.9379 55.3278 49.007 55.2335C49.072 55.1412 49.1601 55.0675 49.2624 55.0198C49.3647 54.9721 49.4778 54.952 49.5903 54.9615C50.3219 55.0182 50.7636 55.2037 52.0547 58.5477C52.097 58.6576 52.1765 58.7491 52.2792 58.8066C52.382 58.864 52.5016 58.8836 52.6174 58.862C52.7331 58.8404 52.8376 58.779 52.9128 58.6884C52.988 58.5979 53.0291 58.4838 53.029 58.3661V55.0033L53.0537 48.3625C53.0463 48.2528 53.0624 48.1429 53.1009 48.0399C53.1395 47.937 53.1995 47.8435 53.2771 47.7656C53.4171 47.6428 53.5979 47.5765 53.7841 47.5797C53.8839 47.5744 53.9836 47.5905 54.0766 47.6271C54.1696 47.6636 54.2537 47.7197 54.3232 47.7915C54.3927 47.8633 54.4459 47.9492 54.4794 48.0434C54.5128 48.1376 54.5256 48.2378 54.517 48.3374V56.4986C54.5208 56.6298 54.5756 56.7543 54.6698 56.8457C54.7639 56.9372 54.89 56.9883 55.0212 56.9883C55.1524 56.9883 55.2785 56.9372 55.3726 56.8457C55.4668 56.7543 55.5216 56.6298 55.5254 56.4986V53.667C55.5254 53.4679 55.6045 53.2769 55.7453 53.1361C55.8861 52.9953 56.0771 52.9162 56.2762 52.9162C56.4754 52.9162 56.6663 52.9953 56.8072 53.1361C56.948 53.2769 57.0271 53.4679 57.0271 53.667V56.9531C57.0271 57.0867 57.0802 57.2149 57.1747 57.3094C57.2692 57.404 57.3974 57.4571 57.531 57.4571C57.6647 57.4571 57.7929 57.404 57.8874 57.3094C57.9819 57.2149 58.035 57.0867 58.035 56.9531V54.122C58.0352 53.9229 58.1144 53.732 58.2552 53.5913C58.396 53.4505 58.5868 53.3713 58.7859 53.3711C58.8869 53.3615 58.9888 53.3743 59.0843 53.4086C59.1798 53.443 59.2666 53.498 59.3383 53.5698C59.4101 53.6416 59.4651 53.7284 59.4993 53.8239C59.5336 53.9194 59.5464 54.0214 59.5367 54.1224ZM58.1322 52.4898C57.9959 52.5444 57.8669 52.6161 57.7485 52.703C57.6204 52.5077 57.4548 52.3397 57.2613 52.209C57.0677 52.0782 56.8502 51.9871 56.6212 51.9411C56.9616 51.0373 57.1349 50.0791 57.1328 49.1134C57.1331 47.5549 56.6816 46.0298 55.833 44.7227C54.9844 43.4155 53.7752 42.3823 52.3516 41.7482C50.928 41.1141 49.3511 40.9062 47.8118 41.1497C46.2725 41.3932 44.8368 42.0776 43.6784 43.1202C42.5201 44.1628 41.6887 45.5187 41.2851 47.024C40.8814 48.5292 40.9227 50.1192 41.4039 51.6015C41.8852 53.0838 42.7858 54.3948 43.9967 55.3758C45.2076 56.3569 46.6769 56.9659 48.2267 57.1292C48.2647 57.3347 48.3005 57.5632 48.3414 57.8267C48.4267 58.3895 48.538 59.0905 48.7422 60.0234C48.9162 60.8305 49.1791 61.6158 49.5259 62.365H40.0079V35.744H58.1322V52.4898ZM55.5254 51.9556V48.3374C55.5381 47.8981 55.385 47.4702 55.0965 47.1388C54.6853 45.9006 53.9061 44.8173 52.8631 44.0335C51.7693 43.211 50.4369 42.768 49.0684 42.7719C47.489 42.7723 45.9666 43.362 44.799 44.4256C43.6315 45.4893 42.9028 46.9503 42.7556 48.5228C42.6085 50.0953 43.0534 51.6662 44.0033 52.928C44.9532 54.1898 46.3397 55.0518 47.8916 55.3452C47.8486 55.5878 47.8598 55.837 47.9244 56.0748C46.5962 55.8561 45.3583 55.262 44.3569 54.3625C43.3554 53.4631 42.6323 52.2959 42.2728 50.9987C41.9133 49.7015 41.9325 48.3285 42.3281 47.0419C42.7237 45.7553 43.4792 44.6087 44.5054 43.7376C45.5316 42.8665 46.7856 42.3072 48.1194 42.1258C49.4532 41.9444 50.811 42.1484 52.0326 42.7137C53.2542 43.2791 54.2885 44.1822 55.0134 45.3164C55.7383 46.4506 56.1235 47.7686 56.1236 49.1146C56.1257 50.0931 55.9219 51.0611 55.5254 51.9556ZM48.3973 54.4068C47.4907 54.2913 46.6289 53.9448 45.8947 53.4005C45.1605 52.8563 44.5784 52.1325 44.2042 51.2987C43.8301 50.4648 43.6764 49.5488 43.758 48.6385C43.8396 47.7282 44.1537 46.8542 44.6702 46.1001C45.1866 45.3461 45.8882 44.7374 46.7075 44.3324C47.5268 43.9274 48.4364 43.7397 49.3491 43.7872C50.2618 43.8348 51.147 44.116 51.9198 44.604C52.6926 45.0919 53.327 45.7703 53.7623 46.5739C53.5305 46.5724 53.3008 46.6182 53.0873 46.7083C52.8737 46.7985 52.6807 46.9312 52.5201 47.0983C52.3594 47.2654 52.2345 47.4635 52.1529 47.6805C52.0713 47.8975 52.0347 48.1288 52.0453 48.3604L52.0206 55.0016V55.917C51.2881 54.478 50.669 54.0341 49.6683 53.9557C49.4366 53.9371 49.2036 53.9677 48.9846 54.0454C48.7656 54.1232 48.5654 54.2463 48.3973 54.4068ZM40.8611 33.0079H57.2795C57.5056 33.0079 57.7225 33.0978 57.8825 33.2577C58.0424 33.4176 58.1322 33.6345 58.1322 33.8607V34.736H40.0079V33.8607C40.0079 33.7487 40.03 33.6378 40.0729 33.5343C40.1158 33.4308 40.1786 33.3368 40.2579 33.2576C40.3371 33.1784 40.4311 33.1156 40.5347 33.0727C40.6382 33.0299 40.7491 33.0079 40.8611 33.0079ZM40.0084 64.3681V63.373H50.0657C50.2427 63.6637 50.4365 63.9439 50.646 64.2121C50.3467 64.4673 50.1597 64.8299 50.1254 65.2217H40.8611C40.7491 65.2218 40.6382 65.1998 40.5347 65.157C40.4311 65.1141 40.3371 65.0513 40.2579 64.9721C40.1786 64.8929 40.1158 64.7989 40.0729 64.6954C40.03 64.5919 40.0079 64.481 40.0079 64.369L40.0084 64.3681ZM61.7709 66.5C61.7707 66.6302 61.7189 66.755 61.6268 66.8471C61.5347 66.9392 61.4099 66.991 61.2797 66.9912H51.6181C51.488 66.991 51.3634 66.9393 51.2713 66.8474C51.1793 66.7555 51.1274 66.6309 51.1269 66.5009V65.3497C51.1271 65.2195 51.179 65.0947 51.271 65.0026C51.3631 64.9105 51.4879 64.8587 51.6181 64.8585H61.2793C61.4095 64.8587 61.5343 64.9105 61.6264 65.0026C61.7184 65.0947 61.7703 65.2195 61.7705 65.3497L61.7709 66.5ZM49.5741 52.9388C49.5741 53.005 49.561 53.0705 49.5357 53.1316C49.5104 53.1928 49.4733 53.2483 49.4265 53.2951C49.3797 53.3419 49.3241 53.3791 49.263 53.4044C49.2018 53.4297 49.1363 53.4428 49.0701 53.4428C49.0039 53.4428 48.9384 53.4297 48.8772 53.4044C48.8161 53.3791 48.7605 53.3419 48.7137 53.2951C48.6669 53.2483 48.6298 53.1928 48.6045 53.1316C48.5792 53.0705 48.5661 53.005 48.5661 52.9388V52.3112C48.3949 52.2802 48.2277 52.2305 48.0673 52.1632C47.8153 52.0655 47.5886 51.9124 47.4036 51.7154C47.2187 51.5184 47.0804 51.2824 46.9988 51.0248C46.9662 50.8976 46.9846 50.7626 47.0499 50.6487C47.1153 50.5348 47.2225 50.4509 47.3488 50.4148C47.4751 50.3787 47.6105 50.3933 47.7261 50.4554C47.8418 50.5176 47.9287 50.6224 47.9683 50.7476C48.0097 50.8601 48.0751 50.9621 48.16 51.0466C48.2449 51.1311 48.3473 51.196 48.4599 51.2367C48.658 51.3174 48.8713 51.3538 49.0849 51.3433C49.2985 51.3329 49.5072 51.2758 49.6964 51.1761C49.8521 51.0957 49.9787 50.9686 50.0586 50.8126C50.1384 50.6567 50.1676 50.4797 50.142 50.3063C50.0567 49.8454 49.566 49.5201 48.7895 49.4139C48.4346 49.3873 48.0947 49.2598 47.8098 49.0464C47.5249 48.833 47.307 48.5426 47.1817 48.2094C47.0821 47.9156 47.0653 47.6 47.133 47.2972C47.2006 46.9944 47.3502 46.716 47.5654 46.4924C47.8398 46.2172 48.1864 46.025 48.5653 45.9382V45.2892C48.5653 45.1555 48.6184 45.0274 48.7129 44.9328C48.8074 44.8383 48.9356 44.7852 49.0692 44.7852C49.2029 44.7852 49.3311 44.8383 49.4256 44.9328C49.5201 45.0274 49.5732 45.1555 49.5732 45.2892V45.9288C50.0745 46.0354 50.5235 46.3123 50.8438 46.7124C50.8855 46.7638 50.9167 46.823 50.9356 46.8864C50.9544 46.9499 50.9606 47.0164 50.9538 47.0823C50.9469 47.1481 50.9272 47.2119 50.8956 47.2702C50.8641 47.3284 50.8214 47.3798 50.77 47.4215C50.7186 47.4632 50.6595 47.4944 50.5961 47.5133C50.5326 47.5321 50.4661 47.5383 50.4002 47.5315C50.3344 47.5246 50.2705 47.5049 50.2123 47.4733C50.1541 47.4418 50.1027 47.3991 50.061 47.3477C49.952 47.2109 49.8149 47.0989 49.659 47.0196C49.503 46.9402 49.3319 46.8952 49.1571 46.8877C48.999 46.8776 48.8405 46.8999 48.6913 46.9532C48.5421 47.0065 48.4053 47.0897 48.2894 47.1977C48.2032 47.2869 48.1432 47.398 48.116 47.519C48.0887 47.64 48.0951 47.7661 48.1346 47.8837C48.2026 48.0379 48.313 48.1697 48.4529 48.2636C48.5929 48.3575 48.7566 48.4097 48.9251 48.4141C50.1446 48.5812 50.9717 49.2212 51.1329 50.1268C51.1986 50.5098 51.141 50.9037 50.9684 51.2518C50.7957 51.5999 50.5169 51.8841 50.1723 52.0634C49.984 52.1641 49.7833 52.2395 49.5753 52.2877L49.5741 52.9388Z" fill="#65221A"/>
<path d="M63.0594 61.427L63.0534 54.8046C63.0535 54.4915 62.9699 54.1842 62.8114 53.9142C62.6529 53.6443 62.4252 53.4216 62.1518 53.2691C61.8784 53.1166 61.5692 53.0399 61.2562 53.0469C60.9433 53.0539 60.6379 53.1443 60.3715 53.3089C60.2571 53.067 60.0849 52.8571 59.8701 52.6974C59.6554 52.5378 59.4047 52.4334 59.1402 52.3934V33.8607C59.1396 33.3674 58.9434 32.8944 58.5946 32.5456C58.2457 32.1968 57.7728 32.0006 57.2795 32H40.8611C40.3678 32.0006 39.8948 32.1968 39.5459 32.5456C39.197 32.8944 39.0007 33.3673 39 33.8607V64.369C39.0007 64.8624 39.197 65.3353 39.5459 65.6841C39.8948 66.0329 40.3678 66.2291 40.8611 66.2297H50.119V66.5009C50.1194 66.8983 50.2775 67.2794 50.5586 67.5604C50.8396 67.8415 51.2206 67.9995 51.6181 68H61.2793C61.6768 67.9995 62.0578 67.8415 62.3388 67.5604C62.6199 67.2794 62.778 66.8983 62.7784 66.5009V65.3497C62.7784 64.9634 62.6287 64.5921 62.3606 64.314L62.9379 62.2964C63.0188 62.0137 63.0597 61.7211 63.0594 61.427ZM59.5367 54.1224V57.6357C59.5405 57.7669 59.5953 57.8914 59.6895 57.9829C59.7836 58.0743 59.9097 58.1254 60.0409 58.1254C60.1721 58.1254 60.2982 58.0743 60.3923 57.9829C60.4865 57.8914 60.5413 57.7669 60.5451 57.6357V54.8046C60.5451 54.6055 60.6242 54.4145 60.765 54.2737C60.9058 54.1329 61.0968 54.0537 61.2959 54.0537C61.4951 54.0537 61.686 54.1329 61.8269 54.2737C61.9677 54.4145 62.0468 54.6055 62.0468 54.8046L62.051 61.4279C62.0515 61.6285 62.0237 61.8282 61.9683 62.021L61.4417 63.862C61.3878 63.8559 61.3336 63.8528 61.2793 63.8527H51.6603C50.6905 62.6864 50.0258 61.2975 49.7259 59.8106C49.528 58.9076 49.4218 58.2237 49.3361 57.6741C49.271 57.0672 49.1334 56.4703 48.9264 55.8961C48.882 55.788 48.866 55.6703 48.8801 55.5543C48.8942 55.4383 48.9379 55.3278 49.007 55.2335C49.072 55.1412 49.1601 55.0675 49.2624 55.0198C49.3647 54.9721 49.4778 54.952 49.5903 54.9615C50.3219 55.0182 50.7636 55.2037 52.0547 58.5477C52.097 58.6576 52.1765 58.7491 52.2792 58.8066C52.382 58.864 52.5016 58.8836 52.6174 58.862C52.7331 58.8404 52.8376 58.779 52.9128 58.6884C52.988 58.5979 53.0291 58.4838 53.029 58.3661V55.0033L53.0537 48.3625C53.0463 48.2528 53.0624 48.1429 53.1009 48.0399C53.1395 47.937 53.1995 47.8435 53.2771 47.7656C53.4171 47.6428 53.5979 47.5765 53.7841 47.5797C53.8839 47.5744 53.9836 47.5905 54.0766 47.6271C54.1696 47.6636 54.2537 47.7197 54.3232 47.7915C54.3927 47.8633 54.4459 47.9492 54.4794 48.0434C54.5128 48.1376 54.5256 48.2378 54.517 48.3374V56.4986C54.5208 56.6298 54.5756 56.7543 54.6698 56.8457C54.7639 56.9372 54.89 56.9883 55.0212 56.9883C55.1524 56.9883 55.2785 56.9372 55.3726 56.8457C55.4668 56.7543 55.5216 56.6298 55.5254 56.4986V53.667C55.5254 53.4679 55.6045 53.2769 55.7453 53.1361C55.8861 52.9953 56.0771 52.9162 56.2762 52.9162C56.4754 52.9162 56.6663 52.9953 56.8072 53.1361C56.948 53.2769 57.0271 53.4679 57.0271 53.667V56.9531C57.0271 57.0867 57.0802 57.2149 57.1747 57.3094C57.2692 57.404 57.3974 57.4571 57.531 57.4571C57.6647 57.4571 57.7929 57.404 57.8874 57.3094C57.9819 57.2149 58.035 57.0867 58.035 56.9531V54.122C58.0352 53.9229 58.1144 53.732 58.2552 53.5913C58.396 53.4505 58.5868 53.3713 58.7859 53.3711C58.8869 53.3615 58.9888 53.3743 59.0843 53.4086C59.1798 53.443 59.2666 53.498 59.3383 53.5698C59.4101 53.6416 59.4651 53.7284 59.4993 53.8239C59.5336 53.9194 59.5464 54.0214 59.5367 54.1224ZM58.1322 52.4898C57.9959 52.5444 57.8669 52.6161 57.7485 52.703C57.6204 52.5077 57.4548 52.3397 57.2613 52.209C57.0677 52.0782 56.8502 51.9871 56.6212 51.9411C56.9616 51.0373 57.1349 50.0791 57.1328 49.1134C57.1331 47.5549 56.6816 46.0298 55.833 44.7227C54.9844 43.4155 53.7752 42.3823 52.3516 41.7482C50.928 41.1141 49.3511 40.9062 47.8118 41.1497C46.2725 41.3932 44.8368 42.0776 43.6784 43.1202C42.5201 44.1628 41.6887 45.5187 41.2851 47.024C40.8814 48.5292 40.9227 50.1192 41.4039 51.6015C41.8852 53.0838 42.7858 54.3948 43.9967 55.3758C45.2076 56.3569 46.6769 56.9659 48.2267 57.1292C48.2647 57.3347 48.3005 57.5632 48.3414 57.8267C48.4267 58.3895 48.538 59.0905 48.7422 60.0234C48.9162 60.8305 49.1791 61.6158 49.5259 62.365H40.0079V35.744H58.1322V52.4898ZM55.5254 51.9556V48.3374C55.5381 47.8981 55.385 47.4702 55.0965 47.1388C54.6853 45.9006 53.9061 44.8173 52.8631 44.0335C51.7693 43.211 50.4369 42.768 49.0684 42.7719C47.489 42.7723 45.9666 43.362 44.799 44.4256C43.6315 45.4893 42.9028 46.9503 42.7556 48.5228C42.6085 50.0953 43.0534 51.6662 44.0033 52.928C44.9532 54.1898 46.3397 55.0518 47.8916 55.3452C47.8486 55.5878 47.8598 55.837 47.9244 56.0748C46.5962 55.8561 45.3583 55.262 44.3569 54.3625C43.3554 53.4631 42.6323 52.2959 42.2728 50.9987C41.9133 49.7015 41.9325 48.3285 42.3281 47.0419C42.7237 45.7553 43.4792 44.6087 44.5054 43.7376C45.5316 42.8665 46.7856 42.3072 48.1194 42.1258C49.4532 41.9444 50.811 42.1484 52.0326 42.7137C53.2542 43.2791 54.2885 44.1822 55.0134 45.3164C55.7383 46.4506 56.1235 47.7686 56.1236 49.1146C56.1257 50.0931 55.9219 51.0611 55.5254 51.9556ZM48.3973 54.4068C47.4907 54.2913 46.6289 53.9448 45.8947 53.4005C45.1605 52.8563 44.5784 52.1325 44.2042 51.2987C43.8301 50.4648 43.6764 49.5488 43.758 48.6385C43.8396 47.7282 44.1537 46.8542 44.6702 46.1001C45.1866 45.3461 45.8882 44.7374 46.7075 44.3324C47.5268 43.9274 48.4364 43.7397 49.3491 43.7872C50.2618 43.8348 51.147 44.116 51.9198 44.604C52.6926 45.0919 53.327 45.7703 53.7623 46.5739C53.5305 46.5724 53.3008 46.6182 53.0873 46.7083C52.8737 46.7985 52.6807 46.9312 52.5201 47.0983C52.3594 47.2654 52.2345 47.4635 52.1529 47.6805C52.0713 47.8975 52.0347 48.1288 52.0453 48.3604L52.0206 55.0016V55.917C51.2881 54.478 50.669 54.0341 49.6683 53.9557C49.4366 53.9371 49.2036 53.9677 48.9846 54.0454C48.7656 54.1232 48.5654 54.2463 48.3973 54.4068ZM40.8611 33.0079H57.2795C57.5056 33.0079 57.7225 33.0978 57.8825 33.2577C58.0424 33.4176 58.1322 33.6345 58.1322 33.8607V34.736H40.0079V33.8607C40.0079 33.7487 40.03 33.6378 40.0729 33.5343C40.1158 33.4308 40.1786 33.3368 40.2579 33.2576C40.3371 33.1784 40.4311 33.1156 40.5347 33.0727C40.6382 33.0299 40.7491 33.0079 40.8611 33.0079ZM40.0084 64.3681V63.373H50.0657C50.2427 63.6637 50.4365 63.9439 50.646 64.2121C50.3467 64.4673 50.1597 64.8299 50.1254 65.2217H40.8611C40.7491 65.2218 40.6382 65.1998 40.5347 65.157C40.4311 65.1141 40.3371 65.0513 40.2579 64.9721C40.1786 64.8929 40.1158 64.7989 40.0729 64.6954C40.03 64.5919 40.0079 64.481 40.0079 64.369L40.0084 64.3681ZM61.7709 66.5C61.7707 66.6302 61.7189 66.755 61.6268 66.8471C61.5347 66.9392 61.4099 66.991 61.2797 66.9912H51.6181C51.488 66.991 51.3634 66.9393 51.2713 66.8474C51.1793 66.7555 51.1274 66.6309 51.1269 66.5009V65.3497C51.1271 65.2195 51.179 65.0947 51.271 65.0026C51.3631 64.9105 51.4879 64.8587 51.6181 64.8585H61.2793C61.4095 64.8587 61.5343 64.9105 61.6264 65.0026C61.7184 65.0947 61.7703 65.2195 61.7705 65.3497L61.7709 66.5ZM49.5741 52.9388C49.5741 53.005 49.561 53.0705 49.5357 53.1316C49.5104 53.1928 49.4733 53.2483 49.4265 53.2951C49.3797 53.3419 49.3241 53.3791 49.263 53.4044C49.2018 53.4297 49.1363 53.4428 49.0701 53.4428C49.0039 53.4428 48.9384 53.4297 48.8772 53.4044C48.8161 53.3791 48.7605 53.3419 48.7137 53.2951C48.6669 53.2483 48.6298 53.1928 48.6045 53.1316C48.5792 53.0705 48.5661 53.005 48.5661 52.9388V52.3112C48.3949 52.2802 48.2277 52.2305 48.0673 52.1632C47.8153 52.0655 47.5886 51.9124 47.4036 51.7154C47.2187 51.5184 47.0804 51.2824 46.9988 51.0248C46.9662 50.8976 46.9846 50.7626 47.0499 50.6487C47.1153 50.5348 47.2225 50.4509 47.3488 50.4148C47.4751 50.3787 47.6105 50.3933 47.7261 50.4554C47.8418 50.5176 47.9287 50.6224 47.9683 50.7476C48.0097 50.8601 48.0751 50.9621 48.16 51.0466C48.2449 51.1311 48.3473 51.196 48.4599 51.2367C48.658 51.3174 48.8713 51.3538 49.0849 51.3433C49.2985 51.3329 49.5072 51.2758 49.6964 51.1761C49.8521 51.0957 49.9787 50.9686 50.0586 50.8126C50.1384 50.6567 50.1676 50.4797 50.142 50.3063C50.0567 49.8454 49.566 49.5201 48.7895 49.4139C48.4346 49.3873 48.0947 49.2598 47.8098 49.0464C47.5249 48.833 47.307 48.5426 47.1817 48.2094C47.0821 47.9156 47.0653 47.6 47.133 47.2972C47.2006 46.9944 47.3502 46.716 47.5654 46.4924C47.8398 46.2172 48.1864 46.025 48.5653 45.9382V45.2892C48.5653 45.1555 48.6184 45.0274 48.7129 44.9328C48.8074 44.8383 48.9356 44.7852 49.0692 44.7852C49.2029 44.7852 49.3311 44.8383 49.4256 44.9328C49.5201 45.0274 49.5732 45.1555 49.5732 45.2892V45.9288C50.0745 46.0354 50.5235 46.3123 50.8438 46.7124C50.8855 46.7638 50.9167 46.823 50.9356 46.8864C50.9544 46.9499 50.9606 47.0164 50.9538 47.0823C50.9469 47.1481 50.9272 47.2119 50.8956 47.2702C50.8641 47.3284 50.8214 47.3798 50.77 47.4215C50.7186 47.4632 50.6595 47.4944 50.5961 47.5133C50.5326 47.5321 50.4661 47.5383 50.4002 47.5315C50.3344 47.5246 50.2705 47.5049 50.2123 47.4733C50.1541 47.4418 50.1027 47.3991 50.061 47.3477C49.952 47.2109 49.8149 47.0989 49.659 47.0196C49.503 46.9402 49.3319 46.8952 49.1571 46.8877C48.999 46.8776 48.8405 46.8999 48.6913 46.9532C48.5421 47.0065 48.4053 47.0897 48.2894 47.1977C48.2032 47.2869 48.1432 47.398 48.116 47.519C48.0887 47.64 48.0951 47.7661 48.1346 47.8837C48.2026 48.0379 48.313 48.1697 48.4529 48.2636C48.5929 48.3575 48.7566 48.4097 48.9251 48.4141C50.1446 48.5812 50.9717 49.2212 51.1329 50.1268C51.1986 50.5098 51.141 50.9037 50.9684 51.2518C50.7957 51.5999 50.5169 51.8841 50.1723 52.0634C49.984 52.1641 49.7833 52.2395 49.5753 52.2877L49.5741 52.9388Z" stroke="#65221A" stroke-width="0.6" mask="url(#path-2-outside-1_1378_748)"/>
</svg>
