<svg width="101" height="100" viewBox="0 0 101 100" fill="none" xmlns="http://www.w3.org/2000/svg">
<circle cx="50.5" cy="50" r="50" fill="#F7F4F4"/>
<path d="M57.04 31.85H34.64C34.2038 31.85 33.85 32.2033 33.85 32.64V63.36C33.85 63.7966 34.2038 64.15 34.64 64.15H49.7866H57.2681H64.7497C65.1859 64.15 65.5397 63.7966 65.5397 63.36V55.8781V48.3969C65.5397 47.9602 65.1859 47.6069 64.7497 47.6069H57.83V32.64C57.83 32.2033 57.4762 31.85 57.04 31.85ZM48.9966 48.3969V55.8781V62.57H35.43V33.43H56.25V47.6069H49.7866C49.3503 47.6069 48.9966 47.9602 48.9966 48.3969ZM56.4781 62.57H50.5766V56.6681H56.4781V62.57ZM56.4781 55.0881H50.5766V49.1869H56.4781V55.0881ZM58.0581 49.1869H63.9597V55.0881H58.0581V49.1869ZM58.0581 56.6681H63.9597V62.57H58.0581V56.6681Z" fill="#65221A" stroke="#65221A" stroke-width="0.3"/>
<path d="M52.2669 52.9275H52.7369V53.3975C52.7369 53.8341 53.0907 54.1875 53.5269 54.1875C53.9632 54.1875 54.3169 53.8341 54.3169 53.3975V52.9275H54.7869C55.2232 52.9275 55.5769 52.5741 55.5769 52.1375C55.5769 51.7008 55.2232 51.3475 54.7869 51.3475H54.3169V50.8775C54.3169 50.4408 53.9632 50.0875 53.5269 50.0875C53.0907 50.0875 52.7369 50.4408 52.7369 50.8775V51.3475H52.2669C51.8307 51.3475 51.477 51.7008 51.477 52.1375C51.477 52.5741 51.8307 52.9275 52.2669 52.9275Z" fill="#65221A" stroke="#65221A" stroke-width="0.3"/>
<path d="M54.9765 59.2867L54.9765 59.2867L54.6441 59.6191L54.9765 59.9514C55.2851 60.26 55.2851 60.76 54.9765 61.0685L54.9765 59.2867ZM54.9765 59.2867C55.2851 58.9781 55.2851 58.4782 54.9765 58.1696L54.9765 59.2867ZM53.527 58.5019L53.8594 58.1696C54.168 57.861 54.668 57.861 54.9765 58.1696L53.527 58.5019ZM53.527 58.5019L53.1946 58.1696C52.8861 57.861 52.3861 57.861 52.0775 58.1696L53.527 58.5019ZM53.527 60.7362L53.8594 61.0686C54.0137 61.2228 54.216 61.3 54.418 61.3C54.6199 61.3 54.8223 61.2229 54.9765 61.0686L53.527 60.7362ZM53.527 60.7362L53.1946 61.0685C53.1946 61.0686 53.1946 61.0686 53.1946 61.0686L53.527 60.7362ZM52.0775 58.1696C51.769 58.4782 51.769 58.9781 52.0775 59.2867L52.0775 59.2867L52.4099 59.6191L52.0775 59.9514C51.769 60.26 51.769 60.76 52.0775 61.0685C52.0775 61.0686 52.0775 61.0686 52.0775 61.0686L52.1836 60.9625C52.3086 61.0875 52.4724 61.15 52.6361 61.15C52.7998 61.15 52.9636 61.0875 53.0886 60.9625L52.0775 58.1696Z" fill="#65221A" stroke="#65221A" stroke-width="0.3"/>
<path d="M62.2694 51.3475H59.7494C59.3132 51.3475 58.9594 51.7008 58.9594 52.1375C58.9594 52.5741 59.3132 52.9275 59.7494 52.9275H62.2694C62.7056 52.9275 63.0594 52.5741 63.0594 52.1375C63.0594 51.7008 62.7056 51.3475 62.2694 51.3475Z" fill="#65221A" stroke="#65221A" stroke-width="0.3"/>
<path d="M62.2694 57.71H59.7494C59.3131 57.71 58.9594 58.0634 58.9594 58.5C58.9594 58.9366 59.3132 59.29 59.7494 59.29H62.2694C62.7056 59.29 63.0594 58.9366 63.0594 58.5C63.0594 58.0634 62.7056 57.71 62.2694 57.71Z" fill="#65221A" stroke="#65221A" stroke-width="0.3"/>
<path d="M62.2694 59.9481H59.7494C59.3132 59.9481 58.9594 60.3015 58.9594 60.7381C58.9594 61.1748 59.3131 61.5281 59.7494 61.5281H62.2694C62.7056 61.5281 63.0594 61.1748 63.0594 60.7381C63.0594 60.3015 62.7056 59.9481 62.2694 59.9481Z" fill="#65221A" stroke="#65221A" stroke-width="0.3"/>
<path d="M53.0919 36.71H38.5853C38.1491 36.71 37.7953 37.0633 37.7953 37.5C37.7953 37.9366 38.1491 38.29 38.5853 38.29H53.0919C53.5281 38.29 53.8819 37.9366 53.8819 37.5C53.8819 37.0633 53.5281 36.71 53.0919 36.71Z" fill="#65221A" stroke="#65221A" stroke-width="0.3"/>
<path d="M53.0919 41.96H38.5853C38.1491 41.96 37.7953 42.3133 37.7953 42.75C37.7953 43.1866 38.1491 43.54 38.5853 43.54H53.0919C53.5281 43.54 53.8819 43.1866 53.8819 42.75C53.8819 42.3133 53.5281 41.96 53.0919 41.96Z" fill="#65221A" stroke="#65221A" stroke-width="0.3"/>
<path d="M46.7988 47.21H38.5853C38.1491 47.21 37.7953 47.5633 37.7953 48C37.7953 48.4366 38.1491 48.79 38.5853 48.79H46.7988C47.235 48.79 47.5887 48.4366 47.5887 48C47.5887 47.5633 47.235 47.21 46.7988 47.21Z" fill="#65221A" stroke="#65221A" stroke-width="0.3"/>
<path d="M46.7988 52.46H38.5853C38.1491 52.46 37.7953 52.8133 37.7953 53.25C37.7953 53.6866 38.1491 54.04 38.5853 54.04H46.7988C47.235 54.04 47.5887 53.6866 47.5887 53.25C47.5887 52.8133 47.235 52.46 46.7988 52.46Z" fill="#65221A" stroke="#65221A" stroke-width="0.3"/>
<path d="M46.7988 57.71H38.5853C38.1491 57.71 37.7953 58.0634 37.7953 58.5C37.7953 58.9366 38.1491 59.29 38.5853 59.29H46.7988C47.235 59.29 47.5887 58.9366 47.5887 58.5C47.5887 58.0634 47.235 57.71 46.7988 57.71Z" fill="#65221A" stroke="#65221A" stroke-width="0.3"/>
</svg>
