<svg width="101" height="100" viewBox="0 0 101 100" fill="none" xmlns="http://www.w3.org/2000/svg">
<circle cx="50.5" cy="50" r="50" fill="#65221A"/>
<path d="M50.412 40.3596L50.4139 40.3596C53.6811 40.3192 56.306 42.9815 56.306 46.2536C56.306 49.5232 53.6416 52.1475 50.412 52.1475C47.1424 52.1475 44.518 49.4832 44.518 46.2536C44.518 42.9839 47.1824 40.3596 50.412 40.3596ZM33.8688 42.1138C33.8688 44.1502 34.6161 45.9892 35.8427 47.4405C32.6186 48.9131 30.35 52.1828 30.35 55.9405V60.8254C30.35 61.4878 30.8725 62.0103 31.5349 62.0103H38.6294V64.9651C38.6294 65.6275 39.152 66.15 39.8144 66.15H61.0097C61.6721 66.15 62.1946 65.6275 62.1946 64.9651V62.0103H69.2891C69.9515 62.0103 70.4741 61.4878 70.4741 60.8254V55.9405C70.4741 52.1444 68.2473 48.8725 64.9834 47.4381C66.2088 45.9872 66.9553 44.149 66.9553 42.1138C66.9553 37.5601 63.2452 33.85 58.6915 33.85C55.6077 33.85 52.8943 35.5389 51.488 38.0624C51.1477 38.0249 50.7977 37.9897 50.412 37.9897C50.064 37.9897 49.6829 38.0249 49.3362 38.0625C47.9299 35.5389 45.2163 33.85 42.1326 33.85C37.5789 33.85 33.8688 37.5601 33.8688 42.1138ZM68.1042 59.6404H62.1885C62.0123 56.072 59.842 52.9916 56.7055 51.5804C57.0484 51.1863 57.3603 50.7612 57.6155 50.305C57.9558 50.3425 58.3058 50.3777 58.6915 50.3777C60.2295 50.3777 61.6849 49.9273 62.8968 49.1883C65.9062 49.9793 68.1042 52.6802 68.1042 55.8991V59.6404ZM40.9993 63.7801V60.0802C40.9993 56.8592 43.1994 54.1189 46.2069 53.3686C47.4559 54.107 48.8715 54.5588 50.412 54.5588C51.9501 54.5588 53.4055 54.1084 54.6174 53.3695C57.6267 54.1605 59.8248 56.8613 59.8248 60.0802V63.7801H40.9993ZM32.7199 55.9405C32.7199 52.7194 34.92 49.9792 37.9275 49.2289C39.1765 49.9673 40.592 50.4191 42.1326 50.4191C42.4807 50.4191 42.8617 50.3839 43.2085 50.3463C43.4639 50.8029 43.776 51.2282 44.1192 51.6226C41.0215 53.0336 38.8128 56.113 38.6356 59.6818H32.7199V55.9405ZM36.2386 42.1138C36.2386 38.8442 38.903 36.2199 42.1326 36.2199C44.129 36.2199 45.897 37.2064 46.9593 38.7379C44.1371 40.0393 42.1482 42.9027 42.1482 46.2536C42.1482 46.862 42.2168 47.4367 42.3538 48.0078H42.3537H42.353H42.3523H42.3516H42.3508H42.3501H42.3494H42.3486H42.3479H42.3472H42.3465H42.3457H42.345H42.3443H42.3435H42.3428H42.3421H42.3414H42.3406H42.3399H42.3392H42.3385H42.3377H42.337H42.3363H42.3355H42.3348H42.3341H42.3334H42.3326H42.3319H42.3312H42.3304H42.3297H42.329H42.3283H42.3275H42.3268H42.3261H42.3254H42.3246H42.3239H42.3232H42.3224H42.3217H42.321H42.3203H42.3195H42.3188H42.3181H42.3174H42.3166H42.3159H42.3152H42.3144H42.3137H42.313H42.3123H42.3115H42.3108H42.3101H42.3093H42.3086H42.3079H42.3072H42.3064H42.3057H42.305H42.3043H42.3035H42.3028H42.3021H42.3013H42.3006H42.2999H42.2992H42.2984H42.2977H42.297H42.2962H42.2955H42.2948H42.2941H42.2933H42.2926H42.2919H42.2912H42.2904H42.2897H42.289H42.2882H42.2875H42.2868H42.2861H42.2853H42.2846H42.2839H42.2831H42.2824H42.2817H42.281H42.2802H42.2795H42.2788H42.2781H42.2773H42.2766H42.2759H42.2751H42.2744H42.2737H42.273H42.2722H42.2715H42.2708H42.2701H42.2693H42.2686H42.2679H42.2671H42.2664H42.2657H42.265H42.2642H42.2635H42.2628H42.262H42.2613H42.2606H42.2599H42.2591H42.2584H42.2577H42.257H42.2562H42.2555H42.2548H42.254H42.2533H42.2526H42.2519H42.2511H42.2504H42.2497H42.2489H42.2482H42.2475H42.2468H42.246H42.2453H42.2446H42.2439H42.2431H42.2424H42.2417H42.2409H42.2402H42.2395H42.2388H42.238H42.2373H42.2366H42.2359H42.2351H42.2344H42.2337H42.2329H42.2322H42.2315H42.2308H42.23H42.2293H42.2286H42.2278H42.2271H42.2264H42.2257H42.2249H42.2242H42.2235H42.2228H42.222H42.2213H42.2206H42.2198H42.2191H42.2184H42.2177H42.2169H42.2162H42.2155H42.2147H42.214H42.2133H42.2126H42.2118H42.2111H42.2104H42.2097H42.2089H42.2082H42.2075H42.2067H42.206H42.2053H42.2046H42.2038H42.2031H42.2024H42.2016H42.2009H42.2002H42.1995H42.1987H42.198H42.1973H42.1966H42.1958H42.1951H42.1944H42.1936H42.1929H42.1922H42.1915H42.1907H42.19H42.1893H42.1886H42.1878H42.1871H42.1864H42.1856H42.1849H42.1842H42.1835H42.1827H42.182H42.1813H42.1805H42.1798H42.1791H42.1784H42.1776H42.1769H42.1762H42.1755H42.1747H42.174C38.8623 48.0078 36.2386 45.3428 36.2386 42.1138ZM58.6915 36.1785C61.9611 36.1785 64.5854 38.8428 64.5854 42.0724C64.5854 45.3034 61.9598 48.0078 58.6915 48.0078H58.6907H58.69H58.6893H58.6886H58.6878H58.6871H58.6864H58.6856H58.6849H58.6842H58.6835H58.6827H58.682H58.6813H58.6805H58.6798H58.6791H58.6784H58.6776H58.6769H58.6762H58.6755H58.6747H58.674H58.6733H58.6725H58.6718H58.6711H58.6704H58.6696H58.6689H58.6682H58.6674H58.6667H58.666H58.6653H58.6645H58.6638H58.6631H58.6624H58.6616H58.6609H58.6602H58.6594H58.6587H58.658H58.6573H58.6565H58.6558H58.6551H58.6544H58.6536H58.6529H58.6522H58.6514H58.6507H58.65H58.6493H58.6485H58.6478H58.6471H58.6463H58.6456H58.6449H58.6442H58.6434H58.6427H58.642H58.6413H58.6405H58.6398H58.6391H58.6383H58.6376H58.6369H58.6362H58.6354H58.6347H58.634H58.6332H58.6325H58.6318H58.6311H58.6303H58.6296H58.6289H58.6282H58.6274H58.6267H58.626H58.6252H58.6245H58.6238H58.6231H58.6223H58.6216H58.6209H58.6201H58.6194H58.6187H58.618H58.6172H58.6165H58.6158H58.6151H58.6143H58.6136H58.6129H58.6121H58.6114H58.6107H58.61H58.6092H58.6085H58.6078H58.607H58.6063H58.6056H58.6049H58.6041H58.6034H58.6027H58.602H58.6012H58.6005H58.5998H58.599H58.5983H58.5976H58.5969H58.5961H58.5954H58.5947H58.594H58.5932H58.5925H58.5918H58.591H58.5903H58.5896H58.5889H58.5881H58.5874H58.5867H58.5859H58.5852H58.5845H58.5838H58.583H58.5823H58.5816H58.5809H58.5801H58.5794H58.5787H58.5779H58.5772H58.5765H58.5758H58.575H58.5743H58.5736H58.5728H58.5721H58.5714H58.5707H58.5699H58.5692H58.5685H58.5678H58.567H58.5663H58.5656H58.5648H58.5641H58.5634H58.5627H58.5619H58.5612H58.5605H58.5597H58.559H58.5583H58.5576H58.5568H58.5561H58.5554H58.5547H58.5539H58.5532H58.5525H58.5517H58.551H58.5503H58.5496H58.5488H58.5481H58.5474H58.5467H58.5459H58.5452H58.5445H58.5437H58.543H58.5423H58.5416H58.5408H58.5401H58.5394H58.5386H58.5379H58.5372H58.5365H58.5357H58.535H58.5343H58.5336H58.5328H58.5321H58.5314H58.5306H58.5299H58.5292H58.5285H58.5277H58.527H58.5263H58.5255H58.5248H58.5241H58.5234H58.5226H58.5219H58.5212H58.5205H58.5197H58.519H58.5183H58.5175H58.5168H58.5161H58.5154H58.5146H58.5139H58.5132H58.5125H58.5117H58.5116C58.6487 47.4367 58.7173 46.862 58.7173 46.2536C58.7173 42.9426 56.7274 40.0391 53.9033 38.7367C54.9283 37.2029 56.6962 36.1785 58.6915 36.1785Z" fill="#F7F4F4" stroke="#F7F4F4" stroke-width="0.3"/>
</svg>
