<svg width="101" height="100" viewBox="0 0 101 100" fill="none" xmlns="http://www.w3.org/2000/svg">
<circle cx="50.5" cy="50" r="50" fill="#F7F4F4"/>
<path d="M64.7354 47.4955C66.0188 46.0466 66.8053 44.1837 66.8053 42.1138C66.8053 37.6429 63.1624 34 58.6915 34C55.6281 34 52.9373 35.6973 51.5712 38.2225C51.1986 38.1811 50.826 38.1397 50.412 38.1397C50.0395 38.1397 49.6255 38.1811 49.2529 38.2225C47.8868 35.6973 45.196 34 42.1326 34C37.6617 34 34.0188 37.6429 34.0188 42.1138C34.0188 44.1837 34.8053 46.0466 36.0886 47.4955C32.8182 48.903 30.5 52.1734 30.5 55.9405V60.8254C30.5 61.4049 30.9554 61.8603 31.5349 61.8603H38.7794V64.9651C38.7794 65.5446 39.2348 66 39.8144 66H61.0097C61.5893 66 62.0446 65.5446 62.0446 64.9651V61.8603H69.2891C69.8687 61.8603 70.3241 61.4049 70.3241 60.8254V55.9405C70.3241 52.132 68.0472 48.8616 64.7354 47.4955ZM68.2542 59.7904H62.0446C61.9204 56.1475 59.685 53.0013 56.456 51.6352C56.87 51.1798 57.2426 50.6831 57.5323 50.1449C57.9049 50.1863 58.2775 50.2277 58.6915 50.2277C60.2232 50.2277 61.6721 49.7723 62.8726 49.0272C65.9774 49.8137 68.2542 52.5873 68.2542 55.8991V59.7904ZM40.8493 63.9301V60.0802C40.8493 56.7684 43.1261 53.9534 46.2309 53.2083C47.4728 53.9534 48.8803 54.4088 50.412 54.4088C51.9437 54.4088 53.3926 53.9534 54.5931 53.2083C57.6979 53.9948 59.9748 56.7684 59.9748 60.0802V63.9301H40.8493ZM32.5699 55.9405C32.5699 52.6287 34.8467 49.8137 37.9515 49.0686C39.1934 49.8137 40.6009 50.2691 42.1326 50.2691C42.5052 50.2691 42.9191 50.2277 43.2917 50.1863C43.5815 50.7245 43.9541 51.2212 44.368 51.6766C41.1805 53.0427 38.9036 56.1889 38.7794 59.8318H32.5699V55.9405ZM36.0886 42.1138C36.0886 38.7607 38.8208 36.0699 42.1326 36.0699C44.2439 36.0699 46.1067 37.1462 47.1831 38.8021C44.3267 40.044 42.2982 42.9004 42.2982 46.2536C42.2982 46.9159 42.381 47.5369 42.5466 48.1578C42.4224 48.1578 42.2982 48.1578 42.174 48.1578C38.7794 48.1578 36.0886 45.4256 36.0886 42.1138ZM58.6915 36.0285C62.0446 36.0285 64.7354 38.7607 64.7354 42.0724C64.7354 45.3842 62.0446 48.1578 58.6915 48.1578C58.5673 48.1578 58.4431 48.1578 58.3189 48.1578C58.4845 47.5369 58.5673 46.9159 58.5673 46.2536C58.5673 42.9418 56.5388 40.044 53.6824 38.8021C54.7173 37.1462 56.5802 36.0285 58.6915 36.0285ZM56.456 46.2536C56.456 49.6067 53.7238 52.2975 50.412 52.2975C47.0589 52.2975 44.368 49.5653 44.368 46.2536C44.368 42.9004 47.1003 40.2096 50.412 40.2096C53.7652 40.1682 56.456 42.9004 56.456 46.2536Z" fill="#65221A"/>
</svg>
