<svg width="60" height="60" viewBox="0 0 60 60" fill="none" xmlns="http://www.w3.org/2000/svg">
<circle cx="30" cy="30" r="30" fill="#65221A"/>
<path d="M44.8962 19.9126L42.3604 17.1799C42.126 16.9408 41.7416 16.9408 41.5026 17.1752C41.5026 17.1752 41.5026 17.1752 41.4979 17.1799L38.962 19.9126C38.7792 20.1798 38.8448 20.5454 39.112 20.7282C39.3276 20.8782 39.6182 20.8642 39.8198 20.6954L41.5354 18.8627V41.1934H37.6308V21.872C37.6308 21.5485 37.3683 21.286 37.0448 21.286H32.3621C32.0387 21.286 31.7762 21.5485 31.7762 21.872V41.1887H29.8262V26.9437C29.8262 26.6203 29.5638 26.3578 29.2403 26.3578H24.5623C24.2389 26.3578 23.9764 26.6203 23.9764 26.9437V41.1887H22.4155V31.6264C22.4155 31.303 22.153 31.0405 21.8295 31.0405H17.1468C16.8234 31.0405 16.5609 31.303 16.5609 31.6264V41.1887H15.5859C15.2625 41.1887 15 41.4512 15 41.7747C15 42.0981 15.2625 42.3606 15.5859 42.3606H42.126C42.4494 42.3606 42.7119 42.0981 42.7119 41.7747V19.2798L44.0384 20.7095C44.2869 20.9157 44.6572 20.8876 44.8634 20.6392C45.0322 20.4376 45.0462 20.147 44.8962 19.9314V19.9126ZM32.9527 22.4579H36.4636V41.1934H32.9527V22.4579ZM25.1482 27.5297H28.6591V41.1887H25.1482V27.5297ZM17.7328 32.2124H21.2436V41.1887H17.7328V32.2124Z" fill="white"/>
</svg>
