<svg width="60" height="60" viewBox="0 0 60 60" fill="none" xmlns="http://www.w3.org/2000/svg">
<circle cx="30" cy="30" r="30" fill="#65221A"/>
<mask id="path-2-outside-1_1446_623" maskUnits="userSpaceOnUse" x="14" y="14" width="32" height="32" fill="black">
<rect fill="white" x="14" y="14" width="32" height="32"/>
<path d="M45.1359 33.1874C44.9804 32.7641 44.6697 32.4263 44.2603 32.2364C43.8499 32.0459 43.3912 32.0273 42.9687 32.1824L42.4245 32.3816V16.9154C42.4245 15.8593 41.5654 15 40.5093 15H24.413C23.3569 15 22.4976 15.8593 22.4976 16.9154V33.0426C21.8593 33.4698 21.3961 33.8806 21.1158 34.1573C20.6782 33.7108 20.0757 33.4495 19.4409 33.4495C18.9509 33.4495 18.4804 33.6003 18.0806 33.8863L15.98 35.3868C14.9289 36.138 14.6847 37.6045 15.4359 38.6559L19.2673 44.0186C19.7063 44.6332 20.4198 45 21.1757 45C21.6659 45 22.1362 44.8488 22.5362 44.5631L24.6366 43.0623C25.5501 42.4098 25.8532 41.2172 25.4246 40.2261C25.4469 40.2158 25.47 40.2072 25.4906 40.1922C25.8055 39.9605 26.7517 39.3595 27.3393 39.3595C27.4767 39.3595 27.7354 39.3946 28.035 39.4349C29.05 39.5715 30.8922 39.8196 32.9179 39.3835C33.0841 39.3745 33.2479 39.342 33.4002 39.2844L33.5678 39.2229C33.5789 39.2194 33.5897 39.2158 33.6004 39.2111L33.6433 39.1954C34.014 39.0857 34.3873 38.9509 34.7609 38.7861L44.1309 35.3554C45.004 35.0343 45.4552 34.0622 45.1359 33.1874ZM32.3423 20.2476C32.2182 20.2133 32.0809 20.2402 31.9844 20.3382L30.5783 21.767V15.7322H34.1066V18.0299C34.1066 18.0312 34.1059 18.0322 34.1059 18.0335C34.1059 18.0348 34.1066 18.0358 34.1066 18.0371V19.4501C34.1066 19.4514 34.1059 19.4525 34.1059 19.4537C34.1059 19.455 34.1066 19.456 34.1066 19.4573V21.767L32.7002 20.3382C32.6036 20.2402 32.466 20.2133 32.3423 20.2476ZM23.2298 18.3996H29.8461V19.0876H23.2298V18.3996ZM34.8388 18.3996H41.6923V19.0876H34.8388V18.3996ZM41.6923 16.9154V17.6674H34.8388V15.7322H40.5093C41.1618 15.7322 41.6923 16.2629 41.6923 16.9154ZM24.413 15.7322H29.8461V17.6674H23.2298V16.9154C23.2298 16.2629 23.7605 15.7322 24.413 15.7322ZM23.2298 19.8198H29.8461V22.6608C29.8461 22.8093 29.936 22.9432 30.0735 22.9995C30.1184 23.0179 30.1654 23.0269 30.2122 23.0269C30.3084 23.0269 30.403 22.989 30.4732 22.9177L32.3423 21.0187L34.2117 22.9177C34.2822 22.989 34.3765 23.0269 34.4727 23.0269C34.5195 23.0269 34.5667 23.0179 34.6114 22.9995C34.7491 22.9432 34.8388 22.8093 34.8388 22.6608V19.8198H41.6923V32.5249C41.6923 32.5661 41.7031 32.6043 41.7159 32.6411L38.1301 33.9543C38.1022 33.6661 38.0074 33.3876 37.8358 33.1449C37.5756 32.7763 37.187 32.531 36.7426 32.4549L31.3341 31.5235C31.3248 31.521 31.3177 31.5146 31.308 31.5125C30.9512 31.4388 30.6055 31.3838 30.2666 31.3398L30.2187 31.3316C30.2153 31.3308 30.2122 31.3323 30.209 31.3319C27.1453 30.9472 24.8086 31.7159 23.2298 32.5947V19.8198ZM24.2108 42.4667L22.1106 43.9675C21.8355 44.1638 21.5123 44.2678 21.1757 44.2678C20.6555 44.2678 20.1649 44.0154 19.8629 43.5932L16.0315 38.2305C15.515 37.5076 15.6829 36.4991 16.4056 35.9824L18.5062 34.482C18.7811 34.2857 19.1045 34.1817 19.4409 34.1817C19.9489 34.1817 20.4274 34.4237 20.731 34.828C20.7501 34.8978 20.7835 34.9642 20.8432 35.0139C20.8552 35.024 20.8697 35.0282 20.8826 35.0365L24.5853 40.2186C25.1018 40.9415 24.9337 41.9501 24.2108 42.4667ZM43.8789 34.6679L34.6865 38.0339C34.6661 38.0392 34.645 38.0392 34.625 38.0485C34.5839 38.0675 34.5428 38.0832 34.5017 38.1014L33.3809 38.5119C31.2644 39.1278 29.2832 38.8644 28.1329 38.7092C27.7804 38.6616 27.5259 38.6273 27.3393 38.6273C26.4069 38.6273 25.1918 39.5025 25.0564 39.6026C25.0537 39.6048 25.0526 39.6076 25.0499 39.6098L21.5715 34.7415C22.3543 33.9611 25.3041 31.442 30.1761 32.067L36.6185 33.1763C36.8702 33.2196 37.0901 33.3583 37.2377 33.5674C37.385 33.7762 37.4422 34.0297 37.399 34.2818C37.3092 34.8027 36.8108 35.1523 36.2932 35.064L30.2171 34.0183C30.0167 33.9839 29.8284 34.1177 29.7943 34.3168C29.76 34.5163 29.8937 34.7054 30.093 34.7397L36.1688 35.7855C36.2653 35.8023 36.3615 35.8101 36.4562 35.8101C37.1333 35.8101 37.7411 35.3976 38.0046 34.7801L43.2207 32.8699C43.4606 32.7816 43.7198 32.7927 43.9522 32.9007C44.1842 33.0083 44.3605 33.1999 44.4484 33.4391C44.6293 33.935 44.3737 34.4863 43.8789 34.6679Z"/>
</mask>
<path d="M45.1359 33.1874C44.9804 32.7641 44.6697 32.4263 44.2603 32.2364C43.8499 32.0459 43.3912 32.0273 42.9687 32.1824L42.4245 32.3816V16.9154C42.4245 15.8593 41.5654 15 40.5093 15H24.413C23.3569 15 22.4976 15.8593 22.4976 16.9154V33.0426C21.8593 33.4698 21.3961 33.8806 21.1158 34.1573C20.6782 33.7108 20.0757 33.4495 19.4409 33.4495C18.9509 33.4495 18.4804 33.6003 18.0806 33.8863L15.98 35.3868C14.9289 36.138 14.6847 37.6045 15.4359 38.6559L19.2673 44.0186C19.7063 44.6332 20.4198 45 21.1757 45C21.6659 45 22.1362 44.8488 22.5362 44.5631L24.6366 43.0623C25.5501 42.4098 25.8532 41.2172 25.4246 40.2261C25.4469 40.2158 25.47 40.2072 25.4906 40.1922C25.8055 39.9605 26.7517 39.3595 27.3393 39.3595C27.4767 39.3595 27.7354 39.3946 28.035 39.4349C29.05 39.5715 30.8922 39.8196 32.9179 39.3835C33.0841 39.3745 33.2479 39.342 33.4002 39.2844L33.5678 39.2229C33.5789 39.2194 33.5897 39.2158 33.6004 39.2111L33.6433 39.1954C34.014 39.0857 34.3873 38.9509 34.7609 38.7861L44.1309 35.3554C45.004 35.0343 45.4552 34.0622 45.1359 33.1874ZM32.3423 20.2476C32.2182 20.2133 32.0809 20.2402 31.9844 20.3382L30.5783 21.767V15.7322H34.1066V18.0299C34.1066 18.0312 34.1059 18.0322 34.1059 18.0335C34.1059 18.0348 34.1066 18.0358 34.1066 18.0371V19.4501C34.1066 19.4514 34.1059 19.4525 34.1059 19.4537C34.1059 19.455 34.1066 19.456 34.1066 19.4573V21.767L32.7002 20.3382C32.6036 20.2402 32.466 20.2133 32.3423 20.2476ZM23.2298 18.3996H29.8461V19.0876H23.2298V18.3996ZM34.8388 18.3996H41.6923V19.0876H34.8388V18.3996ZM41.6923 16.9154V17.6674H34.8388V15.7322H40.5093C41.1618 15.7322 41.6923 16.2629 41.6923 16.9154ZM24.413 15.7322H29.8461V17.6674H23.2298V16.9154C23.2298 16.2629 23.7605 15.7322 24.413 15.7322ZM23.2298 19.8198H29.8461V22.6608C29.8461 22.8093 29.936 22.9432 30.0735 22.9995C30.1184 23.0179 30.1654 23.0269 30.2122 23.0269C30.3084 23.0269 30.403 22.989 30.4732 22.9177L32.3423 21.0187L34.2117 22.9177C34.2822 22.989 34.3765 23.0269 34.4727 23.0269C34.5195 23.0269 34.5667 23.0179 34.6114 22.9995C34.7491 22.9432 34.8388 22.8093 34.8388 22.6608V19.8198H41.6923V32.5249C41.6923 32.5661 41.7031 32.6043 41.7159 32.6411L38.1301 33.9543C38.1022 33.6661 38.0074 33.3876 37.8358 33.1449C37.5756 32.7763 37.187 32.531 36.7426 32.4549L31.3341 31.5235C31.3248 31.521 31.3177 31.5146 31.308 31.5125C30.9512 31.4388 30.6055 31.3838 30.2666 31.3398L30.2187 31.3316C30.2153 31.3308 30.2122 31.3323 30.209 31.3319C27.1453 30.9472 24.8086 31.7159 23.2298 32.5947V19.8198ZM24.2108 42.4667L22.1106 43.9675C21.8355 44.1638 21.5123 44.2678 21.1757 44.2678C20.6555 44.2678 20.1649 44.0154 19.8629 43.5932L16.0315 38.2305C15.515 37.5076 15.6829 36.4991 16.4056 35.9824L18.5062 34.482C18.7811 34.2857 19.1045 34.1817 19.4409 34.1817C19.9489 34.1817 20.4274 34.4237 20.731 34.828C20.7501 34.8978 20.7835 34.9642 20.8432 35.0139C20.8552 35.024 20.8697 35.0282 20.8826 35.0365L24.5853 40.2186C25.1018 40.9415 24.9337 41.9501 24.2108 42.4667ZM43.8789 34.6679L34.6865 38.0339C34.6661 38.0392 34.645 38.0392 34.625 38.0485C34.5839 38.0675 34.5428 38.0832 34.5017 38.1014L33.3809 38.5119C31.2644 39.1278 29.2832 38.8644 28.1329 38.7092C27.7804 38.6616 27.5259 38.6273 27.3393 38.6273C26.4069 38.6273 25.1918 39.5025 25.0564 39.6026C25.0537 39.6048 25.0526 39.6076 25.0499 39.6098L21.5715 34.7415C22.3543 33.9611 25.3041 31.442 30.1761 32.067L36.6185 33.1763C36.8702 33.2196 37.0901 33.3583 37.2377 33.5674C37.385 33.7762 37.4422 34.0297 37.399 34.2818C37.3092 34.8027 36.8108 35.1523 36.2932 35.064L30.2171 34.0183C30.0167 33.9839 29.8284 34.1177 29.7943 34.3168C29.76 34.5163 29.8937 34.7054 30.093 34.7397L36.1688 35.7855C36.2653 35.8023 36.3615 35.8101 36.4562 35.8101C37.1333 35.8101 37.7411 35.3976 38.0046 34.7801L43.2207 32.8699C43.4606 32.7816 43.7198 32.7927 43.9522 32.9007C44.1842 33.0083 44.3605 33.1999 44.4484 33.4391C44.6293 33.935 44.3737 34.4863 43.8789 34.6679Z" fill="white"/>
<path d="M45.1359 33.1874C44.9804 32.7641 44.6697 32.4263 44.2603 32.2364C43.8499 32.0459 43.3912 32.0273 42.9687 32.1824L42.4245 32.3816V16.9154C42.4245 15.8593 41.5654 15 40.5093 15H24.413C23.3569 15 22.4976 15.8593 22.4976 16.9154V33.0426C21.8593 33.4698 21.3961 33.8806 21.1158 34.1573C20.6782 33.7108 20.0757 33.4495 19.4409 33.4495C18.9509 33.4495 18.4804 33.6003 18.0806 33.8863L15.98 35.3868C14.9289 36.138 14.6847 37.6045 15.4359 38.6559L19.2673 44.0186C19.7063 44.6332 20.4198 45 21.1757 45C21.6659 45 22.1362 44.8488 22.5362 44.5631L24.6366 43.0623C25.5501 42.4098 25.8532 41.2172 25.4246 40.2261C25.4469 40.2158 25.47 40.2072 25.4906 40.1922C25.8055 39.9605 26.7517 39.3595 27.3393 39.3595C27.4767 39.3595 27.7354 39.3946 28.035 39.4349C29.05 39.5715 30.8922 39.8196 32.9179 39.3835C33.0841 39.3745 33.2479 39.342 33.4002 39.2844L33.5678 39.2229C33.5789 39.2194 33.5897 39.2158 33.6004 39.2111L33.6433 39.1954C34.014 39.0857 34.3873 38.9509 34.7609 38.7861L44.1309 35.3554C45.004 35.0343 45.4552 34.0622 45.1359 33.1874ZM32.3423 20.2476C32.2182 20.2133 32.0809 20.2402 31.9844 20.3382L30.5783 21.767V15.7322H34.1066V18.0299C34.1066 18.0312 34.1059 18.0322 34.1059 18.0335C34.1059 18.0348 34.1066 18.0358 34.1066 18.0371V19.4501C34.1066 19.4514 34.1059 19.4525 34.1059 19.4537C34.1059 19.455 34.1066 19.456 34.1066 19.4573V21.767L32.7002 20.3382C32.6036 20.2402 32.466 20.2133 32.3423 20.2476ZM23.2298 18.3996H29.8461V19.0876H23.2298V18.3996ZM34.8388 18.3996H41.6923V19.0876H34.8388V18.3996ZM41.6923 16.9154V17.6674H34.8388V15.7322H40.5093C41.1618 15.7322 41.6923 16.2629 41.6923 16.9154ZM24.413 15.7322H29.8461V17.6674H23.2298V16.9154C23.2298 16.2629 23.7605 15.7322 24.413 15.7322ZM23.2298 19.8198H29.8461V22.6608C29.8461 22.8093 29.936 22.9432 30.0735 22.9995C30.1184 23.0179 30.1654 23.0269 30.2122 23.0269C30.3084 23.0269 30.403 22.989 30.4732 22.9177L32.3423 21.0187L34.2117 22.9177C34.2822 22.989 34.3765 23.0269 34.4727 23.0269C34.5195 23.0269 34.5667 23.0179 34.6114 22.9995C34.7491 22.9432 34.8388 22.8093 34.8388 22.6608V19.8198H41.6923V32.5249C41.6923 32.5661 41.7031 32.6043 41.7159 32.6411L38.1301 33.9543C38.1022 33.6661 38.0074 33.3876 37.8358 33.1449C37.5756 32.7763 37.187 32.531 36.7426 32.4549L31.3341 31.5235C31.3248 31.521 31.3177 31.5146 31.308 31.5125C30.9512 31.4388 30.6055 31.3838 30.2666 31.3398L30.2187 31.3316C30.2153 31.3308 30.2122 31.3323 30.209 31.3319C27.1453 30.9472 24.8086 31.7159 23.2298 32.5947V19.8198ZM24.2108 42.4667L22.1106 43.9675C21.8355 44.1638 21.5123 44.2678 21.1757 44.2678C20.6555 44.2678 20.1649 44.0154 19.8629 43.5932L16.0315 38.2305C15.515 37.5076 15.6829 36.4991 16.4056 35.9824L18.5062 34.482C18.7811 34.2857 19.1045 34.1817 19.4409 34.1817C19.9489 34.1817 20.4274 34.4237 20.731 34.828C20.7501 34.8978 20.7835 34.9642 20.8432 35.0139C20.8552 35.024 20.8697 35.0282 20.8826 35.0365L24.5853 40.2186C25.1018 40.9415 24.9337 41.9501 24.2108 42.4667ZM43.8789 34.6679L34.6865 38.0339C34.6661 38.0392 34.645 38.0392 34.625 38.0485C34.5839 38.0675 34.5428 38.0832 34.5017 38.1014L33.3809 38.5119C31.2644 39.1278 29.2832 38.8644 28.1329 38.7092C27.7804 38.6616 27.5259 38.6273 27.3393 38.6273C26.4069 38.6273 25.1918 39.5025 25.0564 39.6026C25.0537 39.6048 25.0526 39.6076 25.0499 39.6098L21.5715 34.7415C22.3543 33.9611 25.3041 31.442 30.1761 32.067L36.6185 33.1763C36.8702 33.2196 37.0901 33.3583 37.2377 33.5674C37.385 33.7762 37.4422 34.0297 37.399 34.2818C37.3092 34.8027 36.8108 35.1523 36.2932 35.064L30.2171 34.0183C30.0167 33.9839 29.8284 34.1177 29.7943 34.3168C29.76 34.5163 29.8937 34.7054 30.093 34.7397L36.1688 35.7855C36.2653 35.8023 36.3615 35.8101 36.4562 35.8101C37.1333 35.8101 37.7411 35.3976 38.0046 34.7801L43.2207 32.8699C43.4606 32.7816 43.7198 32.7927 43.9522 32.9007C44.1842 33.0083 44.3605 33.1999 44.4484 33.4391C44.6293 33.935 44.3737 34.4863 43.8789 34.6679Z" stroke="white" stroke-width="0.5" mask="url(#path-2-outside-1_1446_623)"/>
</svg>
