<svg width="60" height="60" viewBox="0 0 60 60" fill="none" xmlns="http://www.w3.org/2000/svg">
<circle cx="30" cy="30" r="30" fill="white"/>
<path d="M20.191 29.5398V29.5405C20.1902 29.7041 20.1246 29.8607 20.0087 29.9761C19.8927 30.0914 19.7358 30.1562 19.5723 30.1562C19.4082 30.1562 19.2508 30.091 19.1347 29.975M20.191 29.5398L19.1347 29.975M20.191 29.5398V27.4679H22.2652C22.4293 27.4679 22.5867 27.4027 22.7027 27.2867C22.8188 27.1707 22.884 27.0133 22.884 26.8492C22.884 26.6851 22.8188 26.5277 22.7027 26.4117C22.5867 26.2956 22.4293 26.2304 22.2652 26.2304H19.5723C19.4082 26.2304 19.2508 26.2956 19.1347 26.4117C19.0187 26.5277 18.9535 26.6851 18.9535 26.8492V29.5374C18.9535 29.7015 19.0187 29.8589 19.1347 29.975M20.191 29.5398L19.1347 29.975" fill="#65221A" stroke="#65221A" stroke-width="0.3"/>
<path d="M42.0656 29.975C42.1816 30.091 42.339 30.1562 42.5031 30.1562C42.6672 30.1562 42.8246 30.091 42.9406 29.975C43.0567 29.8589 43.1218 29.7015 43.1218 29.5374V26.8492C43.1218 26.6851 43.0567 26.5277 42.9406 26.4117C42.8246 26.2956 42.6672 26.2304 42.5031 26.2304H39.8125C39.6484 26.2304 39.491 26.2956 39.375 26.4117C39.2589 26.5277 39.1937 26.6851 39.1937 26.8492C39.1937 27.0133 39.2589 27.1707 39.375 27.2867C39.491 27.4027 39.6484 27.4679 39.8125 27.4679H41.8844V29.5374C41.8844 29.7015 41.9495 29.8589 42.0656 29.975Z" fill="#65221A" stroke="#65221A" stroke-width="0.3"/>
<path d="M39.8125 36.9038H42.5031C42.6672 36.9038 42.8246 36.8386 42.9406 36.7225C43.0567 36.6065 43.1218 36.4491 43.1218 36.285V33.5944C43.1218 33.4303 43.0567 33.2729 42.9406 33.1569C42.8246 33.0409 42.6672 32.9757 42.5031 32.9757C42.339 32.9757 42.1816 33.0409 42.0656 33.1569C41.9495 33.2729 41.8844 33.4303 41.8844 33.5944V35.6663H39.8125C39.6484 35.6663 39.491 35.7315 39.375 35.8475C39.2589 35.9635 39.1937 36.1209 39.1937 36.285C39.1937 36.4491 39.2589 36.6065 39.375 36.7225C39.491 36.8386 39.6484 36.9038 39.8125 36.9038Z" fill="#65221A" stroke="#65221A" stroke-width="0.3"/>
<path d="M19.5723 36.9038H22.2652C22.4293 36.9038 22.5867 36.8386 22.7027 36.7225C22.8188 36.6065 22.884 36.4491 22.884 36.285C22.884 36.1209 22.8188 35.9635 22.7027 35.8475C22.5867 35.7315 22.4293 35.6663 22.2652 35.6663H20.191V33.5944C20.191 33.4303 20.1258 33.2729 20.0098 33.1569C19.8937 33.0409 19.7364 32.9757 19.5723 32.9757C19.4082 32.9757 19.2508 33.0409 19.1347 33.1569C19.0187 33.2729 18.9535 33.4303 18.9535 33.5944V36.285C18.9535 36.4491 19.0187 36.6065 19.1347 36.7225C19.2508 36.8386 19.4082 36.9038 19.5723 36.9038Z" fill="#65221A" stroke="#65221A" stroke-width="0.3"/>
<path d="M33.1465 38.6749C33.2625 38.7909 33.4199 38.8561 33.584 38.8561C33.7481 38.8561 33.9055 38.7909 34.0215 38.6749C34.1375 38.5589 34.2027 38.4015 34.2027 38.2374V24.6437C34.2027 24.4796 34.1375 24.3223 34.0215 24.2062C33.9055 24.0902 33.7481 24.025 33.584 24.025C33.4199 24.025 33.2625 24.0902 33.1465 24.2062C33.0304 24.3223 32.9652 24.4796 32.9652 24.6437V38.2374C32.9652 38.4015 33.0304 38.5589 33.1465 38.6749Z" fill="#65221A" stroke="#65221A" stroke-width="0.3"/>
<path d="M24.848 31.4992C24.848 32.8812 25.2447 34.1427 25.8929 35.0625C26.5407 35.9818 27.4496 36.571 28.4691 36.571C29.4887 36.571 30.3975 35.9818 31.0453 35.0625C31.6935 34.1427 32.0902 32.8812 32.0902 31.4992C32.0902 30.1171 31.6929 28.8556 31.0444 27.9358C30.3963 27.0165 29.4875 26.4273 28.4691 26.4273C27.4507 26.4273 26.5419 27.0165 25.8938 27.9358C25.2453 28.8556 24.848 30.1171 24.848 31.4992ZM26.0855 31.4828C26.0855 30.4299 26.3691 29.4623 26.8139 28.7625C27.2606 28.0595 27.8534 27.6484 28.4691 27.6484C29.0849 27.6484 29.6776 28.0595 30.1243 28.7625C30.5691 29.4623 30.8527 30.4299 30.8527 31.4828C30.8527 32.5353 30.5663 33.5029 30.1201 34.2029C29.6717 34.9063 29.0788 35.3171 28.4691 35.3171C27.8594 35.3171 27.2666 34.9063 26.8182 34.2029C26.3719 33.5029 26.0855 32.5353 26.0855 31.4828Z" fill="#65221A" stroke="#65221A" stroke-width="0.3"/>
<path d="M17.4512 38.9662H44.5307L44.9682 24.1991C44.8521 24.0831 44.6948 24.0179 44.5307 24.0179H17.4512C17.2871 24.0179 17.1297 24.0831 17.0136 24.1991C16.8976 24.3152 16.8324 24.4726 16.8324 24.6367V38.3475C16.8324 38.5116 16.8976 38.669 17.0136 38.785C17.1297 38.901 17.2871 38.9662 17.4512 38.9662ZM43.9119 25.2554V37.7287H18.0699V25.2554H43.9119Z" fill="#65221A" stroke="#65221A" stroke-width="0.3"/>
<path d="M16.0875 36.1796V23.0875L42.9858 22.0312C42.8697 21.9152 42.7123 21.85 42.5482 21.85H15.4687C15.3046 21.85 15.1473 21.9152 15.0312 22.0312C14.9152 22.1473 14.85 22.3046 14.85 22.4687V36.1796C14.85 36.3437 14.9152 36.5011 15.0312 36.6171C15.1473 36.7331 15.3046 36.7983 15.4687 36.7983C15.6328 36.7983 15.7902 36.7331 15.9063 36.6171C16.0223 36.5011 16.0875 36.3437 16.0875 36.1796Z" fill="#65221A" stroke="#65221A" stroke-width="0.3"/>
</svg>
