<svg width="60" height="60" viewBox="0 0 60 60" fill="none" xmlns="http://www.w3.org/2000/svg">
<circle cx="30" cy="30" r="30" fill="white"/>
<path fill-rule="evenodd" clip-rule="evenodd" d="M25.45 17C22.2192 17 19.6 19.6191 19.6 22.85V37.8H18.3C17.7742 37.8 17.3002 38.1167 17.099 38.6025C16.8978 39.0883 17.009 39.6474 17.3808 40.0192L19.9808 42.6192C20.4885 43.1269 21.3116 43.1269 21.8193 42.6192L24.4193 40.0192C24.7911 39.6474 24.9023 39.0883 24.7011 38.6025C24.4999 38.1167 24.0258 37.8 23.5 37.8H22.2V22.85C22.2 21.0551 23.6551 19.6 25.45 19.6C27.245 19.6 28.7 21.0551 28.7 22.85V37.15C28.7 40.3809 31.3191 43 34.55 43C37.7809 43 40.4 40.3809 40.4 37.15V24.5781C41.9148 24.0427 43 22.5981 43 20.9C43 18.7461 41.254 17 39.1 17C36.946 17 35.2 18.7461 35.2 20.9C35.2 22.5981 36.2852 24.0427 37.8 24.5781V37.15C37.8 38.9449 36.3449 40.4 34.55 40.4C32.7551 40.4 31.3 38.9449 31.3 37.15V22.85C31.3 19.6191 28.6809 17 25.45 17ZM39.1 19.6C38.382 19.6 37.8 20.182 37.8 20.9C37.8 21.618 38.382 22.2 39.1 22.2C39.818 22.2 40.4 21.618 40.4 20.9C40.4 20.182 39.818 19.6 39.1 19.6Z" fill="#65221A"/>
</svg>
