<svg width="60" height="60" viewBox="0 0 60 60" fill="none" xmlns="http://www.w3.org/2000/svg">
<circle cx="30" cy="30" r="30" fill="#65221A"/>
<mask id="path-2-outside-1_1446_475" maskUnits="userSpaceOnUse" x="14" y="17" width="32" height="26" fill="black">
<rect fill="white" x="14" y="17" width="32" height="26"/>
<path fill-rule="evenodd" clip-rule="evenodd" d="M44.9504 23.768L41.1287 35.5316C41.0653 35.7305 40.9401 35.904 40.7712 36.0267C40.6023 36.1495 40.3987 36.2151 40.1899 36.2141H27.4086C27.1999 36.2151 26.9963 36.1494 26.8275 36.0266C26.6587 35.9039 26.5335 35.7305 26.4702 35.5316L22.6482 23.768C22.5994 23.6199 22.5865 23.4623 22.6107 23.3083C22.6348 23.1543 22.6952 23.0082 22.7869 22.882C22.8786 22.7559 22.9989 22.6535 23.138 22.583C23.2771 22.5126 23.431 22.4763 23.5869 22.477H44.0119C44.168 22.4764 44.3219 22.5129 44.4611 22.5834C44.6002 22.654 44.7206 22.7567 44.8123 22.8829C44.9039 23.0092 44.9643 23.1555 44.9883 23.3096C45.0123 23.4638 44.9993 23.6215 44.9504 23.7697V23.768ZM28.3637 38.9351C28.5517 38.9353 28.7339 39.0007 28.8791 39.1201C29.0243 39.2395 29.1236 39.4056 29.1601 39.5901C29.1966 39.7746 29.168 39.966 29.0792 40.1317C28.9904 40.2974 28.8469 40.4273 28.6731 40.4991C28.4993 40.5708 28.306 40.5802 28.1261 40.5254C27.9462 40.4707 27.7909 40.3552 27.6866 40.1988C27.5822 40.0424 27.5354 39.8546 27.554 39.6675C27.5725 39.4804 27.6554 39.3055 27.7885 39.1727C27.864 39.0971 27.9536 39.0371 28.0523 38.9962C28.151 38.9553 28.2568 38.9343 28.3637 38.9344V38.9351ZM28.4417 39.6705C28.4316 39.66 28.4194 39.6517 28.406 39.646C28.3927 39.6402 28.3782 39.6373 28.3637 39.6372C28.3491 39.6373 28.3347 39.6403 28.3214 39.646C28.308 39.6518 28.2958 39.6601 28.2857 39.6705C28.265 39.6912 28.2534 39.7193 28.2534 39.7485C28.2534 39.7778 28.265 39.8058 28.2857 39.8265C28.2958 39.8369 28.308 39.8452 28.3214 39.851C28.3347 39.8567 28.3491 39.8597 28.3637 39.8598C28.3855 39.8598 28.4068 39.8533 28.4249 39.8412C28.4431 39.8291 28.4572 39.8119 28.4656 39.7917C28.4739 39.7716 28.4761 39.7494 28.4718 39.728C28.4676 39.7066 28.4571 39.687 28.4417 39.6715V39.6705ZM38.4984 38.9351C38.6866 38.9352 38.8689 39.0006 39.0143 39.1201C39.1597 39.2396 39.2591 39.4059 39.2957 39.5905C39.3323 39.7751 39.3037 39.9667 39.2148 40.1326C39.1259 40.2985 38.9823 40.4285 38.8083 40.5003C38.6344 40.5722 38.4409 40.5815 38.2608 40.5267C38.0808 40.4719 37.9253 40.3563 37.8209 40.1997C37.7165 40.0431 37.6696 39.8552 37.6883 39.6679C37.7069 39.4806 37.79 39.3056 37.9232 39.1727C37.9986 39.097 38.0883 39.037 38.187 38.9961C38.2857 38.9552 38.3915 38.9342 38.4984 38.9344V38.9351ZM38.5764 39.6705C38.5556 39.6498 38.5275 39.6382 38.4982 39.6382C38.4689 39.6382 38.4408 39.6498 38.4201 39.6705C38.3995 39.6913 38.388 39.7193 38.388 39.7485C38.388 39.7777 38.3995 39.8057 38.4201 39.8265C38.4355 39.8419 38.4552 39.8523 38.4766 39.8565C38.498 39.8608 38.5202 39.8586 38.5403 39.8502C38.5605 39.8419 38.5777 39.8278 38.5899 39.8097C38.602 39.7916 38.6086 39.7703 38.6087 39.7485C38.6086 39.7339 38.6056 39.7195 38.5999 39.7061C38.5942 39.6927 38.5858 39.6806 38.5754 39.6705H38.5764ZM33.7993 26.6666C33.1798 26.6666 32.5795 26.8815 32.1007 27.2745C31.6218 27.6676 31.2941 28.2145 31.1733 28.8221C31.0525 29.4297 31.1461 30.0603 31.4382 30.6067C31.7302 31.153 32.2027 31.5811 32.7751 31.8181C33.3474 32.0551 33.9842 32.0864 34.577 31.9065C35.1698 31.7266 35.6819 31.3468 36.026 30.8317C36.3701 30.3166 36.525 29.6981 36.4643 29.0816C36.4035 28.4651 36.1308 27.8887 35.6928 27.4507C35.4444 27.2017 35.1492 27.0042 34.8243 26.8697C34.4993 26.7351 34.151 26.6661 33.7993 26.6666ZM35.1959 27.9479C34.8728 27.6246 34.4476 27.4234 33.9927 27.3784C33.5379 27.3335 33.0815 27.4477 32.7014 27.7016C32.3213 27.9554 32.041 28.3332 31.9083 28.7706C31.7755 29.208 31.7985 29.6778 31.9734 30.1001C32.1483 30.5224 32.4642 30.871 32.8672 31.0865C33.2703 31.302 33.7357 31.3711 34.184 31.2819C34.6323 31.1927 35.0358 30.9509 35.3257 30.5976C35.6157 30.2442 35.7741 29.8013 35.7741 29.3442C35.7744 29.0849 35.7236 28.828 35.6243 28.5884C35.5251 28.3487 35.3795 28.1311 35.1959 27.9479ZM34.4674 25.2096L34.3311 24.5375H33.2677L33.1304 25.2136C33.1171 25.2804 33.0846 25.3419 33.0368 25.3904C32.989 25.439 32.9281 25.4725 32.8615 25.4869C32.6635 25.5351 32.4696 25.5985 32.2813 25.6765C32.0901 25.7558 31.9054 25.8498 31.7288 25.9578C31.672 25.9925 31.6065 26.0104 31.5399 26.0092C31.4733 26.008 31.4084 25.9879 31.3529 25.9511L30.7767 25.5692L30.0256 26.3203L30.4075 26.8965C30.4451 26.9537 30.4651 27.0206 30.4651 27.089C30.4651 27.1574 30.4451 27.2243 30.4075 27.2814C30.195 27.632 30.0377 28.0131 29.9409 28.4115C29.9254 28.4773 29.891 28.5372 29.8421 28.5839C29.7932 28.6306 29.7318 28.6622 29.6653 28.6747L28.9932 28.8107V29.8751L29.6693 30.012C29.7361 30.0255 29.7976 30.0581 29.8461 30.1059C29.8947 30.1538 29.9282 30.2147 29.9426 30.2813C29.9908 30.4792 30.0542 30.673 30.1322 30.8612C30.2115 31.0523 30.3057 31.2369 30.4138 31.4133C30.4485 31.4702 30.4662 31.5358 30.465 31.6025C30.4638 31.6691 30.4436 31.734 30.4068 31.7896L30.0249 32.3658L30.7761 33.1169L31.3522 32.7347C31.4094 32.6972 31.4763 32.6772 31.5447 32.6772C31.6131 32.6772 31.68 32.6972 31.7371 32.7347C31.9105 32.8403 32.0916 32.9326 32.279 33.0106C32.4694 33.0898 32.6657 33.1538 32.8662 33.2022C32.9319 33.218 32.9916 33.2523 33.0383 33.3012C33.0849 33.3501 33.1165 33.4114 33.1291 33.4778L33.2654 34.15H34.3288L34.4658 33.4741C34.4791 33.4073 34.5117 33.3458 34.5596 33.2972C34.6074 33.2486 34.6684 33.215 34.735 33.2005C34.9329 33.1524 35.1268 33.0888 35.3149 33.0106L35.3322 33.0039C35.5172 32.9261 35.696 32.8343 35.8671 32.7293C35.9239 32.6946 35.9896 32.6768 36.0562 32.678C36.1228 32.6793 36.1877 32.6995 36.2433 32.7363L36.8195 33.1182L37.5706 32.3671L37.1887 31.7909C37.1511 31.7337 37.1311 31.6667 37.1311 31.5983C37.1311 31.5298 37.1511 31.4629 37.1887 31.4057C37.2943 31.2319 37.3865 31.0503 37.4643 30.8625L37.4716 30.8458C37.5474 30.6607 37.609 30.4701 37.6559 30.2756C37.6716 30.2098 37.706 30.15 37.755 30.1033C37.8039 30.0566 37.8654 30.0252 37.9319 30.0127L38.6037 29.8764V28.8124L37.9289 28.6754C37.8621 28.662 37.8006 28.6294 37.7521 28.5816C37.7035 28.5339 37.6698 28.473 37.6553 28.4065C37.5577 28.0067 37.3988 27.6245 37.184 27.2734C37.1494 27.2166 37.1317 27.151 37.1329 27.0845C37.1341 27.0179 37.1543 26.953 37.191 26.8975L37.5729 26.3213L36.8218 25.5702L36.2456 25.9528C36.1884 25.9903 36.1215 26.0104 36.053 26.0104C35.9846 26.0104 35.9176 25.9903 35.8604 25.9528C35.51 25.7399 35.1288 25.5825 34.7304 25.4862C34.6646 25.4705 34.6048 25.4362 34.5582 25.3873C34.5115 25.3384 34.48 25.277 34.4674 25.2106V25.2096ZM34.985 24.2392C34.9628 24.1251 34.9016 24.0223 34.8118 23.9485C34.722 23.8746 34.6093 23.8344 34.4931 23.8346H33.1058C32.9895 23.8344 32.8768 23.8746 32.7871 23.9485C32.6973 24.0223 32.6361 24.1251 32.6139 24.2392L32.4876 24.8624C32.3268 24.9091 32.1687 24.9647 32.0141 25.029C31.859 25.0932 31.7076 25.1659 31.5605 25.2466L31.0293 24.8944C30.9326 24.8305 30.8168 24.802 30.7015 24.8135C30.5862 24.8251 30.4783 24.876 30.3962 24.9577L29.4154 25.9384C29.3337 26.0206 29.2828 26.1284 29.2712 26.2438C29.2597 26.3591 29.2883 26.4749 29.3521 26.5716L29.7047 27.1041C29.5429 27.3984 29.414 27.7097 29.3204 28.0322L28.6973 28.1589C28.5832 28.181 28.4803 28.2423 28.4065 28.332C28.3327 28.4218 28.2924 28.5345 28.2927 28.6507V30.0377C28.2923 30.154 28.3326 30.2668 28.4064 30.3566C28.4802 30.4464 28.5831 30.5077 28.6973 30.5299L29.3208 30.6562C29.3676 30.817 29.4233 30.9751 29.4874 31.1297C29.5515 31.2852 29.624 31.4371 29.7047 31.5846L29.3524 32.1155C29.2883 32.2122 29.2596 32.3281 29.2712 32.4435C29.2829 32.559 29.3342 32.6668 29.4164 32.7487L30.3972 33.7291C30.4792 33.811 30.5871 33.8621 30.7024 33.8736C30.8178 33.8852 30.9337 33.8565 31.0303 33.7924L31.5592 33.4408C31.7064 33.5211 31.8578 33.5935 32.0127 33.6578C32.1679 33.7221 32.3266 33.7777 32.4879 33.8244L32.6142 34.4479C32.6364 34.562 32.6976 34.6648 32.7874 34.7386C32.8772 34.8125 32.9899 34.8527 33.1061 34.8524H34.4934C34.6097 34.8527 34.7224 34.8125 34.8121 34.7386C34.9019 34.6648 34.9631 34.562 34.9853 34.4479L35.1116 33.8244C35.2728 33.7777 35.4314 33.7221 35.5865 33.6578C35.5926 33.6554 35.5986 33.6528 35.6045 33.6498C35.753 33.5875 35.8983 33.5177 36.0397 33.4405L36.5695 33.7927C36.6662 33.8567 36.782 33.8853 36.8974 33.8738C37.0128 33.8622 37.1206 33.8112 37.2027 33.7294L38.1835 32.749C38.2652 32.6668 38.3161 32.5589 38.3275 32.4436C38.339 32.3283 38.3104 32.2125 38.2464 32.1158L37.8959 31.5846C37.9765 31.4376 38.0492 31.2863 38.1135 31.1314L38.1205 31.1124C38.1815 30.9632 38.2346 30.8109 38.2798 30.6562L38.9033 30.5299C39.0174 30.5077 39.1203 30.4464 39.1941 30.3566C39.268 30.2668 39.3082 30.154 39.3078 30.0377V28.6507C39.3081 28.5343 39.2677 28.4215 39.1936 28.3317C39.1196 28.242 39.0166 28.1808 38.9023 28.1589L38.2791 28.0322C38.2321 27.871 38.1765 27.7125 38.1125 27.5573C38.0483 27.4024 37.9756 27.2511 37.8949 27.1041L38.2468 26.5729C38.3114 26.4764 38.3403 26.3605 38.3287 26.2449C38.3171 26.1294 38.2656 26.0215 38.1831 25.9398L37.2027 24.959C37.1205 24.8774 37.0127 24.8265 36.8974 24.815C36.7821 24.8034 36.6663 24.8319 36.5695 24.8957L36.0397 25.2479C35.8926 25.1672 35.7412 25.0946 35.5861 25.0303C35.4311 24.966 35.2725 24.9104 35.1113 24.8637L34.985 24.2405V24.2392ZM38.4984 37.4814C38.0502 37.4814 37.6121 37.6143 37.2394 37.8633C36.8668 38.1123 36.5763 38.4662 36.4048 38.8803C36.2333 39.2944 36.1884 39.75 36.2758 40.1896C36.3633 40.6292 36.5791 41.0329 36.896 41.3499C37.2129 41.6668 37.6167 41.8826 38.0563 41.97C38.4959 42.0575 38.9515 42.0126 39.3656 41.8411C39.7796 41.6696 40.1335 41.3791 40.3825 41.0065C40.6315 40.6338 40.7645 40.1957 40.7645 39.7475C40.7645 39.1465 40.5257 38.5701 40.1007 38.1451C39.6758 37.7202 39.0994 37.4814 38.4984 37.4814ZM40.0626 39.7475C40.0626 39.4381 39.9709 39.1357 39.799 38.8785C39.6271 38.6212 39.3828 38.4207 39.097 38.3023C38.8112 38.1839 38.4966 38.1529 38.1932 38.2133C37.8898 38.2737 37.611 38.4226 37.3923 38.6414C37.1735 38.8602 37.0245 39.1389 36.9642 39.4423C36.9038 39.7458 36.9348 40.0603 37.0532 40.3461C37.1716 40.632 37.3721 40.8763 37.6293 41.0481C37.8866 41.22 38.189 41.3118 38.4984 41.3118C38.9132 41.3118 39.3111 41.147 39.6045 40.8536C39.8978 40.5602 40.0626 40.1624 40.0626 39.7475ZM28.3637 37.4814C27.9155 37.4814 27.4774 37.6143 27.1047 37.8633C26.7321 38.1123 26.4416 38.4662 26.2701 38.8803C26.0986 39.2944 26.0537 39.75 26.1411 40.1896C26.2286 40.6292 26.4444 41.0329 26.7613 41.3499C27.0782 41.6668 27.482 41.8826 27.9216 41.97C28.3612 42.0575 28.8168 42.0126 29.2309 41.8411C29.6449 41.6696 29.9989 41.3791 30.2479 41.0065C30.4969 40.6338 30.6298 40.1957 30.6298 39.7475C30.6298 39.1465 30.391 38.5701 29.966 38.1451C29.5411 37.7202 28.9647 37.4814 28.3637 37.4814ZM29.9279 39.7475C29.9279 39.4381 29.8362 39.1357 29.6643 38.8785C29.4924 38.6212 29.2481 38.4207 28.9623 38.3023C28.6765 38.1839 28.3619 38.1529 28.0585 38.2133C27.7551 38.2737 27.4763 38.4226 27.2576 38.6414C27.0388 38.8602 26.8898 39.1389 26.8295 39.4423C26.7691 39.7458 26.8001 40.0603 26.9185 40.3461C27.0369 40.632 27.2374 40.8763 27.4946 41.0481C27.7519 41.22 28.0543 41.3118 28.3637 41.3118C28.5691 41.3118 28.7725 41.2714 28.9623 41.1928C29.1522 41.1142 29.3246 40.999 29.4699 40.8537C29.6151 40.7084 29.7304 40.536 29.809 40.3462C29.8876 40.1564 29.928 39.9529 29.9279 39.7475ZM41.8052 36.6183H26.9014C26.7058 36.6219 26.5143 36.5616 26.356 36.4465C26.1978 36.3315 26.0813 36.168 26.0243 35.9808L20.7257 19.5294C20.5858 19.0836 20.3065 18.6944 19.929 18.4191C19.5514 18.1439 19.0955 17.997 18.6282 18.0002H15.3624C15.3153 17.9987 15.2685 18.0067 15.2246 18.0237C15.1807 18.0408 15.1406 18.0664 15.1068 18.0992C15.073 18.132 15.0462 18.1712 15.0278 18.2145C15.0095 18.2579 15 18.3045 15 18.3516C15 18.3987 15.0095 18.4453 15.0278 18.4886C15.0462 18.532 15.073 18.5712 15.1068 18.604C15.1406 18.6367 15.1807 18.6624 15.2246 18.6794C15.2685 18.6964 15.3153 18.7044 15.3624 18.703H18.6299C18.9485 18.6988 19.26 18.798 19.5175 18.9858C19.775 19.1735 19.9647 19.4397 20.0582 19.7444L25.3568 36.1961C25.4603 36.5242 25.666 36.8105 25.944 37.0132C26.2219 37.2158 26.5574 37.3242 26.9014 37.3225H41.8052C41.8984 37.3225 41.9878 37.2854 42.0538 37.2195C42.1197 37.1536 42.1568 37.0641 42.1568 36.9709C42.1568 36.8777 42.1197 36.7882 42.0538 36.7223C41.9878 36.6564 41.8984 36.6193 41.8052 36.6193V36.6183ZM40.4612 35.3137L44.2832 23.5501C44.2981 23.5073 44.3025 23.4615 44.2959 23.4167C44.2892 23.3719 44.2718 23.3293 44.2452 23.2927C44.2185 23.2561 44.1834 23.2265 44.1427 23.2064C44.1021 23.1863 44.0572 23.1764 44.0119 23.1775H23.5869C23.5416 23.1762 23.4965 23.1859 23.4558 23.2059C23.415 23.2259 23.3798 23.2556 23.3531 23.2923C23.3264 23.329 23.309 23.3716 23.3025 23.4165C23.2959 23.4614 23.3005 23.5073 23.3157 23.5501L27.1387 35.3137C27.1566 35.3712 27.1923 35.4216 27.2406 35.4576C27.29 35.4925 27.3491 35.5109 27.4096 35.5103H40.1899C40.2505 35.511 40.3097 35.4925 40.3592 35.4576C40.4076 35.4216 40.4433 35.3712 40.4612 35.3137Z"/>
</mask>
<path fill-rule="evenodd" clip-rule="evenodd" d="M44.9504 23.768L41.1287 35.5316C41.0653 35.7305 40.9401 35.904 40.7712 36.0267C40.6023 36.1495 40.3987 36.2151 40.1899 36.2141H27.4086C27.1999 36.2151 26.9963 36.1494 26.8275 36.0266C26.6587 35.9039 26.5335 35.7305 26.4702 35.5316L22.6482 23.768C22.5994 23.6199 22.5865 23.4623 22.6107 23.3083C22.6348 23.1543 22.6952 23.0082 22.7869 22.882C22.8786 22.7559 22.9989 22.6535 23.138 22.583C23.2771 22.5126 23.431 22.4763 23.5869 22.477H44.0119C44.168 22.4764 44.3219 22.5129 44.4611 22.5834C44.6002 22.654 44.7206 22.7567 44.8123 22.8829C44.9039 23.0092 44.9643 23.1555 44.9883 23.3096C45.0123 23.4638 44.9993 23.6215 44.9504 23.7697V23.768ZM28.3637 38.9351C28.5517 38.9353 28.7339 39.0007 28.8791 39.1201C29.0243 39.2395 29.1236 39.4056 29.1601 39.5901C29.1966 39.7746 29.168 39.966 29.0792 40.1317C28.9904 40.2974 28.8469 40.4273 28.6731 40.4991C28.4993 40.5708 28.306 40.5802 28.1261 40.5254C27.9462 40.4707 27.7909 40.3552 27.6866 40.1988C27.5822 40.0424 27.5354 39.8546 27.554 39.6675C27.5725 39.4804 27.6554 39.3055 27.7885 39.1727C27.864 39.0971 27.9536 39.0371 28.0523 38.9962C28.151 38.9553 28.2568 38.9343 28.3637 38.9344V38.9351ZM28.4417 39.6705C28.4316 39.66 28.4194 39.6517 28.406 39.646C28.3927 39.6402 28.3782 39.6373 28.3637 39.6372C28.3491 39.6373 28.3347 39.6403 28.3214 39.646C28.308 39.6518 28.2958 39.6601 28.2857 39.6705C28.265 39.6912 28.2534 39.7193 28.2534 39.7485C28.2534 39.7778 28.265 39.8058 28.2857 39.8265C28.2958 39.8369 28.308 39.8452 28.3214 39.851C28.3347 39.8567 28.3491 39.8597 28.3637 39.8598C28.3855 39.8598 28.4068 39.8533 28.4249 39.8412C28.4431 39.8291 28.4572 39.8119 28.4656 39.7917C28.4739 39.7716 28.4761 39.7494 28.4718 39.728C28.4676 39.7066 28.4571 39.687 28.4417 39.6715V39.6705ZM38.4984 38.9351C38.6866 38.9352 38.8689 39.0006 39.0143 39.1201C39.1597 39.2396 39.2591 39.4059 39.2957 39.5905C39.3323 39.7751 39.3037 39.9667 39.2148 40.1326C39.1259 40.2985 38.9823 40.4285 38.8083 40.5003C38.6344 40.5722 38.4409 40.5815 38.2608 40.5267C38.0808 40.4719 37.9253 40.3563 37.8209 40.1997C37.7165 40.0431 37.6696 39.8552 37.6883 39.6679C37.7069 39.4806 37.79 39.3056 37.9232 39.1727C37.9986 39.097 38.0883 39.037 38.187 38.9961C38.2857 38.9552 38.3915 38.9342 38.4984 38.9344V38.9351ZM38.5764 39.6705C38.5556 39.6498 38.5275 39.6382 38.4982 39.6382C38.4689 39.6382 38.4408 39.6498 38.4201 39.6705C38.3995 39.6913 38.388 39.7193 38.388 39.7485C38.388 39.7777 38.3995 39.8057 38.4201 39.8265C38.4355 39.8419 38.4552 39.8523 38.4766 39.8565C38.498 39.8608 38.5202 39.8586 38.5403 39.8502C38.5605 39.8419 38.5777 39.8278 38.5899 39.8097C38.602 39.7916 38.6086 39.7703 38.6087 39.7485C38.6086 39.7339 38.6056 39.7195 38.5999 39.7061C38.5942 39.6927 38.5858 39.6806 38.5754 39.6705H38.5764ZM33.7993 26.6666C33.1798 26.6666 32.5795 26.8815 32.1007 27.2745C31.6218 27.6676 31.2941 28.2145 31.1733 28.8221C31.0525 29.4297 31.1461 30.0603 31.4382 30.6067C31.7302 31.153 32.2027 31.5811 32.7751 31.8181C33.3474 32.0551 33.9842 32.0864 34.577 31.9065C35.1698 31.7266 35.6819 31.3468 36.026 30.8317C36.3701 30.3166 36.525 29.6981 36.4643 29.0816C36.4035 28.4651 36.1308 27.8887 35.6928 27.4507C35.4444 27.2017 35.1492 27.0042 34.8243 26.8697C34.4993 26.7351 34.151 26.6661 33.7993 26.6666ZM35.1959 27.9479C34.8728 27.6246 34.4476 27.4234 33.9927 27.3784C33.5379 27.3335 33.0815 27.4477 32.7014 27.7016C32.3213 27.9554 32.041 28.3332 31.9083 28.7706C31.7755 29.208 31.7985 29.6778 31.9734 30.1001C32.1483 30.5224 32.4642 30.871 32.8672 31.0865C33.2703 31.302 33.7357 31.3711 34.184 31.2819C34.6323 31.1927 35.0358 30.9509 35.3257 30.5976C35.6157 30.2442 35.7741 29.8013 35.7741 29.3442C35.7744 29.0849 35.7236 28.828 35.6243 28.5884C35.5251 28.3487 35.3795 28.1311 35.1959 27.9479ZM34.4674 25.2096L34.3311 24.5375H33.2677L33.1304 25.2136C33.1171 25.2804 33.0846 25.3419 33.0368 25.3904C32.989 25.439 32.9281 25.4725 32.8615 25.4869C32.6635 25.5351 32.4696 25.5985 32.2813 25.6765C32.0901 25.7558 31.9054 25.8498 31.7288 25.9578C31.672 25.9925 31.6065 26.0104 31.5399 26.0092C31.4733 26.008 31.4084 25.9879 31.3529 25.9511L30.7767 25.5692L30.0256 26.3203L30.4075 26.8965C30.4451 26.9537 30.4651 27.0206 30.4651 27.089C30.4651 27.1574 30.4451 27.2243 30.4075 27.2814C30.195 27.632 30.0377 28.0131 29.9409 28.4115C29.9254 28.4773 29.891 28.5372 29.8421 28.5839C29.7932 28.6306 29.7318 28.6622 29.6653 28.6747L28.9932 28.8107V29.8751L29.6693 30.012C29.7361 30.0255 29.7976 30.0581 29.8461 30.1059C29.8947 30.1538 29.9282 30.2147 29.9426 30.2813C29.9908 30.4792 30.0542 30.673 30.1322 30.8612C30.2115 31.0523 30.3057 31.2369 30.4138 31.4133C30.4485 31.4702 30.4662 31.5358 30.465 31.6025C30.4638 31.6691 30.4436 31.734 30.4068 31.7896L30.0249 32.3658L30.7761 33.1169L31.3522 32.7347C31.4094 32.6972 31.4763 32.6772 31.5447 32.6772C31.6131 32.6772 31.68 32.6972 31.7371 32.7347C31.9105 32.8403 32.0916 32.9326 32.279 33.0106C32.4694 33.0898 32.6657 33.1538 32.8662 33.2022C32.9319 33.218 32.9916 33.2523 33.0383 33.3012C33.0849 33.3501 33.1165 33.4114 33.1291 33.4778L33.2654 34.15H34.3288L34.4658 33.4741C34.4791 33.4073 34.5117 33.3458 34.5596 33.2972C34.6074 33.2486 34.6684 33.215 34.735 33.2005C34.9329 33.1524 35.1268 33.0888 35.3149 33.0106L35.3322 33.0039C35.5172 32.9261 35.696 32.8343 35.8671 32.7293C35.9239 32.6946 35.9896 32.6768 36.0562 32.678C36.1228 32.6793 36.1877 32.6995 36.2433 32.7363L36.8195 33.1182L37.5706 32.3671L37.1887 31.7909C37.1511 31.7337 37.1311 31.6667 37.1311 31.5983C37.1311 31.5298 37.1511 31.4629 37.1887 31.4057C37.2943 31.2319 37.3865 31.0503 37.4643 30.8625L37.4716 30.8458C37.5474 30.6607 37.609 30.4701 37.6559 30.2756C37.6716 30.2098 37.706 30.15 37.755 30.1033C37.8039 30.0566 37.8654 30.0252 37.9319 30.0127L38.6037 29.8764V28.8124L37.9289 28.6754C37.8621 28.662 37.8006 28.6294 37.7521 28.5816C37.7035 28.5339 37.6698 28.473 37.6553 28.4065C37.5577 28.0067 37.3988 27.6245 37.184 27.2734C37.1494 27.2166 37.1317 27.151 37.1329 27.0845C37.1341 27.0179 37.1543 26.953 37.191 26.8975L37.5729 26.3213L36.8218 25.5702L36.2456 25.9528C36.1884 25.9903 36.1215 26.0104 36.053 26.0104C35.9846 26.0104 35.9176 25.9903 35.8604 25.9528C35.51 25.7399 35.1288 25.5825 34.7304 25.4862C34.6646 25.4705 34.6048 25.4362 34.5582 25.3873C34.5115 25.3384 34.48 25.277 34.4674 25.2106V25.2096ZM34.985 24.2392C34.9628 24.1251 34.9016 24.0223 34.8118 23.9485C34.722 23.8746 34.6093 23.8344 34.4931 23.8346H33.1058C32.9895 23.8344 32.8768 23.8746 32.7871 23.9485C32.6973 24.0223 32.6361 24.1251 32.6139 24.2392L32.4876 24.8624C32.3268 24.9091 32.1687 24.9647 32.0141 25.029C31.859 25.0932 31.7076 25.1659 31.5605 25.2466L31.0293 24.8944C30.9326 24.8305 30.8168 24.802 30.7015 24.8135C30.5862 24.8251 30.4783 24.876 30.3962 24.9577L29.4154 25.9384C29.3337 26.0206 29.2828 26.1284 29.2712 26.2438C29.2597 26.3591 29.2883 26.4749 29.3521 26.5716L29.7047 27.1041C29.5429 27.3984 29.414 27.7097 29.3204 28.0322L28.6973 28.1589C28.5832 28.181 28.4803 28.2423 28.4065 28.332C28.3327 28.4218 28.2924 28.5345 28.2927 28.6507V30.0377C28.2923 30.154 28.3326 30.2668 28.4064 30.3566C28.4802 30.4464 28.5831 30.5077 28.6973 30.5299L29.3208 30.6562C29.3676 30.817 29.4233 30.9751 29.4874 31.1297C29.5515 31.2852 29.624 31.4371 29.7047 31.5846L29.3524 32.1155C29.2883 32.2122 29.2596 32.3281 29.2712 32.4435C29.2829 32.559 29.3342 32.6668 29.4164 32.7487L30.3972 33.7291C30.4792 33.811 30.5871 33.8621 30.7024 33.8736C30.8178 33.8852 30.9337 33.8565 31.0303 33.7924L31.5592 33.4408C31.7064 33.5211 31.8578 33.5935 32.0127 33.6578C32.1679 33.7221 32.3266 33.7777 32.4879 33.8244L32.6142 34.4479C32.6364 34.562 32.6976 34.6648 32.7874 34.7386C32.8772 34.8125 32.9899 34.8527 33.1061 34.8524H34.4934C34.6097 34.8527 34.7224 34.8125 34.8121 34.7386C34.9019 34.6648 34.9631 34.562 34.9853 34.4479L35.1116 33.8244C35.2728 33.7777 35.4314 33.7221 35.5865 33.6578C35.5926 33.6554 35.5986 33.6528 35.6045 33.6498C35.753 33.5875 35.8983 33.5177 36.0397 33.4405L36.5695 33.7927C36.6662 33.8567 36.782 33.8853 36.8974 33.8738C37.0128 33.8622 37.1206 33.8112 37.2027 33.7294L38.1835 32.749C38.2652 32.6668 38.3161 32.5589 38.3275 32.4436C38.339 32.3283 38.3104 32.2125 38.2464 32.1158L37.8959 31.5846C37.9765 31.4376 38.0492 31.2863 38.1135 31.1314L38.1205 31.1124C38.1815 30.9632 38.2346 30.8109 38.2798 30.6562L38.9033 30.5299C39.0174 30.5077 39.1203 30.4464 39.1941 30.3566C39.268 30.2668 39.3082 30.154 39.3078 30.0377V28.6507C39.3081 28.5343 39.2677 28.4215 39.1936 28.3317C39.1196 28.242 39.0166 28.1808 38.9023 28.1589L38.2791 28.0322C38.2321 27.871 38.1765 27.7125 38.1125 27.5573C38.0483 27.4024 37.9756 27.2511 37.8949 27.1041L38.2468 26.5729C38.3114 26.4764 38.3403 26.3605 38.3287 26.2449C38.3171 26.1294 38.2656 26.0215 38.1831 25.9398L37.2027 24.959C37.1205 24.8774 37.0127 24.8265 36.8974 24.815C36.7821 24.8034 36.6663 24.8319 36.5695 24.8957L36.0397 25.2479C35.8926 25.1672 35.7412 25.0946 35.5861 25.0303C35.4311 24.966 35.2725 24.9104 35.1113 24.8637L34.985 24.2405V24.2392ZM38.4984 37.4814C38.0502 37.4814 37.6121 37.6143 37.2394 37.8633C36.8668 38.1123 36.5763 38.4662 36.4048 38.8803C36.2333 39.2944 36.1884 39.75 36.2758 40.1896C36.3633 40.6292 36.5791 41.0329 36.896 41.3499C37.2129 41.6668 37.6167 41.8826 38.0563 41.97C38.4959 42.0575 38.9515 42.0126 39.3656 41.8411C39.7796 41.6696 40.1335 41.3791 40.3825 41.0065C40.6315 40.6338 40.7645 40.1957 40.7645 39.7475C40.7645 39.1465 40.5257 38.5701 40.1007 38.1451C39.6758 37.7202 39.0994 37.4814 38.4984 37.4814ZM40.0626 39.7475C40.0626 39.4381 39.9709 39.1357 39.799 38.8785C39.6271 38.6212 39.3828 38.4207 39.097 38.3023C38.8112 38.1839 38.4966 38.1529 38.1932 38.2133C37.8898 38.2737 37.611 38.4226 37.3923 38.6414C37.1735 38.8602 37.0245 39.1389 36.9642 39.4423C36.9038 39.7458 36.9348 40.0603 37.0532 40.3461C37.1716 40.632 37.3721 40.8763 37.6293 41.0481C37.8866 41.22 38.189 41.3118 38.4984 41.3118C38.9132 41.3118 39.3111 41.147 39.6045 40.8536C39.8978 40.5602 40.0626 40.1624 40.0626 39.7475ZM28.3637 37.4814C27.9155 37.4814 27.4774 37.6143 27.1047 37.8633C26.7321 38.1123 26.4416 38.4662 26.2701 38.8803C26.0986 39.2944 26.0537 39.75 26.1411 40.1896C26.2286 40.6292 26.4444 41.0329 26.7613 41.3499C27.0782 41.6668 27.482 41.8826 27.9216 41.97C28.3612 42.0575 28.8168 42.0126 29.2309 41.8411C29.6449 41.6696 29.9989 41.3791 30.2479 41.0065C30.4969 40.6338 30.6298 40.1957 30.6298 39.7475C30.6298 39.1465 30.391 38.5701 29.966 38.1451C29.5411 37.7202 28.9647 37.4814 28.3637 37.4814ZM29.9279 39.7475C29.9279 39.4381 29.8362 39.1357 29.6643 38.8785C29.4924 38.6212 29.2481 38.4207 28.9623 38.3023C28.6765 38.1839 28.3619 38.1529 28.0585 38.2133C27.7551 38.2737 27.4763 38.4226 27.2576 38.6414C27.0388 38.8602 26.8898 39.1389 26.8295 39.4423C26.7691 39.7458 26.8001 40.0603 26.9185 40.3461C27.0369 40.632 27.2374 40.8763 27.4946 41.0481C27.7519 41.22 28.0543 41.3118 28.3637 41.3118C28.5691 41.3118 28.7725 41.2714 28.9623 41.1928C29.1522 41.1142 29.3246 40.999 29.4699 40.8537C29.6151 40.7084 29.7304 40.536 29.809 40.3462C29.8876 40.1564 29.928 39.9529 29.9279 39.7475ZM41.8052 36.6183H26.9014C26.7058 36.6219 26.5143 36.5616 26.356 36.4465C26.1978 36.3315 26.0813 36.168 26.0243 35.9808L20.7257 19.5294C20.5858 19.0836 20.3065 18.6944 19.929 18.4191C19.5514 18.1439 19.0955 17.997 18.6282 18.0002H15.3624C15.3153 17.9987 15.2685 18.0067 15.2246 18.0237C15.1807 18.0408 15.1406 18.0664 15.1068 18.0992C15.073 18.132 15.0462 18.1712 15.0278 18.2145C15.0095 18.2579 15 18.3045 15 18.3516C15 18.3987 15.0095 18.4453 15.0278 18.4886C15.0462 18.532 15.073 18.5712 15.1068 18.604C15.1406 18.6367 15.1807 18.6624 15.2246 18.6794C15.2685 18.6964 15.3153 18.7044 15.3624 18.703H18.6299C18.9485 18.6988 19.26 18.798 19.5175 18.9858C19.775 19.1735 19.9647 19.4397 20.0582 19.7444L25.3568 36.1961C25.4603 36.5242 25.666 36.8105 25.944 37.0132C26.2219 37.2158 26.5574 37.3242 26.9014 37.3225H41.8052C41.8984 37.3225 41.9878 37.2854 42.0538 37.2195C42.1197 37.1536 42.1568 37.0641 42.1568 36.9709C42.1568 36.8777 42.1197 36.7882 42.0538 36.7223C41.9878 36.6564 41.8984 36.6193 41.8052 36.6193V36.6183ZM40.4612 35.3137L44.2832 23.5501C44.2981 23.5073 44.3025 23.4615 44.2959 23.4167C44.2892 23.3719 44.2718 23.3293 44.2452 23.2927C44.2185 23.2561 44.1834 23.2265 44.1427 23.2064C44.1021 23.1863 44.0572 23.1764 44.0119 23.1775H23.5869C23.5416 23.1762 23.4965 23.1859 23.4558 23.2059C23.415 23.2259 23.3798 23.2556 23.3531 23.2923C23.3264 23.329 23.309 23.3716 23.3025 23.4165C23.2959 23.4614 23.3005 23.5073 23.3157 23.5501L27.1387 35.3137C27.1566 35.3712 27.1923 35.4216 27.2406 35.4576C27.29 35.4925 27.3491 35.5109 27.4096 35.5103H40.1899C40.2505 35.511 40.3097 35.4925 40.3592 35.4576C40.4076 35.4216 40.4433 35.3712 40.4612 35.3137Z" fill="white"/>
<path fill-rule="evenodd" clip-rule="evenodd" d="M44.9504 23.768L41.1287 35.5316C41.0653 35.7305 40.9401 35.904 40.7712 36.0267C40.6023 36.1495 40.3987 36.2151 40.1899 36.2141H27.4086C27.1999 36.2151 26.9963 36.1494 26.8275 36.0266C26.6587 35.9039 26.5335 35.7305 26.4702 35.5316L22.6482 23.768C22.5994 23.6199 22.5865 23.4623 22.6107 23.3083C22.6348 23.1543 22.6952 23.0082 22.7869 22.882C22.8786 22.7559 22.9989 22.6535 23.138 22.583C23.2771 22.5126 23.431 22.4763 23.5869 22.477H44.0119C44.168 22.4764 44.3219 22.5129 44.4611 22.5834C44.6002 22.654 44.7206 22.7567 44.8123 22.8829C44.9039 23.0092 44.9643 23.1555 44.9883 23.3096C45.0123 23.4638 44.9993 23.6215 44.9504 23.7697V23.768ZM28.3637 38.9351C28.5517 38.9353 28.7339 39.0007 28.8791 39.1201C29.0243 39.2395 29.1236 39.4056 29.1601 39.5901C29.1966 39.7746 29.168 39.966 29.0792 40.1317C28.9904 40.2974 28.8469 40.4273 28.6731 40.4991C28.4993 40.5708 28.306 40.5802 28.1261 40.5254C27.9462 40.4707 27.7909 40.3552 27.6866 40.1988C27.5822 40.0424 27.5354 39.8546 27.554 39.6675C27.5725 39.4804 27.6554 39.3055 27.7885 39.1727C27.864 39.0971 27.9536 39.0371 28.0523 38.9962C28.151 38.9553 28.2568 38.9343 28.3637 38.9344V38.9351ZM28.4417 39.6705C28.4316 39.66 28.4194 39.6517 28.406 39.646C28.3927 39.6402 28.3782 39.6373 28.3637 39.6372C28.3491 39.6373 28.3347 39.6403 28.3214 39.646C28.308 39.6518 28.2958 39.6601 28.2857 39.6705C28.265 39.6912 28.2534 39.7193 28.2534 39.7485C28.2534 39.7778 28.265 39.8058 28.2857 39.8265C28.2958 39.8369 28.308 39.8452 28.3214 39.851C28.3347 39.8567 28.3491 39.8597 28.3637 39.8598C28.3855 39.8598 28.4068 39.8533 28.4249 39.8412C28.4431 39.8291 28.4572 39.8119 28.4656 39.7917C28.4739 39.7716 28.4761 39.7494 28.4718 39.728C28.4676 39.7066 28.4571 39.687 28.4417 39.6715V39.6705ZM38.4984 38.9351C38.6866 38.9352 38.8689 39.0006 39.0143 39.1201C39.1597 39.2396 39.2591 39.4059 39.2957 39.5905C39.3323 39.7751 39.3037 39.9667 39.2148 40.1326C39.1259 40.2985 38.9823 40.4285 38.8083 40.5003C38.6344 40.5722 38.4409 40.5815 38.2608 40.5267C38.0808 40.4719 37.9253 40.3563 37.8209 40.1997C37.7165 40.0431 37.6696 39.8552 37.6883 39.6679C37.7069 39.4806 37.79 39.3056 37.9232 39.1727C37.9986 39.097 38.0883 39.037 38.187 38.9961C38.2857 38.9552 38.3915 38.9342 38.4984 38.9344V38.9351ZM38.5764 39.6705C38.5556 39.6498 38.5275 39.6382 38.4982 39.6382C38.4689 39.6382 38.4408 39.6498 38.4201 39.6705C38.3995 39.6913 38.388 39.7193 38.388 39.7485C38.388 39.7777 38.3995 39.8057 38.4201 39.8265C38.4355 39.8419 38.4552 39.8523 38.4766 39.8565C38.498 39.8608 38.5202 39.8586 38.5403 39.8502C38.5605 39.8419 38.5777 39.8278 38.5899 39.8097C38.602 39.7916 38.6086 39.7703 38.6087 39.7485C38.6086 39.7339 38.6056 39.7195 38.5999 39.7061C38.5942 39.6927 38.5858 39.6806 38.5754 39.6705H38.5764ZM33.7993 26.6666C33.1798 26.6666 32.5795 26.8815 32.1007 27.2745C31.6218 27.6676 31.2941 28.2145 31.1733 28.8221C31.0525 29.4297 31.1461 30.0603 31.4382 30.6067C31.7302 31.153 32.2027 31.5811 32.7751 31.8181C33.3474 32.0551 33.9842 32.0864 34.577 31.9065C35.1698 31.7266 35.6819 31.3468 36.026 30.8317C36.3701 30.3166 36.525 29.6981 36.4643 29.0816C36.4035 28.4651 36.1308 27.8887 35.6928 27.4507C35.4444 27.2017 35.1492 27.0042 34.8243 26.8697C34.4993 26.7351 34.151 26.6661 33.7993 26.6666ZM35.1959 27.9479C34.8728 27.6246 34.4476 27.4234 33.9927 27.3784C33.5379 27.3335 33.0815 27.4477 32.7014 27.7016C32.3213 27.9554 32.041 28.3332 31.9083 28.7706C31.7755 29.208 31.7985 29.6778 31.9734 30.1001C32.1483 30.5224 32.4642 30.871 32.8672 31.0865C33.2703 31.302 33.7357 31.3711 34.184 31.2819C34.6323 31.1927 35.0358 30.9509 35.3257 30.5976C35.6157 30.2442 35.7741 29.8013 35.7741 29.3442C35.7744 29.0849 35.7236 28.828 35.6243 28.5884C35.5251 28.3487 35.3795 28.1311 35.1959 27.9479ZM34.4674 25.2096L34.3311 24.5375H33.2677L33.1304 25.2136C33.1171 25.2804 33.0846 25.3419 33.0368 25.3904C32.989 25.439 32.9281 25.4725 32.8615 25.4869C32.6635 25.5351 32.4696 25.5985 32.2813 25.6765C32.0901 25.7558 31.9054 25.8498 31.7288 25.9578C31.672 25.9925 31.6065 26.0104 31.5399 26.0092C31.4733 26.008 31.4084 25.9879 31.3529 25.9511L30.7767 25.5692L30.0256 26.3203L30.4075 26.8965C30.4451 26.9537 30.4651 27.0206 30.4651 27.089C30.4651 27.1574 30.4451 27.2243 30.4075 27.2814C30.195 27.632 30.0377 28.0131 29.9409 28.4115C29.9254 28.4773 29.891 28.5372 29.8421 28.5839C29.7932 28.6306 29.7318 28.6622 29.6653 28.6747L28.9932 28.8107V29.8751L29.6693 30.012C29.7361 30.0255 29.7976 30.0581 29.8461 30.1059C29.8947 30.1538 29.9282 30.2147 29.9426 30.2813C29.9908 30.4792 30.0542 30.673 30.1322 30.8612C30.2115 31.0523 30.3057 31.2369 30.4138 31.4133C30.4485 31.4702 30.4662 31.5358 30.465 31.6025C30.4638 31.6691 30.4436 31.734 30.4068 31.7896L30.0249 32.3658L30.7761 33.1169L31.3522 32.7347C31.4094 32.6972 31.4763 32.6772 31.5447 32.6772C31.6131 32.6772 31.68 32.6972 31.7371 32.7347C31.9105 32.8403 32.0916 32.9326 32.279 33.0106C32.4694 33.0898 32.6657 33.1538 32.8662 33.2022C32.9319 33.218 32.9916 33.2523 33.0383 33.3012C33.0849 33.3501 33.1165 33.4114 33.1291 33.4778L33.2654 34.15H34.3288L34.4658 33.4741C34.4791 33.4073 34.5117 33.3458 34.5596 33.2972C34.6074 33.2486 34.6684 33.215 34.735 33.2005C34.9329 33.1524 35.1268 33.0888 35.3149 33.0106L35.3322 33.0039C35.5172 32.9261 35.696 32.8343 35.8671 32.7293C35.9239 32.6946 35.9896 32.6768 36.0562 32.678C36.1228 32.6793 36.1877 32.6995 36.2433 32.7363L36.8195 33.1182L37.5706 32.3671L37.1887 31.7909C37.1511 31.7337 37.1311 31.6667 37.1311 31.5983C37.1311 31.5298 37.1511 31.4629 37.1887 31.4057C37.2943 31.2319 37.3865 31.0503 37.4643 30.8625L37.4716 30.8458C37.5474 30.6607 37.609 30.4701 37.6559 30.2756C37.6716 30.2098 37.706 30.15 37.755 30.1033C37.8039 30.0566 37.8654 30.0252 37.9319 30.0127L38.6037 29.8764V28.8124L37.9289 28.6754C37.8621 28.662 37.8006 28.6294 37.7521 28.5816C37.7035 28.5339 37.6698 28.473 37.6553 28.4065C37.5577 28.0067 37.3988 27.6245 37.184 27.2734C37.1494 27.2166 37.1317 27.151 37.1329 27.0845C37.1341 27.0179 37.1543 26.953 37.191 26.8975L37.5729 26.3213L36.8218 25.5702L36.2456 25.9528C36.1884 25.9903 36.1215 26.0104 36.053 26.0104C35.9846 26.0104 35.9176 25.9903 35.8604 25.9528C35.51 25.7399 35.1288 25.5825 34.7304 25.4862C34.6646 25.4705 34.6048 25.4362 34.5582 25.3873C34.5115 25.3384 34.48 25.277 34.4674 25.2106V25.2096ZM34.985 24.2392C34.9628 24.1251 34.9016 24.0223 34.8118 23.9485C34.722 23.8746 34.6093 23.8344 34.4931 23.8346H33.1058C32.9895 23.8344 32.8768 23.8746 32.7871 23.9485C32.6973 24.0223 32.6361 24.1251 32.6139 24.2392L32.4876 24.8624C32.3268 24.9091 32.1687 24.9647 32.0141 25.029C31.859 25.0932 31.7076 25.1659 31.5605 25.2466L31.0293 24.8944C30.9326 24.8305 30.8168 24.802 30.7015 24.8135C30.5862 24.8251 30.4783 24.876 30.3962 24.9577L29.4154 25.9384C29.3337 26.0206 29.2828 26.1284 29.2712 26.2438C29.2597 26.3591 29.2883 26.4749 29.3521 26.5716L29.7047 27.1041C29.5429 27.3984 29.414 27.7097 29.3204 28.0322L28.6973 28.1589C28.5832 28.181 28.4803 28.2423 28.4065 28.332C28.3327 28.4218 28.2924 28.5345 28.2927 28.6507V30.0377C28.2923 30.154 28.3326 30.2668 28.4064 30.3566C28.4802 30.4464 28.5831 30.5077 28.6973 30.5299L29.3208 30.6562C29.3676 30.817 29.4233 30.9751 29.4874 31.1297C29.5515 31.2852 29.624 31.4371 29.7047 31.5846L29.3524 32.1155C29.2883 32.2122 29.2596 32.3281 29.2712 32.4435C29.2829 32.559 29.3342 32.6668 29.4164 32.7487L30.3972 33.7291C30.4792 33.811 30.5871 33.8621 30.7024 33.8736C30.8178 33.8852 30.9337 33.8565 31.0303 33.7924L31.5592 33.4408C31.7064 33.5211 31.8578 33.5935 32.0127 33.6578C32.1679 33.7221 32.3266 33.7777 32.4879 33.8244L32.6142 34.4479C32.6364 34.562 32.6976 34.6648 32.7874 34.7386C32.8772 34.8125 32.9899 34.8527 33.1061 34.8524H34.4934C34.6097 34.8527 34.7224 34.8125 34.8121 34.7386C34.9019 34.6648 34.9631 34.562 34.9853 34.4479L35.1116 33.8244C35.2728 33.7777 35.4314 33.7221 35.5865 33.6578C35.5926 33.6554 35.5986 33.6528 35.6045 33.6498C35.753 33.5875 35.8983 33.5177 36.0397 33.4405L36.5695 33.7927C36.6662 33.8567 36.782 33.8853 36.8974 33.8738C37.0128 33.8622 37.1206 33.8112 37.2027 33.7294L38.1835 32.749C38.2652 32.6668 38.3161 32.5589 38.3275 32.4436C38.339 32.3283 38.3104 32.2125 38.2464 32.1158L37.8959 31.5846C37.9765 31.4376 38.0492 31.2863 38.1135 31.1314L38.1205 31.1124C38.1815 30.9632 38.2346 30.8109 38.2798 30.6562L38.9033 30.5299C39.0174 30.5077 39.1203 30.4464 39.1941 30.3566C39.268 30.2668 39.3082 30.154 39.3078 30.0377V28.6507C39.3081 28.5343 39.2677 28.4215 39.1936 28.3317C39.1196 28.242 39.0166 28.1808 38.9023 28.1589L38.2791 28.0322C38.2321 27.871 38.1765 27.7125 38.1125 27.5573C38.0483 27.4024 37.9756 27.2511 37.8949 27.1041L38.2468 26.5729C38.3114 26.4764 38.3403 26.3605 38.3287 26.2449C38.3171 26.1294 38.2656 26.0215 38.1831 25.9398L37.2027 24.959C37.1205 24.8774 37.0127 24.8265 36.8974 24.815C36.7821 24.8034 36.6663 24.8319 36.5695 24.8957L36.0397 25.2479C35.8926 25.1672 35.7412 25.0946 35.5861 25.0303C35.4311 24.966 35.2725 24.9104 35.1113 24.8637L34.985 24.2405V24.2392ZM38.4984 37.4814C38.0502 37.4814 37.6121 37.6143 37.2394 37.8633C36.8668 38.1123 36.5763 38.4662 36.4048 38.8803C36.2333 39.2944 36.1884 39.75 36.2758 40.1896C36.3633 40.6292 36.5791 41.0329 36.896 41.3499C37.2129 41.6668 37.6167 41.8826 38.0563 41.97C38.4959 42.0575 38.9515 42.0126 39.3656 41.8411C39.7796 41.6696 40.1335 41.3791 40.3825 41.0065C40.6315 40.6338 40.7645 40.1957 40.7645 39.7475C40.7645 39.1465 40.5257 38.5701 40.1007 38.1451C39.6758 37.7202 39.0994 37.4814 38.4984 37.4814ZM40.0626 39.7475C40.0626 39.4381 39.9709 39.1357 39.799 38.8785C39.6271 38.6212 39.3828 38.4207 39.097 38.3023C38.8112 38.1839 38.4966 38.1529 38.1932 38.2133C37.8898 38.2737 37.611 38.4226 37.3923 38.6414C37.1735 38.8602 37.0245 39.1389 36.9642 39.4423C36.9038 39.7458 36.9348 40.0603 37.0532 40.3461C37.1716 40.632 37.3721 40.8763 37.6293 41.0481C37.8866 41.22 38.189 41.3118 38.4984 41.3118C38.9132 41.3118 39.3111 41.147 39.6045 40.8536C39.8978 40.5602 40.0626 40.1624 40.0626 39.7475ZM28.3637 37.4814C27.9155 37.4814 27.4774 37.6143 27.1047 37.8633C26.7321 38.1123 26.4416 38.4662 26.2701 38.8803C26.0986 39.2944 26.0537 39.75 26.1411 40.1896C26.2286 40.6292 26.4444 41.0329 26.7613 41.3499C27.0782 41.6668 27.482 41.8826 27.9216 41.97C28.3612 42.0575 28.8168 42.0126 29.2309 41.8411C29.6449 41.6696 29.9989 41.3791 30.2479 41.0065C30.4969 40.6338 30.6298 40.1957 30.6298 39.7475C30.6298 39.1465 30.391 38.5701 29.966 38.1451C29.5411 37.7202 28.9647 37.4814 28.3637 37.4814ZM29.9279 39.7475C29.9279 39.4381 29.8362 39.1357 29.6643 38.8785C29.4924 38.6212 29.2481 38.4207 28.9623 38.3023C28.6765 38.1839 28.3619 38.1529 28.0585 38.2133C27.7551 38.2737 27.4763 38.4226 27.2576 38.6414C27.0388 38.8602 26.8898 39.1389 26.8295 39.4423C26.7691 39.7458 26.8001 40.0603 26.9185 40.3461C27.0369 40.632 27.2374 40.8763 27.4946 41.0481C27.7519 41.22 28.0543 41.3118 28.3637 41.3118C28.5691 41.3118 28.7725 41.2714 28.9623 41.1928C29.1522 41.1142 29.3246 40.999 29.4699 40.8537C29.6151 40.7084 29.7304 40.536 29.809 40.3462C29.8876 40.1564 29.928 39.9529 29.9279 39.7475ZM41.8052 36.6183H26.9014C26.7058 36.6219 26.5143 36.5616 26.356 36.4465C26.1978 36.3315 26.0813 36.168 26.0243 35.9808L20.7257 19.5294C20.5858 19.0836 20.3065 18.6944 19.929 18.4191C19.5514 18.1439 19.0955 17.997 18.6282 18.0002H15.3624C15.3153 17.9987 15.2685 18.0067 15.2246 18.0237C15.1807 18.0408 15.1406 18.0664 15.1068 18.0992C15.073 18.132 15.0462 18.1712 15.0278 18.2145C15.0095 18.2579 15 18.3045 15 18.3516C15 18.3987 15.0095 18.4453 15.0278 18.4886C15.0462 18.532 15.073 18.5712 15.1068 18.604C15.1406 18.6367 15.1807 18.6624 15.2246 18.6794C15.2685 18.6964 15.3153 18.7044 15.3624 18.703H18.6299C18.9485 18.6988 19.26 18.798 19.5175 18.9858C19.775 19.1735 19.9647 19.4397 20.0582 19.7444L25.3568 36.1961C25.4603 36.5242 25.666 36.8105 25.944 37.0132C26.2219 37.2158 26.5574 37.3242 26.9014 37.3225H41.8052C41.8984 37.3225 41.9878 37.2854 42.0538 37.2195C42.1197 37.1536 42.1568 37.0641 42.1568 36.9709C42.1568 36.8777 42.1197 36.7882 42.0538 36.7223C41.9878 36.6564 41.8984 36.6193 41.8052 36.6193V36.6183ZM40.4612 35.3137L44.2832 23.5501C44.2981 23.5073 44.3025 23.4615 44.2959 23.4167C44.2892 23.3719 44.2718 23.3293 44.2452 23.2927C44.2185 23.2561 44.1834 23.2265 44.1427 23.2064C44.1021 23.1863 44.0572 23.1764 44.0119 23.1775H23.5869C23.5416 23.1762 23.4965 23.1859 23.4558 23.2059C23.415 23.2259 23.3798 23.2556 23.3531 23.2923C23.3264 23.329 23.309 23.3716 23.3025 23.4165C23.2959 23.4614 23.3005 23.5073 23.3157 23.5501L27.1387 35.3137C27.1566 35.3712 27.1923 35.4216 27.2406 35.4576C27.29 35.4925 27.3491 35.5109 27.4096 35.5103H40.1899C40.2505 35.511 40.3097 35.4925 40.3592 35.4576C40.4076 35.4216 40.4433 35.3712 40.4612 35.3137Z" stroke="white" stroke-width="0.5" mask="url(#path-2-outside-1_1446_475)"/>
</svg>
