<svg width="60" height="60" viewBox="0 0 60 60" fill="none" xmlns="http://www.w3.org/2000/svg">
<circle cx="30" cy="30" r="30" fill="white"/>
<mask id="path-2-outside-1_1446_599" maskUnits="userSpaceOnUse" x="15" y="14" width="29" height="32" fill="black">
<rect fill="white" x="15" y="14" width="29" height="32"/>
<path d="M42.9297 33.1575C42.5603 32.3486 41.4747 31.8254 40.2979 32.3492C38.4426 33.1745 35.5055 34.1149 33.9039 34.483C33.9043 34.4368 33.9039 34.3899 33.9011 34.3425C33.8543 33.515 33.2236 32.5331 31.5994 32.4897C29.5291 32.4347 28.8009 32.3671 26.8193 32.1241C25.3167 31.9401 24.1142 32.8648 23.1052 33.7461C21.8272 34.8625 20.9727 35.4693 19.9292 36.1217L19.2394 35.3319C19.1668 35.2486 19.064 35.1976 18.9536 35.1901C18.8436 35.1826 18.7348 35.2193 18.6515 35.292L16.1426 37.4833C15.9693 37.6349 15.9514 37.898 16.1029 38.0713L22.03 44.8573C22.1026 44.9406 22.2054 44.9915 22.3158 44.9991C22.3252 44.9997 22.3347 45 22.3438 45C22.4444 45 22.5418 44.9635 22.6179 44.8972L25.1268 42.7058C25.3001 42.5543 25.318 42.2911 25.1665 42.1179L24.5578 41.4209C25.9776 40.2941 27.0651 40.2258 28.6249 40.2567C28.8962 40.262 29.1383 40.2692 29.3517 40.2758C30.7631 40.3189 31.2385 40.3334 33.0239 39.5672C33.028 39.5653 33.0321 39.5637 33.0365 39.5615L41.7303 35.4903C43.0196 34.8867 43.2624 33.8835 42.9307 33.1572L42.9297 33.1575ZM22.3831 43.9955L17.0043 37.837L18.8857 36.1937L24.2644 42.3521L22.3831 43.9955ZM41.3763 34.7358L32.6885 38.8038C31.0778 39.4945 30.7166 39.4832 29.3766 39.4427C29.1609 39.4361 28.9163 39.4285 28.6406 39.4232C26.9821 39.3914 25.6563 39.4754 24.0088 40.7927L20.4841 36.7574C21.5131 36.1088 22.3796 35.4866 23.6532 34.3739C24.5666 33.5763 25.5563 32.8088 26.7177 32.9516C28.7308 33.1981 29.4709 33.2669 31.5771 33.3229C32.475 33.3468 33.0324 33.7454 33.0689 34.3896C33.0862 34.6955 33.0026 34.9298 32.8054 35.126C31.9361 35.9918 29.2643 35.8299 27.9806 35.7522C27.7656 35.7394 27.5801 35.728 27.4264 35.7221C27.1981 35.7145 27.0029 35.8925 26.9941 36.1223C26.9853 36.3521 27.1645 36.5458 27.3943 36.5546C27.5389 36.5603 27.72 36.5713 27.93 36.5838C30.0246 36.7108 32.3467 36.7586 33.3934 35.7161C33.4958 35.6139 33.5823 35.5042 33.6543 35.3875C35.1584 35.0977 38.5624 34.0331 40.6368 33.1103C41.342 32.7966 41.9711 33.0635 42.172 33.5033C42.3717 33.94 42.0667 34.4123 41.3763 34.7355V34.7358ZM23.0439 28.5805V17.7793C23.0439 17.6302 23.1232 17.4928 23.2521 17.4183L26.3904 15.6064C26.5897 15.4914 26.8444 15.5596 26.9595 15.7589C27.0745 15.9583 27.0063 16.2129 26.807 16.328L23.8768 18.0198V28.3396L26.2744 29.7239L26.1464 29.4174C26.0578 29.2052 26.1584 28.9609 26.3706 28.8725C26.5835 28.7839 26.8271 28.8845 26.9155 29.0967L27.5329 30.5772C27.5829 30.697 27.5741 30.8335 27.5094 30.946C27.4443 31.0586 27.3308 31.1343 27.2019 31.151L25.611 31.3566C25.5928 31.3588 25.5749 31.3601 25.5573 31.3601C25.351 31.3601 25.1718 31.207 25.1444 30.9966C25.1149 30.7684 25.2762 30.5596 25.5044 30.5301L25.9125 30.4772L23.2521 28.9411C23.1232 28.8666 23.0436 28.7292 23.0436 28.5802L23.0439 28.5805ZM26.1012 19.5446V26.8154C26.1012 26.9645 26.1807 27.1018 26.3096 27.1764L32.6064 30.8118C32.6709 30.8489 32.7429 30.8677 32.8149 30.8677C32.8869 30.8677 32.9589 30.8492 33.0233 30.8118L39.3201 27.1764C39.449 27.1018 39.5286 26.9645 39.5286 26.8154V19.5443C39.5286 19.3953 39.449 19.2579 39.3201 19.1834L33.0227 15.5483C32.8938 15.4738 32.735 15.4738 32.6061 15.5483L26.3093 19.1837C26.1804 19.2582 26.1012 19.3956 26.1012 19.5446ZM26.9346 20.2665L28.329 21.0717V23.3413C28.329 23.4903 28.4085 23.6277 28.5375 23.7022L30.3786 24.7652C30.443 24.8023 30.515 24.8212 30.587 24.8212C30.659 24.8212 30.731 24.8026 30.7955 24.7652C30.9244 24.6907 31.0039 24.5533 31.0039 24.4043V22.6157L32.3986 23.4209V29.7293L26.9353 26.5749V20.2662L26.9346 20.2665ZM32.8145 22.699L31.4202 21.8938L36.8835 18.7394L38.2782 19.5446L32.8145 22.699ZM29.1625 21.5527L30.1701 22.1343V23.6824L29.1625 23.1005V21.5527ZM30.5867 21.4128L29.5791 20.8311L35.0424 17.6768L36.05 18.2584L30.5867 21.4128ZM33.2311 29.7293V23.4205L38.6945 20.2662V26.5746L33.2311 29.7293ZM32.8142 16.3906L34.2089 17.1957L28.7456 20.3501L27.3509 19.5449L32.8145 16.3902L32.8142 16.3906ZM38.0952 15.7828C38.0452 15.663 38.054 15.5266 38.1188 15.414C38.1839 15.3015 38.2974 15.2257 38.4263 15.209L40.0171 15.0034C40.2448 14.9742 40.4541 15.1352 40.4837 15.3634C40.5133 15.5917 40.352 15.8004 40.1237 15.83L39.7156 15.8828L42.3761 17.419C42.505 17.4935 42.5845 17.6309 42.5845 17.7799V28.5805C42.5845 28.7295 42.5053 28.8669 42.3764 28.9414L39.238 30.7533C39.1723 30.7913 39.1007 30.8093 39.0302 30.8093C38.8862 30.8093 38.746 30.7344 38.669 30.6008C38.5539 30.4015 38.6221 30.1468 38.8215 30.0317L41.7517 28.34V18.0201L39.3541 16.6358L39.482 16.9423C39.5707 17.1549 39.4701 17.3988 39.2579 17.4872C39.2054 17.5092 39.151 17.5196 39.0975 17.5196C38.9343 17.5196 38.7793 17.423 38.7127 17.2633L38.0952 15.7828Z"/>
</mask>
<path d="M42.9297 33.1575C42.5603 32.3486 41.4747 31.8254 40.2979 32.3492C38.4426 33.1745 35.5055 34.1149 33.9039 34.483C33.9043 34.4368 33.9039 34.3899 33.9011 34.3425C33.8543 33.515 33.2236 32.5331 31.5994 32.4897C29.5291 32.4347 28.8009 32.3671 26.8193 32.1241C25.3167 31.9401 24.1142 32.8648 23.1052 33.7461C21.8272 34.8625 20.9727 35.4693 19.9292 36.1217L19.2394 35.3319C19.1668 35.2486 19.064 35.1976 18.9536 35.1901C18.8436 35.1826 18.7348 35.2193 18.6515 35.292L16.1426 37.4833C15.9693 37.6349 15.9514 37.898 16.1029 38.0713L22.03 44.8573C22.1026 44.9406 22.2054 44.9915 22.3158 44.9991C22.3252 44.9997 22.3347 45 22.3438 45C22.4444 45 22.5418 44.9635 22.6179 44.8972L25.1268 42.7058C25.3001 42.5543 25.318 42.2911 25.1665 42.1179L24.5578 41.4209C25.9776 40.2941 27.0651 40.2258 28.6249 40.2567C28.8962 40.262 29.1383 40.2692 29.3517 40.2758C30.7631 40.3189 31.2385 40.3334 33.0239 39.5672C33.028 39.5653 33.0321 39.5637 33.0365 39.5615L41.7303 35.4903C43.0196 34.8867 43.2624 33.8835 42.9307 33.1572L42.9297 33.1575ZM22.3831 43.9955L17.0043 37.837L18.8857 36.1937L24.2644 42.3521L22.3831 43.9955ZM41.3763 34.7358L32.6885 38.8038C31.0778 39.4945 30.7166 39.4832 29.3766 39.4427C29.1609 39.4361 28.9163 39.4285 28.6406 39.4232C26.9821 39.3914 25.6563 39.4754 24.0088 40.7927L20.4841 36.7574C21.5131 36.1088 22.3796 35.4866 23.6532 34.3739C24.5666 33.5763 25.5563 32.8088 26.7177 32.9516C28.7308 33.1981 29.4709 33.2669 31.5771 33.3229C32.475 33.3468 33.0324 33.7454 33.0689 34.3896C33.0862 34.6955 33.0026 34.9298 32.8054 35.126C31.9361 35.9918 29.2643 35.8299 27.9806 35.7522C27.7656 35.7394 27.5801 35.728 27.4264 35.7221C27.1981 35.7145 27.0029 35.8925 26.9941 36.1223C26.9853 36.3521 27.1645 36.5458 27.3943 36.5546C27.5389 36.5603 27.72 36.5713 27.93 36.5838C30.0246 36.7108 32.3467 36.7586 33.3934 35.7161C33.4958 35.6139 33.5823 35.5042 33.6543 35.3875C35.1584 35.0977 38.5624 34.0331 40.6368 33.1103C41.342 32.7966 41.9711 33.0635 42.172 33.5033C42.3717 33.94 42.0667 34.4123 41.3763 34.7355V34.7358ZM23.0439 28.5805V17.7793C23.0439 17.6302 23.1232 17.4928 23.2521 17.4183L26.3904 15.6064C26.5897 15.4914 26.8444 15.5596 26.9595 15.7589C27.0745 15.9583 27.0063 16.2129 26.807 16.328L23.8768 18.0198V28.3396L26.2744 29.7239L26.1464 29.4174C26.0578 29.2052 26.1584 28.9609 26.3706 28.8725C26.5835 28.7839 26.8271 28.8845 26.9155 29.0967L27.5329 30.5772C27.5829 30.697 27.5741 30.8335 27.5094 30.946C27.4443 31.0586 27.3308 31.1343 27.2019 31.151L25.611 31.3566C25.5928 31.3588 25.5749 31.3601 25.5573 31.3601C25.351 31.3601 25.1718 31.207 25.1444 30.9966C25.1149 30.7684 25.2762 30.5596 25.5044 30.5301L25.9125 30.4772L23.2521 28.9411C23.1232 28.8666 23.0436 28.7292 23.0436 28.5802L23.0439 28.5805ZM26.1012 19.5446V26.8154C26.1012 26.9645 26.1807 27.1018 26.3096 27.1764L32.6064 30.8118C32.6709 30.8489 32.7429 30.8677 32.8149 30.8677C32.8869 30.8677 32.9589 30.8492 33.0233 30.8118L39.3201 27.1764C39.449 27.1018 39.5286 26.9645 39.5286 26.8154V19.5443C39.5286 19.3953 39.449 19.2579 39.3201 19.1834L33.0227 15.5483C32.8938 15.4738 32.735 15.4738 32.6061 15.5483L26.3093 19.1837C26.1804 19.2582 26.1012 19.3956 26.1012 19.5446ZM26.9346 20.2665L28.329 21.0717V23.3413C28.329 23.4903 28.4085 23.6277 28.5375 23.7022L30.3786 24.7652C30.443 24.8023 30.515 24.8212 30.587 24.8212C30.659 24.8212 30.731 24.8026 30.7955 24.7652C30.9244 24.6907 31.0039 24.5533 31.0039 24.4043V22.6157L32.3986 23.4209V29.7293L26.9353 26.5749V20.2662L26.9346 20.2665ZM32.8145 22.699L31.4202 21.8938L36.8835 18.7394L38.2782 19.5446L32.8145 22.699ZM29.1625 21.5527L30.1701 22.1343V23.6824L29.1625 23.1005V21.5527ZM30.5867 21.4128L29.5791 20.8311L35.0424 17.6768L36.05 18.2584L30.5867 21.4128ZM33.2311 29.7293V23.4205L38.6945 20.2662V26.5746L33.2311 29.7293ZM32.8142 16.3906L34.2089 17.1957L28.7456 20.3501L27.3509 19.5449L32.8145 16.3902L32.8142 16.3906ZM38.0952 15.7828C38.0452 15.663 38.054 15.5266 38.1188 15.414C38.1839 15.3015 38.2974 15.2257 38.4263 15.209L40.0171 15.0034C40.2448 14.9742 40.4541 15.1352 40.4837 15.3634C40.5133 15.5917 40.352 15.8004 40.1237 15.83L39.7156 15.8828L42.3761 17.419C42.505 17.4935 42.5845 17.6309 42.5845 17.7799V28.5805C42.5845 28.7295 42.5053 28.8669 42.3764 28.9414L39.238 30.7533C39.1723 30.7913 39.1007 30.8093 39.0302 30.8093C38.8862 30.8093 38.746 30.7344 38.669 30.6008C38.5539 30.4015 38.6221 30.1468 38.8215 30.0317L41.7517 28.34V18.0201L39.3541 16.6358L39.482 16.9423C39.5707 17.1549 39.4701 17.3988 39.2579 17.4872C39.2054 17.5092 39.151 17.5196 39.0975 17.5196C38.9343 17.5196 38.7793 17.423 38.7127 17.2633L38.0952 15.7828Z" fill="#65221A"/>
<path d="M42.9297 33.1575C42.5603 32.3486 41.4747 31.8254 40.2979 32.3492C38.4426 33.1745 35.5055 34.1149 33.9039 34.483C33.9043 34.4368 33.9039 34.3899 33.9011 34.3425C33.8543 33.515 33.2236 32.5331 31.5994 32.4897C29.5291 32.4347 28.8009 32.3671 26.8193 32.1241C25.3167 31.9401 24.1142 32.8648 23.1052 33.7461C21.8272 34.8625 20.9727 35.4693 19.9292 36.1217L19.2394 35.3319C19.1668 35.2486 19.064 35.1976 18.9536 35.1901C18.8436 35.1826 18.7348 35.2193 18.6515 35.292L16.1426 37.4833C15.9693 37.6349 15.9514 37.898 16.1029 38.0713L22.03 44.8573C22.1026 44.9406 22.2054 44.9915 22.3158 44.9991C22.3252 44.9997 22.3347 45 22.3438 45C22.4444 45 22.5418 44.9635 22.6179 44.8972L25.1268 42.7058C25.3001 42.5543 25.318 42.2911 25.1665 42.1179L24.5578 41.4209C25.9776 40.2941 27.0651 40.2258 28.6249 40.2567C28.8962 40.262 29.1383 40.2692 29.3517 40.2758C30.7631 40.3189 31.2385 40.3334 33.0239 39.5672C33.028 39.5653 33.0321 39.5637 33.0365 39.5615L41.7303 35.4903C43.0196 34.8867 43.2624 33.8835 42.9307 33.1572L42.9297 33.1575ZM22.3831 43.9955L17.0043 37.837L18.8857 36.1937L24.2644 42.3521L22.3831 43.9955ZM41.3763 34.7358L32.6885 38.8038C31.0778 39.4945 30.7166 39.4832 29.3766 39.4427C29.1609 39.4361 28.9163 39.4285 28.6406 39.4232C26.9821 39.3914 25.6563 39.4754 24.0088 40.7927L20.4841 36.7574C21.5131 36.1088 22.3796 35.4866 23.6532 34.3739C24.5666 33.5763 25.5563 32.8088 26.7177 32.9516C28.7308 33.1981 29.4709 33.2669 31.5771 33.3229C32.475 33.3468 33.0324 33.7454 33.0689 34.3896C33.0862 34.6955 33.0026 34.9298 32.8054 35.126C31.9361 35.9918 29.2643 35.8299 27.9806 35.7522C27.7656 35.7394 27.5801 35.728 27.4264 35.7221C27.1981 35.7145 27.0029 35.8925 26.9941 36.1223C26.9853 36.3521 27.1645 36.5458 27.3943 36.5546C27.5389 36.5603 27.72 36.5713 27.93 36.5838C30.0246 36.7108 32.3467 36.7586 33.3934 35.7161C33.4958 35.6139 33.5823 35.5042 33.6543 35.3875C35.1584 35.0977 38.5624 34.0331 40.6368 33.1103C41.342 32.7966 41.9711 33.0635 42.172 33.5033C42.3717 33.94 42.0667 34.4123 41.3763 34.7355V34.7358ZM23.0439 28.5805V17.7793C23.0439 17.6302 23.1232 17.4928 23.2521 17.4183L26.3904 15.6064C26.5897 15.4914 26.8444 15.5596 26.9595 15.7589C27.0745 15.9583 27.0063 16.2129 26.807 16.328L23.8768 18.0198V28.3396L26.2744 29.7239L26.1464 29.4174C26.0578 29.2052 26.1584 28.9609 26.3706 28.8725C26.5835 28.7839 26.8271 28.8845 26.9155 29.0967L27.5329 30.5772C27.5829 30.697 27.5741 30.8335 27.5094 30.946C27.4443 31.0586 27.3308 31.1343 27.2019 31.151L25.611 31.3566C25.5928 31.3588 25.5749 31.3601 25.5573 31.3601C25.351 31.3601 25.1718 31.207 25.1444 30.9966C25.1149 30.7684 25.2762 30.5596 25.5044 30.5301L25.9125 30.4772L23.2521 28.9411C23.1232 28.8666 23.0436 28.7292 23.0436 28.5802L23.0439 28.5805ZM26.1012 19.5446V26.8154C26.1012 26.9645 26.1807 27.1018 26.3096 27.1764L32.6064 30.8118C32.6709 30.8489 32.7429 30.8677 32.8149 30.8677C32.8869 30.8677 32.9589 30.8492 33.0233 30.8118L39.3201 27.1764C39.449 27.1018 39.5286 26.9645 39.5286 26.8154V19.5443C39.5286 19.3953 39.449 19.2579 39.3201 19.1834L33.0227 15.5483C32.8938 15.4738 32.735 15.4738 32.6061 15.5483L26.3093 19.1837C26.1804 19.2582 26.1012 19.3956 26.1012 19.5446ZM26.9346 20.2665L28.329 21.0717V23.3413C28.329 23.4903 28.4085 23.6277 28.5375 23.7022L30.3786 24.7652C30.443 24.8023 30.515 24.8212 30.587 24.8212C30.659 24.8212 30.731 24.8026 30.7955 24.7652C30.9244 24.6907 31.0039 24.5533 31.0039 24.4043V22.6157L32.3986 23.4209V29.7293L26.9353 26.5749V20.2662L26.9346 20.2665ZM32.8145 22.699L31.4202 21.8938L36.8835 18.7394L38.2782 19.5446L32.8145 22.699ZM29.1625 21.5527L30.1701 22.1343V23.6824L29.1625 23.1005V21.5527ZM30.5867 21.4128L29.5791 20.8311L35.0424 17.6768L36.05 18.2584L30.5867 21.4128ZM33.2311 29.7293V23.4205L38.6945 20.2662V26.5746L33.2311 29.7293ZM32.8142 16.3906L34.2089 17.1957L28.7456 20.3501L27.3509 19.5449L32.8145 16.3902L32.8142 16.3906ZM38.0952 15.7828C38.0452 15.663 38.054 15.5266 38.1188 15.414C38.1839 15.3015 38.2974 15.2257 38.4263 15.209L40.0171 15.0034C40.2448 14.9742 40.4541 15.1352 40.4837 15.3634C40.5133 15.5917 40.352 15.8004 40.1237 15.83L39.7156 15.8828L42.3761 17.419C42.505 17.4935 42.5845 17.6309 42.5845 17.7799V28.5805C42.5845 28.7295 42.5053 28.8669 42.3764 28.9414L39.238 30.7533C39.1723 30.7913 39.1007 30.8093 39.0302 30.8093C38.8862 30.8093 38.746 30.7344 38.669 30.6008C38.5539 30.4015 38.6221 30.1468 38.8215 30.0317L41.7517 28.34V18.0201L39.3541 16.6358L39.482 16.9423C39.5707 17.1549 39.4701 17.3988 39.2579 17.4872C39.2054 17.5092 39.151 17.5196 39.0975 17.5196C38.9343 17.5196 38.7793 17.423 38.7127 17.2633L38.0952 15.7828Z" stroke="#65221A" stroke-width="0.6" mask="url(#path-2-outside-1_1446_599)"/>
</svg>
