<svg width="60" height="60" viewBox="0 0 60 60" fill="none" xmlns="http://www.w3.org/2000/svg">
<circle cx="30" cy="30" r="30" fill="white"/>
<path d="M43.6181 34.0342H39.9183V29.6657C39.9183 29.1753 39.5171 28.7741 39.0267 28.7741H30.6909V25.9658H34.3908C34.8811 25.9658 35.2823 25.5646 35.2823 25.0743V15.8915C35.2823 15.4012 34.8811 15 34.3908 15H25.208C24.7177 15 24.3165 15.4012 24.3165 15.8915V25.0743C24.3165 25.5646 24.7177 25.9658 25.208 25.9658H28.9079V28.7741H20.4829C19.9926 28.7741 19.5914 29.1753 19.5914 29.6657V34.0342H15.8915C15.4012 34.0342 15 34.4354 15 34.9257V44.1085C15 44.5988 15.4012 45 15.8915 45H25.0743C25.5646 45 25.9658 44.5988 25.9658 44.1085V34.9257C25.9658 34.4354 25.5646 34.0342 25.0743 34.0342H21.3744V30.5572H38.0906V34.0342H34.3908C33.9004 34.0342 33.4993 34.4354 33.4993 34.9257V44.1085C33.4993 44.5988 33.9004 45 34.3908 45H43.5736C44.0639 45 44.4651 44.5988 44.4651 44.1085V34.9257C44.5097 34.4354 44.1085 34.0342 43.6181 34.0342ZM26.0996 16.7831H33.4993V24.1828H26.0996V16.7831ZM24.2273 43.2169H16.7831V35.8172H24.1828V43.2169H24.2273ZM42.7266 43.2169H35.2823V35.8172H42.682V43.2169H42.7266Z" fill="#65221A"/>
</svg>
