<svg width="60" height="60" viewBox="0 0 60 60" fill="none" xmlns="http://www.w3.org/2000/svg">
<circle cx="30" cy="30" r="30" fill="#65221A"/>
<path d="M28.9757 24.8277H24.8188C24.5508 24.8277 24.334 25.0445 24.334 25.3125V29.4694C24.334 29.7374 24.5508 29.9542 24.8188 29.9542H28.9757C29.2437 29.9542 29.4604 29.7374 29.4604 29.4694V25.3125C29.4611 25.0445 29.2443 24.8277 28.9757 24.8277ZM28.4909 28.9846H25.3042V25.7979H28.4909V28.9846Z" fill="white"/>
<path d="M35.0733 24.8277H30.9164C30.6484 24.8277 30.4316 25.0445 30.4316 25.3125V29.4694C30.4316 29.7374 30.6484 29.9542 30.9164 29.9542H35.0733C35.3413 29.9542 35.5581 29.7374 35.5581 29.4694V25.3125C35.5581 25.0445 35.3413 24.8277 35.0733 24.8277ZM34.5879 28.9846H31.4012V25.7979H34.5879V28.9846Z" fill="white"/>
<path d="M28.9757 30.9244H24.8188C24.5508 30.9244 24.334 31.1412 24.334 31.4092V35.5661C24.334 35.834 24.5508 36.0508 24.8188 36.0508H28.9757C29.2437 36.0508 29.4604 35.834 29.4604 35.5661V31.4092C29.4611 31.1412 29.2443 30.9244 28.9757 30.9244ZM28.4909 35.0813H25.3042V31.8946H28.4909V35.0813Z" fill="white"/>
<path d="M35.0733 30.9244H30.9164C30.6484 30.9244 30.4316 31.1412 30.4316 31.4092V35.5661C30.4316 35.834 30.6484 36.0508 30.9164 36.0508H35.0733C35.3413 36.0508 35.5581 35.834 35.5581 35.5661V31.4092C35.5581 31.1412 35.3413 30.9244 35.0733 30.9244ZM34.5879 35.0813H31.4012V31.8946H34.5879V35.0813Z" fill="white"/>
<path d="M36.6744 15.4399H23.2162C21.7784 15.4399 20.6094 16.609 20.6094 18.0467V42.8332C20.6094 44.2709 21.7784 45.4399 23.2162 45.4399H36.6744C38.1121 45.4399 39.2812 44.2709 39.2812 42.8332V18.0467C39.2812 16.609 38.1121 15.4399 36.6744 15.4399ZM21.5789 20.3503H38.3109V40.5296H21.5789V20.3503ZM23.2162 16.4095H36.6744C37.5768 16.4095 38.3109 17.1437 38.3109 18.0461V19.38H21.5789V18.0467C21.5789 17.1437 22.3131 16.4095 23.2162 16.4095ZM36.6744 44.4697H23.2162C22.3138 44.4697 21.5796 43.7356 21.5796 42.8332V41.4992H38.3116V42.8332C38.3116 43.7356 37.5774 44.4697 36.6744 44.4697Z" fill="white"/>
<path d="M28.7328 18.4577H31.1581C31.4261 18.4577 31.6429 18.2409 31.6429 17.9729C31.6429 17.7049 31.4261 17.4881 31.1581 17.4881H28.7328C28.4648 17.4881 28.248 17.7049 28.248 17.9729C28.2474 18.2409 28.4648 18.4577 28.7328 18.4577Z" fill="white"/>
<path d="M29.946 42.0265C29.414 42.0265 28.9824 42.4581 28.9824 42.9901C28.9824 43.5221 29.414 43.953 29.946 43.953C30.478 43.953 30.9096 43.5214 30.9096 42.9894C30.9096 42.4574 30.478 42.0265 29.946 42.0265Z" fill="white"/>
</svg>
