<svg width="60" height="60" viewBox="0 0 60 60" fill="none" xmlns="http://www.w3.org/2000/svg">
<circle cx="30" cy="30" r="30" fill="white"/>
<path d="M30.0046 20.36C24.6914 20.36 20.3691 24.6868 20.3691 30.0049C20.3691 35.3183 24.6915 39.6407 30.0046 39.6407C35.3176 39.6407 39.64 35.3183 39.64 30.0049C39.64 24.6868 35.3177 20.36 30.0046 20.36ZM30.0046 38.443C25.3522 38.443 21.5668 34.6577 21.5668 30.0049C21.5668 25.3472 25.3523 21.5576 30.0046 21.5576C34.6568 21.5576 38.4423 25.3472 38.4423 30.0049C38.4423 34.6577 34.657 38.443 30.0046 38.443Z" fill="#65221A" stroke="#65221A" stroke-width="0.25"/>
<mask id="path-3-outside-1_1446_739" maskUnits="userSpaceOnUse" x="14" y="14" width="32" height="32" fill="black">
<rect fill="white" x="14" y="14" width="32" height="32"/>
<path d="M43.8885 27.5142L41.8546 27.1422C41.5517 25.8909 41.0621 24.7162 40.3961 23.642L41.5745 21.9429C41.9512 21.3993 41.8852 20.6651 41.4175 20.1974L39.8026 18.5822C39.3352 18.1151 38.6016 18.0485 38.0577 18.4249L36.3654 19.5965C35.2675 18.9295 34.0909 18.4427 32.8591 18.1454L32.4951 16.1254C32.3778 15.4732 31.8121 15 31.1497 15H28.8601C28.1981 15 27.6323 15.4732 27.5145 16.1254L27.1514 18.1435C25.9178 18.4341 24.7406 18.9209 23.643 19.5953L21.9521 18.4242C21.4089 18.0491 20.6753 18.1151 20.2073 18.5822L18.5924 20.1974C18.1247 20.6651 18.0587 21.3993 18.4356 21.9435L19.6138 23.642C18.9477 24.7162 18.4582 25.8909 18.1552 27.1422L16.1217 27.5136C15.4717 27.632 15 28.1978 15 28.8586V31.1396C15 31.8022 15.4732 32.368 16.1257 32.4852L18.1531 32.8492C18.4452 34.0881 18.9354 35.2659 19.6138 36.3586L18.4356 38.0571C18.0584 38.6007 18.1244 39.3349 18.5924 39.8032L20.2076 41.4191C20.675 41.8849 21.4089 41.9521 21.9521 41.5751L23.643 40.4054C24.7409 41.0791 25.9184 41.5665 27.1511 41.8565L27.5145 43.8752C27.6323 44.5268 28.1981 45 28.8601 45H31.1497C31.8121 45 32.3778 44.5268 32.4951 43.8752L32.8591 41.8546C34.0903 41.5573 35.2672 41.0705 36.3654 40.4041L38.0577 41.5758C38.6013 41.9509 39.3346 41.8855 39.8026 41.4184L41.4175 39.8032C41.8855 39.3349 41.9515 38.6007 41.5742 38.0571L40.3961 36.3586C41.0745 35.2659 41.5647 34.0881 41.8568 32.8492L43.8845 32.4852C44.5366 32.368 45.0099 31.8022 45.0099 31.1396V28.8586C45.0099 28.1978 44.5382 27.632 43.8885 27.5142ZM44.0622 31.1396C44.0622 31.3425 43.9169 31.5165 43.717 31.5523L41.3786 31.9719C41.188 32.0058 41.0374 32.1526 40.9983 32.3421C40.7209 33.6834 40.1937 34.9506 39.4311 36.1087C39.3247 36.2704 39.3272 36.4801 39.4376 36.6393L40.7956 38.5976C40.9113 38.7642 40.8909 38.9894 40.7475 39.1331L39.1328 40.7478C38.9894 40.8922 38.7639 40.9113 38.597 40.7965L36.6486 39.4478C36.4915 39.3392 36.2842 39.3343 36.1232 39.4385C34.9537 40.1882 33.684 40.7132 32.3491 40.9989C32.161 41.039 32.016 41.1889 31.9817 41.3783L31.5622 43.7074C31.5264 43.9073 31.3527 44.0523 31.1497 44.0523H28.8601C28.6568 44.0523 28.4835 43.9073 28.4474 43.7074L28.0281 41.3783C27.9939 41.1877 27.8471 41.0371 27.6576 40.9983C26.3237 40.7225 25.0558 40.198 23.8891 39.4398C23.8105 39.3886 23.7207 39.3633 23.6309 39.3633C23.5365 39.3633 23.4421 39.3917 23.3613 39.4478L21.4129 40.7959C21.2466 40.9125 21.0214 40.8915 20.8773 40.7484L19.2624 39.1331C19.119 38.9894 19.0986 38.7642 19.2143 38.5976L20.5722 36.6393C20.6827 36.4801 20.6852 36.2704 20.5787 36.1087C19.8161 34.9506 19.2889 33.6834 19.0116 32.3421C18.9724 32.1526 18.8219 32.0058 18.6312 31.9719L16.2932 31.5523C16.093 31.5165 15.9477 31.3425 15.9477 31.1396V28.8586C15.9477 28.6556 16.0921 28.4822 16.2916 28.4458L18.6328 28.0176C18.8213 27.9837 18.9706 27.8387 19.011 27.6518C19.3034 26.292 19.8309 25.0271 20.5787 23.8913C20.6852 23.7296 20.6827 23.5199 20.5722 23.3607L19.2146 21.4036C19.0989 21.2364 19.119 21.0112 19.2624 20.8675L20.8773 19.2522C21.0211 19.1091 21.246 19.0881 21.4129 19.2035L23.361 20.5528C23.5192 20.662 23.7284 20.6663 23.8891 20.5608C25.0552 19.8026 26.3231 19.2781 27.6576 19.0017C27.8471 18.9629 27.9939 18.8123 28.0281 18.6217L28.4474 16.2932C28.4835 16.0933 28.6571 15.9477 28.8601 15.9477H31.1497C31.3527 15.9477 31.5264 16.0927 31.5622 16.2932L31.9817 18.6217C32.016 18.8111 32.161 18.961 32.3491 19.0011C33.6843 19.2868 34.954 19.8118 36.1229 20.5621C36.2842 20.667 36.4915 20.662 36.6489 20.5528L38.597 19.2041C38.7636 19.0875 38.9891 19.1085 39.1325 19.2522L40.7475 20.8675C40.8909 21.0112 40.911 21.2364 40.7956 21.403L39.4376 23.3607C39.3272 23.5199 39.3247 23.7296 39.4311 23.8913C40.1789 25.0271 40.7064 26.292 40.9989 27.6518C41.0393 27.8387 41.1886 27.9837 41.3771 28.0176L43.7185 28.4464C43.9178 28.4822 44.0622 28.6556 44.0622 28.8586V31.1396Z"/>
</mask>
<path d="M43.8885 27.5142L41.8546 27.1422C41.5517 25.8909 41.0621 24.7162 40.3961 23.642L41.5745 21.9429C41.9512 21.3993 41.8852 20.6651 41.4175 20.1974L39.8026 18.5822C39.3352 18.1151 38.6016 18.0485 38.0577 18.4249L36.3654 19.5965C35.2675 18.9295 34.0909 18.4427 32.8591 18.1454L32.4951 16.1254C32.3778 15.4732 31.8121 15 31.1497 15H28.8601C28.1981 15 27.6323 15.4732 27.5145 16.1254L27.1514 18.1435C25.9178 18.4341 24.7406 18.9209 23.643 19.5953L21.9521 18.4242C21.4089 18.0491 20.6753 18.1151 20.2073 18.5822L18.5924 20.1974C18.1247 20.6651 18.0587 21.3993 18.4356 21.9435L19.6138 23.642C18.9477 24.7162 18.4582 25.8909 18.1552 27.1422L16.1217 27.5136C15.4717 27.632 15 28.1978 15 28.8586V31.1396C15 31.8022 15.4732 32.368 16.1257 32.4852L18.1531 32.8492C18.4452 34.0881 18.9354 35.2659 19.6138 36.3586L18.4356 38.0571C18.0584 38.6007 18.1244 39.3349 18.5924 39.8032L20.2076 41.4191C20.675 41.8849 21.4089 41.9521 21.9521 41.5751L23.643 40.4054C24.7409 41.0791 25.9184 41.5665 27.1511 41.8565L27.5145 43.8752C27.6323 44.5268 28.1981 45 28.8601 45H31.1497C31.8121 45 32.3778 44.5268 32.4951 43.8752L32.8591 41.8546C34.0903 41.5573 35.2672 41.0705 36.3654 40.4041L38.0577 41.5758C38.6013 41.9509 39.3346 41.8855 39.8026 41.4184L41.4175 39.8032C41.8855 39.3349 41.9515 38.6007 41.5742 38.0571L40.3961 36.3586C41.0745 35.2659 41.5647 34.0881 41.8568 32.8492L43.8845 32.4852C44.5366 32.368 45.0099 31.8022 45.0099 31.1396V28.8586C45.0099 28.1978 44.5382 27.632 43.8885 27.5142ZM44.0622 31.1396C44.0622 31.3425 43.9169 31.5165 43.717 31.5523L41.3786 31.9719C41.188 32.0058 41.0374 32.1526 40.9983 32.3421C40.7209 33.6834 40.1937 34.9506 39.4311 36.1087C39.3247 36.2704 39.3272 36.4801 39.4376 36.6393L40.7956 38.5976C40.9113 38.7642 40.8909 38.9894 40.7475 39.1331L39.1328 40.7478C38.9894 40.8922 38.7639 40.9113 38.597 40.7965L36.6486 39.4478C36.4915 39.3392 36.2842 39.3343 36.1232 39.4385C34.9537 40.1882 33.684 40.7132 32.3491 40.9989C32.161 41.039 32.016 41.1889 31.9817 41.3783L31.5622 43.7074C31.5264 43.9073 31.3527 44.0523 31.1497 44.0523H28.8601C28.6568 44.0523 28.4835 43.9073 28.4474 43.7074L28.0281 41.3783C27.9939 41.1877 27.8471 41.0371 27.6576 40.9983C26.3237 40.7225 25.0558 40.198 23.8891 39.4398C23.8105 39.3886 23.7207 39.3633 23.6309 39.3633C23.5365 39.3633 23.4421 39.3917 23.3613 39.4478L21.4129 40.7959C21.2466 40.9125 21.0214 40.8915 20.8773 40.7484L19.2624 39.1331C19.119 38.9894 19.0986 38.7642 19.2143 38.5976L20.5722 36.6393C20.6827 36.4801 20.6852 36.2704 20.5787 36.1087C19.8161 34.9506 19.2889 33.6834 19.0116 32.3421C18.9724 32.1526 18.8219 32.0058 18.6312 31.9719L16.2932 31.5523C16.093 31.5165 15.9477 31.3425 15.9477 31.1396V28.8586C15.9477 28.6556 16.0921 28.4822 16.2916 28.4458L18.6328 28.0176C18.8213 27.9837 18.9706 27.8387 19.011 27.6518C19.3034 26.292 19.8309 25.0271 20.5787 23.8913C20.6852 23.7296 20.6827 23.5199 20.5722 23.3607L19.2146 21.4036C19.0989 21.2364 19.119 21.0112 19.2624 20.8675L20.8773 19.2522C21.0211 19.1091 21.246 19.0881 21.4129 19.2035L23.361 20.5528C23.5192 20.662 23.7284 20.6663 23.8891 20.5608C25.0552 19.8026 26.3231 19.2781 27.6576 19.0017C27.8471 18.9629 27.9939 18.8123 28.0281 18.6217L28.4474 16.2932C28.4835 16.0933 28.6571 15.9477 28.8601 15.9477H31.1497C31.3527 15.9477 31.5264 16.0927 31.5622 16.2932L31.9817 18.6217C32.016 18.8111 32.161 18.961 32.3491 19.0011C33.6843 19.2868 34.954 19.8118 36.1229 20.5621C36.2842 20.667 36.4915 20.662 36.6489 20.5528L38.597 19.2041C38.7636 19.0875 38.9891 19.1085 39.1325 19.2522L40.7475 20.8675C40.8909 21.0112 40.911 21.2364 40.7956 21.403L39.4376 23.3607C39.3272 23.5199 39.3247 23.7296 39.4311 23.8913C40.1789 25.0271 40.7064 26.292 40.9989 27.6518C41.0393 27.8387 41.1886 27.9837 41.3771 28.0176L43.7185 28.4464C43.9178 28.4822 44.0622 28.6556 44.0622 28.8586V31.1396Z" fill="#65221A"/>
<path d="M43.8885 27.5142L41.8546 27.1422C41.5517 25.8909 41.0621 24.7162 40.3961 23.642L41.5745 21.9429C41.9512 21.3993 41.8852 20.6651 41.4175 20.1974L39.8026 18.5822C39.3352 18.1151 38.6016 18.0485 38.0577 18.4249L36.3654 19.5965C35.2675 18.9295 34.0909 18.4427 32.8591 18.1454L32.4951 16.1254C32.3778 15.4732 31.8121 15 31.1497 15H28.8601C28.1981 15 27.6323 15.4732 27.5145 16.1254L27.1514 18.1435C25.9178 18.4341 24.7406 18.9209 23.643 19.5953L21.9521 18.4242C21.4089 18.0491 20.6753 18.1151 20.2073 18.5822L18.5924 20.1974C18.1247 20.6651 18.0587 21.3993 18.4356 21.9435L19.6138 23.642C18.9477 24.7162 18.4582 25.8909 18.1552 27.1422L16.1217 27.5136C15.4717 27.632 15 28.1978 15 28.8586V31.1396C15 31.8022 15.4732 32.368 16.1257 32.4852L18.1531 32.8492C18.4452 34.0881 18.9354 35.2659 19.6138 36.3586L18.4356 38.0571C18.0584 38.6007 18.1244 39.3349 18.5924 39.8032L20.2076 41.4191C20.675 41.8849 21.4089 41.9521 21.9521 41.5751L23.643 40.4054C24.7409 41.0791 25.9184 41.5665 27.1511 41.8565L27.5145 43.8752C27.6323 44.5268 28.1981 45 28.8601 45H31.1497C31.8121 45 32.3778 44.5268 32.4951 43.8752L32.8591 41.8546C34.0903 41.5573 35.2672 41.0705 36.3654 40.4041L38.0577 41.5758C38.6013 41.9509 39.3346 41.8855 39.8026 41.4184L41.4175 39.8032C41.8855 39.3349 41.9515 38.6007 41.5742 38.0571L40.3961 36.3586C41.0745 35.2659 41.5647 34.0881 41.8568 32.8492L43.8845 32.4852C44.5366 32.368 45.0099 31.8022 45.0099 31.1396V28.8586C45.0099 28.1978 44.5382 27.632 43.8885 27.5142ZM44.0622 31.1396C44.0622 31.3425 43.9169 31.5165 43.717 31.5523L41.3786 31.9719C41.188 32.0058 41.0374 32.1526 40.9983 32.3421C40.7209 33.6834 40.1937 34.9506 39.4311 36.1087C39.3247 36.2704 39.3272 36.4801 39.4376 36.6393L40.7956 38.5976C40.9113 38.7642 40.8909 38.9894 40.7475 39.1331L39.1328 40.7478C38.9894 40.8922 38.7639 40.9113 38.597 40.7965L36.6486 39.4478C36.4915 39.3392 36.2842 39.3343 36.1232 39.4385C34.9537 40.1882 33.684 40.7132 32.3491 40.9989C32.161 41.039 32.016 41.1889 31.9817 41.3783L31.5622 43.7074C31.5264 43.9073 31.3527 44.0523 31.1497 44.0523H28.8601C28.6568 44.0523 28.4835 43.9073 28.4474 43.7074L28.0281 41.3783C27.9939 41.1877 27.8471 41.0371 27.6576 40.9983C26.3237 40.7225 25.0558 40.198 23.8891 39.4398C23.8105 39.3886 23.7207 39.3633 23.6309 39.3633C23.5365 39.3633 23.4421 39.3917 23.3613 39.4478L21.4129 40.7959C21.2466 40.9125 21.0214 40.8915 20.8773 40.7484L19.2624 39.1331C19.119 38.9894 19.0986 38.7642 19.2143 38.5976L20.5722 36.6393C20.6827 36.4801 20.6852 36.2704 20.5787 36.1087C19.8161 34.9506 19.2889 33.6834 19.0116 32.3421C18.9724 32.1526 18.8219 32.0058 18.6312 31.9719L16.2932 31.5523C16.093 31.5165 15.9477 31.3425 15.9477 31.1396V28.8586C15.9477 28.6556 16.0921 28.4822 16.2916 28.4458L18.6328 28.0176C18.8213 27.9837 18.9706 27.8387 19.011 27.6518C19.3034 26.292 19.8309 25.0271 20.5787 23.8913C20.6852 23.7296 20.6827 23.5199 20.5722 23.3607L19.2146 21.4036C19.0989 21.2364 19.119 21.0112 19.2624 20.8675L20.8773 19.2522C21.0211 19.1091 21.246 19.0881 21.4129 19.2035L23.361 20.5528C23.5192 20.662 23.7284 20.6663 23.8891 20.5608C25.0552 19.8026 26.3231 19.2781 27.6576 19.0017C27.8471 18.9629 27.9939 18.8123 28.0281 18.6217L28.4474 16.2932C28.4835 16.0933 28.6571 15.9477 28.8601 15.9477H31.1497C31.3527 15.9477 31.5264 16.0927 31.5622 16.2932L31.9817 18.6217C32.016 18.8111 32.161 18.961 32.3491 19.0011C33.6843 19.2868 34.954 19.8118 36.1229 20.5621C36.2842 20.667 36.4915 20.662 36.6489 20.5528L38.597 19.2041C38.7636 19.0875 38.9891 19.1085 39.1325 19.2522L40.7475 20.8675C40.8909 21.0112 40.911 21.2364 40.7956 21.403L39.4376 23.3607C39.3272 23.5199 39.3247 23.7296 39.4311 23.8913C40.1789 25.0271 40.7064 26.292 40.9989 27.6518C41.0393 27.8387 41.1886 27.9837 41.3771 28.0176L43.7185 28.4464C43.9178 28.4822 44.0622 28.6556 44.0622 28.8586V31.1396Z" stroke="#65221A" stroke-width="0.5" mask="url(#path-3-outside-1_1446_739)"/>
<path d="M32.5562 30.9705C33.194 30.3232 33.5906 29.4369 33.5906 28.4576C33.5906 26.4813 31.981 24.8738 30.0025 24.8738C28.0264 24.8738 26.4187 26.4814 26.4187 28.4576C26.4187 29.437 26.815 30.3234 27.4521 30.9707C25.8766 31.3866 24.7109 32.8223 24.7109 34.5274C24.7109 34.858 24.9791 35.1262 25.3098 35.1262C25.6404 35.1262 25.9086 34.858 25.9086 34.5274C25.9086 33.1589 27.0221 32.0457 28.3904 32.0457H31.619C32.9872 32.0457 34.1007 33.1589 34.1007 34.5274C34.1007 34.858 34.369 35.1262 34.6996 35.1262C35.0302 35.1262 35.2984 34.858 35.2984 34.5274C35.2984 32.822 34.1323 31.386 32.5562 30.9705ZM27.6164 28.4576C27.6164 27.1421 28.6871 26.0715 30.0025 26.0715C31.3207 26.0715 32.3929 27.1423 32.3929 28.4576C32.3929 29.7755 31.3205 30.848 30.0025 30.848C28.6873 30.848 27.6164 29.7757 27.6164 28.4576Z" fill="#65221A" stroke="#65221A" stroke-width="0.25"/>
</svg>
