<svg width="60" height="60" viewBox="0 0 60 60" fill="none" xmlns="http://www.w3.org/2000/svg">
<circle cx="30" cy="30" r="30" fill="#65221A"/>
<path d="M31.9288 15C26.0772 15 21.3179 19.7588 21.3179 25.6098C21.3179 31.4607 26.0772 36.2195 31.9288 36.2195C33.4372 36.2195 34.8703 35.8974 36.1708 35.3277C37.6343 37.6986 39.0017 40.1409 40.4815 42.4962C41.0888 43.3426 41.9254 43.8018 42.7569 43.8796C43.5884 43.9573 44.3925 43.68 45.0094 43.1936C45.6263 42.7072 46.0754 41.9998 46.1757 41.17C46.2754 40.3446 45.9929 39.4273 45.2838 38.6547C43.495 36.6324 41.7085 34.6078 39.9212 32.5839C41.5519 30.718 42.5396 28.277 42.5396 25.6098C42.5396 19.7589 37.7803 15 31.9288 15ZM31.9288 16.4634C36.9893 16.4634 41.0761 20.5497 41.0761 25.6098C41.0761 30.6698 36.9893 34.7561 31.9288 34.7561C26.8682 34.7561 22.7814 30.6698 22.7814 25.6098C22.7814 20.5497 26.8682 16.4634 31.9288 16.4634ZM18.3907 17.9268C17.3449 17.9268 16.3679 17.9225 15.4979 18.3041C14.6279 18.6857 14 19.6242 14 20.8537V36.5854C14.0015 36.7763 14.0814 36.9655 14.2172 37.0998L21.901 44.7828C22.0353 44.9186 22.2245 44.9985 22.4155 45H31.9288C33.1474 45 34.0819 44.3806 34.4671 43.5137C34.8524 42.6469 34.8559 41.6681 34.8559 40.6098V39.878C34.8614 39.4915 34.5108 39.1359 34.1241 39.1359C33.7375 39.1359 33.3869 39.4915 33.3923 39.878V40.6098C33.3923 41.6379 33.3253 42.4784 33.1293 42.9192C32.9334 43.36 32.7762 43.5366 31.9288 43.5366H23.1473V38.0488C23.1473 37.2099 22.8568 36.5295 22.3469 36.1852C21.8371 35.8409 21.3084 35.8537 20.952 35.8537H15.4636V20.8537C15.4636 19.9966 15.6381 19.8361 16.081 19.6418C16.524 19.4475 17.3705 19.3902 18.3907 19.3902H19.8543C20.2409 19.3957 20.5965 19.0451 20.5965 18.6585C20.5965 18.2719 20.2409 17.9214 19.8543 17.9268H18.3907ZM33.3237 21.5854C32.9405 21.6033 32.6081 21.9682 32.6261 22.3514C32.644 22.7345 33.0091 23.0668 33.3923 23.0488H36.4338L33.0379 26.7073L30.6481 24.0206C30.3849 23.7234 29.8666 23.7067 29.5848 23.9863L26.2917 27.279C26.0105 27.5463 26.0027 28.0481 26.2756 28.324C26.5484 28.5998 27.0504 28.5976 27.3208 28.3192L30.065 25.5753L32.4776 28.2849C32.7479 28.5906 33.2872 28.5962 33.5638 28.2963L37.4171 24.1461V27.073C37.4117 27.4595 37.7623 27.8151 38.1489 27.8151C38.5356 27.8151 38.8862 27.4595 38.8807 27.073V22.3169C38.8807 21.9338 38.5321 21.5852 38.1489 21.5852C36.4701 21.5851 34.7645 21.5853 33.3237 21.5854ZM38.8807 33.6128C40.6535 35.6203 42.424 37.6327 44.1976 39.6379C44.6749 40.1535 44.7717 40.6003 44.7236 40.9984C44.6755 41.3965 44.4402 41.7778 44.0947 42.0503C43.7492 42.3227 43.31 42.4664 42.8941 42.4275C42.4823 42.389 42.0746 42.2013 41.6821 41.6615C40.276 39.3327 38.8753 36.9892 37.4743 34.6532C37.9725 34.3466 38.4413 33.9949 38.8807 33.6128ZM16.5041 37.3171H20.952C21.262 37.3171 21.4683 37.3597 21.5237 37.3971C21.579 37.4345 21.6838 37.4876 21.6838 38.0488V42.4962L16.5041 37.3171Z" fill="white"/>
</svg>
