<svg width="101" height="100" viewBox="0 0 101 100" fill="none" xmlns="http://www.w3.org/2000/svg">
<circle cx="50.5" cy="50" r="50" fill="#65221A"/>
<path d="M39.3 66.15H61.7C61.9664 66.15 62.1927 66.0164 62.3486 65.8294C62.5038 65.6431 62.5967 65.396 62.5967 65.1467C62.5967 64.6372 62.2095 64.25 61.7 64.25C60.0729 64.25 58.65 62.9273 58.65 61.2V34.7467C58.65 34.2372 58.2628 33.85 57.7533 33.85H35.2467C34.7372 33.85 34.35 34.2372 34.35 34.7467V61.2C34.35 63.9495 36.5505 66.15 39.3 66.15ZM36.1433 61.2V35.6433H56.75V61.2C56.75 62.305 57.205 63.4023 57.8622 64.25H39.1933C37.5662 64.25 36.1433 62.9273 36.1433 61.2Z" fill="#F7F4F4" stroke="#F7F4F4" stroke-width="0.3"/>
<path d="M56.7523 61.2C56.7523 63.9496 58.9528 66.15 61.7023 66.15C64.4496 66.15 66.6542 63.951 66.5457 61.1971V41.2534C66.5457 40.7439 66.1585 40.3567 65.649 40.3567H57.649C57.1395 40.3567 56.7523 40.7439 56.7523 41.2534V61.2ZM58.6523 61.2V42.15H64.7523V61.2C64.7523 62.8271 63.4296 64.25 61.7023 64.25C60.0753 64.25 58.6523 62.9273 58.6523 61.2Z" fill="#F7F4F4" stroke="#F7F4F4" stroke-width="0.3"/>
<path d="M40.2584 56.87H46.1251C46.6346 56.87 47.0217 56.4829 47.0217 55.9734C47.0217 55.4638 46.6346 55.0767 46.1251 55.0767H40.2584C39.7489 55.0767 39.3617 55.4638 39.3617 55.9734C39.3617 56.4829 39.7489 56.87 40.2584 56.87Z" fill="#F7F4F4" stroke="#F7F4F4" stroke-width="0.3"/>
<path d="M40.2584 60.71H52.7384C53.2479 60.71 53.6351 60.3228 53.6351 59.8133C53.6351 59.3038 53.2479 58.9167 52.7384 58.9167H40.2584C39.7489 58.9167 39.3617 59.3038 39.3617 59.8133C39.3617 60.3228 39.7489 60.71 40.2584 60.71Z" fill="#F7F4F4" stroke="#F7F4F4" stroke-width="0.3"/>
<path d="M41.3884 38.9067V39.9362L41.3805 39.9391C40.7689 40.1615 40.2619 40.5256 39.9085 41.0345C39.5551 41.5434 39.3617 42.1878 39.3617 42.96C39.3617 43.7073 39.7094 44.2516 40.1708 44.671C40.5842 45.0468 41.0984 45.3306 41.5438 45.5764C41.5896 45.6017 41.6347 45.6266 41.6789 45.6512L41.6799 45.6517C42.2714 45.9743 42.7332 46.2321 43.0502 46.5238C43.3579 46.8069 43.5217 47.1154 43.5217 47.5467C43.5217 48.0868 43.3032 48.4438 43.0186 48.6691C42.7286 48.8987 42.3626 48.9967 42.0717 48.9967C41.9245 48.9967 41.6976 48.9714 41.5095 48.8275C41.329 48.6895 41.1551 48.4194 41.1551 47.8667C41.1551 47.3572 40.7679 46.97 40.2584 46.97C39.7489 46.97 39.3617 47.3572 39.3617 47.8667C39.3617 48.9702 39.8024 49.6545 40.2665 50.0069C40.5851 50.3224 40.9971 50.5365 41.4951 50.6542V51.7067C41.4951 52.2162 41.8822 52.6034 42.3917 52.6034C42.9012 52.6034 43.2884 52.2162 43.2884 51.7067V50.5358C44.3724 50.1602 45.3151 49.0588 45.3151 47.5467C45.3151 45.5382 43.805 44.7248 42.6658 44.1111C42.597 44.074 42.5297 44.0377 42.464 44.002C42.4157 43.9751 42.3688 43.9491 42.3235 43.924C41.9128 43.6963 41.6235 43.5359 41.4295 43.3875C41.2209 43.228 41.1551 43.107 41.1551 42.96C41.1551 42.4583 41.3045 42.1794 41.4578 42.0261C41.6154 41.8684 41.7902 41.83 41.8584 41.83H41.8804L41.9015 41.8237C42.3748 41.6817 42.8071 41.8444 43.133 42.07C43.2952 42.1823 43.4262 42.3072 43.5157 42.4091C43.5606 42.4601 43.5935 42.5036 43.6142 42.5352C43.6205 42.5448 43.6251 42.5525 43.6284 42.5583V42.5788L43.6536 42.6166C43.7873 42.8172 44.0131 42.9413 44.2423 42.9871C44.4715 43.033 44.7277 43.0052 44.9283 42.8715C45.1288 42.7378 45.253 42.512 45.2988 42.2828C45.3428 42.0629 45.3191 41.8183 45.199 41.6217C45.1948 41.6078 45.19 41.5967 45.1868 41.5896C45.1775 41.5685 45.1653 41.5465 45.1519 41.5246C45.125 41.4806 45.0872 41.4277 45.0403 41.3694C44.9464 41.2524 44.8103 41.1062 44.6375 40.9541C44.3133 40.6688 43.8526 40.3567 43.2884 40.1809V38.9067C43.2884 38.3972 42.9012 38.01 42.3917 38.01C42.1424 38.01 41.8953 38.1029 41.709 38.2581C41.522 38.414 41.3884 38.6403 41.3884 38.9067ZM43.6351 42.5717C43.635 42.5717 43.6345 42.5706 43.6338 42.5686C43.6348 42.5708 43.6351 42.5717 43.6351 42.5717Z" fill="#F7F4F4" stroke="#F7F4F4" stroke-width="0.3"/>
</svg>
