<svg width="100" height="100" viewBox="0 0 100 100" fill="none" xmlns="http://www.w3.org/2000/svg">
<circle cx="50" cy="50" r="50" fill="#F7F4F4"/>
<mask id="path-2-outside-1_1387_1242" maskUnits="userSpaceOnUse" x="33" y="31" width="34" height="38" fill="black">
<rect fill="white" x="33" y="31" width="34" height="38"/>
<path d="M64.7954 56.4065C64.4244 56.193 63.9935 56.1078 63.5693 56.164C63.145 56.2202 62.7512 56.4147 62.4486 56.7174L57.7884 54.0265V46.0528L62.4507 43.3623C62.8165 43.7277 63.3124 43.9328 63.8294 43.9327C64.1701 43.9324 64.5048 43.8423 64.7997 43.6716C65.0946 43.501 65.3395 43.2557 65.5096 42.9605C65.6797 42.6652 65.7692 42.3304 65.769 41.9897C65.7687 41.649 65.6788 41.3143 65.5083 41.0193C65.2726 40.6104 64.8962 40.3014 64.4493 40.1498C64.0024 39.9983 63.5157 40.0146 63.0799 40.1956C62.6442 40.3767 62.2892 40.7102 62.0814 41.1339C61.8735 41.5575 61.827 42.0423 61.9504 42.4978L57.2882 45.1866L50.3831 41.2V35.8198C50.8388 35.6985 51.2348 35.4155 51.4972 35.0238C51.7597 34.632 51.8707 34.1581 51.8095 33.6906C51.7483 33.223 51.5191 32.7936 51.1647 32.4826C50.8103 32.1715 50.3549 32 49.8833 32C49.4117 32 48.9563 32.1715 48.6019 32.4826C48.2475 32.7936 48.0183 33.223 47.9571 33.6906C47.8959 34.1581 48.0069 34.632 48.2694 35.0238C48.5318 35.4155 48.9278 35.6985 49.3835 35.8198V41.2L42.4784 45.1866L37.8182 42.4961C37.9417 42.0407 37.8951 41.5559 37.6873 41.1322C37.4794 40.7086 37.1245 40.3751 36.6887 40.194C36.253 40.0129 35.7662 39.9966 35.3193 40.1482C34.8724 40.2998 34.496 40.6088 34.2603 41.0176C34.0899 41.3126 34.0002 41.6473 34 41.988C33.9998 42.3287 34.0893 42.6634 34.2594 42.9586C34.4295 43.2538 34.6743 43.4991 34.9691 43.6698C35.264 43.8405 35.5986 43.9306 35.9393 43.9311C36.4563 43.9311 36.9521 43.7259 37.318 43.3606L41.9782 46.0528V54.0244L37.318 56.7166C36.985 56.3828 36.5421 56.1815 36.0717 56.1503C35.6013 56.119 35.1356 56.2599 34.7615 56.5467C34.3873 56.8335 34.1302 57.2466 34.0381 57.7089C33.9461 58.1712 34.0253 58.6513 34.2611 59.0595C34.4968 59.4678 34.873 59.7763 35.3195 59.9276C35.766 60.0789 36.2523 60.0627 36.6876 59.882C37.123 59.7012 37.4778 59.3683 37.6858 58.9452C37.8939 58.5222 37.9409 58.0379 37.8182 57.5827L42.4784 54.8922L49.3835 58.8785V64.1802C48.9278 64.3015 48.5318 64.5845 48.2694 64.9762C48.0069 65.368 47.8959 65.8419 47.9571 66.3094C48.0183 66.777 48.2475 67.2064 48.6019 67.5174C48.9563 67.8285 49.4117 68 49.8833 68C50.3549 68 50.8103 67.8285 51.1647 67.5174C51.5191 67.2064 51.7483 66.777 51.8095 66.3094C51.8707 65.8419 51.7597 65.368 51.4972 64.9762C51.2348 64.5845 50.8388 64.3015 50.3831 64.1802V58.8789L57.2886 54.8927L61.9484 57.5831C61.8249 58.0386 61.8715 58.5234 62.0793 58.947C62.2872 59.3707 62.6421 59.7042 63.0779 59.8853C63.5136 60.0664 64.0004 60.0826 64.4473 59.9311C64.8942 59.7795 65.2706 59.4705 65.5063 59.0617C65.7637 58.6152 65.8334 58.0848 65.7001 57.587C65.5668 57.0892 65.2414 56.6646 64.7954 56.4065ZM49.8833 49.462L43.4764 45.7657L49.8833 42.0694L56.2902 45.7657L49.8833 49.462ZM63.3542 41.1745C63.5157 41.0813 63.7011 41.038 63.8871 41.0502C64.0732 41.0624 64.2514 41.1295 64.3993 41.243C64.5472 41.3565 64.6581 41.5113 64.718 41.6878C64.778 41.8643 64.7842 42.0546 64.7359 42.2347C64.6877 42.4148 64.5871 42.5765 64.447 42.6994C64.3068 42.8223 64.1334 42.9009 63.9485 42.9253C63.7637 42.9496 63.5758 42.9186 63.4086 42.8361C63.2414 42.7537 63.1024 42.6235 63.0092 42.462C62.9468 42.355 62.9062 42.2366 62.8897 42.1138C62.8733 41.991 62.8813 41.8661 62.9134 41.7464C62.9455 41.6267 63.001 41.5145 63.0766 41.4163C63.1523 41.3182 63.2466 41.236 63.3542 41.1745ZM48.9407 33.9413C48.9407 33.7544 48.9962 33.5716 49.1001 33.4163C49.204 33.2609 49.3516 33.1398 49.5243 33.0684C49.6971 32.9969 49.8871 32.9784 50.0704 33.015C50.2537 33.0516 50.422 33.1418 50.554 33.2741C50.686 33.4064 50.7758 33.5749 50.8121 33.7583C50.8483 33.9416 50.8293 34.1316 50.7575 34.3042C50.6857 34.4768 50.5643 34.6241 50.4087 34.7277C50.253 34.8312 50.0702 34.8863 49.8833 34.8859C49.6331 34.8853 49.3934 34.7856 49.2167 34.6085C49.04 34.4314 48.9407 34.1914 48.9407 33.9413ZM35.4698 42.8062C35.3084 42.713 35.1782 42.574 35.0958 42.4068C35.0133 42.2396 34.9823 42.0517 35.0066 41.8669C35.0309 41.6821 35.1095 41.5086 35.2325 41.3685C35.3554 41.2283 35.5171 41.1277 35.6972 41.0795C35.8772 41.0312 36.0676 41.0375 36.2441 41.0974C36.4206 41.1573 36.5754 41.2682 36.6889 41.4161C36.8024 41.564 36.8695 41.7423 36.8816 41.9283C36.8938 42.1143 36.8506 42.2998 36.7574 42.4612C36.6961 42.5688 36.6141 42.6631 36.5161 42.7388C36.4181 42.8145 36.3061 42.87 36.1865 42.9022C36.067 42.9343 35.9422 42.9425 35.8195 42.9262C35.6967 42.9098 35.5785 42.8693 35.4715 42.807L35.4698 42.8062ZM36.4144 58.9056C36.1978 59.03 35.9407 59.0636 35.6994 58.9989C35.4581 58.9343 35.2523 58.7767 35.1269 58.5606C35.0331 58.3989 34.9894 58.2129 35.0013 58.0263C35.0133 57.8397 35.0803 57.6609 35.194 57.5124C35.3077 57.364 35.4629 57.2526 35.6399 57.1924C35.8169 57.1322 36.0078 57.1259 36.1884 57.1742C36.369 57.2226 36.5312 57.3235 36.6545 57.4641C36.7777 57.6048 36.8564 57.7788 36.8806 57.9642C36.9049 58.1496 36.8736 58.338 36.7907 58.5056C36.7077 58.6732 36.5765 58.8124 36.4144 58.9056ZM42.9782 46.6319L49.3851 50.3281V57.724L42.9782 54.0277V46.6319ZM50.8279 66.0579C50.8279 66.2447 50.7725 66.4274 50.6687 66.5827C50.5649 66.738 50.4174 66.8591 50.2448 66.9306C50.0722 67.0021 49.8823 67.0208 49.699 66.9844C49.5158 66.9479 49.3475 66.858 49.2154 66.7258C49.0833 66.5937 48.9933 66.4254 48.9568 66.2422C48.9204 66.059 48.9391 65.869 49.0106 65.6964C49.0821 65.5238 49.2032 65.3763 49.3585 65.2725C49.5138 65.1687 49.6965 65.1133 49.8833 65.1133C50.1338 65.1133 50.3741 65.2128 50.5512 65.39C50.7284 65.5671 50.8279 65.8074 50.8279 66.0579ZM50.3852 57.7248V50.3281L56.7921 46.6319V54.0265L50.3852 57.7248ZM64.6422 58.5606C64.5331 58.7493 64.3619 58.8943 64.1579 58.971C63.9539 59.0477 63.7296 59.0513 63.5232 58.9811C63.3169 58.9109 63.1412 58.7714 63.0262 58.5862C62.9112 58.4011 62.8639 58.1818 62.8925 57.9657C62.921 57.7496 63.0236 57.5501 63.1828 57.4012C63.3419 57.2523 63.5478 57.1631 63.7653 57.1489C63.9828 57.1348 64.1984 57.1965 64.3756 57.3235C64.5527 57.4505 64.6803 57.635 64.7366 57.8456C64.8001 58.087 64.7654 58.3438 64.6401 58.5598L64.6422 58.5606Z"/>
</mask>
<path d="M64.7954 56.4065C64.4244 56.193 63.9935 56.1078 63.5693 56.164C63.145 56.2202 62.7512 56.4147 62.4486 56.7174L57.7884 54.0265V46.0528L62.4507 43.3623C62.8165 43.7277 63.3124 43.9328 63.8294 43.9327C64.1701 43.9324 64.5048 43.8423 64.7997 43.6716C65.0946 43.501 65.3395 43.2557 65.5096 42.9605C65.6797 42.6652 65.7692 42.3304 65.769 41.9897C65.7687 41.649 65.6788 41.3143 65.5083 41.0193C65.2726 40.6104 64.8962 40.3014 64.4493 40.1498C64.0024 39.9983 63.5157 40.0146 63.0799 40.1956C62.6442 40.3767 62.2892 40.7102 62.0814 41.1339C61.8735 41.5575 61.827 42.0423 61.9504 42.4978L57.2882 45.1866L50.3831 41.2V35.8198C50.8388 35.6985 51.2348 35.4155 51.4972 35.0238C51.7597 34.632 51.8707 34.1581 51.8095 33.6906C51.7483 33.223 51.5191 32.7936 51.1647 32.4826C50.8103 32.1715 50.3549 32 49.8833 32C49.4117 32 48.9563 32.1715 48.6019 32.4826C48.2475 32.7936 48.0183 33.223 47.9571 33.6906C47.8959 34.1581 48.0069 34.632 48.2694 35.0238C48.5318 35.4155 48.9278 35.6985 49.3835 35.8198V41.2L42.4784 45.1866L37.8182 42.4961C37.9417 42.0407 37.8951 41.5559 37.6873 41.1322C37.4794 40.7086 37.1245 40.3751 36.6887 40.194C36.253 40.0129 35.7662 39.9966 35.3193 40.1482C34.8724 40.2998 34.496 40.6088 34.2603 41.0176C34.0899 41.3126 34.0002 41.6473 34 41.988C33.9998 42.3287 34.0893 42.6634 34.2594 42.9586C34.4295 43.2538 34.6743 43.4991 34.9691 43.6698C35.264 43.8405 35.5986 43.9306 35.9393 43.9311C36.4563 43.9311 36.9521 43.7259 37.318 43.3606L41.9782 46.0528V54.0244L37.318 56.7166C36.985 56.3828 36.5421 56.1815 36.0717 56.1503C35.6013 56.119 35.1356 56.2599 34.7615 56.5467C34.3873 56.8335 34.1302 57.2466 34.0381 57.7089C33.9461 58.1712 34.0253 58.6513 34.2611 59.0595C34.4968 59.4678 34.873 59.7763 35.3195 59.9276C35.766 60.0789 36.2523 60.0627 36.6876 59.882C37.123 59.7012 37.4778 59.3683 37.6858 58.9452C37.8939 58.5222 37.9409 58.0379 37.8182 57.5827L42.4784 54.8922L49.3835 58.8785V64.1802C48.9278 64.3015 48.5318 64.5845 48.2694 64.9762C48.0069 65.368 47.8959 65.8419 47.9571 66.3094C48.0183 66.777 48.2475 67.2064 48.6019 67.5174C48.9563 67.8285 49.4117 68 49.8833 68C50.3549 68 50.8103 67.8285 51.1647 67.5174C51.5191 67.2064 51.7483 66.777 51.8095 66.3094C51.8707 65.8419 51.7597 65.368 51.4972 64.9762C51.2348 64.5845 50.8388 64.3015 50.3831 64.1802V58.8789L57.2886 54.8927L61.9484 57.5831C61.8249 58.0386 61.8715 58.5234 62.0793 58.947C62.2872 59.3707 62.6421 59.7042 63.0779 59.8853C63.5136 60.0664 64.0004 60.0826 64.4473 59.9311C64.8942 59.7795 65.2706 59.4705 65.5063 59.0617C65.7637 58.6152 65.8334 58.0848 65.7001 57.587C65.5668 57.0892 65.2414 56.6646 64.7954 56.4065ZM49.8833 49.462L43.4764 45.7657L49.8833 42.0694L56.2902 45.7657L49.8833 49.462ZM63.3542 41.1745C63.5157 41.0813 63.7011 41.038 63.8871 41.0502C64.0732 41.0624 64.2514 41.1295 64.3993 41.243C64.5472 41.3565 64.6581 41.5113 64.718 41.6878C64.778 41.8643 64.7842 42.0546 64.7359 42.2347C64.6877 42.4148 64.5871 42.5765 64.447 42.6994C64.3068 42.8223 64.1334 42.9009 63.9485 42.9253C63.7637 42.9496 63.5758 42.9186 63.4086 42.8361C63.2414 42.7537 63.1024 42.6235 63.0092 42.462C62.9468 42.355 62.9062 42.2366 62.8897 42.1138C62.8733 41.991 62.8813 41.8661 62.9134 41.7464C62.9455 41.6267 63.001 41.5145 63.0766 41.4163C63.1523 41.3182 63.2466 41.236 63.3542 41.1745ZM48.9407 33.9413C48.9407 33.7544 48.9962 33.5716 49.1001 33.4163C49.204 33.2609 49.3516 33.1398 49.5243 33.0684C49.6971 32.9969 49.8871 32.9784 50.0704 33.015C50.2537 33.0516 50.422 33.1418 50.554 33.2741C50.686 33.4064 50.7758 33.5749 50.8121 33.7583C50.8483 33.9416 50.8293 34.1316 50.7575 34.3042C50.6857 34.4768 50.5643 34.6241 50.4087 34.7277C50.253 34.8312 50.0702 34.8863 49.8833 34.8859C49.6331 34.8853 49.3934 34.7856 49.2167 34.6085C49.04 34.4314 48.9407 34.1914 48.9407 33.9413ZM35.4698 42.8062C35.3084 42.713 35.1782 42.574 35.0958 42.4068C35.0133 42.2396 34.9823 42.0517 35.0066 41.8669C35.0309 41.6821 35.1095 41.5086 35.2325 41.3685C35.3554 41.2283 35.5171 41.1277 35.6972 41.0795C35.8772 41.0312 36.0676 41.0375 36.2441 41.0974C36.4206 41.1573 36.5754 41.2682 36.6889 41.4161C36.8024 41.564 36.8695 41.7423 36.8816 41.9283C36.8938 42.1143 36.8506 42.2998 36.7574 42.4612C36.6961 42.5688 36.6141 42.6631 36.5161 42.7388C36.4181 42.8145 36.3061 42.87 36.1865 42.9022C36.067 42.9343 35.9422 42.9425 35.8195 42.9262C35.6967 42.9098 35.5785 42.8693 35.4715 42.807L35.4698 42.8062ZM36.4144 58.9056C36.1978 59.03 35.9407 59.0636 35.6994 58.9989C35.4581 58.9343 35.2523 58.7767 35.1269 58.5606C35.0331 58.3989 34.9894 58.2129 35.0013 58.0263C35.0133 57.8397 35.0803 57.6609 35.194 57.5124C35.3077 57.364 35.4629 57.2526 35.6399 57.1924C35.8169 57.1322 36.0078 57.1259 36.1884 57.1742C36.369 57.2226 36.5312 57.3235 36.6545 57.4641C36.7777 57.6048 36.8564 57.7788 36.8806 57.9642C36.9049 58.1496 36.8736 58.338 36.7907 58.5056C36.7077 58.6732 36.5765 58.8124 36.4144 58.9056ZM42.9782 46.6319L49.3851 50.3281V57.724L42.9782 54.0277V46.6319ZM50.8279 66.0579C50.8279 66.2447 50.7725 66.4274 50.6687 66.5827C50.5649 66.738 50.4174 66.8591 50.2448 66.9306C50.0722 67.0021 49.8823 67.0208 49.699 66.9844C49.5158 66.9479 49.3475 66.858 49.2154 66.7258C49.0833 66.5937 48.9933 66.4254 48.9568 66.2422C48.9204 66.059 48.9391 65.869 49.0106 65.6964C49.0821 65.5238 49.2032 65.3763 49.3585 65.2725C49.5138 65.1687 49.6965 65.1133 49.8833 65.1133C50.1338 65.1133 50.3741 65.2128 50.5512 65.39C50.7284 65.5671 50.8279 65.8074 50.8279 66.0579ZM50.3852 57.7248V50.3281L56.7921 46.6319V54.0265L50.3852 57.7248ZM64.6422 58.5606C64.5331 58.7493 64.3619 58.8943 64.1579 58.971C63.9539 59.0477 63.7296 59.0513 63.5232 58.9811C63.3169 58.9109 63.1412 58.7714 63.0262 58.5862C62.9112 58.4011 62.8639 58.1818 62.8925 57.9657C62.921 57.7496 63.0236 57.5501 63.1828 57.4012C63.3419 57.2523 63.5478 57.1631 63.7653 57.1489C63.9828 57.1348 64.1984 57.1965 64.3756 57.3235C64.5527 57.4505 64.6803 57.635 64.7366 57.8456C64.8001 58.087 64.7654 58.3438 64.6401 58.5598L64.6422 58.5606Z" fill="#65221A"/>
<path d="M64.7954 56.4065C64.4244 56.193 63.9935 56.1078 63.5693 56.164C63.145 56.2202 62.7512 56.4147 62.4486 56.7174L57.7884 54.0265V46.0528L62.4507 43.3623C62.8165 43.7277 63.3124 43.9328 63.8294 43.9327C64.1701 43.9324 64.5048 43.8423 64.7997 43.6716C65.0946 43.501 65.3395 43.2557 65.5096 42.9605C65.6797 42.6652 65.7692 42.3304 65.769 41.9897C65.7687 41.649 65.6788 41.3143 65.5083 41.0193C65.2726 40.6104 64.8962 40.3014 64.4493 40.1498C64.0024 39.9983 63.5157 40.0146 63.0799 40.1956C62.6442 40.3767 62.2892 40.7102 62.0814 41.1339C61.8735 41.5575 61.827 42.0423 61.9504 42.4978L57.2882 45.1866L50.3831 41.2V35.8198C50.8388 35.6985 51.2348 35.4155 51.4972 35.0238C51.7597 34.632 51.8707 34.1581 51.8095 33.6906C51.7483 33.223 51.5191 32.7936 51.1647 32.4826C50.8103 32.1715 50.3549 32 49.8833 32C49.4117 32 48.9563 32.1715 48.6019 32.4826C48.2475 32.7936 48.0183 33.223 47.9571 33.6906C47.8959 34.1581 48.0069 34.632 48.2694 35.0238C48.5318 35.4155 48.9278 35.6985 49.3835 35.8198V41.2L42.4784 45.1866L37.8182 42.4961C37.9417 42.0407 37.8951 41.5559 37.6873 41.1322C37.4794 40.7086 37.1245 40.3751 36.6887 40.194C36.253 40.0129 35.7662 39.9966 35.3193 40.1482C34.8724 40.2998 34.496 40.6088 34.2603 41.0176C34.0899 41.3126 34.0002 41.6473 34 41.988C33.9998 42.3287 34.0893 42.6634 34.2594 42.9586C34.4295 43.2538 34.6743 43.4991 34.9691 43.6698C35.264 43.8405 35.5986 43.9306 35.9393 43.9311C36.4563 43.9311 36.9521 43.7259 37.318 43.3606L41.9782 46.0528V54.0244L37.318 56.7166C36.985 56.3828 36.5421 56.1815 36.0717 56.1503C35.6013 56.119 35.1356 56.2599 34.7615 56.5467C34.3873 56.8335 34.1302 57.2466 34.0381 57.7089C33.9461 58.1712 34.0253 58.6513 34.2611 59.0595C34.4968 59.4678 34.873 59.7763 35.3195 59.9276C35.766 60.0789 36.2523 60.0627 36.6876 59.882C37.123 59.7012 37.4778 59.3683 37.6858 58.9452C37.8939 58.5222 37.9409 58.0379 37.8182 57.5827L42.4784 54.8922L49.3835 58.8785V64.1802C48.9278 64.3015 48.5318 64.5845 48.2694 64.9762C48.0069 65.368 47.8959 65.8419 47.9571 66.3094C48.0183 66.777 48.2475 67.2064 48.6019 67.5174C48.9563 67.8285 49.4117 68 49.8833 68C50.3549 68 50.8103 67.8285 51.1647 67.5174C51.5191 67.2064 51.7483 66.777 51.8095 66.3094C51.8707 65.8419 51.7597 65.368 51.4972 64.9762C51.2348 64.5845 50.8388 64.3015 50.3831 64.1802V58.8789L57.2886 54.8927L61.9484 57.5831C61.8249 58.0386 61.8715 58.5234 62.0793 58.947C62.2872 59.3707 62.6421 59.7042 63.0779 59.8853C63.5136 60.0664 64.0004 60.0826 64.4473 59.9311C64.8942 59.7795 65.2706 59.4705 65.5063 59.0617C65.7637 58.6152 65.8334 58.0848 65.7001 57.587C65.5668 57.0892 65.2414 56.6646 64.7954 56.4065ZM49.8833 49.462L43.4764 45.7657L49.8833 42.0694L56.2902 45.7657L49.8833 49.462ZM63.3542 41.1745C63.5157 41.0813 63.7011 41.038 63.8871 41.0502C64.0732 41.0624 64.2514 41.1295 64.3993 41.243C64.5472 41.3565 64.6581 41.5113 64.718 41.6878C64.778 41.8643 64.7842 42.0546 64.7359 42.2347C64.6877 42.4148 64.5871 42.5765 64.447 42.6994C64.3068 42.8223 64.1334 42.9009 63.9485 42.9253C63.7637 42.9496 63.5758 42.9186 63.4086 42.8361C63.2414 42.7537 63.1024 42.6235 63.0092 42.462C62.9468 42.355 62.9062 42.2366 62.8897 42.1138C62.8733 41.991 62.8813 41.8661 62.9134 41.7464C62.9455 41.6267 63.001 41.5145 63.0766 41.4163C63.1523 41.3182 63.2466 41.236 63.3542 41.1745ZM48.9407 33.9413C48.9407 33.7544 48.9962 33.5716 49.1001 33.4163C49.204 33.2609 49.3516 33.1398 49.5243 33.0684C49.6971 32.9969 49.8871 32.9784 50.0704 33.015C50.2537 33.0516 50.422 33.1418 50.554 33.2741C50.686 33.4064 50.7758 33.5749 50.8121 33.7583C50.8483 33.9416 50.8293 34.1316 50.7575 34.3042C50.6857 34.4768 50.5643 34.6241 50.4087 34.7277C50.253 34.8312 50.0702 34.8863 49.8833 34.8859C49.6331 34.8853 49.3934 34.7856 49.2167 34.6085C49.04 34.4314 48.9407 34.1914 48.9407 33.9413ZM35.4698 42.8062C35.3084 42.713 35.1782 42.574 35.0958 42.4068C35.0133 42.2396 34.9823 42.0517 35.0066 41.8669C35.0309 41.6821 35.1095 41.5086 35.2325 41.3685C35.3554 41.2283 35.5171 41.1277 35.6972 41.0795C35.8772 41.0312 36.0676 41.0375 36.2441 41.0974C36.4206 41.1573 36.5754 41.2682 36.6889 41.4161C36.8024 41.564 36.8695 41.7423 36.8816 41.9283C36.8938 42.1143 36.8506 42.2998 36.7574 42.4612C36.6961 42.5688 36.6141 42.6631 36.5161 42.7388C36.4181 42.8145 36.3061 42.87 36.1865 42.9022C36.067 42.9343 35.9422 42.9425 35.8195 42.9262C35.6967 42.9098 35.5785 42.8693 35.4715 42.807L35.4698 42.8062ZM36.4144 58.9056C36.1978 59.03 35.9407 59.0636 35.6994 58.9989C35.4581 58.9343 35.2523 58.7767 35.1269 58.5606C35.0331 58.3989 34.9894 58.2129 35.0013 58.0263C35.0133 57.8397 35.0803 57.6609 35.194 57.5124C35.3077 57.364 35.4629 57.2526 35.6399 57.1924C35.8169 57.1322 36.0078 57.1259 36.1884 57.1742C36.369 57.2226 36.5312 57.3235 36.6545 57.4641C36.7777 57.6048 36.8564 57.7788 36.8806 57.9642C36.9049 58.1496 36.8736 58.338 36.7907 58.5056C36.7077 58.6732 36.5765 58.8124 36.4144 58.9056ZM42.9782 46.6319L49.3851 50.3281V57.724L42.9782 54.0277V46.6319ZM50.8279 66.0579C50.8279 66.2447 50.7725 66.4274 50.6687 66.5827C50.5649 66.738 50.4174 66.8591 50.2448 66.9306C50.0722 67.0021 49.8823 67.0208 49.699 66.9844C49.5158 66.9479 49.3475 66.858 49.2154 66.7258C49.0833 66.5937 48.9933 66.4254 48.9568 66.2422C48.9204 66.059 48.9391 65.869 49.0106 65.6964C49.0821 65.5238 49.2032 65.3763 49.3585 65.2725C49.5138 65.1687 49.6965 65.1133 49.8833 65.1133C50.1338 65.1133 50.3741 65.2128 50.5512 65.39C50.7284 65.5671 50.8279 65.8074 50.8279 66.0579ZM50.3852 57.7248V50.3281L56.7921 46.6319V54.0265L50.3852 57.7248ZM64.6422 58.5606C64.5331 58.7493 64.3619 58.8943 64.1579 58.971C63.9539 59.0477 63.7296 59.0513 63.5232 58.9811C63.3169 58.9109 63.1412 58.7714 63.0262 58.5862C62.9112 58.4011 62.8639 58.1818 62.8925 57.9657C62.921 57.7496 63.0236 57.5501 63.1828 57.4012C63.3419 57.2523 63.5478 57.1631 63.7653 57.1489C63.9828 57.1348 64.1984 57.1965 64.3756 57.3235C64.5527 57.4505 64.6803 57.635 64.7366 57.8456C64.8001 58.087 64.7654 58.3438 64.6401 58.5598L64.6422 58.5606Z" stroke="#65221A" stroke-width="0.8" mask="url(#path-2-outside-1_1387_1242)"/>
</svg>
