<svg width="101" height="100" viewBox="0 0 101 100" fill="none" xmlns="http://www.w3.org/2000/svg">
<circle cx="50.5" cy="50" r="50" fill="#F7F4F4"/>
<path d="M64.4 57.725H68.1875C68.3765 57.725 68.5577 57.8001 68.6913 57.9337C68.8249 58.0673 68.9 58.2485 68.9 58.4375V67.4375C68.9 67.6265 68.8249 67.8077 68.6913 67.9413C68.5577 68.0749 68.3765 68.15 68.1875 68.15H59.1875C58.9985 68.15 58.8173 68.0749 58.6837 67.9413C58.5501 67.8077 58.475 67.6265 58.475 67.4375V58.4375C58.475 58.2485 58.5501 58.0673 58.6837 57.9337C58.8173 57.8001 58.9985 57.725 59.1875 57.725H62.975V53.525H51.4625V57.725H55.25C55.439 57.725 55.6202 57.8001 55.7538 57.9337C55.8874 58.0673 55.9625 58.2485 55.9625 58.4375V67.4375C55.9625 67.6265 55.8874 67.8077 55.7538 67.9413C55.6202 68.0749 55.439 68.15 55.25 68.15H46.25C46.061 68.15 45.8798 68.0749 45.7462 67.9413C45.6126 67.8077 45.5375 67.6265 45.5375 67.4375V58.4375C45.5375 58.2485 45.6126 58.0673 45.7462 57.9337C45.8798 57.8001 46.061 57.725 46.25 57.725H50.0375V53.525H38.525V57.725H42.3125C42.5015 57.725 42.6827 57.8001 42.8163 57.9337C42.9499 58.0673 43.025 58.2485 43.025 58.4375V67.4375C43.025 67.6265 42.9499 67.8077 42.8163 67.9413C42.6827 68.0749 42.5015 68.15 42.3125 68.15H33.3125C33.1235 68.15 32.9423 68.0749 32.8087 67.9413L64.4 57.725ZM64.4 57.725V52.8125C64.4 52.6235 64.3249 52.4423 64.1913 52.3087C64.0577 52.1751 63.8765 52.1 63.6875 52.1H51.4625V47.9H58.0625C58.2515 47.9 58.4327 47.8249 58.5663 47.6913C58.6999 47.5577 58.775 47.3765 58.775 47.1875V32.5625C58.775 32.3735 58.6999 32.1923 58.5663 32.0587C58.4327 31.9251 58.2515 31.85 58.0625 31.85H43.4375C43.2485 31.85 43.0673 31.9251 42.9337 32.0587C42.8001 32.1923 42.725 32.3735 42.725 32.5625V47.1875C42.725 47.3765 42.8001 47.5577 42.9337 47.6913C43.0673 47.8249 43.2485 47.9 43.4375 47.9H50.0375V52.1H37.8125C37.6235 52.1 37.4423 52.1751 37.3087 52.3087C37.1751 52.4423 37.1 52.6235 37.1 52.8125V57.725H33.3125C33.1235 57.725 32.9423 57.8001 32.8087 57.9337C32.8087 57.9337 32.8087 57.9337 32.8087 57.9337L64.4 57.725ZM44.15 33.275H57.35V46.475H44.15V33.275ZM34.025 66.725V59.15H41.6V66.725H34.025ZM54.5375 66.725H46.9625V59.15H54.5375V66.725ZM59.9 66.725V59.15H67.475V66.725H59.9Z" fill="#65221A" stroke="#65221A" stroke-width="0.3"/>
</svg>
