<svg width="101" height="100" viewBox="0 0 101 100" fill="none" xmlns="http://www.w3.org/2000/svg">
<circle cx="50.5" cy="50" r="50" fill="#65221A"/>
<mask id="path-2-outside-1_1387_1207" maskUnits="userSpaceOnUse" x="32" y="31" width="38" height="38" fill="black">
<rect fill="white" x="32" y="31" width="38" height="38"/>
<path d="M64.8742 47.5677H58.9271C59.0444 47.3081 59.1082 47.0255 59.1114 46.7357C59.1204 45.8714 58.4717 44.642 57.0396 44.6265H51.5929L49.8739 42.4896C48.8666 41.0813 47.6225 40.3969 46.0702 40.3969H45.4027C46.738 39.6132 47.6372 38.1639 47.6372 36.5075C47.6369 34.0221 45.6137 32 43.1272 32C40.6407 32 38.6179 34.0221 38.6179 36.5075C38.6179 38.1639 39.5171 39.6132 40.8524 40.3969H40.1849C38.6323 40.3969 37.3881 41.0816 36.3809 42.4903L33.3461 46.276C32.9706 46.8351 32.8957 47.5425 33.1456 48.1674L36.1447 53.9951C36.6714 55.2565 37.9306 55.3753 38.655 55.1427L38.6571 65.6341C38.6571 66.9384 39.7256 68 41.0389 68C41.9378 68 42.7215 67.5028 43.1272 66.7717C43.5325 67.5028 44.317 68 45.2155 68C46.5288 68 47.5976 66.9384 47.5976 65.6341V46.2692L48.9901 47.9684C49.0977 48.1138 49.3757 48.4598 49.6532 48.4986C48.5945 49.264 48.1452 50.3407 48.1452 51.663V63.8762C48.1452 66.1496 49.9956 67.9996 52.2704 67.9996H64.8742C67.149 67.9996 68.9998 66.1496 68.9998 63.8759V51.6626C68.9998 49.4044 67.149 47.5677 64.8742 47.5677ZM39.5063 36.5075C39.5063 34.5113 41.1307 32.8878 43.1272 32.8878C45.1237 32.8878 46.7484 34.5113 46.7484 36.5075C46.7484 38.503 45.1241 40.1266 43.1272 40.1266C41.1307 40.1266 39.5063 38.503 39.5063 36.5075ZM42.3399 41.285H43.9149L43.1272 42.3845L42.3399 41.285ZM44.1575 50.8033L43.1276 52.0021L42.0976 50.8033L43.1276 43.6052L44.1575 50.8033ZM38.6553 49.9307L37.5159 47.6512L38.6553 46.2731V49.9307ZM46.7092 65.6337C46.7092 66.4488 46.0392 67.1115 45.2155 67.1115C44.3919 67.1115 43.7219 66.4484 43.7219 65.6337V55.1791H42.5325V65.6337C42.5325 66.4488 41.8625 67.1115 41.0389 67.1115C40.2155 67.1115 39.5456 66.4484 39.5456 65.6337L39.5434 53.4158H46.7092V65.6337ZM46.7092 43.7841V52.8636H39.5434L39.5456 43.7841L36.4619 47.5446L38.6553 51.915V54.17C38.1214 54.525 37.3341 54.4022 36.9579 53.6351L33.9664 47.8265C33.8321 47.4798 33.8735 47.0907 34.078 46.78L37.0947 43.0199C37.9249 41.8524 38.9358 41.285 40.1849 41.285H41.6714L42.7042 42.7268L41.5248 50.9707L43.1276 52.8362L44.7306 50.9707L43.5509 42.7265L44.5837 41.2847H46.0702C47.3194 41.2847 48.3302 41.852 49.1607 43.0195L51.1674 45.5143H57.0367C57.7862 45.5222 58.2294 46.1493 58.2233 46.7257C58.2161 47.3794 57.6793 47.9111 57.0256 47.9118H51.7876C51.7876 47.9118 51.7873 47.9118 51.7869 47.9118H50.5917C50.2504 47.9118 49.9167 47.7318 49.6978 47.4309L46.7092 43.7841ZM68.1113 63.8759C68.1113 65.6597 66.6591 67.1115 64.8742 67.1115H52.2704C50.4855 67.1115 49.0333 65.6597 49.0333 63.8759V51.6626C49.0333 49.894 50.4855 48.4554 52.2704 48.4554H64.8742C66.6591 48.4554 68.1113 49.894 68.1113 51.6626V63.8759ZM64.8742 49.2705H52.2704C50.8941 49.2705 49.8487 50.3634 49.8487 51.6626V63.8759C49.8487 65.2104 50.9352 66.2969 52.2704 66.2969H64.8742C66.2098 66.2969 67.2963 65.2104 67.2963 63.8759V51.6626C67.2963 50.371 66.2591 49.2705 64.8742 49.2705ZM66.7527 63.8759C66.7527 64.9109 65.9103 65.7533 64.8742 65.7533H52.2704C51.2347 65.7533 50.3919 64.9109 50.3919 63.8759V51.6626C50.3919 50.5215 51.3456 49.8133 52.2704 49.8133H64.8742C65.9762 49.8133 66.7527 50.6889 66.7527 51.6626V63.8759Z"/>
</mask>
<path d="M64.8742 47.5677H58.9271C59.0444 47.3081 59.1082 47.0255 59.1114 46.7357C59.1204 45.8714 58.4717 44.642 57.0396 44.6265H51.5929L49.8739 42.4896C48.8666 41.0813 47.6225 40.3969 46.0702 40.3969H45.4027C46.738 39.6132 47.6372 38.1639 47.6372 36.5075C47.6369 34.0221 45.6137 32 43.1272 32C40.6407 32 38.6179 34.0221 38.6179 36.5075C38.6179 38.1639 39.5171 39.6132 40.8524 40.3969H40.1849C38.6323 40.3969 37.3881 41.0816 36.3809 42.4903L33.3461 46.276C32.9706 46.8351 32.8957 47.5425 33.1456 48.1674L36.1447 53.9951C36.6714 55.2565 37.9306 55.3753 38.655 55.1427L38.6571 65.6341C38.6571 66.9384 39.7256 68 41.0389 68C41.9378 68 42.7215 67.5028 43.1272 66.7717C43.5325 67.5028 44.317 68 45.2155 68C46.5288 68 47.5976 66.9384 47.5976 65.6341V46.2692L48.9901 47.9684C49.0977 48.1138 49.3757 48.4598 49.6532 48.4986C48.5945 49.264 48.1452 50.3407 48.1452 51.663V63.8762C48.1452 66.1496 49.9956 67.9996 52.2704 67.9996H64.8742C67.149 67.9996 68.9998 66.1496 68.9998 63.8759V51.6626C68.9998 49.4044 67.149 47.5677 64.8742 47.5677ZM39.5063 36.5075C39.5063 34.5113 41.1307 32.8878 43.1272 32.8878C45.1237 32.8878 46.7484 34.5113 46.7484 36.5075C46.7484 38.503 45.1241 40.1266 43.1272 40.1266C41.1307 40.1266 39.5063 38.503 39.5063 36.5075ZM42.3399 41.285H43.9149L43.1272 42.3845L42.3399 41.285ZM44.1575 50.8033L43.1276 52.0021L42.0976 50.8033L43.1276 43.6052L44.1575 50.8033ZM38.6553 49.9307L37.5159 47.6512L38.6553 46.2731V49.9307ZM46.7092 65.6337C46.7092 66.4488 46.0392 67.1115 45.2155 67.1115C44.3919 67.1115 43.7219 66.4484 43.7219 65.6337V55.1791H42.5325V65.6337C42.5325 66.4488 41.8625 67.1115 41.0389 67.1115C40.2155 67.1115 39.5456 66.4484 39.5456 65.6337L39.5434 53.4158H46.7092V65.6337ZM46.7092 43.7841V52.8636H39.5434L39.5456 43.7841L36.4619 47.5446L38.6553 51.915V54.17C38.1214 54.525 37.3341 54.4022 36.9579 53.6351L33.9664 47.8265C33.8321 47.4798 33.8735 47.0907 34.078 46.78L37.0947 43.0199C37.9249 41.8524 38.9358 41.285 40.1849 41.285H41.6714L42.7042 42.7268L41.5248 50.9707L43.1276 52.8362L44.7306 50.9707L43.5509 42.7265L44.5837 41.2847H46.0702C47.3194 41.2847 48.3302 41.852 49.1607 43.0195L51.1674 45.5143H57.0367C57.7862 45.5222 58.2294 46.1493 58.2233 46.7257C58.2161 47.3794 57.6793 47.9111 57.0256 47.9118H51.7876C51.7876 47.9118 51.7873 47.9118 51.7869 47.9118H50.5917C50.2504 47.9118 49.9167 47.7318 49.6978 47.4309L46.7092 43.7841ZM68.1113 63.8759C68.1113 65.6597 66.6591 67.1115 64.8742 67.1115H52.2704C50.4855 67.1115 49.0333 65.6597 49.0333 63.8759V51.6626C49.0333 49.894 50.4855 48.4554 52.2704 48.4554H64.8742C66.6591 48.4554 68.1113 49.894 68.1113 51.6626V63.8759ZM64.8742 49.2705H52.2704C50.8941 49.2705 49.8487 50.3634 49.8487 51.6626V63.8759C49.8487 65.2104 50.9352 66.2969 52.2704 66.2969H64.8742C66.2098 66.2969 67.2963 65.2104 67.2963 63.8759V51.6626C67.2963 50.371 66.2591 49.2705 64.8742 49.2705ZM66.7527 63.8759C66.7527 64.9109 65.9103 65.7533 64.8742 65.7533H52.2704C51.2347 65.7533 50.3919 64.9109 50.3919 63.8759V51.6626C50.3919 50.5215 51.3456 49.8133 52.2704 49.8133H64.8742C65.9762 49.8133 66.7527 50.6889 66.7527 51.6626V63.8759Z" fill="#F7F4F4"/>
<path d="M64.8742 47.5677H58.9271C59.0444 47.3081 59.1082 47.0255 59.1114 46.7357C59.1204 45.8714 58.4717 44.642 57.0396 44.6265H51.5929L49.8739 42.4896C48.8666 41.0813 47.6225 40.3969 46.0702 40.3969H45.4027C46.738 39.6132 47.6372 38.1639 47.6372 36.5075C47.6369 34.0221 45.6137 32 43.1272 32C40.6407 32 38.6179 34.0221 38.6179 36.5075C38.6179 38.1639 39.5171 39.6132 40.8524 40.3969H40.1849C38.6323 40.3969 37.3881 41.0816 36.3809 42.4903L33.3461 46.276C32.9706 46.8351 32.8957 47.5425 33.1456 48.1674L36.1447 53.9951C36.6714 55.2565 37.9306 55.3753 38.655 55.1427L38.6571 65.6341C38.6571 66.9384 39.7256 68 41.0389 68C41.9378 68 42.7215 67.5028 43.1272 66.7717C43.5325 67.5028 44.317 68 45.2155 68C46.5288 68 47.5976 66.9384 47.5976 65.6341V46.2692L48.9901 47.9684C49.0977 48.1138 49.3757 48.4598 49.6532 48.4986C48.5945 49.264 48.1452 50.3407 48.1452 51.663V63.8762C48.1452 66.1496 49.9956 67.9996 52.2704 67.9996H64.8742C67.149 67.9996 68.9998 66.1496 68.9998 63.8759V51.6626C68.9998 49.4044 67.149 47.5677 64.8742 47.5677ZM39.5063 36.5075C39.5063 34.5113 41.1307 32.8878 43.1272 32.8878C45.1237 32.8878 46.7484 34.5113 46.7484 36.5075C46.7484 38.503 45.1241 40.1266 43.1272 40.1266C41.1307 40.1266 39.5063 38.503 39.5063 36.5075ZM42.3399 41.285H43.9149L43.1272 42.3845L42.3399 41.285ZM44.1575 50.8033L43.1276 52.0021L42.0976 50.8033L43.1276 43.6052L44.1575 50.8033ZM38.6553 49.9307L37.5159 47.6512L38.6553 46.2731V49.9307ZM46.7092 65.6337C46.7092 66.4488 46.0392 67.1115 45.2155 67.1115C44.3919 67.1115 43.7219 66.4484 43.7219 65.6337V55.1791H42.5325V65.6337C42.5325 66.4488 41.8625 67.1115 41.0389 67.1115C40.2155 67.1115 39.5456 66.4484 39.5456 65.6337L39.5434 53.4158H46.7092V65.6337ZM46.7092 43.7841V52.8636H39.5434L39.5456 43.7841L36.4619 47.5446L38.6553 51.915V54.17C38.1214 54.525 37.3341 54.4022 36.9579 53.6351L33.9664 47.8265C33.8321 47.4798 33.8735 47.0907 34.078 46.78L37.0947 43.0199C37.9249 41.8524 38.9358 41.285 40.1849 41.285H41.6714L42.7042 42.7268L41.5248 50.9707L43.1276 52.8362L44.7306 50.9707L43.5509 42.7265L44.5837 41.2847H46.0702C47.3194 41.2847 48.3302 41.852 49.1607 43.0195L51.1674 45.5143H57.0367C57.7862 45.5222 58.2294 46.1493 58.2233 46.7257C58.2161 47.3794 57.6793 47.9111 57.0256 47.9118H51.7876C51.7876 47.9118 51.7873 47.9118 51.7869 47.9118H50.5917C50.2504 47.9118 49.9167 47.7318 49.6978 47.4309L46.7092 43.7841ZM68.1113 63.8759C68.1113 65.6597 66.6591 67.1115 64.8742 67.1115H52.2704C50.4855 67.1115 49.0333 65.6597 49.0333 63.8759V51.6626C49.0333 49.894 50.4855 48.4554 52.2704 48.4554H64.8742C66.6591 48.4554 68.1113 49.894 68.1113 51.6626V63.8759ZM64.8742 49.2705H52.2704C50.8941 49.2705 49.8487 50.3634 49.8487 51.6626V63.8759C49.8487 65.2104 50.9352 66.2969 52.2704 66.2969H64.8742C66.2098 66.2969 67.2963 65.2104 67.2963 63.8759V51.6626C67.2963 50.371 66.2591 49.2705 64.8742 49.2705ZM66.7527 63.8759C66.7527 64.9109 65.9103 65.7533 64.8742 65.7533H52.2704C51.2347 65.7533 50.3919 64.9109 50.3919 63.8759V51.6626C50.3919 50.5215 51.3456 49.8133 52.2704 49.8133H64.8742C65.9762 49.8133 66.7527 50.6889 66.7527 51.6626V63.8759Z" stroke="#F7F4F4" stroke-width="0.6" mask="url(#path-2-outside-1_1387_1207)"/>
</svg>
