<svg width="101" height="100" viewBox="0 0 101 100" fill="none" xmlns="http://www.w3.org/2000/svg">
<circle cx="50.5" cy="50" r="50" fill="#65221A"/>
<mask id="path-2-outside-1_1387_1200" maskUnits="userSpaceOnUse" x="33" y="31" width="34" height="38" fill="black">
<rect fill="white" x="33" y="31" width="34" height="38"/>
<path d="M65.9715 57.2806C65.8027 56.9931 65.5758 56.7439 65.3054 56.5489C65.0349 56.3539 64.7268 56.2174 64.4007 56.1481C63.9926 56.0573 63.5691 56.0619 63.163 56.1613V39.3314C63.163 39.1913 63.1074 39.057 63.0084 38.958C62.9093 38.859 62.775 38.8033 62.635 38.8033H58.5387C58.3987 38.8033 58.2644 38.859 58.1654 38.958C58.0663 39.057 58.0107 39.1913 58.0107 39.3314V59.438L57.1274 60.0363C56.9651 59.5954 56.6764 59.2121 56.2974 58.9345V47.5106C56.2974 47.3706 56.2418 47.2362 56.1428 47.1371C56.0437 47.038 55.9094 46.9823 55.7694 46.9822H51.6745C51.5344 46.9823 51.4001 47.038 51.3011 47.1371C51.2021 47.2362 51.1465 47.3706 51.1465 47.5106V57.3476L49.4318 56.889V44.1543C49.4318 44.0849 49.4182 44.0162 49.3917 43.9521C49.3652 43.888 49.3263 43.8297 49.2773 43.7806C49.2282 43.7315 49.17 43.6926 49.1059 43.666C49.0418 43.6395 48.9731 43.6258 48.9037 43.6258H44.8103C44.7409 43.6258 44.6722 43.6395 44.6081 43.666C44.5441 43.6926 44.4858 43.7315 44.4368 43.7806C44.3877 43.8297 44.3489 43.888 44.3224 43.9521C44.2958 44.0162 44.2822 44.0849 44.2823 44.1543V55.5262C43.713 55.4237 43.1282 55.4463 42.5685 55.5923V49.7794C42.5686 49.71 42.5549 49.6413 42.5284 49.5772C42.5019 49.513 42.463 49.4548 42.414 49.4057C42.365 49.3566 42.3067 49.3177 42.2426 49.2911C42.1786 49.2646 42.1099 49.2509 42.0405 49.2509H37.9461C37.8767 49.2508 37.8079 49.2645 37.7438 49.291C37.6796 49.3175 37.6214 49.3565 37.5723 49.4055C37.5232 49.4546 37.4843 49.5129 37.4577 49.5771C37.4312 49.6412 37.4176 49.71 37.4176 49.7794V57.8818L34.3505 58.9741C34.2187 59.0213 34.1109 59.1188 34.051 59.2453C33.991 59.3718 33.9836 59.517 34.0306 59.6489L36.875 67.6484C36.8981 67.7138 36.934 67.7741 36.9804 67.8256C37.0269 67.8772 37.0831 67.9191 37.1458 67.9489C37.2084 67.9787 37.2764 67.9958 37.3457 67.9993C37.415 68.0028 37.4844 67.9926 37.5497 67.9693L41.6521 66.5103C41.8755 66.4313 42.0809 66.3085 42.2562 66.1491C42.4316 65.9897 42.5733 65.797 42.6732 65.5821C42.6846 65.558 42.6893 65.5349 42.6997 65.5085H44.908C45.7696 65.727 46.5562 65.9303 47.2768 66.1167C50.668 66.9935 52.6697 67.5021 54.2405 67.5017C56.4451 67.5017 57.8017 66.5004 60.9556 64.1089C62.0839 63.2539 63.4881 62.1894 65.2623 60.9281C65.821 60.5234 66.2051 59.9215 66.3368 59.2443C66.4684 58.5671 66.3379 57.8652 65.9715 57.2806ZM59.0668 39.8603H62.1056V56.6639L59.0668 58.7226V39.8603ZM52.2025 48.0391H55.2414V58.4442L52.2025 57.6307V48.0391ZM48.3771 44.6818V56.6058L47.9053 56.4798L45.3379 55.7909V44.6818H48.3771ZM41.5125 50.3074V56.0311C40.8515 56.42 40.3158 56.9902 39.969 57.6741C39.9218 57.6463 39.8798 57.6137 39.8307 57.5901C39.4068 57.386 38.9195 57.3567 38.4741 57.5085V50.3074H41.5125ZM41.7177 65.1324C41.6766 65.2208 41.6182 65.3002 41.5461 65.3659C41.4741 65.4316 41.3896 65.4823 41.2978 65.5151L37.6932 66.7967L35.2032 59.7923L38.7988 58.5112C38.8919 58.4784 38.9907 58.4643 39.0893 58.4697C39.1879 58.4751 39.2845 58.5 39.3735 58.5428C39.461 58.5837 39.5395 58.6417 39.6043 58.7133C39.6691 58.785 39.719 58.8688 39.751 58.96L41.7474 64.5751C41.7795 64.6654 41.7934 64.7611 41.7882 64.8568C41.7831 64.9524 41.7592 65.0461 41.7177 65.1324ZM64.6503 60.0655C62.8629 61.3363 61.4516 62.406 60.3177 63.2657C55.2711 67.0916 55.2687 67.0907 47.5415 65.0928C46.8011 64.9012 45.9919 64.6922 45.1043 64.4666L45.0401 64.4506H42.7992C42.7847 64.3707 42.7646 64.2918 42.7393 64.2146L40.7447 58.6084C40.7447 58.6009 40.7377 58.5943 40.7348 58.5867C40.9702 57.8587 41.4759 57.2488 42.1477 56.8825C42.8194 56.5163 43.6061 56.4216 44.3455 56.6181L47.0153 57.3344H47.0186L55.1036 59.5012C55.5076 59.6149 55.8506 59.8832 56.0581 60.2481C56.2656 60.613 56.3208 61.045 56.2119 61.4504C56.103 61.8557 55.8387 62.2018 55.4762 62.4136C55.1138 62.6253 54.6825 62.6857 54.2759 62.5815L46.1981 60.4161C46.0639 60.3834 45.9223 60.4045 45.8035 60.4749C45.6847 60.5453 45.5982 60.6594 45.5625 60.7927C45.5267 60.9261 45.5446 61.0681 45.6122 61.1885C45.6798 61.3089 45.7919 61.398 45.9244 61.4368L54.0027 63.6017C54.3399 63.6927 54.6918 63.7158 55.0379 63.6696C55.3841 63.6233 55.7176 63.5086 56.019 63.3323C56.3194 63.1593 56.5826 62.9284 56.7932 62.653C57.0038 62.3777 57.1576 62.0632 57.2458 61.7279C57.2938 61.5463 57.3224 61.3602 57.3312 61.1725L62.8634 57.425C63.0527 57.2979 63.2657 57.2105 63.4897 57.1681C63.7137 57.1257 63.944 57.1291 64.1667 57.1782C64.3505 57.2159 64.5245 57.2915 64.6776 57.4C64.8307 57.5085 64.9596 57.6477 65.0561 57.8086C65.2867 58.1663 65.373 58.5981 65.2977 59.017C65.2224 59.4359 64.991 59.8106 64.6503 60.0655ZM37.9386 47.7277C38.5787 47.7262 39.1921 47.4709 39.6442 47.0177C40.0963 46.5645 40.3503 45.9505 40.3503 45.3103C40.3482 44.9211 40.251 44.5384 40.0671 44.1953L44.9406 40.0642C45.3954 40.462 45.984 40.6729 46.5881 40.6544C47.1921 40.636 47.7667 40.3895 48.1964 39.9646L50.3646 41.3741C50.2208 41.7626 50.1795 42.1816 50.2446 42.5907C50.3098 42.9998 50.4793 43.3852 50.7367 43.7098C50.9941 44.0344 51.3308 44.2873 51.7143 44.4439C52.0978 44.6006 52.5152 44.6558 52.9262 44.6043C53.3373 44.5528 53.7282 44.3963 54.0611 44.1498C54.3941 43.9033 54.658 43.5752 54.8273 43.1971C54.9967 42.8191 55.0658 42.4037 55.0279 41.9912C54.9901 41.5786 54.8467 41.1828 54.6114 40.8418L58.6496 36.5101C59.0169 36.7296 59.4363 36.8466 59.8642 36.8489C60.4062 36.85 60.933 36.6695 61.3604 36.3362C61.7878 36.0028 62.0911 35.5359 62.222 35.0099C62.3529 34.4839 62.3038 33.9292 62.0824 33.4345C61.8611 32.9397 61.4804 32.5333 61.001 32.2803C60.5217 32.0273 59.9714 31.9422 59.438 32.0387C58.9046 32.1351 58.4189 32.4075 58.0585 32.8123C57.6981 33.2172 57.4838 33.7311 57.4497 34.2721C57.4156 34.813 57.5638 35.3498 57.8706 35.7966L53.8347 40.1297C53.3807 39.8572 52.8487 39.7442 52.3231 39.8085C51.7975 39.8729 51.3085 40.111 50.9337 40.4851L48.7711 39.0761C48.8734 38.8087 48.9269 38.5252 48.9292 38.239C48.9292 37.5974 48.6743 36.982 48.2206 36.5283C47.7669 36.0746 47.1516 35.8197 46.51 35.8197C45.8683 35.8197 45.253 36.0746 44.7993 36.5283C44.3456 36.982 44.0907 37.5974 44.0907 38.239C44.0915 38.5774 44.164 38.9117 44.3035 39.22L39.3848 43.3875C38.9702 43.068 38.462 42.8939 37.9386 42.892C37.621 42.892 37.3066 42.9546 37.0133 43.0761C36.7199 43.1976 36.4534 43.3757 36.2289 43.6002C36.0044 43.8247 35.8263 44.0913 35.7048 44.3846C35.5833 44.678 35.5207 44.9924 35.5207 45.3099C35.5207 45.6274 35.5833 45.9418 35.7048 46.2351C35.8263 46.5285 36.0044 46.795 36.2289 47.0195C36.4534 47.2441 36.7199 47.4222 37.0133 47.5437C37.3066 47.6652 37.621 47.7277 37.9386 47.7277ZM59.8642 33.0655C60.1335 33.0657 60.3966 33.1458 60.6203 33.2956C60.8441 33.4454 61.0184 33.6582 61.1213 33.907C61.2242 34.1558 61.2509 34.4296 61.1983 34.6936C61.1456 34.9577 61.0159 35.2002 60.8254 35.3905C60.6349 35.5809 60.3923 35.7105 60.1282 35.7629C59.8641 35.8154 59.5904 35.7884 59.3416 35.6854C59.0929 35.5824 58.8803 35.4079 58.7306 35.184C58.581 34.9602 58.5011 34.697 58.501 34.4277C58.5014 34.0664 58.6451 33.72 58.9007 33.4645C59.1563 33.2091 59.5029 33.0656 59.8642 33.0655ZM52.6201 40.846C52.8895 40.845 53.1531 40.9239 53.3776 41.0728C53.602 41.2217 53.7772 41.4339 53.8811 41.6824C53.9849 41.9309 54.0126 42.2047 53.9607 42.469C53.9088 42.7333 53.7797 42.9763 53.5896 43.1671C53.3995 43.358 53.1571 43.4882 52.893 43.5412C52.6289 43.5941 52.3551 43.5676 52.1061 43.4648C51.8571 43.362 51.6442 43.1877 51.4944 42.9638C51.3446 42.74 51.2646 42.4767 51.2645 42.2074C51.2651 41.8475 51.4079 41.5024 51.6619 41.2474C51.9158 40.9924 52.2603 40.8482 52.6201 40.846ZM46.5062 36.8772C46.7753 36.8776 47.0383 36.9577 47.2619 37.1075C47.4856 37.2573 47.6597 37.47 47.7625 37.7188C47.8653 37.9675 47.892 38.2411 47.8393 38.5051C47.7866 38.769 47.6568 39.0114 47.4664 39.2016C47.276 39.3918 47.0335 39.5213 46.7695 39.5738C46.5055 39.6262 46.2319 39.5992 45.9832 39.4962C45.7346 39.3932 45.5221 39.2187 45.3725 38.995C45.2229 38.7712 45.1431 38.5081 45.143 38.239C45.1436 37.8778 45.2875 37.5315 45.543 37.2762C45.7986 37.0209 46.145 36.8774 46.5062 36.8772ZM37.9386 43.9485C38.2077 43.9489 38.4707 44.0291 38.6943 44.1789C38.9179 44.3286 39.0921 44.5414 39.1949 44.7901C39.2976 45.0389 39.3243 45.3125 39.2716 45.5764C39.2189 45.8404 39.0892 46.0828 38.8988 46.273C38.7084 46.4632 38.4658 46.5927 38.2018 46.6451C37.9379 46.6976 37.6643 46.6705 37.4156 46.5675C37.167 46.4645 36.9544 46.2901 36.8049 46.0663C36.6553 45.8426 36.5754 45.5795 36.5753 45.3103C36.5751 45.1313 36.6102 44.954 36.6786 44.7886C36.7471 44.6232 36.8475 44.4729 36.9741 44.3463C37.1008 44.2198 37.2512 44.1196 37.4167 44.0513C37.5822 43.983 37.7595 43.9481 37.9386 43.9485Z"/>
</mask>
<path d="M65.9715 57.2806C65.8027 56.9931 65.5758 56.7439 65.3054 56.5489C65.0349 56.3539 64.7268 56.2174 64.4007 56.1481C63.9926 56.0573 63.5691 56.0619 63.163 56.1613V39.3314C63.163 39.1913 63.1074 39.057 63.0084 38.958C62.9093 38.859 62.775 38.8033 62.635 38.8033H58.5387C58.3987 38.8033 58.2644 38.859 58.1654 38.958C58.0663 39.057 58.0107 39.1913 58.0107 39.3314V59.438L57.1274 60.0363C56.9651 59.5954 56.6764 59.2121 56.2974 58.9345V47.5106C56.2974 47.3706 56.2418 47.2362 56.1428 47.1371C56.0437 47.038 55.9094 46.9823 55.7694 46.9822H51.6745C51.5344 46.9823 51.4001 47.038 51.3011 47.1371C51.2021 47.2362 51.1465 47.3706 51.1465 47.5106V57.3476L49.4318 56.889V44.1543C49.4318 44.0849 49.4182 44.0162 49.3917 43.9521C49.3652 43.888 49.3263 43.8297 49.2773 43.7806C49.2282 43.7315 49.17 43.6926 49.1059 43.666C49.0418 43.6395 48.9731 43.6258 48.9037 43.6258H44.8103C44.7409 43.6258 44.6722 43.6395 44.6081 43.666C44.5441 43.6926 44.4858 43.7315 44.4368 43.7806C44.3877 43.8297 44.3489 43.888 44.3224 43.9521C44.2958 44.0162 44.2822 44.0849 44.2823 44.1543V55.5262C43.713 55.4237 43.1282 55.4463 42.5685 55.5923V49.7794C42.5686 49.71 42.5549 49.6413 42.5284 49.5772C42.5019 49.513 42.463 49.4548 42.414 49.4057C42.365 49.3566 42.3067 49.3177 42.2426 49.2911C42.1786 49.2646 42.1099 49.2509 42.0405 49.2509H37.9461C37.8767 49.2508 37.8079 49.2645 37.7438 49.291C37.6796 49.3175 37.6214 49.3565 37.5723 49.4055C37.5232 49.4546 37.4843 49.5129 37.4577 49.5771C37.4312 49.6412 37.4176 49.71 37.4176 49.7794V57.8818L34.3505 58.9741C34.2187 59.0213 34.1109 59.1188 34.051 59.2453C33.991 59.3718 33.9836 59.517 34.0306 59.6489L36.875 67.6484C36.8981 67.7138 36.934 67.7741 36.9804 67.8256C37.0269 67.8772 37.0831 67.9191 37.1458 67.9489C37.2084 67.9787 37.2764 67.9958 37.3457 67.9993C37.415 68.0028 37.4844 67.9926 37.5497 67.9693L41.6521 66.5103C41.8755 66.4313 42.0809 66.3085 42.2562 66.1491C42.4316 65.9897 42.5733 65.797 42.6732 65.5821C42.6846 65.558 42.6893 65.5349 42.6997 65.5085H44.908C45.7696 65.727 46.5562 65.9303 47.2768 66.1167C50.668 66.9935 52.6697 67.5021 54.2405 67.5017C56.4451 67.5017 57.8017 66.5004 60.9556 64.1089C62.0839 63.2539 63.4881 62.1894 65.2623 60.9281C65.821 60.5234 66.2051 59.9215 66.3368 59.2443C66.4684 58.5671 66.3379 57.8652 65.9715 57.2806ZM59.0668 39.8603H62.1056V56.6639L59.0668 58.7226V39.8603ZM52.2025 48.0391H55.2414V58.4442L52.2025 57.6307V48.0391ZM48.3771 44.6818V56.6058L47.9053 56.4798L45.3379 55.7909V44.6818H48.3771ZM41.5125 50.3074V56.0311C40.8515 56.42 40.3158 56.9902 39.969 57.6741C39.9218 57.6463 39.8798 57.6137 39.8307 57.5901C39.4068 57.386 38.9195 57.3567 38.4741 57.5085V50.3074H41.5125ZM41.7177 65.1324C41.6766 65.2208 41.6182 65.3002 41.5461 65.3659C41.4741 65.4316 41.3896 65.4823 41.2978 65.5151L37.6932 66.7967L35.2032 59.7923L38.7988 58.5112C38.8919 58.4784 38.9907 58.4643 39.0893 58.4697C39.1879 58.4751 39.2845 58.5 39.3735 58.5428C39.461 58.5837 39.5395 58.6417 39.6043 58.7133C39.6691 58.785 39.719 58.8688 39.751 58.96L41.7474 64.5751C41.7795 64.6654 41.7934 64.7611 41.7882 64.8568C41.7831 64.9524 41.7592 65.0461 41.7177 65.1324ZM64.6503 60.0655C62.8629 61.3363 61.4516 62.406 60.3177 63.2657C55.2711 67.0916 55.2687 67.0907 47.5415 65.0928C46.8011 64.9012 45.9919 64.6922 45.1043 64.4666L45.0401 64.4506H42.7992C42.7847 64.3707 42.7646 64.2918 42.7393 64.2146L40.7447 58.6084C40.7447 58.6009 40.7377 58.5943 40.7348 58.5867C40.9702 57.8587 41.4759 57.2488 42.1477 56.8825C42.8194 56.5163 43.6061 56.4216 44.3455 56.6181L47.0153 57.3344H47.0186L55.1036 59.5012C55.5076 59.6149 55.8506 59.8832 56.0581 60.2481C56.2656 60.613 56.3208 61.045 56.2119 61.4504C56.103 61.8557 55.8387 62.2018 55.4762 62.4136C55.1138 62.6253 54.6825 62.6857 54.2759 62.5815L46.1981 60.4161C46.0639 60.3834 45.9223 60.4045 45.8035 60.4749C45.6847 60.5453 45.5982 60.6594 45.5625 60.7927C45.5267 60.9261 45.5446 61.0681 45.6122 61.1885C45.6798 61.3089 45.7919 61.398 45.9244 61.4368L54.0027 63.6017C54.3399 63.6927 54.6918 63.7158 55.0379 63.6696C55.3841 63.6233 55.7176 63.5086 56.019 63.3323C56.3194 63.1593 56.5826 62.9284 56.7932 62.653C57.0038 62.3777 57.1576 62.0632 57.2458 61.7279C57.2938 61.5463 57.3224 61.3602 57.3312 61.1725L62.8634 57.425C63.0527 57.2979 63.2657 57.2105 63.4897 57.1681C63.7137 57.1257 63.944 57.1291 64.1667 57.1782C64.3505 57.2159 64.5245 57.2915 64.6776 57.4C64.8307 57.5085 64.9596 57.6477 65.0561 57.8086C65.2867 58.1663 65.373 58.5981 65.2977 59.017C65.2224 59.4359 64.991 59.8106 64.6503 60.0655ZM37.9386 47.7277C38.5787 47.7262 39.1921 47.4709 39.6442 47.0177C40.0963 46.5645 40.3503 45.9505 40.3503 45.3103C40.3482 44.9211 40.251 44.5384 40.0671 44.1953L44.9406 40.0642C45.3954 40.462 45.984 40.6729 46.5881 40.6544C47.1921 40.636 47.7667 40.3895 48.1964 39.9646L50.3646 41.3741C50.2208 41.7626 50.1795 42.1816 50.2446 42.5907C50.3098 42.9998 50.4793 43.3852 50.7367 43.7098C50.9941 44.0344 51.3308 44.2873 51.7143 44.4439C52.0978 44.6006 52.5152 44.6558 52.9262 44.6043C53.3373 44.5528 53.7282 44.3963 54.0611 44.1498C54.3941 43.9033 54.658 43.5752 54.8273 43.1971C54.9967 42.8191 55.0658 42.4037 55.0279 41.9912C54.9901 41.5786 54.8467 41.1828 54.6114 40.8418L58.6496 36.5101C59.0169 36.7296 59.4363 36.8466 59.8642 36.8489C60.4062 36.85 60.933 36.6695 61.3604 36.3362C61.7878 36.0028 62.0911 35.5359 62.222 35.0099C62.3529 34.4839 62.3038 33.9292 62.0824 33.4345C61.8611 32.9397 61.4804 32.5333 61.001 32.2803C60.5217 32.0273 59.9714 31.9422 59.438 32.0387C58.9046 32.1351 58.4189 32.4075 58.0585 32.8123C57.6981 33.2172 57.4838 33.7311 57.4497 34.2721C57.4156 34.813 57.5638 35.3498 57.8706 35.7966L53.8347 40.1297C53.3807 39.8572 52.8487 39.7442 52.3231 39.8085C51.7975 39.8729 51.3085 40.111 50.9337 40.4851L48.7711 39.0761C48.8734 38.8087 48.9269 38.5252 48.9292 38.239C48.9292 37.5974 48.6743 36.982 48.2206 36.5283C47.7669 36.0746 47.1516 35.8197 46.51 35.8197C45.8683 35.8197 45.253 36.0746 44.7993 36.5283C44.3456 36.982 44.0907 37.5974 44.0907 38.239C44.0915 38.5774 44.164 38.9117 44.3035 39.22L39.3848 43.3875C38.9702 43.068 38.462 42.8939 37.9386 42.892C37.621 42.892 37.3066 42.9546 37.0133 43.0761C36.7199 43.1976 36.4534 43.3757 36.2289 43.6002C36.0044 43.8247 35.8263 44.0913 35.7048 44.3846C35.5833 44.678 35.5207 44.9924 35.5207 45.3099C35.5207 45.6274 35.5833 45.9418 35.7048 46.2351C35.8263 46.5285 36.0044 46.795 36.2289 47.0195C36.4534 47.2441 36.7199 47.4222 37.0133 47.5437C37.3066 47.6652 37.621 47.7277 37.9386 47.7277ZM59.8642 33.0655C60.1335 33.0657 60.3966 33.1458 60.6203 33.2956C60.8441 33.4454 61.0184 33.6582 61.1213 33.907C61.2242 34.1558 61.2509 34.4296 61.1983 34.6936C61.1456 34.9577 61.0159 35.2002 60.8254 35.3905C60.6349 35.5809 60.3923 35.7105 60.1282 35.7629C59.8641 35.8154 59.5904 35.7884 59.3416 35.6854C59.0929 35.5824 58.8803 35.4079 58.7306 35.184C58.581 34.9602 58.5011 34.697 58.501 34.4277C58.5014 34.0664 58.6451 33.72 58.9007 33.4645C59.1563 33.2091 59.5029 33.0656 59.8642 33.0655ZM52.6201 40.846C52.8895 40.845 53.1531 40.9239 53.3776 41.0728C53.602 41.2217 53.7772 41.4339 53.8811 41.6824C53.9849 41.9309 54.0126 42.2047 53.9607 42.469C53.9088 42.7333 53.7797 42.9763 53.5896 43.1671C53.3995 43.358 53.1571 43.4882 52.893 43.5412C52.6289 43.5941 52.3551 43.5676 52.1061 43.4648C51.8571 43.362 51.6442 43.1877 51.4944 42.9638C51.3446 42.74 51.2646 42.4767 51.2645 42.2074C51.2651 41.8475 51.4079 41.5024 51.6619 41.2474C51.9158 40.9924 52.2603 40.8482 52.6201 40.846ZM46.5062 36.8772C46.7753 36.8776 47.0383 36.9577 47.2619 37.1075C47.4856 37.2573 47.6597 37.47 47.7625 37.7188C47.8653 37.9675 47.892 38.2411 47.8393 38.5051C47.7866 38.769 47.6568 39.0114 47.4664 39.2016C47.276 39.3918 47.0335 39.5213 46.7695 39.5738C46.5055 39.6262 46.2319 39.5992 45.9832 39.4962C45.7346 39.3932 45.5221 39.2187 45.3725 38.995C45.2229 38.7712 45.1431 38.5081 45.143 38.239C45.1436 37.8778 45.2875 37.5315 45.543 37.2762C45.7986 37.0209 46.145 36.8774 46.5062 36.8772ZM37.9386 43.9485C38.2077 43.9489 38.4707 44.0291 38.6943 44.1789C38.9179 44.3286 39.0921 44.5414 39.1949 44.7901C39.2976 45.0389 39.3243 45.3125 39.2716 45.5764C39.2189 45.8404 39.0892 46.0828 38.8988 46.273C38.7084 46.4632 38.4658 46.5927 38.2018 46.6451C37.9379 46.6976 37.6643 46.6705 37.4156 46.5675C37.167 46.4645 36.9544 46.2901 36.8049 46.0663C36.6553 45.8426 36.5754 45.5795 36.5753 45.3103C36.5751 45.1313 36.6102 44.954 36.6786 44.7886C36.7471 44.6232 36.8475 44.4729 36.9741 44.3463C37.1008 44.2198 37.2512 44.1196 37.4167 44.0513C37.5822 43.983 37.7595 43.9481 37.9386 43.9485Z" fill="#F7F4F4"/>
<path d="M65.9715 57.2806C65.8027 56.9931 65.5758 56.7439 65.3054 56.5489C65.0349 56.3539 64.7268 56.2174 64.4007 56.1481C63.9926 56.0573 63.5691 56.0619 63.163 56.1613V39.3314C63.163 39.1913 63.1074 39.057 63.0084 38.958C62.9093 38.859 62.775 38.8033 62.635 38.8033H58.5387C58.3987 38.8033 58.2644 38.859 58.1654 38.958C58.0663 39.057 58.0107 39.1913 58.0107 39.3314V59.438L57.1274 60.0363C56.9651 59.5954 56.6764 59.2121 56.2974 58.9345V47.5106C56.2974 47.3706 56.2418 47.2362 56.1428 47.1371C56.0437 47.038 55.9094 46.9823 55.7694 46.9822H51.6745C51.5344 46.9823 51.4001 47.038 51.3011 47.1371C51.2021 47.2362 51.1465 47.3706 51.1465 47.5106V57.3476L49.4318 56.889V44.1543C49.4318 44.0849 49.4182 44.0162 49.3917 43.9521C49.3652 43.888 49.3263 43.8297 49.2773 43.7806C49.2282 43.7315 49.17 43.6926 49.1059 43.666C49.0418 43.6395 48.9731 43.6258 48.9037 43.6258H44.8103C44.7409 43.6258 44.6722 43.6395 44.6081 43.666C44.5441 43.6926 44.4858 43.7315 44.4368 43.7806C44.3877 43.8297 44.3489 43.888 44.3224 43.9521C44.2958 44.0162 44.2822 44.0849 44.2823 44.1543V55.5262C43.713 55.4237 43.1282 55.4463 42.5685 55.5923V49.7794C42.5686 49.71 42.5549 49.6413 42.5284 49.5772C42.5019 49.513 42.463 49.4548 42.414 49.4057C42.365 49.3566 42.3067 49.3177 42.2426 49.2911C42.1786 49.2646 42.1099 49.2509 42.0405 49.2509H37.9461C37.8767 49.2508 37.8079 49.2645 37.7438 49.291C37.6796 49.3175 37.6214 49.3565 37.5723 49.4055C37.5232 49.4546 37.4843 49.5129 37.4577 49.5771C37.4312 49.6412 37.4176 49.71 37.4176 49.7794V57.8818L34.3505 58.9741C34.2187 59.0213 34.1109 59.1188 34.051 59.2453C33.991 59.3718 33.9836 59.517 34.0306 59.6489L36.875 67.6484C36.8981 67.7138 36.934 67.7741 36.9804 67.8256C37.0269 67.8772 37.0831 67.9191 37.1458 67.9489C37.2084 67.9787 37.2764 67.9958 37.3457 67.9993C37.415 68.0028 37.4844 67.9926 37.5497 67.9693L41.6521 66.5103C41.8755 66.4313 42.0809 66.3085 42.2562 66.1491C42.4316 65.9897 42.5733 65.797 42.6732 65.5821C42.6846 65.558 42.6893 65.5349 42.6997 65.5085H44.908C45.7696 65.727 46.5562 65.9303 47.2768 66.1167C50.668 66.9935 52.6697 67.5021 54.2405 67.5017C56.4451 67.5017 57.8017 66.5004 60.9556 64.1089C62.0839 63.2539 63.4881 62.1894 65.2623 60.9281C65.821 60.5234 66.2051 59.9215 66.3368 59.2443C66.4684 58.5671 66.3379 57.8652 65.9715 57.2806ZM59.0668 39.8603H62.1056V56.6639L59.0668 58.7226V39.8603ZM52.2025 48.0391H55.2414V58.4442L52.2025 57.6307V48.0391ZM48.3771 44.6818V56.6058L47.9053 56.4798L45.3379 55.7909V44.6818H48.3771ZM41.5125 50.3074V56.0311C40.8515 56.42 40.3158 56.9902 39.969 57.6741C39.9218 57.6463 39.8798 57.6137 39.8307 57.5901C39.4068 57.386 38.9195 57.3567 38.4741 57.5085V50.3074H41.5125ZM41.7177 65.1324C41.6766 65.2208 41.6182 65.3002 41.5461 65.3659C41.4741 65.4316 41.3896 65.4823 41.2978 65.5151L37.6932 66.7967L35.2032 59.7923L38.7988 58.5112C38.8919 58.4784 38.9907 58.4643 39.0893 58.4697C39.1879 58.4751 39.2845 58.5 39.3735 58.5428C39.461 58.5837 39.5395 58.6417 39.6043 58.7133C39.6691 58.785 39.719 58.8688 39.751 58.96L41.7474 64.5751C41.7795 64.6654 41.7934 64.7611 41.7882 64.8568C41.7831 64.9524 41.7592 65.0461 41.7177 65.1324ZM64.6503 60.0655C62.8629 61.3363 61.4516 62.406 60.3177 63.2657C55.2711 67.0916 55.2687 67.0907 47.5415 65.0928C46.8011 64.9012 45.9919 64.6922 45.1043 64.4666L45.0401 64.4506H42.7992C42.7847 64.3707 42.7646 64.2918 42.7393 64.2146L40.7447 58.6084C40.7447 58.6009 40.7377 58.5943 40.7348 58.5867C40.9702 57.8587 41.4759 57.2488 42.1477 56.8825C42.8194 56.5163 43.6061 56.4216 44.3455 56.6181L47.0153 57.3344H47.0186L55.1036 59.5012C55.5076 59.6149 55.8506 59.8832 56.0581 60.2481C56.2656 60.613 56.3208 61.045 56.2119 61.4504C56.103 61.8557 55.8387 62.2018 55.4762 62.4136C55.1138 62.6253 54.6825 62.6857 54.2759 62.5815L46.1981 60.4161C46.0639 60.3834 45.9223 60.4045 45.8035 60.4749C45.6847 60.5453 45.5982 60.6594 45.5625 60.7927C45.5267 60.9261 45.5446 61.0681 45.6122 61.1885C45.6798 61.3089 45.7919 61.398 45.9244 61.4368L54.0027 63.6017C54.3399 63.6927 54.6918 63.7158 55.0379 63.6696C55.3841 63.6233 55.7176 63.5086 56.019 63.3323C56.3194 63.1593 56.5826 62.9284 56.7932 62.653C57.0038 62.3777 57.1576 62.0632 57.2458 61.7279C57.2938 61.5463 57.3224 61.3602 57.3312 61.1725L62.8634 57.425C63.0527 57.2979 63.2657 57.2105 63.4897 57.1681C63.7137 57.1257 63.944 57.1291 64.1667 57.1782C64.3505 57.2159 64.5245 57.2915 64.6776 57.4C64.8307 57.5085 64.9596 57.6477 65.0561 57.8086C65.2867 58.1663 65.373 58.5981 65.2977 59.017C65.2224 59.4359 64.991 59.8106 64.6503 60.0655ZM37.9386 47.7277C38.5787 47.7262 39.1921 47.4709 39.6442 47.0177C40.0963 46.5645 40.3503 45.9505 40.3503 45.3103C40.3482 44.9211 40.251 44.5384 40.0671 44.1953L44.9406 40.0642C45.3954 40.462 45.984 40.6729 46.5881 40.6544C47.1921 40.636 47.7667 40.3895 48.1964 39.9646L50.3646 41.3741C50.2208 41.7626 50.1795 42.1816 50.2446 42.5907C50.3098 42.9998 50.4793 43.3852 50.7367 43.7098C50.9941 44.0344 51.3308 44.2873 51.7143 44.4439C52.0978 44.6006 52.5152 44.6558 52.9262 44.6043C53.3373 44.5528 53.7282 44.3963 54.0611 44.1498C54.3941 43.9033 54.658 43.5752 54.8273 43.1971C54.9967 42.8191 55.0658 42.4037 55.0279 41.9912C54.9901 41.5786 54.8467 41.1828 54.6114 40.8418L58.6496 36.5101C59.0169 36.7296 59.4363 36.8466 59.8642 36.8489C60.4062 36.85 60.933 36.6695 61.3604 36.3362C61.7878 36.0028 62.0911 35.5359 62.222 35.0099C62.3529 34.4839 62.3038 33.9292 62.0824 33.4345C61.8611 32.9397 61.4804 32.5333 61.001 32.2803C60.5217 32.0273 59.9714 31.9422 59.438 32.0387C58.9046 32.1351 58.4189 32.4075 58.0585 32.8123C57.6981 33.2172 57.4838 33.7311 57.4497 34.2721C57.4156 34.813 57.5638 35.3498 57.8706 35.7966L53.8347 40.1297C53.3807 39.8572 52.8487 39.7442 52.3231 39.8085C51.7975 39.8729 51.3085 40.111 50.9337 40.4851L48.7711 39.0761C48.8734 38.8087 48.9269 38.5252 48.9292 38.239C48.9292 37.5974 48.6743 36.982 48.2206 36.5283C47.7669 36.0746 47.1516 35.8197 46.51 35.8197C45.8683 35.8197 45.253 36.0746 44.7993 36.5283C44.3456 36.982 44.0907 37.5974 44.0907 38.239C44.0915 38.5774 44.164 38.9117 44.3035 39.22L39.3848 43.3875C38.9702 43.068 38.462 42.8939 37.9386 42.892C37.621 42.892 37.3066 42.9546 37.0133 43.0761C36.7199 43.1976 36.4534 43.3757 36.2289 43.6002C36.0044 43.8247 35.8263 44.0913 35.7048 44.3846C35.5833 44.678 35.5207 44.9924 35.5207 45.3099C35.5207 45.6274 35.5833 45.9418 35.7048 46.2351C35.8263 46.5285 36.0044 46.795 36.2289 47.0195C36.4534 47.2441 36.7199 47.4222 37.0133 47.5437C37.3066 47.6652 37.621 47.7277 37.9386 47.7277ZM59.8642 33.0655C60.1335 33.0657 60.3966 33.1458 60.6203 33.2956C60.8441 33.4454 61.0184 33.6582 61.1213 33.907C61.2242 34.1558 61.2509 34.4296 61.1983 34.6936C61.1456 34.9577 61.0159 35.2002 60.8254 35.3905C60.6349 35.5809 60.3923 35.7105 60.1282 35.7629C59.8641 35.8154 59.5904 35.7884 59.3416 35.6854C59.0929 35.5824 58.8803 35.4079 58.7306 35.184C58.581 34.9602 58.5011 34.697 58.501 34.4277C58.5014 34.0664 58.6451 33.72 58.9007 33.4645C59.1563 33.2091 59.5029 33.0656 59.8642 33.0655ZM52.6201 40.846C52.8895 40.845 53.1531 40.9239 53.3776 41.0728C53.602 41.2217 53.7772 41.4339 53.8811 41.6824C53.9849 41.9309 54.0126 42.2047 53.9607 42.469C53.9088 42.7333 53.7797 42.9763 53.5896 43.1671C53.3995 43.358 53.1571 43.4882 52.893 43.5412C52.6289 43.5941 52.3551 43.5676 52.1061 43.4648C51.8571 43.362 51.6442 43.1877 51.4944 42.9638C51.3446 42.74 51.2646 42.4767 51.2645 42.2074C51.2651 41.8475 51.4079 41.5024 51.6619 41.2474C51.9158 40.9924 52.2603 40.8482 52.6201 40.846ZM46.5062 36.8772C46.7753 36.8776 47.0383 36.9577 47.2619 37.1075C47.4856 37.2573 47.6597 37.47 47.7625 37.7188C47.8653 37.9675 47.892 38.2411 47.8393 38.5051C47.7866 38.769 47.6568 39.0114 47.4664 39.2016C47.276 39.3918 47.0335 39.5213 46.7695 39.5738C46.5055 39.6262 46.2319 39.5992 45.9832 39.4962C45.7346 39.3932 45.5221 39.2187 45.3725 38.995C45.2229 38.7712 45.1431 38.5081 45.143 38.239C45.1436 37.8778 45.2875 37.5315 45.543 37.2762C45.7986 37.0209 46.145 36.8774 46.5062 36.8772ZM37.9386 43.9485C38.2077 43.9489 38.4707 44.0291 38.6943 44.1789C38.9179 44.3286 39.0921 44.5414 39.1949 44.7901C39.2976 45.0389 39.3243 45.3125 39.2716 45.5764C39.2189 45.8404 39.0892 46.0828 38.8988 46.273C38.7084 46.4632 38.4658 46.5927 38.2018 46.6451C37.9379 46.6976 37.6643 46.6705 37.4156 46.5675C37.167 46.4645 36.9544 46.2901 36.8049 46.0663C36.6553 45.8426 36.5754 45.5795 36.5753 45.3103C36.5751 45.1313 36.6102 44.954 36.6786 44.7886C36.7471 44.6232 36.8475 44.4729 36.9741 44.3463C37.1008 44.2198 37.2512 44.1196 37.4167 44.0513C37.5822 43.983 37.7595 43.9481 37.9386 43.9485Z" stroke="#F7F4F4" stroke-width="0.6" mask="url(#path-2-outside-1_1387_1200)"/>
</svg>
