<svg width="101" height="100" viewBox="0 0 101 100" fill="none" xmlns="http://www.w3.org/2000/svg">
<circle cx="50.5" cy="50" r="50" fill="#65221A"/>
<path d="M59.1245 62.2085H59.1179V62.3585C59.1179 63.5515 58.1472 64.5282 56.9482 64.5282C55.7489 64.5282 54.7785 63.5578 54.7785 62.3585C54.7785 61.1593 55.7489 60.1888 56.9482 60.1888C57.3945 60.1888 57.759 59.8243 57.759 59.3779C57.759 58.9316 57.3945 58.5671 56.9482 58.5671H39.2477V37.6415C39.2477 36.4485 40.2184 35.4718 41.4174 35.4718H59.8041C59.3742 36.0862 59.1245 36.8376 59.1245 37.6415V62.2085ZM62.9027 33.85H41.4174C39.3255 33.85 37.6259 35.5495 37.6259 37.6415V58.5737H37.1415C35.0497 58.5737 33.35 60.273 33.35 62.3585C33.35 64.4505 35.0495 66.15 37.1415 66.15H56.9482C59.0401 66.15 60.7396 64.4505 60.7396 62.3585V42.1137H65.8833C66.3296 42.1137 66.6942 41.7491 66.6942 41.3028V37.6415C66.6942 35.5495 64.9947 33.85 62.9027 33.85ZM53.1633 62.3585C53.1633 63.1624 53.4131 63.9138 53.8429 64.5282H37.1415C35.9422 64.5282 34.9718 63.5578 34.9718 62.3585C34.9718 61.1593 35.9422 60.1888 37.1415 60.1888H53.8429C53.4131 60.8032 53.1633 61.5546 53.1633 62.3585ZM65.0724 40.4919H60.7396V37.6415C60.7396 36.4485 61.7103 35.4718 62.9093 35.4718C64.1081 35.4718 65.0724 36.4416 65.0724 37.6415V40.4919Z" fill="#F7F4F4" stroke="#F7F4F4" stroke-width="0.3"/>
<path d="M56.3671 50.1739H41.9929C41.5466 50.1739 41.182 50.5384 41.182 50.9847C41.182 51.4311 41.5466 51.7956 41.9929 51.7956H56.3671C56.8135 51.7956 57.178 51.4311 57.178 50.9847C57.178 50.5384 56.8135 50.1739 56.3671 50.1739Z" fill="#F7F4F4" stroke="#F7F4F4" stroke-width="0.3"/>
<path d="M56.3671 54.6084H41.9929C41.5466 54.6084 41.182 54.973 41.182 55.4193C41.182 55.8656 41.5466 56.2302 41.9929 56.2302H56.3671C56.8135 56.2302 57.178 55.8656 57.178 55.4193C57.178 54.973 56.8135 54.6084 56.3671 54.6084Z" fill="#F7F4F4" stroke="#F7F4F4" stroke-width="0.3"/>
<path d="M45.9096 47.3919L45.91 47.3922C46.0556 47.4973 46.2188 47.5461 46.3878 47.5461C46.6387 47.5461 46.8823 47.4323 47.0436 47.2144L47.0442 47.2136L52.6285 39.5674C52.6286 39.5674 52.6286 39.5673 52.6287 39.5672C52.8963 39.202 52.814 38.6988 52.4509 38.4325C52.0857 38.1647 51.5823 38.247 51.316 38.6102L51.3158 38.6104L45.7313 46.2568L45.7313 46.2568L45.7302 46.2584C45.472 46.6215 45.5511 47.1311 45.9096 47.3919Z" fill="#F7F4F4" stroke="#F7F4F4" stroke-width="0.3"/>
<path d="M46.5059 42.9001C47.722 42.9001 48.6716 41.7374 48.6716 40.3577C48.6716 38.9781 47.722 37.8153 46.5059 37.8153C45.2899 37.8153 44.3402 38.9781 44.3402 40.3577C44.3402 41.7374 45.2899 42.9001 46.5059 42.9001ZM46.5059 39.4371C46.6042 39.4371 46.7376 39.5065 46.8539 39.6729C46.9671 39.835 47.0499 40.0721 47.0499 40.3577C47.0499 40.6433 46.9671 40.8805 46.8539 41.0426C46.7376 41.209 46.6042 41.2784 46.5059 41.2784C46.4076 41.2784 46.2743 41.209 46.158 41.0426C46.0448 40.8805 45.962 40.6433 45.962 40.3577C45.962 40.0721 46.0448 39.835 46.158 39.6729C46.2743 39.5065 46.4076 39.4371 46.5059 39.4371Z" fill="#F7F4F4" stroke="#F7F4F4" stroke-width="0.3"/>
<path d="M49.6937 45.473C49.6937 46.8526 50.6434 48.0154 51.8594 48.0154C53.0755 48.0154 54.0251 46.8526 54.0251 45.473C54.0251 44.0933 53.0755 42.9306 51.8594 42.9306C50.6365 42.9306 49.6937 44.0936 49.6937 45.473ZM52.4034 45.473C52.4034 45.7586 52.3206 45.9957 52.2074 46.1578C52.0911 46.3242 51.9577 46.3936 51.8594 46.3936C51.7611 46.3936 51.6278 46.3242 51.5115 46.1578C51.3983 45.9957 51.3155 45.7586 51.3155 45.473C51.3155 45.1874 51.3983 44.9502 51.5115 44.7881C51.6278 44.6217 51.7611 44.5523 51.8594 44.5523C51.954 44.5523 52.0876 44.6212 52.2051 44.7885C52.3193 44.9508 52.4034 45.188 52.4034 45.473Z" fill="#F7F4F4" stroke="#F7F4F4" stroke-width="0.3"/>
</svg>
