<svg width="101" height="100" viewBox="0 0 101 100" fill="none" xmlns="http://www.w3.org/2000/svg">
<circle cx="50.5" cy="50" r="50" fill="#F7F4F4"/>
<path d="M52 53H46C45.6022 53 45.2206 53.158 44.9393 53.4393C44.658 53.7206 44.5 54.1022 44.5 54.5C44.5 54.8978 44.658 55.2794 44.9393 55.5607C45.2206 55.842 45.6022 56 46 56H52C52.3978 56 52.7794 55.842 53.0607 55.5607C53.342 55.2794 53.5 54.8978 53.5 54.5C53.5 54.1022 53.342 53.7206 53.0607 53.4393C52.7794 53.158 52.3978 53 52 53ZM58 38H56.23C55.9205 37.1247 55.3479 36.3665 54.5906 35.8294C53.8333 35.2923 52.9284 35.0026 52 35H49C48.0716 35.0026 47.1667 35.2923 46.4094 35.8294C45.6521 36.3665 45.0795 37.1247 44.77 38H43C41.8065 38 40.6619 38.4741 39.818 39.318C38.9741 40.1619 38.5 41.3065 38.5 42.5V60.5C38.5 61.6935 38.9741 62.8381 39.818 63.682C40.6619 64.5259 41.8065 65 43 65H58C59.1935 65 60.3381 64.5259 61.182 63.682C62.0259 62.8381 62.5 61.6935 62.5 60.5V42.5C62.5 41.3065 62.0259 40.1619 61.182 39.318C60.3381 38.4741 59.1935 38 58 38ZM47.5 39.5C47.5 39.1022 47.658 38.7206 47.9393 38.4393C48.2206 38.158 48.6022 38 49 38H52C52.3978 38 52.7794 38.158 53.0607 38.4393C53.342 38.7206 53.5 39.1022 53.5 39.5V41H47.5V39.5ZM59.5 60.5C59.5 60.8978 59.342 61.2794 59.0607 61.5607C58.7794 61.842 58.3978 62 58 62H43C42.6022 62 42.2206 61.842 41.9393 61.5607C41.658 61.2794 41.5 60.8978 41.5 60.5V42.5C41.5 42.1022 41.658 41.7206 41.9393 41.4393C42.2206 41.158 42.6022 41 43 41H44.5V42.5C44.5 42.8978 44.658 43.2794 44.9393 43.5607C45.2206 43.842 45.6022 44 46 44H55C55.3978 44 55.7794 43.842 56.0607 43.5607C56.342 43.2794 56.5 42.8978 56.5 42.5V41H58C58.3978 41 58.7794 41.158 59.0607 41.4393C59.342 41.7206 59.5 42.1022 59.5 42.5V60.5ZM55 47H46C45.6022 47 45.2206 47.158 44.9393 47.4393C44.658 47.7206 44.5 48.1022 44.5 48.5C44.5 48.8978 44.658 49.2794 44.9393 49.5607C45.2206 49.842 45.6022 50 46 50H55C55.3978 50 55.7794 49.842 56.0607 49.5607C56.342 49.2794 56.5 48.8978 56.5 48.5C56.5 48.1022 56.342 47.7206 56.0607 47.4393C55.7794 47.158 55.3978 47 55 47Z" fill="#65221A"/>
</svg>
