<svg width="101" height="100" viewBox="0 0 101 100" fill="none" xmlns="http://www.w3.org/2000/svg">
<circle cx="50.5" cy="50" r="50" fill="#F7F4F4"/>
<path d="M56.5 35H44.5C43.3065 35 42.1619 35.4741 41.318 36.318C40.4741 37.1619 40 38.3065 40 39.5V60.5C40 61.6935 40.4741 62.8381 41.318 63.682C42.1619 64.5259 43.3065 65 44.5 65H56.5C57.6935 65 58.8381 64.5259 59.682 63.682C60.5259 62.8381 61 61.6935 61 60.5V39.5C61 38.3065 60.5259 37.1619 59.682 36.318C58.8381 35.4741 57.6935 35 56.5 35ZM58 60.5C58 60.8978 57.842 61.2794 57.5607 61.5607C57.2794 61.842 56.8978 62 56.5 62H44.5C44.1022 62 43.7206 61.842 43.4393 61.5607C43.158 61.2794 43 60.8978 43 60.5V59H58V60.5ZM58 56H43V39.5C43 39.1022 43.158 38.7206 43.4393 38.4393C43.7206 38.158 44.1022 38 44.5 38H56.5C56.8978 38 57.2794 38.158 57.5607 38.4393C57.842 38.7206 58 39.1022 58 39.5V56Z" fill="#65221A"/>
</svg>
