<svg width="101" height="100" viewBox="0 0 101 100" fill="none" xmlns="http://www.w3.org/2000/svg">
<circle cx="50.5" cy="50" r="50" fill="#F7F4F4"/>
<path d="M50.5 41C50.1022 41 49.7206 41.158 49.4393 41.4393C49.158 41.7206 49 42.1022 49 42.5V57.5C49 57.8978 49.158 58.2794 49.4393 58.5607C49.7206 58.842 50.1022 59 50.5 59C50.8978 59 51.2794 58.842 51.5607 58.5607C51.842 58.2794 52 57.8978 52 57.5V42.5C52 42.1022 51.842 41.7206 51.5607 41.4393C51.2794 41.158 50.8978 41 50.5 41ZM43 50C42.6022 50 42.2206 50.158 41.9393 50.4393C41.658 50.7206 41.5 51.1022 41.5 51.5V57.5C41.5 57.8978 41.658 58.2794 41.9393 58.5607C42.2206 58.842 42.6022 59 43 59C43.3978 59 43.7794 58.842 44.0607 58.5607C44.342 58.2794 44.5 57.8978 44.5 57.5V51.5C44.5 51.1022 44.342 50.7206 44.0607 50.4393C43.7794 50.158 43.3978 50 43 50ZM58 47C57.6022 47 57.2206 47.158 56.9393 47.4393C56.658 47.7206 56.5 48.1022 56.5 48.5V57.5C56.5 57.8978 56.658 58.2794 56.9393 58.5607C57.2206 58.842 57.6022 59 58 59C58.3978 59 58.7794 58.842 59.0607 58.5607C59.342 58.2794 59.5 57.8978 59.5 57.5V48.5C59.5 48.1022 59.342 47.7206 59.0607 47.4393C58.7794 47.158 58.3978 47 58 47ZM61 35H40C38.8065 35 37.6619 35.4741 36.818 36.318C35.9741 37.1619 35.5 38.3065 35.5 39.5V60.5C35.5 61.6935 35.9741 62.8381 36.818 63.682C37.6619 64.5259 38.8065 65 40 65H61C62.1935 65 63.3381 64.5259 64.182 63.682C65.0259 62.8381 65.5 61.6935 65.5 60.5V39.5C65.5 38.3065 65.0259 37.1619 64.182 36.318C63.3381 35.4741 62.1935 35 61 35ZM62.5 60.5C62.5 60.8978 62.342 61.2794 62.0607 61.5607C61.7794 61.842 61.3978 62 61 62H40C39.6022 62 39.2206 61.842 38.9393 61.5607C38.658 61.2794 38.5 60.8978 38.5 60.5V39.5C38.5 39.1022 38.658 38.7206 38.9393 38.4393C39.2206 38.158 39.6022 38 40 38H61C61.3978 38 61.7794 38.158 62.0607 38.4393C62.342 38.7206 62.5 39.1022 62.5 39.5V60.5Z" fill="#65221A"/>
</svg>
