<svg width="101" height="100" viewBox="0 0 101 100" fill="none" xmlns="http://www.w3.org/2000/svg">
<circle cx="50.5" cy="50" r="50" fill="#65221A"/>
<path d="M43 56C43.5967 56 44.169 55.7629 44.591 55.341C45.0129 54.919 45.25 54.3467 45.25 53.75C45.2573 53.6752 45.2573 53.5998 45.25 53.525L49.435 49.34H49.78H50.125L52.54 51.755C52.54 51.755 52.54 51.83 52.54 51.875C52.54 52.4717 52.7771 53.044 53.199 53.466C53.621 53.8879 54.1933 54.125 54.79 54.125C55.3867 54.125 55.959 53.8879 56.381 53.466C56.8029 53.044 57.04 52.4717 57.04 51.875V51.755L62.5 46.25C62.945 46.25 63.38 46.118 63.75 45.8708C64.12 45.6236 64.4084 45.2722 64.5787 44.861C64.749 44.4499 64.7936 43.9975 64.7068 43.561C64.62 43.1246 64.4057 42.7237 64.091 42.409C63.7763 42.0943 63.3754 41.88 62.939 41.7932C62.5025 41.7064 62.0501 41.751 61.639 41.9213C61.2278 42.0916 60.8764 42.38 60.6292 42.75C60.382 43.12 60.25 43.555 60.25 44C60.2427 44.0748 60.2427 44.1502 60.25 44.225L54.835 49.64H54.595L52 47C52 46.4033 51.7629 45.831 51.341 45.409C50.919 44.9871 50.3467 44.75 49.75 44.75C49.1533 44.75 48.581 44.9871 48.159 45.409C47.7371 45.831 47.5 46.4033 47.5 47L43 51.5C42.4033 51.5 41.831 51.7371 41.409 52.159C40.9871 52.581 40.75 53.1533 40.75 53.75C40.75 54.3467 40.9871 54.919 41.409 55.341C41.831 55.7629 42.4033 56 43 56ZM63.25 62H37.75V36.5C37.75 36.1022 37.592 35.7206 37.3107 35.4393C37.0294 35.158 36.6478 35 36.25 35C35.8522 35 35.4706 35.158 35.1893 35.4393C34.908 35.7206 34.75 36.1022 34.75 36.5V63.5C34.75 63.8978 34.908 64.2794 35.1893 64.5607C35.4706 64.842 35.8522 65 36.25 65H63.25C63.6478 65 64.0294 64.842 64.3107 64.5607C64.592 64.2794 64.75 63.8978 64.75 63.5C64.75 63.1022 64.592 62.7206 64.3107 62.4393C64.0294 62.158 63.6478 62 63.25 62Z" fill="#F7F4F4"/>
</svg>
