<svg width="101" height="100" viewBox="0 0 101 100" fill="none" xmlns="http://www.w3.org/2000/svg">
<circle cx="50.5" cy="50" r="50" fill="#F7F4F4"/>
<path d="M50.25 62H41.25C40.8522 62 40.4706 61.842 40.1893 61.5607C39.908 61.2794 39.75 60.8978 39.75 60.5V39.5C39.75 39.1022 39.908 38.7206 40.1893 38.4393C40.4706 38.158 40.8522 38 41.25 38H48.75V42.5C48.75 43.6935 49.2241 44.8381 50.068 45.682C50.9119 46.5259 52.0565 47 53.25 47H57.75V54.5C57.75 54.8978 57.908 55.2794 58.1893 55.5607C58.4706 55.842 58.8522 56 59.25 56C59.6478 56 60.0294 55.842 60.3107 55.5607C60.592 55.2794 60.75 54.8978 60.75 54.5V45.5C60.75 45.5 60.75 45.5 60.75 45.41C60.7344 45.2722 60.7042 45.1364 60.66 45.005V44.87C60.5879 44.7158 60.4917 44.574 60.375 44.45L51.375 35.45C51.251 35.3333 51.1092 35.2371 50.955 35.165C50.9054 35.1563 50.8546 35.1563 50.805 35.165C50.6591 35.087 50.5024 35.0314 50.34 35H41.25C40.0565 35 38.9119 35.4741 38.068 36.318C37.2241 37.1619 36.75 38.3065 36.75 39.5V60.5C36.75 61.6935 37.2241 62.8381 38.068 63.682C38.9119 64.5259 40.0565 65 41.25 65H50.25C50.6478 65 51.0294 64.842 51.3107 64.5607C51.592 64.2794 51.75 63.8978 51.75 63.5C51.75 63.1022 51.592 62.7206 51.3107 62.4393C51.0294 62.158 50.6478 62 50.25 62ZM51.75 40.115L55.635 44H53.25C52.8522 44 52.4706 43.842 52.1893 43.5607C51.908 43.2794 51.75 42.8978 51.75 42.5V40.115ZM44.25 53H53.25C53.6478 53 54.0294 52.842 54.3107 52.5607C54.592 52.2794 54.75 51.8978 54.75 51.5C54.75 51.1022 54.592 50.7206 54.3107 50.4393C54.0294 50.158 53.6478 50 53.25 50H44.25C43.8522 50 43.4706 50.158 43.1893 50.4393C42.908 50.7206 42.75 51.1022 42.75 51.5C42.75 51.8978 42.908 52.2794 43.1893 52.5607C43.4706 52.842 43.8522 53 44.25 53ZM50.25 56H44.25C43.8522 56 43.4706 56.158 43.1893 56.4393C42.908 56.7206 42.75 57.1022 42.75 57.5C42.75 57.8978 42.908 58.2794 43.1893 58.5607C43.4706 58.842 43.8522 59 44.25 59H50.25C50.6478 59 51.0294 58.842 51.3107 58.5607C51.592 58.2794 51.75 57.8978 51.75 57.5C51.75 57.1022 51.592 56.7206 51.3107 56.4393C51.0294 56.158 50.6478 56 50.25 56ZM44.25 47H45.75C46.1478 47 46.5294 46.842 46.8107 46.5607C47.092 46.2794 47.25 45.8978 47.25 45.5C47.25 45.1022 47.092 44.7206 46.8107 44.4393C46.5294 44.158 46.1478 44 45.75 44H44.25C43.8522 44 43.4706 44.158 43.1893 44.4393C42.908 44.7206 42.75 45.1022 42.75 45.5C42.75 45.8978 42.908 46.2794 43.1893 46.5607C43.4706 46.842 43.8522 47 44.25 47ZM64.815 56.435C64.6756 56.2944 64.5097 56.1828 64.3269 56.1067C64.1441 56.0305 63.948 55.9913 63.75 55.9913C63.552 55.9913 63.3559 56.0305 63.1731 56.1067C62.9903 56.1828 62.8244 56.2944 62.685 56.435L57.75 61.385L55.815 59.435C55.6751 59.2951 55.5091 59.1842 55.3264 59.1085C55.1436 59.0328 54.9478 58.9939 54.75 58.9939C54.5522 58.9939 54.3564 59.0328 54.1736 59.1085C53.9909 59.1842 53.8249 59.2951 53.685 59.435C53.5451 59.5749 53.4342 59.7409 53.3585 59.9236C53.2828 60.1064 53.2439 60.3022 53.2439 60.5C53.2439 60.6978 53.2828 60.8936 53.3585 61.0764C53.4342 61.2591 53.5451 61.4251 53.685 61.565L56.685 64.565C56.8244 64.7056 56.9903 64.8172 57.1731 64.8933C57.3559 64.9695 57.552 65.0087 57.75 65.0087C57.948 65.0087 58.1441 64.9695 58.3269 64.8933C58.5097 64.8172 58.6756 64.7056 58.815 64.565L64.815 58.565C64.9556 58.4256 65.0672 58.2597 65.1433 58.0769C65.2195 57.8941 65.2587 57.698 65.2587 57.5C65.2587 57.302 65.2195 57.1059 65.1433 56.9231C65.0672 56.7403 64.9556 56.5744 64.815 56.435Z" fill="#65221A"/>
</svg>
