<svg width="101" height="100" viewBox="0 0 101 100" fill="none" xmlns="http://www.w3.org/2000/svg">
<circle cx="50.5" cy="50" r="50" fill="#F7F4F4"/>
<path d="M52.5 53H46.5C46.1022 53 45.7206 53.158 45.4393 53.4393C45.158 53.7206 45 54.1022 45 54.5C45 54.8978 45.158 55.2794 45.4393 55.5607C45.7206 55.842 46.1022 56 46.5 56H52.5C52.8978 56 53.2794 55.842 53.5607 55.5607C53.842 55.2794 54 54.8978 54 54.5C54 54.1022 53.842 53.7206 53.5607 53.4393C53.2794 53.158 52.8978 53 52.5 53ZM58.5 38H56.73C56.4205 37.1247 55.8479 36.3665 55.0906 35.8294C54.3333 35.2923 53.4284 35.0026 52.5 35H49.5C48.5716 35.0026 47.6667 35.2923 46.9094 35.8294C46.1521 36.3665 45.5795 37.1247 45.27 38H43.5C42.3065 38 41.1619 38.4741 40.318 39.318C39.4741 40.1619 39 41.3065 39 42.5V60.5C39 61.6935 39.4741 62.8381 40.318 63.682C41.1619 64.5259 42.3065 65 43.5 65H58.5C59.6935 65 60.8381 64.5259 61.682 63.682C62.5259 62.8381 63 61.6935 63 60.5V42.5C63 41.3065 62.5259 40.1619 61.682 39.318C60.8381 38.4741 59.6935 38 58.5 38ZM48 39.5C48 39.1022 48.158 38.7206 48.4393 38.4393C48.7206 38.158 49.1022 38 49.5 38H52.5C52.8978 38 53.2794 38.158 53.5607 38.4393C53.842 38.7206 54 39.1022 54 39.5V41H48V39.5ZM60 60.5C60 60.8978 59.842 61.2794 59.5607 61.5607C59.2794 61.842 58.8978 62 58.5 62H43.5C43.1022 62 42.7206 61.842 42.4393 61.5607C42.158 61.2794 42 60.8978 42 60.5V42.5C42 42.1022 42.158 41.7206 42.4393 41.4393C42.7206 41.158 43.1022 41 43.5 41H45V42.5C45 42.8978 45.158 43.2794 45.4393 43.5607C45.7206 43.842 46.1022 44 46.5 44H55.5C55.8978 44 56.2794 43.842 56.5607 43.5607C56.842 43.2794 57 42.8978 57 42.5V41H58.5C58.8978 41 59.2794 41.158 59.5607 41.4393C59.842 41.7206 60 42.1022 60 42.5V60.5ZM55.5 47H46.5C46.1022 47 45.7206 47.158 45.4393 47.4393C45.158 47.7206 45 48.1022 45 48.5C45 48.8978 45.158 49.2794 45.4393 49.5607C45.7206 49.842 46.1022 50 46.5 50H55.5C55.8978 50 56.2794 49.842 56.5607 49.5607C56.842 49.2794 57 48.8978 57 48.5C57 48.1022 56.842 47.7206 56.5607 47.4393C56.2794 47.158 55.8978 47 55.5 47Z" fill="#65221A"/>
</svg>
