<svg width="101" height="100" viewBox="0 0 101 100" fill="none" xmlns="http://www.w3.org/2000/svg">
<circle cx="50.5" cy="50" r="50" fill="#F7F4F4"/>
<path d="M64 62H62.5V39.5C62.5 39.1022 62.342 38.7206 62.0607 38.4393C61.7794 38.158 61.3978 38 61 38C60.6022 38 60.2206 38.158 59.9393 38.4393C59.658 38.7206 59.5 39.1022 59.5 39.5V62H56.5V51.5C56.5 51.1022 56.342 50.7206 56.0607 50.4393C55.7794 50.158 55.3978 50 55 50C54.6022 50 54.2206 50.158 53.9393 50.4393C53.658 50.7206 53.5 51.1022 53.5 51.5V62H50.5V45.5C50.5 45.1022 50.342 44.7206 50.0607 44.4393C49.7794 44.158 49.3978 44 49 44C48.6022 44 48.2206 44.158 47.9393 44.4393C47.658 44.7206 47.5 45.1022 47.5 45.5V62H44.5V57.5C44.5 57.1022 44.342 56.7206 44.0607 56.4393C43.7794 56.158 43.3978 56 43 56C42.6022 56 42.2206 56.158 41.9393 56.4393C41.658 56.7206 41.5 57.1022 41.5 57.5V62H38.5V36.5C38.5 36.1022 38.342 35.7206 38.0607 35.4393C37.7794 35.158 37.3978 35 37 35C36.6022 35 36.2206 35.158 35.9393 35.4393C35.658 35.7206 35.5 36.1022 35.5 36.5V63.5C35.5 63.8978 35.658 64.2794 35.9393 64.5607C36.2206 64.842 36.6022 65 37 65H64C64.3978 65 64.7794 64.842 65.0607 64.5607C65.342 64.2794 65.5 63.8978 65.5 63.5C65.5 63.1022 65.342 62.7206 65.0607 62.4393C64.7794 62.158 64.3978 62 64 62Z" fill="#65221A"/>
</svg>
