<svg width="101" height="100" viewBox="0 0 101 100" fill="none" xmlns="http://www.w3.org/2000/svg">
<circle cx="50.5" cy="50" r="50" fill="#65221A"/>
<path d="M63.75 47C63.75 57.5 50.25 66.5 50.25 66.5C50.25 66.5 36.75 57.5 36.75 47C36.75 43.4196 38.1723 39.9858 40.7041 37.4541C43.2358 34.9223 46.6696 33.5 50.25 33.5C53.8304 33.5 57.2642 34.9223 59.7959 37.4541C62.3277 39.9858 63.75 43.4196 63.75 47Z" stroke="#F7F4F4" stroke-width="3" stroke-linecap="round" stroke-linejoin="round"/>
<path d="M50.25 51.5C52.7353 51.5 54.75 49.4853 54.75 47C54.75 44.5147 52.7353 42.5 50.25 42.5C47.7647 42.5 45.75 44.5147 45.75 47C45.75 49.4853 47.7647 51.5 50.25 51.5Z" stroke="#F7F4F4" stroke-width="3" stroke-linecap="round" stroke-linejoin="round"/>
</svg>
