<svg width="101" height="100" viewBox="0 0 101 100" fill="none" xmlns="http://www.w3.org/2000/svg">
<circle cx="50.5" cy="50" r="50" fill="#65221A"/>
<path d="M53.935 48.185L49 53.135L47.065 51.185C46.7825 50.9025 46.3995 50.7438 46 50.7438C45.6005 50.7438 45.2175 50.9025 44.935 51.185C44.6525 51.4674 44.4939 51.8505 44.4939 52.25C44.4939 52.6494 44.6525 53.0325 44.935 53.315L47.935 56.315C48.0744 56.4556 48.2403 56.5672 48.4231 56.6433C48.6059 56.7195 48.802 56.7587 49 56.7587C49.198 56.7587 49.3941 56.7195 49.5769 56.6433C49.7597 56.5672 49.9256 56.4556 50.065 56.315L56.065 50.315C56.3475 50.0325 56.5061 49.6494 56.5061 49.25C56.5061 48.8505 56.3475 48.4674 56.065 48.185C55.7825 47.9025 55.3995 47.7438 55 47.7438C54.6005 47.7438 54.2175 47.9025 53.935 48.185ZM61 40.25H51.58L51.1 38.75C50.7888 37.8698 50.2116 37.1082 49.4484 36.5707C48.6851 36.0332 47.7735 35.7464 46.84 35.75H40C38.8065 35.75 37.6619 36.2241 36.818 37.068C35.9741 37.9119 35.5 39.0565 35.5 40.25V59.75C35.5 60.9434 35.9741 62.088 36.818 62.932C37.6619 63.7759 38.8065 64.25 40 64.25H61C62.1935 64.25 63.3381 63.7759 64.182 62.932C65.0259 62.088 65.5 60.9434 65.5 59.75V44.75C65.5 43.5565 65.0259 42.4119 64.182 41.568C63.3381 40.7241 62.1935 40.25 61 40.25ZM62.5 59.75C62.5 60.1478 62.342 60.5293 62.0607 60.8106C61.7794 61.0919 61.3978 61.25 61 61.25H40C39.6022 61.25 39.2206 61.0919 38.9393 60.8106C38.658 60.5293 38.5 60.1478 38.5 59.75V40.25C38.5 39.8521 38.658 39.4706 38.9393 39.1893C39.2206 38.908 39.6022 38.75 40 38.75H46.84C47.1545 38.7492 47.4612 38.8472 47.7169 39.0302C47.9727 39.2133 48.1644 39.472 48.265 39.77L49.075 42.23C49.1756 42.5279 49.3673 42.7867 49.6231 42.9697C49.8788 43.1527 50.1855 43.2508 50.5 43.25H61C61.3978 43.25 61.7794 43.408 62.0607 43.6893C62.342 43.9706 62.5 44.3521 62.5 44.75V59.75Z" fill="#F7F4F4"/>
</svg>
